<svg width="101" height="76" viewBox="0 0 101 76" xmlns="http://www.w3.org/2000/svg" xmlns:xlink="http://www.w3.org/1999/xlink">
    <defs>
        <path d="M39.0740143,27.3859902 L36.4314214,16.527697 C36.3361929,16.2421212 36.3540482,15.9624949 36.4849875,15.6888182 C36.6159268,15.4151414 36.8242393,15.2307071 37.109925,15.1355152 L39.2168571,14.4215758 L39.2168571,6.42545455 C39.2168571,5.83050505 39.4251696,5.33074747 39.8417946,4.92618182 C40.2584196,4.52161616 40.7643214,4.30743434 41.3595,4.28363636 L46.7161071,4.28363636 L46.7161071,0 L54.5724643,0 L54.5724643,4.28363636 L59.9290714,4.28363636 C60.52425,4.28363636 61.0301518,4.49186869 61.4467768,4.90833333 C61.8634018,5.32479798 62.0717143,5.83050505 62.0717143,6.42545455 L62.0717143,14.4572727 L64.2143571,15.1355152 C64.4762357,15.2307071 64.6726446,15.4091919 64.8035839,15.6709697 C64.9345232,15.9327475 64.9523786,16.2064242 64.85715,16.492 L62.2145571,27.3859902 C61.0718143,27.2670003 60.0064446,26.9219296 59.0184482,26.3507781 C58.0304518,25.7796266 57.1555393,25.1013841 56.3937107,24.3160508 C55.6318821,25.1727781 54.7688732,25.8986165 53.8046839,26.493566 C52.8404946,27.0885155 51.7870286,27.3859902 50.6442857,27.3859902 C49.5015429,27.3859902 48.4480768,27.0885155 47.4838875,26.493566 C46.5196982,25.8986165 45.6566893,25.1727781 44.8948607,24.3160508 C44.1330321,25.1013841 43.2581196,25.7796266 42.2701232,26.3507781 C41.2821268,26.9219296 40.2167571,27.2670003 39.0740143,27.3859902 Z M41.3595,13.7433333 L50.6442857,10.7447879 L59.9290714,13.7790303 L59.9290714,6.42545455 C59.9290714,6.42545455 59.9290714,6.42545455 59.9290714,6.42545455 C59.9290714,6.42545455 59.9290714,6.42545455 59.9290714,6.42545455 L41.3595,6.42545455 C41.3595,6.42545455 41.3595,6.42545455 41.3595,6.42545455 C41.3595,6.42545455 41.3595,6.42545455 41.3595,6.42545455 L41.3595,13.7433333 Z M10.9657143,31.4133333 L10.965,31.407 L10.8655461,31.405684 C10.0318103,31.3750866 9.2068199,31.252697 8.390575,31.0385152 C7.43828929,30.7886364 6.49790714,30.4257172 5.56942857,29.9497576 C4.64095,30.4257172 3.68866429,30.7886364 2.71257143,31.0385152 C2.06184286,31.205101 1.15765238,31.3300404 0,31.4133333 L0,29.2001212 C1.22907381,29.1049293 2.168975,28.9621414 2.81970357,28.7717576 C3.79579643,28.4861818 4.71237143,28.0578182 5.56942857,27.4866667 C6.42648571,28.0578182 7.34306071,28.4980808 8.31915357,28.8074545 C9.29524643,29.1168283 10.2832429,29.2715152 11.2831429,29.2715152 L13.8225714,29.2715152 C14.8224714,29.2715152 15.8104679,29.1168283 16.7865607,28.8074545 C17.7626536,28.4980808 18.6792286,28.0578182 19.5362857,27.4866667 C20.3933429,28.0578182 21.3099179,28.4861818 22.2860107,28.7717576 C23.2621036,29.0573333 24.2501,29.2001212 25.25,29.2001212 C26.2499,29.2001212 27.2378964,29.0573333 28.2139893,28.7717576 C29.1900821,28.4861818 30.1066571,28.0578182 30.9637143,27.4866667 C31.8207714,28.0578182 32.7373464,28.4980808 33.7134393,28.8074545 C34.6895321,29.1168283 35.6775286,29.2715152 36.6774286,29.2715152 L39.2168571,29.2715152 C40.2167571,29.2715152 41.2047536,29.1168283 42.1808464,28.8074545 C43.1569393,28.4980808 44.0735143,28.0578182 44.9305714,27.4866667 C45.7876286,28.0578182 46.7042036,28.4861818 47.6802964,28.7717576 C48.6563893,29.0573333 49.6443857,29.2001212 50.6442857,29.2001212 C51.6441857,29.2001212 52.6321821,29.0573333 53.608275,28.7717576 C54.5843679,28.4861818 55.5009429,28.0578182 56.358,27.4866667 C57.2150571,28.0578182 58.1316321,28.4980808 59.107725,28.8074545 C60.0838179,29.1168283 61.0718143,29.2715152 62.0717143,29.2715152 L64.3225714,29.2715152 C65.3224714,29.2715152 66.3104679,29.1168283 67.2865607,28.8074545 C68.2626536,28.4980808 69.1792286,28.0578182 70.0362857,27.4866667 C70.8933429,28.0578182 71.8099179,28.4861818 72.7860107,28.7717576 C73.7621036,29.0573333 74.7501,29.2001212 75.75,29.2001212 C76.7499,29.2001212 77.7378964,29.0573333 78.7139893,28.7717576 C79.6900821,28.4861818 80.6066571,28.0578182 81.4637143,27.4866667 C82.3207714,28.0578182 83.2373464,28.4980808 84.2134393,28.8074545 C85.1895321,29.1168283 86.1775286,29.2715152 87.1774286,29.2715152 L89.4282857,29.2715152 C90.4281857,29.2715152 91.4161821,29.1168283 92.392275,28.8074545 C93.3683679,28.4980808 94.2849429,28.0578182 95.142,27.4866667 C95.9990571,28.0578182 96.9156321,28.4861818 97.891725,28.7717576 C98.5424536,28.9621414 99.5785452,29.1049293 101,29.2001212 L101,31.4133333 C99.6499667,31.3300404 98.6495857,31.205101 97.9988571,31.0385152 C97.0227643,30.7886364 96.0704786,30.4257172 95.142,29.9497576 C94.2135214,30.4257172 93.2731393,30.7886364 92.3208536,31.0385152 C91.5662675,31.2365178 90.8042072,31.3560723 90.0346729,31.3971787 L90.0342857,31.4133333 L86.5714286,31.4133333 L86.5715885,31.3972079 C85.8018682,31.3561289 85.0396256,31.2365647 84.2848607,31.0385152 C83.332575,30.7886364 82.3921929,30.4257172 81.4637143,29.9497576 C80.5352357,30.4257172 79.58295,30.7886364 78.6068571,31.0385152 C77.6307643,31.2883939 76.6784786,31.4133333 75.75,31.4133333 C74.8215214,31.4133333 73.8692357,31.2883939 72.8931429,31.0385152 C71.91705,30.7886364 70.9647643,30.4257172 70.0362857,29.9497576 C69.1078071,30.4257172 68.167425,30.7886364 67.2151393,31.0385152 C66.4603744,31.2365647 65.6981318,31.3561289 64.9284115,31.3972079 L64.9285714,31.4133333 L61.4657143,31.4133333 L61.4653271,31.3971787 C60.6957928,31.3560723 59.9337325,31.2365178 59.1791464,31.0385152 C58.2268607,30.7886364 57.2864786,30.4257172 56.358,29.9497576 C55.4295214,30.4257172 54.4772357,30.7886364 53.5011429,31.0385152 C52.52505,31.2883939 51.5727643,31.4133333 50.6442857,31.4133333 C49.7158071,31.4133333 48.7635214,31.2883939 47.7874286,31.0385152 C46.8113357,30.7886364 45.85905,30.4257172 44.9305714,29.9497576 C44.0020929,30.4257172 43.0617107,30.7886364 42.109425,31.0385152 C41.2606345,31.2612369 40.4023871,31.3847006 39.534683,31.4089062 L39.5342857,31.4133333 L36.36,31.4133333 L36.36,31.407 L36.2598319,31.405684 C35.426096,31.3750866 34.6011056,31.252697 33.7848607,31.0385152 C32.832575,30.7886364 31.8921929,30.4257172 30.9637143,29.9497576 C30.0352357,30.4257172 29.08295,30.7886364 28.1068571,31.0385152 C27.1307643,31.2883939 26.1784786,31.4133333 25.25,31.4133333 C24.3215214,31.4133333 23.3692357,31.2883939 22.3931429,31.0385152 C21.41705,30.7886364 20.4647643,30.4257172 19.5362857,29.9497576 C18.6078071,30.4257172 17.667425,30.7886364 16.7151393,31.0385152 C15.8660233,31.2613223 15.0074432,31.3847953 14.1393991,31.408934 L14.14,31.4133333 L10.9657143,31.4133333 Z" id="path-1"></path>
    </defs>
    <g stroke="none" stroke-width="1" fill="none" fill-rule="evenodd">
        <g transform="translate(0.000000, -597.000000)">
            <g transform="translate(0.000000, 352.000000)">
                <g transform="translate(0.000000, 220.000000)">
                    <g transform="translate(0.000000, 25.000000)">
                        <rect fill="#333333" x="0" y="70.9333333" width="101" height="5.06666667"></rect>
                        <rect fill="#FFB4B4" x="0" y="61.8133333" width="101" height="9.12"></rect>
                        <rect fill="#66CCFF" x="0" y="52.6933333" width="101" height="9.12"></rect>
                        <rect fill="#CCFFFF" x="0" y="39.52" width="101" height="9.12"></rect>
                        <rect fill="#CCCCFF" x="0" y="47.6266667" width="101" height="5.06666667"></rect>
                        <g transform="translate(0.000000, 9.120000)" fill-rule="nonzero">
                            <g id="Shape">
                                <use fill="#999999" xlink:href="#path-1"></use>
                                <use fill="#009AE1" xlink:href="#path-1"></use>
                            </g>
                        </g>
                    </g>
                </g>
            </g>
        </g>
    </g>
</svg>
