<?xml version="1.0" encoding="UTF-8"?>
<svg width="24px" height="24px" viewBox="0 0 24 24" version="1.1" xmlns="http://www.w3.org/2000/svg" xmlns:xlink="http://www.w3.org/1999/xlink">
    <title>EECF7D3D-11D2-43F4-A872-A4EF119311B3</title>
    <g id="Squat-laskuri" stroke="none" stroke-width="1" fill="none" fill-rule="evenodd">
        <g id="colors_and_typography" transform="translate(-860.000000, -795.000000)">
            <g id="icons" transform="translate(722.000000, 748.000000)">
                <g id="share_icon" transform="translate(138.000000, 47.000000)">
                    <rect id="Rectangle" x="0" y="0" width="24" height="24"></rect>
                    <path d="M18.1539528,22 C17.371706,22 16.7018031,21.7208333 16.1442441,21.1625 C15.5866852,20.6041667 15.3079057,19.9333333 15.3079057,19.15 C15.3079057,19.0333333 15.3203883,18.8958333 15.3453537,18.7375 C15.370319,18.5791667 15.407767,18.4333333 15.4576976,18.3 L7.89320388,13.9 C7.64355062,14.1833333 7.33564494,14.4125 6.96948682,14.5875 C6.60332871,14.7625 6.22884882,14.85 5.84604716,14.85 C5.06380028,14.85 4.39389736,14.5708333 3.83633842,14.0125 C3.27877947,13.4541667 3,12.7833333 3,12 C3,11.2 3.27877947,10.525 3.83633842,9.975 C4.39389736,9.425 5.06380028,9.15 5.84604716,9.15 C6.22884882,9.15 6.59500693,9.225 6.9445215,9.375 C7.29403606,9.525 7.61026352,9.74166667 7.89320388,10.025 L15.4576976,5.675 C15.407767,5.55833333 15.370319,5.425 15.3453537,5.275 C15.3203883,5.125 15.3079057,4.98333333 15.3079057,4.85 C15.3079057,4.05 15.5866852,3.375 16.1442441,2.825 C16.7018031,2.275 17.371706,2 18.1539528,2 C18.9528433,2 19.6269071,2.275 20.1761442,2.825 C20.7253814,3.375 21,4.05 21,4.85 C21,5.63333333 20.7253814,6.30416667 20.1761442,6.8625 C19.6269071,7.42083333 18.9528433,7.7 18.1539528,7.7 C17.7711512,7.7 17.4008322,7.6375 17.0429958,7.5125 C16.6851595,7.3875 16.3814147,7.18333333 16.1317614,6.9 L8.56726768,11.1 C8.60055479,11.2333333 8.629681,11.3875 8.65464632,11.5625 C8.67961165,11.7375 8.69209431,11.8833333 8.69209431,12 C8.69209431,12.1166667 8.67961165,12.2416667 8.65464632,12.375 C8.629681,12.5083333 8.60055479,12.6416667 8.56726768,12.775 L16.1317614,17.075 C16.3814147,16.8416667 16.6726768,16.6541667 17.0055479,16.5125 C17.3384189,16.3708333 17.7212205,16.3 18.1539528,16.3 C18.9528433,16.3 19.6269071,16.575 20.1761442,17.125 C20.7253814,17.675 21,18.35 21,19.15 C21,19.9333333 20.7253814,20.6041667 20.1761442,21.1625 C19.6269071,21.7208333 18.9528433,22 18.1539528,22 Z M18.1539528,6.2 C18.5367545,6.2 18.8571429,6.07083333 19.1151179,5.8125 C19.3730929,5.55416667 19.5020804,5.23333333 19.5020804,4.85 C19.5020804,4.46666667 19.3730929,4.14583333 19.1151179,3.8875 C18.8571429,3.62916667 18.5367545,3.5 18.1539528,3.5 C17.7711512,3.5 17.4507628,3.62916667 17.1927878,3.8875 C16.9348128,4.14583333 16.8058252,4.46666667 16.8058252,4.85 C16.8058252,5.23333333 16.9348128,5.55416667 17.1927878,5.8125 C17.4507628,6.07083333 17.7711512,6.2 18.1539528,6.2 Z M5.84604716,13.35 C6.22884882,13.35 6.54923717,13.2208333 6.80721221,12.9625 C7.06518724,12.7041667 7.19417476,12.3833333 7.19417476,12 C7.19417476,11.6166667 7.06518724,11.2958333 6.80721221,11.0375 C6.54923717,10.7791667 6.22884882,10.65 5.84604716,10.65 C5.46324549,10.65 5.14285714,10.7791667 4.88488211,11.0375 C4.62690707,11.2958333 4.49791956,11.6166667 4.49791956,12 C4.49791956,12.3833333 4.62690707,12.7041667 4.88488211,12.9625 C5.14285714,13.2208333 5.46324549,13.35 5.84604716,13.35 Z M18.1539528,20.5 C18.5367545,20.5 18.8571429,20.3708333 19.1151179,20.1125 C19.3730929,19.8541667 19.5020804,19.5333333 19.5020804,19.15 C19.5020804,18.7666667 19.3730929,18.4458333 19.1151179,18.1875 C18.8571429,17.9291667 18.5367545,17.8 18.1539528,17.8 C17.7711512,17.8 17.4507628,17.9291667 17.1927878,18.1875 C16.9348128,18.4458333 16.8058252,18.7666667 16.8058252,19.15 C16.8058252,19.5333333 16.9348128,19.8541667 17.1927878,20.1125 C17.4507628,20.3708333 17.7711512,20.5 18.1539528,20.5 Z" id="Shape" stroke="#0064AF" fill="#0064AF" fill-rule="nonzero"></path>
                </g>
            </g>
        </g>
    </g>
</svg>