<svg width="101" height="76" viewBox="0 0 101 76" xmlns="http://www.w3.org/2000/svg" xmlns:xlink="http://www.w3.org/1999/xlink">
    <defs>
        <path d="M39.0678938,27.4598884 L36.4257149,16.5722952 C36.3305012,16.2859488 36.3483538,16.005568 36.4792726,15.7311528 C36.6101914,15.4567375 36.8184712,15.2718055 37.1041122,15.1763567 L39.2107143,14.4604908 L39.2107143,6.44279295 C39.2107143,5.84623805 39.4189942,5.34513193 39.8355539,4.93947459 C40.2521137,4.53381726 40.7579362,4.3190575 41.3530216,4.2951953 L46.7087897,4.2951953 L46.7087897,0 L54.5639162,0 L54.5639162,4.2951953 L59.9196843,4.2951953 C60.5147696,4.2951953 61.0205922,4.50398951 61.4371519,4.92157795 C61.8537117,5.33916638 62.0619915,5.84623805 62.0619915,6.44279295 L62.0619915,14.4962841 L64.2042988,15.1763567 C64.4661363,15.2718055 64.6625145,15.450772 64.7934333,15.7132561 C64.924352,15.9757403 64.9422046,16.2501555 64.8469909,16.5365019 L62.204812,27.4598884 C61.0622482,27.3405774 59.9970454,26.9945755 59.0092037,26.4218828 C58.021362,25.8491901 57.1465866,25.1691175 56.3848773,24.3816651 C55.6231681,25.2407041 54.7602944,25.9685011 53.7962561,26.565056 C52.8322178,27.1616109 51.7789168,27.4598884 50.6363529,27.4598884 C49.4937891,27.4598884 48.440488,27.1616109 47.4764497,26.565056 C46.5124115,25.9685011 45.6495377,25.2407041 44.8878285,24.3816651 C44.1261193,25.1691175 43.2513438,25.8491901 42.2635021,26.4218828 C41.2756605,26.9945755 40.2104577,27.3405774 39.0678938,27.4598884 Z M41.3530216,13.7804183 L50.6363529,10.7737815 L59.9196843,13.8162115 L59.9196843,6.44279295 C59.9196843,6.44279295 59.9196843,6.44279295 59.9196843,6.44279295 C59.9196843,6.44279295 59.9196843,6.44279295 59.9196843,6.44279295 L41.3530216,6.44279295 C41.3530216,6.44279295 41.3530216,6.44279295 41.3530216,6.44279295 C41.3530216,6.44279295 41.3530216,6.44279295 41.3530216,6.44279295 L41.3530216,13.7804183 Z M10.9639966,31.4980989 L10.963,31.492 L10.8638442,31.4904289 C10.0302389,31.4597489 9.20537777,31.337029 8.38926072,31.1222693 C7.43712417,30.8717162 6.49688933,30.5078177 5.56855619,30.0305738 C4.64022305,30.5078177 3.6880865,30.8717162 2.71214654,31.1222693 C2.0615199,31.2893046 1.15747105,31.4145812 0,31.4980989 L0,29.2789146 C1.22888129,29.1834658 2.16863526,29.0402927 2.8192619,28.8493951 C3.79520186,28.5630487 4.71163329,28.1335292 5.56855619,27.5608365 C6.42547909,28.1335292 7.34191052,28.5749798 8.31785048,28.8851884 C9.29379045,29.1953969 10.2816321,29.3505012 11.2813755,29.3505012 L13.8204063,29.3505012 C14.8201497,29.3505012 15.8079913,29.1953969 16.7839313,28.8851884 C17.7598713,28.5749798 18.6763027,28.1335292 19.5332256,27.5608365 C20.3901485,28.1335292 21.3065799,28.5630487 22.2825199,28.8493951 C23.2584599,29.1357414 24.2463015,29.2789146 25.2460449,29.2789146 C26.2457883,29.2789146 27.23363,29.1357414 28.2095699,28.8493951 C29.1855099,28.5630487 30.1019413,28.1335292 30.9588642,27.5608365 C31.8157871,28.1335292 32.7322185,28.5749798 33.7081585,28.8851884 C34.6840985,29.1953969 35.6719401,29.3505012 36.6716835,29.3505012 L39.2107143,29.3505012 C40.2104577,29.3505012 41.1982994,29.1953969 42.1742393,28.8851884 C43.1501793,28.5749798 44.0666107,28.1335292 44.9235336,27.5608365 C45.7804565,28.1335292 46.6968879,28.5630487 47.6728279,28.8493951 C48.6487679,29.1357414 49.6366095,29.2789146 50.6363529,29.2789146 C51.6360963,29.2789146 52.623938,29.1357414 53.5998779,28.8493951 C54.5758179,28.5630487 55.4922493,28.1335292 56.3491722,27.5608365 C57.2060951,28.1335292 58.1225266,28.5749798 59.0984665,28.8851884 C60.0744065,29.1953969 61.0622482,29.3505012 62.0619915,29.3505012 L64.3124961,29.3505012 C65.3122395,29.3505012 66.3000812,29.1953969 67.2760211,28.8851884 C68.2519611,28.5749798 69.1683925,28.1335292 70.0253154,27.5608365 C70.8822383,28.1335292 71.7986697,28.5630487 72.7746097,28.8493951 C73.7505497,29.1357414 74.7383913,29.2789146 75.7381347,29.2789146 C76.7378781,29.2789146 77.7257198,29.1357414 78.7016597,28.8493951 C79.6775997,28.5630487 80.5940311,28.1335292 81.450954,27.5608365 C82.3078769,28.1335292 83.2243083,28.5749798 84.2002483,28.8851884 C85.1761883,29.1953969 86.1640299,29.3505012 87.1637733,29.3505012 L89.4142779,29.3505012 C90.4140213,29.3505012 91.4018629,29.1953969 92.3778029,28.8851884 C93.3537429,28.5749798 94.2701743,28.1335292 95.1270972,27.5608365 C95.9840201,28.1335292 96.9004515,28.5630487 97.8763915,28.8493951 C98.5270181,29.0402927 99.5629475,29.1834658 100.98418,29.2789146 L100.98418,31.4980989 C99.6343578,31.4145812 98.6341335,31.2893046 97.9835069,31.1222693 C97.0075669,30.8717162 96.0554303,30.5078177 95.1270972,30.0305738 C94.1987641,30.5078177 93.2585292,30.8717162 92.3063927,31.1222693 C91.552073,31.3207672 90.7902832,31.4406362 90.0210235,31.4818763 L90.020183,31.4980989 L86.5578682,31.4980989 L86.5570278,31.4818763 C85.787768,31.4406362 85.0259783,31.3207672 84.2716586,31.1222693 C83.319522,30.8717162 82.3792872,30.5078177 81.450954,30.0305738 C80.5226209,30.5078177 79.5704843,30.8717162 78.5945444,31.1222693 C77.6186044,31.3728223 76.6664679,31.4980989 75.7381347,31.4980989 C74.8098016,31.4980989 73.857665,31.3728223 72.8817251,31.1222693 C71.9057851,30.8717162 70.9536485,30.5078177 70.0253154,30.0305738 C69.0969823,30.5078177 68.1567474,30.8717162 67.2046109,31.1222693 C66.4499642,31.3208532 65.687841,31.4407401 64.9182413,31.4819299 L64.9184012,31.4980989 L61.4560865,31.4980989 L61.4562463,31.4819299 C60.6866466,31.4407401 59.9245234,31.3208532 59.1698768,31.1222693 C58.2177402,30.8717162 57.2775054,30.5078177 56.3491722,30.0305738 C55.4208391,30.5078177 54.4687025,30.8717162 53.4927626,31.1222693 C52.5168226,31.3728223 51.5646861,31.4980989 50.6363529,31.4980989 C49.7080198,31.4980989 48.7558832,31.3728223 47.7799433,31.1222693 C46.8040033,30.8717162 45.8518668,30.5078177 44.9235336,30.0305738 C43.9952005,30.5078177 43.0549656,30.8717162 42.1028291,31.1222693 C41.2541715,31.345592 40.3960586,31.4693888 39.5284904,31.4936597 L39.5280932,31.4980989 L36.3543047,31.4980989 L36.354,31.492 L36.2541522,31.4904289 C35.4205469,31.4597489 34.5956858,31.337029 33.7795687,31.1222693 C32.8274322,30.8717162 31.8871973,30.5078177 30.9588642,30.0305738 C30.0305311,30.5078177 29.0783945,30.8717162 28.1024546,31.1222693 C27.1265146,31.3728223 26.174378,31.4980989 25.2460449,31.4980989 C24.3177118,31.4980989 23.3655752,31.3728223 22.3896353,31.1222693 C21.4136953,30.8717162 20.4615587,30.5078177 19.5332256,30.0305738 C18.6048925,30.5078177 17.6646576,30.8717162 16.7125211,31.1222693 C15.8637854,31.3456126 15.0055928,31.4694116 14.137943,31.4936664 L14.1377851,31.4980989 L10.9639966,31.4980989 Z" id="path-1"></path>
    </defs>
    <g stroke="none" stroke-width="1" fill="none" fill-rule="evenodd">
        <rect fill="#FFB4B4" x="0" y="62.1292776" width="100.98418" height="9.24714829"></rect>
        <rect fill="#66CCFF" x="0" y="52.8821293" width="100.98418" height="9.24714829"></rect>
        <rect fill="#CCFFFF" x="0" y="39.0114068" width="100.98418" height="9.24714829"></rect>
        <rect fill="#CCCCFF" x="0" y="48.2585551" width="100.98418" height="4.62357414"></rect>
        <path d="M89.4431305,71.3764259 L100.98418,48.2585551 L101,71.3764259 L100.98418,71.3764259 L100.98418,76 L0,76 L0,71.3764259 L0.025156191,71.3764259 L0,48.2585551 L11.5410491,71.3764259 L89.4431305,71.3764259 Z" fill="#333333"></path>
        <g transform="translate(0.000000, 8.958175)" fill-rule="nonzero">
            <g id="Shape">
                <use fill="#999999" xlink:href="#path-1"></use>
                <use fill="#009AE1" xlink:href="#path-1"></use>
            </g>
        </g>
    </g>         
</svg>
