<?xml version="1.0" encoding="UTF-8"?>
<svg width="24px" height="24px" viewBox="0 0 24 24" version="1.1" xmlns="http://www.w3.org/2000/svg" xmlns:xlink="http://www.w3.org/1999/xlink">
    <title>665962C8-CE33-4EC7-B50C-B2DCE05E16A6</title>
    <g id="Squat-laskuri" stroke="none" stroke-width="1" fill="none" fill-rule="evenodd">
        <g id="colors_and_typography" transform="translate(-866.000000, -1010.000000)">
            <g id="turvalaite_ikonit" transform="translate(722.000000, 914.000000)">
                <g id="Asset-30" transform="translate(144.000000, 96.000000)">
                    <rect id="Rectangle" x="0" y="0" width="24" height="24"></rect>
                    <path d="M10,3.73 L14,3.73 L12,7.16 L10,3.73 Z M14,10.41 L10,10.41 L12,6.98 L14,10.41 Z M12,20.86 C11.56,20.86 11.19,21.01 10.89,21.32 C10.59,21.63 10.43,22 10.43,22.43 C10.43,22.86 10.58,23.24 10.89,23.54 C11.2,23.84 11.57,24 12,24 C12.43,24 12.79,23.85 13.1,23.54 C13.41,23.24 13.57,22.86 13.57,22.43 C13.57,22 13.41,21.62 13.1,21.32 C12.79,21.02 12.42,20.86 12,20.86 Z M12,21.29 C11.24,21.29 10.86,21.67 10.86,22.43 C10.86,23.19 11.24,23.57 12,23.57 C12.76,23.57 13.14,23.19 13.14,22.43 C13.14,21.67 12.76,21.29 12,21.29 Z M11.57,10.38 L11.57,20.86 L12.43,20.86 L12.43,10.38 L11.57,10.38 Z M12,22 C12.29,22 12.43,22.14 12.43,22.43 C12.43,22.72 12.29,22.86 12,22.86 C11.71,22.86 11.57,22.72 11.57,22.43 C11.57,22.14 11.71,22 12,22 Z" id="Shape" fill="#231F20" fill-rule="nonzero"></path>
                </g>
            </g>
        </g>
    </g>
</svg>