<?xml version="1.0" encoding="UTF-8"?>
<svg width="32px" height="32px" viewBox="0 0 32 32" version="1.1" xmlns="http://www.w3.org/2000/svg" xmlns:xlink="http://www.w3.org/1999/xlink">
    <title>C0DEFDEC-6063-41C9-A56E-1F626D27CAD3</title>
    <g id="Squat-laskuri" stroke="none" stroke-width="1" fill="none" fill-rule="evenodd">
        <g id="colors_and_typography" transform="translate(-958.000000, -1002.000000)">
            <g id="turvalaite_ikonit" transform="translate(718.000000, 906.000000)">
                <g id="Asset-32" transform="translate(240.000000, 96.000000)">
                    <rect id="Rectangle" x="0" y="0" width="32" height="32"></rect>
                    <path d="M18.6666667,8.97333333 L13.3333333,8.97333333 L16,4.41333333 L18.6666667,8.97333333 Z M13.3333333,9.73333333 L18.6666667,9.73333333 L16,14.2933333 L13.3333333,9.73333333 Z M16,27.8133333 C15.4133333,27.8133333 14.92,28.0133333 14.52,28.4266667 C14.12,28.84 13.9066667,29.3333333 13.9066667,29.9066667 C13.9066667,30.48 14.1066667,30.9866667 14.52,31.3866667 C14.9333333,31.7866667 15.4266667,32 16,32 C16.5733333,32 17.04,31.8 17.4666667,31.3866667 C17.8933333,30.9733333 18.0933333,30.48 18.0933333,29.9066667 C18.0933333,29.3333333 17.88,28.8266667 17.4666667,28.4266667 C17.0533333,28.0266667 16.56,27.8133333 16,27.8133333 Z M16,28.3866667 C14.9866667,28.3866667 14.48,28.8933333 14.48,29.9066667 C14.48,30.92 14.9866667,31.4266667 16,31.4266667 C17.0133333,31.4266667 17.52,30.92 17.52,29.9066667 C17.52,28.8933333 17.0133333,28.3866667 16,28.3866667 Z M15.4266667,8.97333333 L15.4266667,9.73333333 L16.5733333,9.73333333 L16.5733333,8.97333333 L15.4266667,8.97333333 Z M15.4266667,14.2666667 L16.5733333,14.2666667 L16.5733333,27.8133333 L15.4266667,27.8133333 L15.4266667,14.2666667 Z M16,29.3333333 C16.3866667,29.3333333 16.5733333,29.52 16.5733333,29.9066667 C16.5733333,30.2933333 16.3866667,30.48 16,30.48 C15.6133333,30.48 15.4266667,30.2933333 15.4266667,29.9066667 C15.4266667,29.52 15.6133333,29.3333333 16,29.3333333 Z" id="Shape" fill="#231F20" fill-rule="nonzero"></path>
                </g>
            </g>
        </g>
    </g>
</svg>