<svg width="32" height="32" viewBox="0 0 32 32" xmlns="http://www.w3.org/2000/svg">
  <g fill="none" fill-rule="evenodd">
    <path d="M0 0h32v32H0z"/>
    <path d="M16 4.21333333c1.8266667 0 3.4.65333334 4.7066667 1.96 1.3066666 1.30666667 1.96 2.88 1.96 4.70666667 0 1.8266667-.6533334 3.4266667-1.96 4.72C19.4 16.8933333 17.8266667 17.5466667 16 17.5466667c-1.8266667 0-3.4-.6533334-4.7066667-1.9466667-1.30666663-1.2933333-1.95999997-2.8666667-1.95999997-4.72 0-1.85333333.65333334-3.4 1.95999997-4.70666667 1.3066667-1.30666666 2.88-1.96 4.7066667-1.96ZM16 5.16c-1.6 0-2.9466667.56-4.0533333 1.69333333C10.84 7.98666667 10.2933333 9.32 10.2933333 10.8666667c0 1.5466666.5466667 2.9466666 1.6533334 4.0533333C13.0533333 16.0266667 14.4 16.5733333 16 16.5733333s2.92-.5466666 4.04-1.6533333 1.68-2.4533333 1.68-4.0533333c0-1.60000003-.56-2.88000003-1.68-4.01333337C18.92 5.72 17.5733333 5.16 16 5.16Zm-4.76 25.6933333h9.52V32h-9.52v-1.1466667Zm8 .04L16 18.7866667l-3.24 12.1066666h6.48ZM12.96 7.82666667h6.0933333V13.92H12.96V7.82666667Zm1.1466667 1.14666666v3.79999997h3.8V8.97333333h-3.8ZM15.44 13.92v2.6666667h1.1466667V13.92H15.44Zm0 3.6933333h1.1466667v1.1733334H15.44v-1.1733334Zm0 3.3066667v-2.1333333h.5733333L15.44 20.92Zm1.1466667-.04-.5733334-2.0933333h.5733334V20.88Z" fill="#EC0E0E" fill-rule="nonzero"/>
  </g>
</svg>
