<?xml version="1.0" encoding="UTF-8"?>
<svg width="24px" height="24px" viewBox="0 0 24 24" version="1.1" xmlns="http://www.w3.org/2000/svg" xmlns:xlink="http://www.w3.org/1999/xlink">
    <title>F16A4898-EEA1-46F7-9A93-38AB0CEB9A36</title>
    <g id="Squat-laskuri" stroke="none" stroke-width="1" fill="none" fill-rule="evenodd">
        <g id="colors_and_typography" transform="translate(-1010.000000, -1010.000000)">
            <g id="turvalaite_ikonit" transform="translate(722.000000, 914.000000)">
                <g id="Asset-33" transform="translate(288.000000, 96.000000)">
                    <rect id="Rectangle" x="0" y="0" width="24" height="24"></rect>
                    <path style="fill: red;" d="M12,3.16 C13.37,3.16 14.55,3.65 15.53,4.63 C16.51,5.61 17,6.79 17,8.16 C17,9.53 16.51,10.73 15.53,11.7 C14.55,12.67 13.37,13.16 12,13.16 C10.63,13.16 9.45,12.67 8.47,11.7 C7.49,10.73 7,9.55 7,8.16 C7,6.77 7.49,5.61 8.47,4.63 C9.45,3.65 10.63,3.16 12,3.16 L12,3.16 Z M12,3.87 C10.8,3.87 9.79,4.29 8.96,5.14 C8.13,5.99 7.72,6.99 7.72,8.15 C7.72,9.31 8.13,10.36 8.96,11.19 C9.79,12.02 10.8,12.43 12,12.43 C13.2,12.43 14.19,12.02 15.03,11.19 C15.87,10.36 16.29,9.35 16.29,8.15 C16.29,6.95 15.87,5.99 15.03,5.14 C14.19,4.29 13.18,3.87 12,3.87 L12,3.87 Z M8.43,23.14 L15.57,23.14 L15.57,24 L8.43,24 L8.43,23.14 Z M14.43,23.17 L12,14.09 L9.57,23.17 L14.42,23.17 L14.43,23.17 Z M9.72,5.87 L14.29,5.87 L14.29,10.44 L9.72,10.44 L9.72,5.87 Z M10.58,6.73 L10.58,9.58 L13.43,9.58 L13.43,6.73 L10.58,6.73 Z M11.58,10.44 L11.58,12.44 L12.44,12.44 L12.44,10.44 L11.58,10.44 Z M11.58,13.21 L12.44,13.21 L12.44,14.09 L11.58,14.09 L11.58,13.21 Z M11.58,15.69 L11.58,14.09 L12.01,14.09 L11.58,15.69 Z M12.44,15.66 L12.01,14.09 L12.44,14.09 L12.44,15.66 Z" id="Shape"></path>
                </g>
            </g>
        </g>
    </g>
</svg>