<?xml version="1.0" encoding="UTF-8"?>
<svg width="24px" height="24px" viewBox="0 0 24 24" version="1.1" xmlns="http://www.w3.org/2000/svg" xmlns:xlink="http://www.w3.org/1999/xlink">
    <title>61A9E581-855D-4B64-B4E9-8DD24B629016</title>
    <g id="Squat-laskuri" stroke="none" stroke-width="1" fill="none" fill-rule="evenodd">
        <g id="colors_and_typography" transform="translate(-1058.000000, -1010.000000)">
            <g id="turvalaite_ikonit" transform="translate(722.000000, 914.000000)">
                <g id="Asset-34" transform="translate(336.000000, 96.000000)">
                    <rect id="Rectangle" x="0" y="0" width="24" height="24"></rect>
                    <path d="M8.43,23.14 L15.57,23.14 L15.57,24 L8.43,24 L8.43,23.14 Z M14.43,23.17 L12,14.09 L9.57,23.17 L14.43,23.17 Z M9.72,5.87 L14.29,5.87 L14.29,10.44 L9.72,10.44 L9.72,5.87 Z M10.58,6.73 L10.58,9.58 L13.43,9.58 L13.43,6.73 L10.58,6.73 Z M11.58,10.44 L11.58,14.1 L12.44,14.1 L12.44,10.44 L11.58,10.44 Z M11.58,15.7 L11.58,14.1 L12.01,14.1 L11.58,15.7 Z M12.44,15.67 L12.01,14.1 L12.44,14.1 L12.44,15.67 Z" id="Shape" fill="#231F20" fill-rule="nonzero"></path>
                </g>
            </g>
        </g>
    </g>
</svg>