<?xml version="1.0" encoding="UTF-8"?>
<svg width="24px" height="24px" viewBox="0 0 24 24" version="1.1" xmlns="http://www.w3.org/2000/svg" xmlns:xlink="http://www.w3.org/1999/xlink">
    <title>422726D0-013C-4A3D-A42D-31483015E587</title>
    <g id="Squat-laskuri" stroke="none" stroke-width="1" fill="none" fill-rule="evenodd">
        <g id="colors_and_typography" transform="translate(-1154.000000, -1010.000000)">
            <g id="turvalaite_ikonit" transform="translate(722.000000, 914.000000)">
                <g id="Asset-36" transform="translate(432.000000, 96.000000)">
                    <rect id="Rectangle" x="0" y="0" width="24" height="24"></rect>
                    <path d="M8.43,23.14 L15.57,23.14 L15.57,24 L8.43,24 L8.43,23.14 Z M15.31,10.15 L8.68,10.15 L11.99,4.44 L15.3,10.15 L15.31,10.15 Z M14.42,23.14 L9.56,23.14 L11.99,14.09 L14.42,23.14 Z M11.56,10.15 L11.56,14.09 L12.42,14.09 L12.42,10.15 L11.56,10.15 Z M11.56,15.69 L11.56,14.09 L11.99,14.09 L11.56,15.69 Z M12.42,15.66 L11.99,14.09 L12.42,14.09 L12.42,15.66 Z" id="Shape" fill="#231F20" fill-rule="nonzero"></path>
                </g>
            </g>
        </g>
    </g>
</svg>