<?xml version="1.0" encoding="UTF-8"?>
<svg width="32px" height="32px" viewBox="0 0 32 32" version="1.1" xmlns="http://www.w3.org/2000/svg" xmlns:xlink="http://www.w3.org/1999/xlink">
    <title>422726D0-013C-4A3D-A42D-31483015E587</title>
    <g id="Squat-laskuri" stroke="none" stroke-width="1" fill="none" fill-rule="evenodd">
        <g id="colors_and_typography" transform="translate(-1150.000000, -1002.000000)">
            <g id="turvalaite_ikonit" transform="translate(718.000000, 906.000000)">
                <g id="Asset-36" transform="translate(432.000000, 96.000000)">
                    <rect id="Rectangle" x="0" y="0" width="32" height="32"></rect>
                    <path d="M11.24,30.8533333 L20.76,30.8533333 L20.76,32 L11.24,32 L11.24,30.8533333 Z M20.4133333,13.5333333 L11.5733333,13.5333333 L15.9866667,5.92 L20.4,13.5333333 L20.4133333,13.5333333 Z M19.2266667,30.8533333 L12.7466667,30.8533333 L15.9866667,18.7866667 L19.2266667,30.8533333 Z M15.4133333,13.5333333 L15.4133333,18.7866667 L16.56,18.7866667 L16.56,13.5333333 L15.4133333,13.5333333 Z M15.4133333,20.92 L15.4133333,18.7866667 L15.9866667,18.7866667 L15.4133333,20.92 Z M16.56,20.88 L15.9866667,18.7866667 L16.56,18.7866667 L16.56,20.88 Z" id="Shape" fill="#231F20" fill-rule="nonzero"></path>
                </g>
            </g>
        </g>
    </g>
</svg>