<?xml version="1.0" encoding="UTF-8"?>
<svg width="24px" height="24px" viewBox="0 0 24 24" version="1.1" xmlns="http://www.w3.org/2000/svg" xmlns:xlink="http://www.w3.org/1999/xlink">
    <title>71D8D4EA-65E4-481E-9EB3-12AB29B42282</title>
    <g id="Squat-laskuri" stroke="none" stroke-width="1" fill="none" fill-rule="evenodd">
        <g id="colors_and_typography" transform="translate(-1202.000000, -1010.000000)">
            <g id="turvalaite_ikonit" transform="translate(722.000000, 914.000000)">
                <g id="Asset-38" transform="translate(480.000000, 96.000000)">
                    <rect id="Rectangle" x="0" y="0" width="24" height="24"></rect>
                    <path style="fill: red;" d="M12,3.13 C13.37,3.13 14.55,3.62 15.53,4.6 C16.51,5.58 17,6.76 17,8.13 C17,9.5 16.51,10.7 15.53,11.67 C14.55,12.64 13.37,13.13 12,13.13 C10.63,13.13 9.45,12.64 8.47,11.67 C7.49,10.7 7,9.52 7,8.13 C7,6.74 7.49,5.58 8.47,4.6 C9.45,3.62 10.63,3.13 12,3.13 Z M12,3.84 C10.8,3.84 9.79,4.26 8.96,5.11 C8.13,5.96 7.72,6.96 7.72,8.12 C7.72,9.28 8.13,10.33 8.96,11.16 C9.79,11.99 10.8,12.4 12,12.4 C13.2,12.4 14.19,11.99 15.03,11.16 C15.87,10.33 16.29,9.32 16.29,8.12 C16.29,6.92 15.87,5.96 15.03,5.11 C14.19,4.26 13.18,3.84 12,3.84 Z M8.43,23.14 L15.57,23.14 L15.57,24 L8.43,24 L8.43,23.14 Z M14.43,23.14 L9.58,23.14 L12.01,14.09 L14.44,23.14 L14.43,23.14 Z M14,7.98 L10,7.98 L12,4.55 L14,7.98 Z M14,11.41 L10,11.41 L12,7.98 L14,11.41 Z M11.57,11.44 L12.43,11.44 L12.43,12.41 L11.57,12.41 L11.57,11.44 Z M11.57,13.18 L12.43,13.18 L12.43,14.06 L11.57,14.06 L11.57,13.18 Z M11.57,15.69 L11.57,14.06 L12,14.06 L11.57,15.69 Z M12.43,15.63 L12,14.06 L12.43,14.06 L12.43,15.63 Z" id="Shape"></path>
                </g>
            </g>
        </g>
    </g>
</svg>