<?xml version="1.0" encoding="UTF-8"?>
<svg width="32px" height="32px" viewBox="0 0 32 32" version="1.1" xmlns="http://www.w3.org/2000/svg" xmlns:xlink="http://www.w3.org/1999/xlink">
    <title>71D8D4EA-65E4-481E-9EB3-12AB29B42282</title>
    <g id="Squat-laskuri" stroke="none" stroke-width="1" fill="none" fill-rule="evenodd">
        <g id="colors_and_typography" transform="translate(-1198.000000, -1002.000000)">
            <g id="turvalaite_ikonit" transform="translate(718.000000, 906.000000)">
                <g id="Asset-38" transform="translate(480.000000, 96.000000)">
                    <rect id="Rectangle" x="0" y="0" width="32" height="32"></rect>
                    <path d="M16,4.17333333 C17.8266667,4.17333333 19.4,4.82666667 20.7066667,6.13333333 C22.0133333,7.44 22.6666667,9.01333333 22.6666667,10.84 C22.6666667,12.6666667 22.0133333,14.2666667 20.7066667,15.56 C19.4,16.8533333 17.8266667,17.5066667 16,17.5066667 C14.1733333,17.5066667 12.6,16.8533333 11.2933333,15.56 C9.98666667,14.2666667 9.33333333,12.6933333 9.33333333,10.84 C9.33333333,8.98666667 9.98666667,7.44 11.2933333,6.13333333 C12.6,4.82666667 14.1733333,4.17333333 16,4.17333333 Z M16,5.12 C14.4,5.12 13.0533333,5.68 11.9466667,6.81333333 C10.84,7.94666667 10.2933333,9.28 10.2933333,10.8266667 C10.2933333,12.3733333 10.84,13.7733333 11.9466667,14.88 C13.0533333,15.9866667 14.4,16.5333333 16,16.5333333 C17.6,16.5333333 18.92,15.9866667 20.04,14.88 C21.16,13.7733333 21.72,12.4266667 21.72,10.8266667 C21.72,9.22666667 21.16,7.94666667 20.04,6.81333333 C18.92,5.68 17.5733333,5.12 16,5.12 Z M11.24,30.8533333 L20.76,30.8533333 L20.76,32 L11.24,32 L11.24,30.8533333 Z M19.24,30.8533333 L12.7733333,30.8533333 L16.0133333,18.7866667 L19.2533333,30.8533333 L19.24,30.8533333 Z M18.6666667,10.64 L13.3333333,10.64 L16,6.06666667 L18.6666667,10.64 Z M18.6666667,15.2133333 L13.3333333,15.2133333 L16,10.64 L18.6666667,15.2133333 Z M15.4266667,15.2533333 L16.5733333,15.2533333 L16.5733333,16.5466667 L15.4266667,16.5466667 L15.4266667,15.2533333 Z M15.4266667,17.5733333 L16.5733333,17.5733333 L16.5733333,18.7466667 L15.4266667,18.7466667 L15.4266667,17.5733333 Z M15.4266667,20.92 L15.4266667,18.7466667 L16,18.7466667 L15.4266667,20.92 Z M16.5733333,20.84 L16,18.7466667 L16.5733333,18.7466667 L16.5733333,20.84 Z" id="Shape" fill="#231F20" fill-rule="nonzero"></path>
                </g>
            </g>
        </g>
    </g>
</svg>