<?xml version="1.0" encoding="UTF-8"?>
<svg width="24px" height="24px" viewBox="0 0 24 24" version="1.1" xmlns="http://www.w3.org/2000/svg" xmlns:xlink="http://www.w3.org/1999/xlink">
    <title>51ECB7CC-FE7F-4D51-AC6F-18BFA05E8F82</title>
    <g id="Squat-laskuri" stroke="none" stroke-width="1" fill="none" fill-rule="evenodd">
        <g id="colors_and_typography" transform="translate(-1250.000000, -1010.000000)">
            <g id="turvalaite_ikonit" transform="translate(722.000000, 914.000000)">
                <g id="Asset-37" transform="translate(528.000000, 96.000000)">
                    <rect id="Rectangle" x="0" y="0" width="24" height="24"></rect>
                    <path d="M8.43,23.14 L15.57,23.14 L15.57,24 L8.43,24 L8.43,23.14 Z M14.43,23.14 L9.57,23.14 L12,14.09 L14.43,23.14 Z M14,7.98 L10,7.98 L12,4.55 L14,7.98 Z M14,11.41 L10,11.41 L12,7.98 L14,11.41 Z M11.57,11.41 L11.57,14.07 L12.43,14.07 L12.43,11.41 L11.57,11.41 Z M11.57,15.69 L11.57,14.06 L12,14.06 L11.57,15.69 Z M12.43,15.63 L12,14.06 L12.43,14.06 L12.43,15.63 Z" id="Shape" fill="#EC0E0E" fill-rule="nonzero"></path>
                </g>
            </g>
        </g>
    </g>
</svg>