<?xml version="1.0" encoding="UTF-8"?>
<svg width="32px" height="32px" viewBox="0 0 32 32" version="1.1" xmlns="http://www.w3.org/2000/svg" xmlns:xlink="http://www.w3.org/1999/xlink">
    <title>51ECB7CC-FE7F-4D51-AC6F-18BFA05E8F82</title>
    <g id="Squat-laskuri" stroke="none" stroke-width="1" fill="none" fill-rule="evenodd">
        <g id="colors_and_typography" transform="translate(-1246.000000, -1002.000000)">
            <g id="turvalaite_ikonit" transform="translate(718.000000, 906.000000)">
                <g id="Asset-37" transform="translate(528.000000, 96.000000)">
                    <rect id="Rectangle" x="0" y="0" width="32" height="32"></rect>
                    <path d="M11.24,30.8533333 L20.76,30.8533333 L20.76,32 L11.24,32 L11.24,30.8533333 Z M19.24,30.8533333 L12.76,30.8533333 L16,18.7866667 L19.24,30.8533333 Z M18.6666667,10.64 L13.3333333,10.64 L16,6.06666667 L18.6666667,10.64 Z M18.6666667,15.2133333 L13.3333333,15.2133333 L16,10.64 L18.6666667,15.2133333 Z M15.4266667,15.2133333 L15.4266667,18.76 L16.5733333,18.76 L16.5733333,15.2133333 L15.4266667,15.2133333 Z M15.4266667,20.92 L15.4266667,18.7466667 L16,18.7466667 L15.4266667,20.92 Z M16.5733333,20.84 L16,18.7466667 L16.5733333,18.7466667 L16.5733333,20.84 Z" id="Shape" fill="#EC0E0E" fill-rule="nonzero"></path>
                </g>
            </g>
        </g>
    </g>
</svg>