<svg width="32" height="32" viewBox="0 0 32 32" xmlns="http://www.w3.org/2000/svg">
  <g fill="none" fill-rule="evenodd">
    <path d="M0 0h32v32H0z"/>
    <path d="M11.24 30.8533333h9.52V32h-9.52v-1.1466667Zm8 0h-6.48L16 18.7866667l3.24 12.0666666ZM13.3333333 6.68h5.3333334L16 11.2533333 13.3333333 6.68Zm0 4.5733333h5.3333334L16 15.8266667l-2.6666667-4.5733334Zm2.0933334-.9466666v.9466666H16l-.5733333-.9466666Zm0 0v.9466666H16l-.5733333-.9466666Zm0 4.5333333v1.0266667H16L15.4266667 14.84Zm0 0v1.0266667H16L15.4266667 14.84Zm0 .9866667h1.1466666V18.8h-1.1466666v-2.9733333Zm0 5.1066666V18.8H16l-.5733333 2.1333333Zm1.1466666-10.6266666v.9466666H16l.5733333-.9466666Zm0 4.5733333v.9866667H16L16.5733333 14.88Zm0 6.0133333L16 18.8h.5733333v2.0933333Z" fill="#EC0E0E" fill-rule="nonzero"/>
  </g>
</svg>
