<?xml version="1.0" encoding="UTF-8"?>
<svg width="24px" height="24px" viewBox="0 0 24 24" version="1.1" xmlns="http://www.w3.org/2000/svg" xmlns:xlink="http://www.w3.org/1999/xlink">
    <title>F5BA7C05-0AF4-4F40-8D8F-BC8F318CEE4B</title>
    <g id="Squat-laskuri" stroke="none" stroke-width="1" fill="none" fill-rule="evenodd">
        <g id="colors_and_typography" transform="translate(-770.000000, -1058.000000)">
            <g id="turvalaite_ikonit" transform="translate(722.000000, 914.000000)">
                <g id="Asset-40" transform="translate(48.000000, 144.000000)">
                    <rect id="Rectangle" x="0" y="0" width="24" height="24"></rect>
                    <path style="fill: red;" d="M8.43,23.14 L15.57,23.14 L15.57,24 L8.43,24 L8.43,23.14 Z M14.43,23.14 L9.57,23.14 L12,14.09 L14.43,23.14 Z M10,5.01 L14,5.01 L12,8.44 L10,5.01 Z M10,8.44 L14,8.44 L12,11.87 L10,8.44 Z M11.57,7.73 L11.57,8.44 L12,8.44 L11.57,7.73 Z M11.57,7.73 L11.57,8.44 L12,8.44 L11.57,7.73 Z M11.57,11.13 L11.57,11.9 L12,11.9 L11.57,11.13 Z M11.57,11.13 L11.57,11.9 L12,11.9 L11.57,11.13 Z M11.57,11.87 L12.43,11.87 L12.43,14.1 L11.57,14.1 L11.57,11.87 Z M11.57,15.7 L11.57,14.1 L12,14.1 L11.57,15.7 Z M12.43,7.73 L12.43,8.44 L12,8.44 L12.43,7.73 Z M12.43,11.16 L12.43,11.9 L12,11.9 L12.43,11.16 Z M12.43,15.67 L12,14.1 L12.43,14.1 L12.43,15.67 Z" id="Shape"></path>
                </g>
            </g>
        </g>
    </g>
</svg>