<?xml version="1.0" encoding="UTF-8"?>
<svg width="32px" height="32px" viewBox="0 0 32 32" version="1.1" xmlns="http://www.w3.org/2000/svg" xmlns:xlink="http://www.w3.org/1999/xlink">
    <title>F5BA7C05-0AF4-4F40-8D8F-BC8F318CEE4B</title>
    <g id="Squat-laskuri" stroke="none" stroke-width="1" fill="none" fill-rule="evenodd">
        <g id="colors_and_typography" transform="translate(-766.000000, -1050.000000)">
            <g id="turvalaite_ikonit" transform="translate(718.000000, 906.000000)">
                <g id="Asset-40" transform="translate(48.000000, 144.000000)">
                    <rect id="Rectangle" x="0" y="0" width="32" height="32"></rect>
                    <path d="M11.24,30.8533333 L20.76,30.8533333 L20.76,32 L11.24,32 L11.24,30.8533333 Z M19.24,30.8533333 L12.76,30.8533333 L16,18.7866667 L19.24,30.8533333 Z M13.3333333,6.68 L18.6666667,6.68 L16,11.2533333 L13.3333333,6.68 Z M13.3333333,11.2533333 L18.6666667,11.2533333 L16,15.8266667 L13.3333333,11.2533333 Z M15.4266667,10.3066667 L15.4266667,11.2533333 L16,11.2533333 L15.4266667,10.3066667 Z M15.4266667,10.3066667 L15.4266667,11.2533333 L16,11.2533333 L15.4266667,10.3066667 Z M15.4266667,14.84 L15.4266667,15.8666667 L16,15.8666667 L15.4266667,14.84 Z M15.4266667,14.84 L15.4266667,15.8666667 L16,15.8666667 L15.4266667,14.84 Z M15.4266667,15.8266667 L16.5733333,15.8266667 L16.5733333,18.8 L15.4266667,18.8 L15.4266667,15.8266667 Z M15.4266667,20.9333333 L15.4266667,18.8 L16,18.8 L15.4266667,20.9333333 Z M16.5733333,10.3066667 L16.5733333,11.2533333 L16,11.2533333 L16.5733333,10.3066667 Z M16.5733333,14.88 L16.5733333,15.8666667 L16,15.8666667 L16.5733333,14.88 Z M16.5733333,20.8933333 L16,18.8 L16.5733333,18.8 L16.5733333,20.8933333 Z" id="Shape" fill="#231F20" fill-rule="nonzero"></path>
                </g>
            </g>
        </g>
    </g>
</svg>