<?xml version="1.0" encoding="UTF-8"?>
<svg width="24px" height="24px" viewBox="0 0 24 24" version="1.1" xmlns="http://www.w3.org/2000/svg" xmlns:xlink="http://www.w3.org/1999/xlink">
    <title>34E6B3E0-FE59-44E6-86B5-56090D372B69</title>
    <g id="Squat-laskuri" stroke="none" stroke-width="1" fill="none" fill-rule="evenodd">
        <g id="colors_and_typography" transform="translate(-818.000000, -1058.000000)">
            <g id="turvalaite_ikonit" transform="translate(722.000000, 914.000000)">
                <g id="Asset-41" transform="translate(96.000000, 144.000000)">
                    <rect id="Rectangle" x="0" y="0" width="24" height="24"></rect>
                    <path d="M12,3.16 C13.37,3.16 14.55,3.65 15.53,4.63 C16.51,5.61 17,6.79 17,8.16 C17,9.53 16.51,10.71 15.53,11.69 C14.55,12.67 13.37,13.16 12,13.16 C10.63,13.16 9.45,12.67 8.47,11.69 C7.49,10.71 7,9.53 7,8.16 C7,6.79 7.49,5.61 8.47,4.63 C9.45,3.65 10.63,3.16 12,3.16 L12,3.16 Z M12,3.87 C10.8,3.87 9.79,4.29 8.96,5.13 C8.13,5.97 7.72,6.98 7.72,8.16 C7.72,9.34 8.13,10.35 8.96,11.19 C9.79,12.03 10.8,12.45 12,12.45 C13.2,12.45 14.19,12.03 15.03,11.19 C15.87,10.35 16.29,9.34 16.29,8.16 C16.29,6.98 15.87,5.97 15.03,5.13 C14.19,4.29 13.18,3.87 12,3.87 Z M8.43,23.14 L15.57,23.14 L15.57,24 L8.43,24 L8.43,23.14 Z M14.43,23.14 L9.58,23.14 L12.01,14.09 L14.44,23.14 L14.43,23.14 Z M10,4.73 L14,4.73 L12,8.16 L10,4.73 Z M14,11.58 L10,11.58 L12,8.15 L14,11.58 Z M11.57,11.58 L11.57,12.44 L12.43,12.44 L12.43,11.58 L11.57,11.58 Z M11.57,13.18 L12.43,13.18 L12.43,14.09 L11.57,14.09 L11.57,13.18 Z M11.57,15.69 L11.57,14.09 L12,14.09 L11.57,15.69 Z M12.43,15.66 L12,14.09 L12.43,14.09 L12.43,15.66 Z" id="Shape" fill="#EC0E0E" fill-rule="nonzero"></path>
                </g>
            </g>
        </g>
    </g>
</svg>