<?xml version="1.0" encoding="UTF-8"?>
<svg width="24px" height="24px" viewBox="0 0 24 24" version="1.1" xmlns="http://www.w3.org/2000/svg" xmlns:xlink="http://www.w3.org/1999/xlink">
    <title>717EBDBE-3EA3-4D20-BFB9-2913A655D296</title>
    <g id="Squat-laskuri" stroke="none" stroke-width="1" fill="none" fill-rule="evenodd">
        <g id="colors_and_typography" transform="translate(-866.000000, -1058.000000)">
            <g id="turvalaite_ikonit" transform="translate(722.000000, 914.000000)">
                <g id="Asset-42" transform="translate(144.000000, 144.000000)">
                    <rect id="Rectangle" x="0" y="0" width="24" height="24"></rect>
                    <path d="M8.43,23.14 L15.57,23.14 L15.57,24 L8.43,24 L8.43,23.14 Z M14.43,23.14 L9.57,23.14 L12,14.09 L14.43,23.14 Z M10,4.72 L14,4.72 L12,8.15 L10,4.72 L10,4.72 Z M14,11.57 L10,11.57 L12,8.14 L14,11.57 Z M11.57,11.57 L11.57,14.08 L12.43,14.08 L12.43,11.57 L11.57,11.57 Z M11.57,15.68 L11.57,14.08 L12,14.08 L11.57,15.68 Z M12.43,15.65 L12,14.08 L12.43,14.08 L12.43,15.65 Z" id="Shape" fill="#231F20" fill-rule="nonzero"></path>
                </g>
            </g>
        </g>
    </g>
</svg>