<?xml version="1.0" encoding="UTF-8"?>
<svg width="32px" height="32px" viewBox="0 0 32 32" version="1.1" xmlns="http://www.w3.org/2000/svg" xmlns:xlink="http://www.w3.org/1999/xlink">
    <title>5759258A-E75F-4D94-ACFC-29FD2BDE5FC8</title>
    <g id="Squat-laskuri" stroke="none" stroke-width="1" fill="none" fill-rule="evenodd">
        <g id="colors_and_typography" transform="translate(-910.000000, -1050.000000)">
            <g id="turvalaite_ikonit" transform="translate(718.000000, 906.000000)">
                <g id="Asset-43" transform="translate(192.000000, 144.000000)">
                    <rect id="Rectangle" x="0" y="0" width="32" height="32"></rect>
                    <path d="M16,4.21333333 C17.8266667,4.21333333 19.4,4.86666667 20.7066667,6.17333333 C22.0133333,7.48 22.6666667,9.05333333 22.6666667,10.88 C22.6666667,12.7066667 22.0133333,14.28 20.7066667,15.5866667 C19.4,16.8933333 17.8266667,17.5466667 16,17.5466667 C14.1733333,17.5466667 12.6,16.8933333 11.2933333,15.5866667 C9.98666667,14.28 9.33333333,12.7066667 9.33333333,10.88 C9.33333333,9.05333333 9.98666667,7.48 11.2933333,6.17333333 C12.6,4.86666667 14.1733333,4.21333333 16,4.21333333 L16,4.21333333 Z M16,5.16 C14.4,5.16 13.0533333,5.72 11.9466667,6.84 C10.84,7.96 10.2933333,9.30666667 10.2933333,10.88 C10.2933333,12.4533333 10.84,13.8 11.9466667,14.92 C13.0533333,16.04 14.4,16.6 16,16.6 C17.6,16.6 18.92,16.04 20.04,14.92 C21.16,13.8 21.72,12.4533333 21.72,10.88 C21.72,9.30666667 21.16,7.96 20.04,6.84 C18.92,5.72 17.5733333,5.16 16,5.16 Z M11.24,30.8533333 L20.76,30.8533333 L20.76,32 L11.24,32 L11.24,30.8533333 Z M19.24,30.8533333 L12.7733333,30.8533333 L16.0133333,18.7866667 L19.2533333,30.8533333 L19.24,30.8533333 Z M18.6666667,10.68 L13.3333333,10.68 L16,6.10666667 L18.6666667,10.68 Z M13.3333333,11.2533333 L18.6666667,11.2533333 L16,15.8266667 L13.3333333,11.2533333 Z M15.4266667,10.68 L15.4266667,11.2533333 L16.5733333,11.2533333 L16.5733333,10.68 L15.4266667,10.68 Z M15.4266667,14.8666667 L15.4266667,15.7866667 L16,15.7866667 L15.4266667,14.8666667 Z M15.4266667,14.8666667 L15.4266667,15.7866667 L16,15.7866667 L15.4266667,14.8666667 Z M15.4266667,15.8133333 L16.5733333,15.8133333 L16.5733333,16.5733333 L15.4266667,16.5733333 L15.4266667,15.8133333 Z M15.4266667,17.52 L15.4266667,18.7733333 L16.5733333,18.7733333 L16.5733333,17.52 L15.4266667,17.52 Z M15.4266667,20.9066667 L15.4266667,18.7733333 L16,18.7733333 L15.4266667,20.9066667 Z M16.5733333,14.8533333 L16.5733333,15.7733333 L16,15.7733333 L16.5733333,14.8533333 Z M16.5733333,20.8666667 L16,18.7733333 L16.5733333,18.7733333 L16.5733333,20.8666667 Z" id="Shape" fill="#231F20" fill-rule="nonzero"></path>
                </g>
            </g>
        </g>
    </g>
</svg>