<?xml version="1.0" encoding="UTF-8"?>
<svg width="24px" height="24px" viewBox="0 0 24 24" version="1.1" xmlns="http://www.w3.org/2000/svg" xmlns:xlink="http://www.w3.org/1999/xlink">
    <title>5759258A-E75F-4D94-ACFC-29FD2BDE5FC8</title>
    <g id="Squat-laskuri" stroke="none" stroke-width="1" fill="none" fill-rule="evenodd">
        <g id="colors_and_typography" transform="translate(-914.000000, -1058.000000)">
            <g id="turvalaite_ikonit" transform="translate(722.000000, 914.000000)">
                <g id="Asset-43" transform="translate(192.000000, 144.000000)">
                    <rect id="Rectangle" x="0" y="0" width="24" height="24"></rect>
                    <path d="M12,3.16 C13.37,3.16 14.55,3.65 15.53,4.63 C16.51,5.61 17,6.79 17,8.16 C17,9.53 16.51,10.71 15.53,11.69 C14.55,12.67 13.37,13.16 12,13.16 C10.63,13.16 9.45,12.67 8.47,11.69 C7.49,10.71 7,9.53 7,8.16 C7,6.79 7.49,5.61 8.47,4.63 C9.45,3.65 10.63,3.16 12,3.16 L12,3.16 Z M12,3.87 C10.8,3.87 9.79,4.29 8.96,5.13 C8.13,5.97 7.72,6.98 7.72,8.16 C7.72,9.34 8.13,10.35 8.96,11.19 C9.79,12.03 10.8,12.45 12,12.45 C13.2,12.45 14.19,12.03 15.03,11.19 C15.87,10.35 16.29,9.34 16.29,8.16 C16.29,6.98 15.87,5.97 15.03,5.13 C14.19,4.29 13.18,3.87 12,3.87 Z M8.43,23.14 L15.57,23.14 L15.57,24 L8.43,24 L8.43,23.14 Z M14.43,23.14 L9.58,23.14 L12.01,14.09 L14.44,23.14 L14.43,23.14 Z M14,8.01 L10,8.01 L12,4.58 L14,8.01 Z M10,8.44 L14,8.44 L12,11.87 L10,8.44 Z M11.57,8.01 L11.57,8.44 L12.43,8.44 L12.43,8.01 L11.57,8.01 Z M11.57,11.15 L11.57,11.84 L12,11.84 L11.57,11.15 Z M11.57,11.15 L11.57,11.84 L12,11.84 L11.57,11.15 Z M11.57,11.86 L12.43,11.86 L12.43,12.43 L11.57,12.43 L11.57,11.86 Z M11.57,13.14 L11.57,14.08 L12.43,14.08 L12.43,13.14 L11.57,13.14 Z M11.57,15.68 L11.57,14.08 L12,14.08 L11.57,15.68 Z M12.43,11.14 L12.43,11.83 L12,11.83 L12.43,11.14 Z M12.43,15.65 L12,14.08 L12.43,14.08 L12.43,15.65 Z" id="Shape" fill="#EC0E0E" fill-rule="nonzero"></path>
                </g>
            </g>
        </g>
    </g>
</svg>