<?xml version="1.0" encoding="UTF-8"?>
<svg width="24px" height="24px" viewBox="0 0 24 24" version="1.1" xmlns="http://www.w3.org/2000/svg" xmlns:xlink="http://www.w3.org/1999/xlink">
    <title>0904CB06-6C6A-4015-89B2-50A0B54C4F1E</title>
    <g id="Squat-laskuri" stroke="none" stroke-width="1" fill="none" fill-rule="evenodd">
        <g id="colors_and_typography" transform="translate(-962.000000, -1058.000000)">
            <g id="turvalaite_ikonit" transform="translate(722.000000, 914.000000)">
                <g id="Asset-44" transform="translate(240.000000, 144.000000)">
                    <rect id="Rectangle" x="0" y="0" width="24" height="24"></rect>
                    <path d="M8.43,23.14 L15.57,23.14 L15.57,24 L8.43,24 L8.43,23.14 Z M14.43,23.14 L9.57,23.14 L12,14.09 L14.43,23.14 Z M14,8 L10,8 L12,4.57 L14,8 Z M10,8.43 L14,8.43 L12,11.86 L10,8.43 Z M11.57,8 L11.57,8.43 L12.43,8.43 L12.43,8 L11.57,8 Z M11.57,11.14 L11.57,11.91 L12,11.91 L11.57,11.14 Z M11.57,11.14 L11.57,11.91 L12,11.91 L11.57,11.14 Z M11.57,11.91 L12.43,11.91 L12.43,14.08 L11.57,14.08 L11.57,11.91 Z M11.57,15.68 L11.57,14.08 L12,14.08 L11.57,15.68 Z M12.43,11.14 L12.43,11.91 L12,11.91 L12.43,11.14 Z M12.43,15.65 L12,14.08 L12.43,14.08 L12.43,15.65 Z" id="Shape" fill="#EC0E0E" fill-rule="nonzero"></path>
                </g>
            </g>
        </g>
    </g>
</svg>