<svg width="32" height="32" viewBox="0 0 32 32" xmlns="http://www.w3.org/2000/svg">
  <g fill="none" fill-rule="evenodd">
    <path d="M0 0h32v32H0z"/>
    <path d="M16 4.21333333c1.8266667 0 3.4.65333334 4.7066667 1.96 1.3066666 1.30666667 1.96 2.88 1.96 4.70666667 0 1.8266667-.6533334 3.4-1.96 4.7066667-1.3066667 1.3066666-2.88 1.96-4.7066667 1.96-1.8266667 0-3.4-.6533334-4.7066667-1.96C9.98666667 14.28 9.33333333 12.7066667 9.33333333 10.88c0-1.82666667.65333334-3.4 1.95999997-4.70666667 1.3066667-1.30666666 2.88-1.96 4.7066667-1.96ZM16 5.16c-1.6 0-2.9466667.56-4.0533333 1.68C10.84 7.96 10.2933333 9.30666667 10.2933333 10.88c0 1.5733333.5466667 2.92 1.6533334 4.04C13.0533333 16.04 14.4 16.6 16 16.6s2.92-.56 4.04-1.68c1.12-1.12 1.68-2.4666667 1.68-4.04 0-1.57333333-.56-2.92-1.68-4.04-1.12-1.12-2.4666667-1.68-4.04-1.68Zm-4.76 25.6933333h9.52V32h-9.52v-1.1466667Zm8 0h-6.4666667l3.24-12.0666666 3.24 12.0666666H19.24ZM16 6.12c.6133333 0 1.1466667.22666667 1.6.68.4533333.45333333.68.98666667.68 1.6 0 .61333333-.2266667 1.17333333-.68 1.6133333-.4533333.44-.9866667.6666667-1.6.6666667-.6133333 0-1.1733333-.2266667-1.6133333-.6666667C13.9466667 9.57333333 13.72 9.02666667 13.72 8.4c0-.62666667.2266667-1.14666667.6666667-1.6.44-.45333333.9866666-.68 1.6133333-.68Zm0 4.9466667c-.64 0-1.1733333.2266666-1.6133333.6933333-.44.4533333-.6666667.9866667-.6666667 1.6 0 .6133333.2266667 1.1733333.6666667 1.6133333.44.44.9866666.6666667 1.6133333.6666667.6266667 0 1.1466667-.2266667 1.6-.6666667.4533333-.44.68-.9866666.68-1.6133333 0-.6266667-.2266667-1.1466667-.68-1.6-.4533333-.4533333-.9866667-.6933333-1.6-.6933333Zm-.5733333-.3733334h1.1466666v.3733334h-1.1466666v-.3733334Zm0 4.9466667h1.1466666v.9466667h-1.1466666V15.64Zm0 1.9466667h1.1466666V18.8h-1.1466666v-1.2133333Zm0 3.3466666V18.8H16l-.5733333 2.1333333Zm1.1466666-.04L16 18.8h.5733333v2.0933333Z" fill="#EC0E0E" fill-rule="nonzero"/>
  </g>
</svg>
