<?xml version="1.0" encoding="UTF-8"?>
<svg width="24px" height="24px" viewBox="0 0 24 24" version="1.1" xmlns="http://www.w3.org/2000/svg" xmlns:xlink="http://www.w3.org/1999/xlink">
    <title>1254A5C5-1DA1-4B26-92EE-0FA69FF5F021</title>
    <g id="Squat-laskuri" stroke="none" stroke-width="1" fill="none" fill-rule="evenodd">
        <g id="colors_and_typography" transform="translate(-1010.000000, -1058.000000)">
            <g id="turvalaite_ikonit" transform="translate(722.000000, 914.000000)">
                <g id="Asset-45" transform="translate(288.000000, 144.000000)">
                    <rect id="Rectangle" x="0" y="0" width="24" height="24"></rect>
                    <path d="M12,3.16 C13.37,3.16 14.55,3.65 15.53,4.63 C16.51,5.61 17,6.79 17,8.16 C17,9.53 16.51,10.71 15.53,11.69 C14.55,12.67 13.37,13.16 12,13.16 C10.63,13.16 9.45,12.67 8.47,11.69 C7.49,10.71 7,9.53 7,8.16 C7,6.79 7.49,5.61 8.47,4.63 C9.45,3.65 10.63,3.16 12,3.16 L12,3.16 Z M12,3.87 C10.8,3.87 9.79,4.29 8.96,5.13 C8.13,5.97 7.72,6.98 7.72,8.16 C7.72,9.34 8.13,10.35 8.96,11.19 C9.79,12.03 10.8,12.45 12,12.45 C13.2,12.45 14.19,12.03 15.03,11.19 C15.87,10.35 16.29,9.34 16.29,8.16 C16.29,6.98 15.87,5.97 15.03,5.13 C14.19,4.29 13.18,3.87 12,3.87 Z M8.43,23.14 L15.57,23.14 L15.57,24 L8.43,24 L8.43,23.14 Z M14.43,23.14 L9.58,23.14 L12.01,14.09 L14.44,23.14 L14.43,23.14 Z M12,4.59 C12.46,4.59 12.86,4.76 13.2,5.1 C13.54,5.44 13.71,5.84 13.71,6.3 C13.71,6.76 13.54,7.18 13.2,7.51 C12.86,7.84 12.46,8.01 12,8.01 C11.54,8.01 11.12,7.84 10.79,7.51 C10.46,7.18 10.29,6.77 10.29,6.3 C10.29,5.83 10.46,5.44 10.79,5.1 C11.12,4.76 11.53,4.59 12,4.59 Z M12,8.3 C11.52,8.3 11.12,8.47 10.79,8.82 C10.46,9.16 10.29,9.56 10.29,10.02 C10.29,10.48 10.46,10.9 10.79,11.23 C11.12,11.56 11.53,11.73 12,11.73 C12.47,11.73 12.86,11.56 13.2,11.23 C13.54,10.9 13.71,10.49 13.71,10.02 C13.71,9.55 13.54,9.16 13.2,8.82 C12.86,8.48 12.46,8.3 12,8.3 Z M11.57,8.02 L12.43,8.02 L12.43,8.3 L11.57,8.3 L11.57,8.02 Z M11.57,11.73 L12.43,11.73 L12.43,12.44 L11.57,12.44 L11.57,11.73 Z M11.57,13.19 L12.43,13.19 L12.43,14.1 L11.57,14.1 L11.57,13.19 Z M11.57,15.7 L11.57,14.1 L12,14.1 L11.57,15.7 Z M12.43,15.67 L12,14.1 L12.43,14.1 L12.43,15.67 Z" id="Shape" fill="#EC0E0E" fill-rule="nonzero"></path>
                </g>
            </g>
        </g>
    </g>
</svg>