<?xml version="1.0" encoding="UTF-8"?>
<svg width="32px" height="32px" viewBox="0 0 32 32" version="1.1" xmlns="http://www.w3.org/2000/svg" xmlns:xlink="http://www.w3.org/1999/xlink">
    <title>8942BF49-F3AF-461F-9537-FDD19227CE5F</title>
    <g id="Squat-laskuri" stroke="none" stroke-width="1" fill="none" fill-rule="evenodd">
        <g id="colors_and_typography" transform="translate(-1054.000000, -1050.000000)">
            <g id="turvalaite_ikonit" transform="translate(718.000000, 906.000000)">
                <g id="Asset-46" transform="translate(336.000000, 144.000000)">
                    <rect id="Rectangle" x="0" y="0" width="32" height="32"></rect>
                    <path d="M11.24,30.8533333 L20.76,30.8533333 L20.76,32 L11.24,32 L11.24,30.8533333 Z M19.24,30.8533333 L12.76,30.8533333 L16,18.7866667 L19.24,30.8533333 Z M16,6.10666667 C16.6133333,6.10666667 17.1466667,6.33333333 17.6,6.78666667 C18.0533333,7.24 18.28,7.77333333 18.28,8.38666667 C18.28,9 18.0533333,9.56 17.6,10 C17.1466667,10.44 16.6133333,10.6666667 16,10.6666667 C15.3866667,10.6666667 14.8266667,10.44 14.3866667,10 C13.9466667,9.56 13.72,9.01333333 13.72,8.38666667 C13.72,7.76 13.9466667,7.24 14.3866667,6.78666667 C14.8266667,6.33333333 15.3733333,6.10666667 16,6.10666667 Z M16,11.0533333 C15.36,11.0533333 14.8266667,11.28 14.3866667,11.7466667 C13.9466667,12.2 13.72,12.7333333 13.72,13.3466667 C13.72,13.96 13.9466667,14.52 14.3866667,14.96 C14.8266667,15.4 15.3733333,15.6266667 16,15.6266667 C16.6266667,15.6266667 17.1466667,15.4 17.6,14.96 C18.0533333,14.52 18.28,13.9733333 18.28,13.3466667 C18.28,12.72 18.0533333,12.2 17.6,11.7466667 C17.1466667,11.2933333 16.6133333,11.0533333 16,11.0533333 Z M15.4266667,10.68 L16.5733333,10.68 L16.5733333,11.0533333 L15.4266667,11.0533333 L15.4266667,10.68 Z M15.4266667,15.6266667 L16.5733333,15.6266667 L16.5733333,18.7866667 L15.4266667,18.7866667 L15.4266667,15.6266667 Z M15.4266667,20.92 L15.4266667,18.7866667 L16,18.7866667 L15.4266667,20.92 Z M16.5733333,20.88 L16,18.7866667 L16.5733333,18.7866667 L16.5733333,20.88 Z" id="Shape" fill="#EC0E0E" fill-rule="nonzero"></path>
                </g>
            </g>
        </g>
    </g>
</svg>