<?xml version="1.0" encoding="UTF-8"?>
<svg width="24px" height="24px" viewBox="0 0 24 24" version="1.1" xmlns="http://www.w3.org/2000/svg" xmlns:xlink="http://www.w3.org/1999/xlink">
    <title>8942BF49-F3AF-461F-9537-FDD19227CE5F</title>
    <g id="Squat-laskuri" stroke="none" stroke-width="1" fill="none" fill-rule="evenodd">
        <g id="colors_and_typography" transform="translate(-1058.000000, -1058.000000)">
            <g id="turvalaite_ikonit" transform="translate(722.000000, 914.000000)">
                <g id="Asset-46" transform="translate(336.000000, 144.000000)">
                    <rect id="Rectangle" x="0" y="0" width="24" height="24"></rect>
                    <path d="M8.43,23.14 L15.57,23.14 L15.57,24 L8.43,24 L8.43,23.14 Z M14.43,23.14 L9.57,23.14 L12,14.09 L14.43,23.14 Z M12,4.58 C12.46,4.58 12.86,4.75 13.2,5.09 C13.54,5.43 13.71,5.83 13.71,6.29 C13.71,6.75 13.54,7.17 13.2,7.5 C12.86,7.83 12.46,8 12,8 C11.54,8 11.12,7.83 10.79,7.5 C10.46,7.17 10.29,6.76 10.29,6.29 C10.29,5.82 10.46,5.43 10.79,5.09 C11.12,4.75 11.53,4.58 12,4.58 Z M12,8.29 C11.52,8.29 11.12,8.46 10.79,8.81 C10.46,9.15 10.29,9.55 10.29,10.01 C10.29,10.47 10.46,10.89 10.79,11.22 C11.12,11.55 11.53,11.72 12,11.72 C12.47,11.72 12.86,11.55 13.2,11.22 C13.54,10.89 13.71,10.48 13.71,10.01 C13.71,9.54 13.54,9.15 13.2,8.81 C12.86,8.47 12.46,8.29 12,8.29 Z M11.57,8.01 L12.43,8.01 L12.43,8.29 L11.57,8.29 L11.57,8.01 Z M11.57,11.72 L12.43,11.72 L12.43,14.09 L11.57,14.09 L11.57,11.72 Z M11.57,15.69 L11.57,14.09 L12,14.09 L11.57,15.69 Z M12.43,15.66 L12,14.09 L12.43,14.09 L12.43,15.66 Z" id="Shape" fill="#EC0E0E" fill-rule="nonzero"></path>
                </g>
            </g>
        </g>
    </g>
</svg>