<?xml version="1.0" encoding="UTF-8"?>
<svg width="24px" height="24px" viewBox="0 0 24 24" version="1.1" xmlns="http://www.w3.org/2000/svg" xmlns:xlink="http://www.w3.org/1999/xlink">
    <title>4DAA174B-060E-4091-991A-A77A985D93E4</title>
    <g id="Squat-laskuri" stroke="none" stroke-width="1" fill="none" fill-rule="evenodd">
        <g id="colors_and_typography" transform="translate(-1106.000000, -1058.000000)">
            <g id="turvalaite_ikonit" transform="translate(722.000000, 914.000000)">
                <g id="Asset-47" transform="translate(384.000000, 144.000000)">
                    <rect id="Rectangle" x="0" y="0" width="24" height="24"></rect>
                    <path d="M12,3.16 C13.37,3.16 14.55,3.65 15.53,4.63 C16.51,5.61 17,6.79 17,8.16 C17,9.53 16.51,10.73 15.53,11.7 C14.55,12.67 13.37,13.16 12,13.16 C10.63,13.16 9.45,12.67 8.47,11.7 C7.49,10.73 7,9.55 7,8.16 C7,6.77 7.49,5.61 8.47,4.63 C9.45,3.65 10.63,3.16 12,3.16 L12,3.16 Z M12,3.87 C10.8,3.87 9.79,4.29 8.96,5.14 C8.13,5.99 7.72,6.99 7.72,8.15 C7.72,9.31 8.13,10.36 8.96,11.19 C9.79,12.02 10.8,12.43 12,12.43 C13.2,12.43 14.19,12.02 15.03,11.19 C15.87,10.36 16.29,9.35 16.29,8.15 C16.29,6.95 15.87,5.99 15.03,5.14 C14.19,4.29 13.18,3.87 12,3.87 L12,3.87 Z M8.43,23.14 L15.57,23.14 L15.57,24 L8.43,24 L8.43,23.14 Z M12,5.67 C12.69,5.67 13.27,5.91 13.76,6.4 C14.25,6.89 14.49,7.47 14.49,8.16 C14.49,8.85 14.25,9.43 13.76,9.93 C13.27,10.43 12.69,10.67 12,10.67 C11.31,10.67 10.73,10.42 10.24,9.93 C9.75,9.43 9.51,8.85 9.51,8.16 C9.51,7.47 9.75,6.89 10.24,6.4 C10.73,5.91 11.31,5.67 12,5.67 Z M14.43,23.14 L9.58,23.14 L12.01,14.09 L14.44,23.14 L14.43,23.14 Z M11.57,10.63 L11.57,12.43 L12.43,12.43 L12.43,10.63 L11.57,10.63 Z M11.57,13.2 L12.43,13.2 L12.43,14.08 L11.57,14.08 L11.57,13.2 Z M11.57,15.68 L11.57,14.08 L12,14.08 L11.57,15.68 Z M12.43,15.65 L12,14.08 L12.43,14.08 L12.43,15.65 Z" id="Shape" fill="#231F20" fill-rule="nonzero"></path>
                </g>
            </g>
        </g>
    </g>
</svg>