<?xml version="1.0" encoding="UTF-8"?>
<svg width="24px" height="24px" viewBox="0 0 24 24" version="1.1" xmlns="http://www.w3.org/2000/svg" xmlns:xlink="http://www.w3.org/1999/xlink">
    <title>FCB4B5A4-5B08-428D-8573-F0DB42901DD2</title>
    <g id="Squat-laskuri" stroke="none" stroke-width="1" fill="none" fill-rule="evenodd">
        <g id="colors_and_typography" transform="translate(-1154.000000, -1058.000000)">
            <g id="turvalaite_ikonit" transform="translate(722.000000, 914.000000)">
                <g id="Asset-48" transform="translate(432.000000, 144.000000)">
                    <rect id="Rectangle" x="0" y="0" width="24" height="24"></rect>
                    <path style="fill: red;" d="M8.43,23.14 L15.57,23.14 L15.57,24 L8.43,24 L8.43,23.14 Z M12,5.66 C12.69,5.66 13.27,5.9 13.76,6.39 C14.25,6.88 14.49,7.46 14.49,8.15 C14.49,8.84 14.25,9.43 13.76,9.92 C13.27,10.42 12.69,10.66 12,10.66 C11.31,10.66 10.73,10.41 10.24,9.92 C9.75,9.42 9.51,8.84 9.51,8.15 C9.51,7.46 9.75,6.88 10.24,6.39 C10.73,5.9 11.31,5.66 12,5.66 Z M14.43,23.14 L9.57,23.14 L12,14.09 L14.43,23.14 Z M11.57,10.63 L11.57,14.06 L12.43,14.06 L12.43,10.63 L11.57,10.63 Z M11.57,15.69 L11.57,14.09 L12,14.09 L11.57,15.69 Z M12.43,15.66 L12,14.09 L12.43,14.09 L12.43,15.66 Z" id="Shape"></path>
                </g>
            </g>
        </g>
    </g>
</svg>