<?xml version="1.0" encoding="UTF-8"?>
<svg width="32px" height="32px" viewBox="0 0 32 32" version="1.1" xmlns="http://www.w3.org/2000/svg" xmlns:xlink="http://www.w3.org/1999/xlink">
    <title>C41F6CAD-B75F-47B3-A2AE-D3FC9C1BDB41</title>
    <g id="Squat-laskuri" stroke="none" stroke-width="1" fill="none" fill-rule="evenodd">
        <g id="colors_and_typography" transform="translate(-1198.000000, -1050.000000)">
            <g id="turvalaite_ikonit" transform="translate(718.000000, 906.000000)">
                <g id="Asset-49" transform="translate(480.000000, 144.000000)">
                    <rect id="Rectangle" x="0" y="0" width="32" height="32"></rect>
                    <path d="M16,4.21333333 C17.8266667,4.21333333 19.4,4.86666667 20.7066667,6.17333333 C22.0133333,7.48 22.6666667,9.05333333 22.6666667,10.88 C22.6666667,12.7066667 22.0133333,14.3066667 20.7066667,15.6 C19.4,16.8933333 17.8266667,17.5466667 16,17.5466667 C14.1733333,17.5466667 12.6,16.8933333 11.2933333,15.6 C9.98666667,14.3066667 9.33333333,12.7333333 9.33333333,10.88 C9.33333333,9.02666667 9.98666667,7.48 11.2933333,6.17333333 C12.6,4.86666667 14.1733333,4.21333333 16,4.21333333 L16,4.21333333 Z M16,5.16 C14.4,5.16 13.0533333,5.72 11.9466667,6.85333333 C10.84,7.98666667 10.2933333,9.32 10.2933333,10.8666667 C10.2933333,12.4133333 10.84,13.8133333 11.9466667,14.92 C13.0533333,16.0266667 14.4,16.5733333 16,16.5733333 C17.6,16.5733333 18.92,16.0266667 20.04,14.92 C21.16,13.8133333 21.72,12.4666667 21.72,10.8666667 C21.72,9.26666667 21.16,7.98666667 20.04,6.85333333 C18.92,5.72 17.5733333,5.16 16,5.16 L16,5.16 Z M11.24,30.8533333 L20.76,30.8533333 L20.76,32 L11.24,32 L11.24,30.8533333 Z M13.4533333,7.25333333 L19.6133333,13.4133333 L18.5466667,14.48 L12.3866667,8.32 L13.4533333,7.25333333 L13.4533333,7.25333333 Z M19.6133333,8.32 L13.4533333,14.48 L12.3866667,13.4133333 L18.5466667,7.25333333 L19.6133333,8.32 Z M19.24,30.8533333 L12.7733333,30.8533333 L16.0133333,18.7866667 L19.2533333,30.8533333 L19.24,30.8533333 Z M15.4,12.5466667 L16.6133333,12.5466667 L16,11.9333333 L15.3866667,12.5466667 L15.4,12.5466667 Z M15.44,12.5466667 L16.5866667,12.5466667 L16.5866667,16.5866667 L15.44,16.5866667 L15.44,12.5466667 Z M15.44,17.6133333 L16.5866667,17.6133333 L16.5866667,18.7866667 L15.44,18.7866667 L15.44,17.6133333 Z M15.44,20.92 L15.44,18.7866667 L16.0133333,18.7866667 L15.44,20.92 Z M16.5866667,20.88 L16.0133333,18.7866667 L16.5866667,18.7866667 L16.5866667,20.88 Z" id="Shape" fill="#231F20" fill-rule="nonzero"></path>
                </g>
            </g>
        </g>
    </g>
</svg>