<svg width="32" height="32" viewBox="0 0 32 32" xmlns="http://www.w3.org/2000/svg">
  <g fill="none" fill-rule="evenodd">
    <path d="M0 0h32v32H0z"/>
    <path d="M11.24 30.8533333h9.52V32h-9.52v-1.1466667ZM19.6133333 8.32 13.44 14.48l-1.0666667-1.0666667 6.1733334-6.15999997L19.6133333 8.32ZM13.44 7.25333333l6.1733333 6.15999997L18.5466667 14.48l-6.1733334-6.16L13.44 7.25333333Zm5.7866667 23.59999997H12.76L16 18.7866667l3.24 12.0666666h-.0133333Zm-3.84-18.3066666H16.6l-.6133333-.6133334-.6133334.6133334h.0133334Zm.04 0h1.1466666v6.24h-1.1466666v-6.24Zm0 8.3733333v-2.1333333H16L15.4266667 20.92Zm1.1466666-.04L16 18.7866667h.5733333V20.88Z" fill="#EC0E0E" fill-rule="nonzero"/>
  </g>
</svg>
