<?xml version="1.0" encoding="UTF-8"?>
<svg width="32px" height="32px" viewBox="0 0 32 32" version="1.1" xmlns="http://www.w3.org/2000/svg" xmlns:xlink="http://www.w3.org/1999/xlink">
    <title>5188D609-FFEC-46AD-BE66-BBAE4D9A8829</title>
    <g id="Squat-laskuri" stroke="none" stroke-width="1" fill="none" fill-rule="evenodd">
        <g id="colors_and_typography" transform="translate(-1246.000000, -1050.000000)">
            <g id="turvalaite_ikonit" transform="translate(718.000000, 906.000000)">
                <g id="Asset-50" transform="translate(528.000000, 144.000000)">
                    <rect id="Rectangle" x="0" y="0" width="32" height="32"></rect>
                    <path d="M11.24,30.8533333 L20.76,30.8533333 L20.76,32 L11.24,32 L11.24,30.8533333 Z M19.6133333,8.32 L13.44,14.48 L12.3733333,13.4133333 L18.5466667,7.25333333 L19.6133333,8.32 L19.6133333,8.32 Z M13.44,7.25333333 L19.6133333,13.4133333 L18.5466667,14.48 L12.3733333,8.32 L13.44,7.25333333 L13.44,7.25333333 Z M19.2266667,30.8533333 L12.76,30.8533333 L16,18.7866667 L19.24,30.8533333 L19.2266667,30.8533333 Z M15.3866667,12.5466667 L16.6,12.5466667 L15.9866667,11.9333333 L15.3733333,12.5466667 L15.3866667,12.5466667 Z M15.4266667,12.5466667 L16.5733333,12.5466667 L16.5733333,18.7866667 L15.4266667,18.7866667 L15.4266667,12.5466667 Z M15.4266667,20.92 L15.4266667,18.7866667 L16,18.7866667 L15.4266667,20.92 Z M16.5733333,20.88 L16,18.7866667 L16.5733333,18.7866667 L16.5733333,20.88 Z" id="Shape" fill="#231F20" fill-rule="nonzero"></path>
                </g>
            </g>
        </g>
    </g>
</svg>