<?xml version="1.0" encoding="UTF-8"?>
<svg width="24px" height="24px" viewBox="0 0 24 24" version="1.1" xmlns="http://www.w3.org/2000/svg" xmlns:xlink="http://www.w3.org/1999/xlink">
    <title>5188D609-FFEC-46AD-BE66-BBAE4D9A8829</title>
    <g id="Squat-laskuri" stroke="none" stroke-width="1" fill="none" fill-rule="evenodd">
        <g id="colors_and_typography" transform="translate(-1250.000000, -1058.000000)">
            <g id="turvalaite_ikonit" transform="translate(722.000000, 914.000000)">
                <g id="Asset-50" transform="translate(528.000000, 144.000000)">
                    <rect id="Rectangle" x="0" y="0" width="24" height="24"></rect>
                    <path d="M8.43,23.14 L15.57,23.14 L15.57,24 L8.43,24 L8.43,23.14 Z M14.71,6.24 L10.08,10.86 L9.28,10.06 L13.91,5.44 L14.71,6.24 L14.71,6.24 Z M10.08,5.44 L14.71,10.06 L13.91,10.86 L9.28,6.24 L10.08,5.44 L10.08,5.44 Z M14.42,23.14 L9.57,23.14 L12,14.09 L14.43,23.14 L14.42,23.14 Z M11.54,9.41 L12.45,9.41 L11.99,8.95 L11.53,9.41 L11.54,9.41 Z M11.57,9.41 L12.43,9.41 L12.43,14.09 L11.57,14.09 L11.57,9.41 Z M11.57,15.69 L11.57,14.09 L12,14.09 L11.57,15.69 Z M12.43,15.66 L12,14.09 L12.43,14.09 L12.43,15.66 Z" id="Shape" fill="#231F20" fill-rule="nonzero"></path>
                </g>
            </g>
        </g>
    </g>
</svg>