<svg width="24" height="24" viewBox="0 0 24 24" xmlns="http://www.w3.org/2000/svg">
  <g fill="none" fill-rule="evenodd">
    <path fill="#1E91D0" d="M0 0h24v24H0z"/>
    <path d="M12.2 20c-.88 0-1.75-.16-2.61-.48-.86-.32-1.63-.74-2.31-1.26-.68-.52-1.23-1.1066667-1.65-1.76-.42-.6533333-.63-1.32-.63-2v-2l2.7 2.02-1.16 1.16c.41333333.7733333 1.12 1.4633333 2.12 2.07 1 .6066667 1.98.9433333 2.94 1.01V11H9V9.8h2.6V8.32c-.5066667-.18666667-.9-.46666667-1.18-.84-.28-.37333333-.42-.8-.42-1.28 0-.61333333.2166667-1.13333333.65-1.56.4333333-.42666667.95-.64 1.55-.64.6133333 0 1.1333333.21333333 1.56.64.4266667.42666667.64.94666667.64 1.56 0 .48-.14.90666667-.42 1.28-.28.37333333-.6733333.65333333-1.18.84V9.8h2.6V11h-2.6v7.76c.96-.0666667 1.94-.4033333 2.94-1.01s1.7066667-1.2966667 2.12-2.07l-1.16-1.16 2.7-2.02v2c0 .68-.21 1.3466667-.63 2-.42.6533333-.97 1.24-1.65 1.76-.68.52-1.45.94-2.31 1.26-.86.32-1.73.48-2.61.48Zm0-12.8c.28 0 .5166667-.1.71-.3.1933333-.2.29-.43333333.29-.7 0-.28-.0966667-.51666667-.29-.71-.1933333-.19333333-.43-.29-.71-.29-.2666667 0-.5.09666667-.7.29-.2.19333333-.3.43-.3.71 0 .26666667.1.5.3.7.2.2.4333333.3.7.3Z" stroke="#FFF" stroke-width=".25" fill="#FFF" fill-rule="nonzero"/>
  </g>
</svg>
