<?xml version="1.0" encoding="UTF-8"?>
<svg width="12px" height="12px" viewBox="0 0 12 12" version="1.1" xmlns="http://www.w3.org/2000/svg" xmlns:xlink="http://www.w3.org/1999/xlink">
    <g id="Squat-laskuri" stroke="none" stroke-width="1" fill="none" fill-rule="evenodd">
        <g id="colors_and_typography" transform="translate(-1208, -1057)">
            <g id="icons" transform="translate(722, 1004)">
                <g id="back_arrow" transform="translate(492, 59) rotate(90) translate(-492, -59)translate(486, 53)">
                    <rect id="Rectangle" x="0" y="0" width="12" height="12"></rect>
                    <path d="M5.8232233,10.8232233 L1.1767767,6.1767767 C1.07914562,6.07914562 1.07914562,5.92085438 1.1767767,5.8232233 L5.8232233,1.1767767 C5.92085438,1.07914562 6.07914562,1.07914562 6.1767767,1.1767767 L6.4794733,1.4794733 C6.57710438,1.57710438 6.57710438,1.73539562 6.4794733,1.8330267 L3.2080267,5.1044733 C3.11039562,5.20210438 3.11039562,5.36039562 3.2080267,5.4580267 C3.25491079,5.50491079 3.31849927,5.53125 3.38480339,5.53125 L10.75,5.53125 C10.8880712,5.53125 11,5.64317881 11,5.78125 L11,6.21875 C11,6.35682119 10.8880712,6.46875 10.75,6.46875 L3.38480339,6.46875 C3.2467322,6.46875 3.13480339,6.58067881 3.13480339,6.71875 C3.13480339,6.78505412 3.1611426,6.8486426 3.2080267,6.8955267 L6.4794733,10.1669733 C6.57710438,10.2646044 6.57710438,10.4228956 6.4794733,10.5205267 L6.1767767,10.8232233 C6.07914562,10.9208544 5.92085438,10.9208544 5.8232233,10.8232233 Z" id="Path" stroke="#000000" stroke-width="0.25" fill="#000000" fill-rule="nonzero"></path>
                </g>
            </g>
        </g>
    </g>
</svg>