<?xml version="1.0" encoding="UTF-8"?>
<svg width="24px" height="24px" viewBox="0 0 24 24" version="1.1" xmlns="http://www.w3.org/2000/svg" xmlns:xlink="http://www.w3.org/1999/xlink">
    <g id="Squat-laskuri" stroke="none" stroke-width="1" fill="none" fill-rule="evenodd">
        <g id="colors_and_typography" transform="translate(-1010.000000, -842.000000)">
            <g id="icons" transform="translate(722.000000, 748.000000)">
                <g id="fairway_icon-copy-4" transform="translate(288.000000, 94.000000)">
                    <rect id="Rectangle" x="0" y="0" width="24" height="24"></rect>
                    <path d="M7.29545455,20 C6.93181818,20 6.61363636,19.8666667 6.34090909,19.6 C6.06818182,19.3333333 5.93181818,19.0222222 5.93181818,18.6666667 L5.93181818,6 L5,6 L5,4.66666667 L9.27272727,4.66666667 L9.27272727,4 L15.2727273,4 L15.2727273,4.66666667 L19.5454545,4.66666667 L19.5454545,6 L18.6136364,6 L18.6136364,18.6666667 C18.6136364,19.0222222 18.4772727,19.3333333 18.2045455,19.6 C17.9318182,19.8666667 17.6136364,20 17.25,20 L7.29545455,20 Z M17.25,6 L7.29545455,6 L7.29545455,18.6666667 C7.29545455,18.6666667 7.29545455,18.6666667 7.29545455,18.6666667 C7.29545455,18.6666667 7.29545455,18.6666667 7.29545455,18.6666667 L17.25,18.6666667 C17.25,18.6666667 17.25,18.6666667 17.25,18.6666667 C17.25,18.6666667 17.25,18.6666667 17.25,18.6666667 L17.25,6 Z M9.70454545,16.7555556 L11.0681818,16.7555556 L11.0681818,7.88888889 L9.70454545,7.88888889 L9.70454545,16.7555556 Z M13.4772727,16.7555556 L14.8409091,16.7555556 L14.8409091,7.88888889 L13.4772727,7.88888889 L13.4772727,16.7555556 Z M7.29545455,6 L7.29545455,18.6666667 C7.29545455,18.6666667 7.29545455,18.6666667 7.29545455,18.6666667 C7.29545455,18.6666667 7.29545455,18.6666667 7.29545455,18.6666667 C7.29545455,18.6666667 7.29545455,18.6666667 7.29545455,18.6666667 C7.29545455,18.6666667 7.29545455,18.6666667 7.29545455,18.6666667 L7.29545455,6 Z" id="delete" stroke="#0066B5" stroke-width="0.5" fill="#0064AF" fill-rule="nonzero"></path>
                </g>
            </g>
        </g>
    </g>
</svg>