<?xml version="1.0" encoding="UTF-8"?>
<svg width="24px" height="24px" viewBox="0 0 24 24" version="1.1" xmlns="http://www.w3.org/2000/svg" xmlns:xlink="http://www.w3.org/1999/xlink">
    <title>Group 3</title>
    <g id="Digitaalinen-väyläkortti-(DVK)---YLLÄPITOKÄYTTÖLIITTYMÄ" stroke="none" stroke-width="1" fill="none" fill-rule="evenodd">
        <g id="dvk_ylläpitokäyttöliittymä_väyläkortti_täytetty_väliaikainen_huomio" transform="translate(-942, -743)">
            <g id="käyttösuositukset-copy" transform="translate(48, 484)">
                <g id="Form/Textarea/Filled-Copy-14" transform="translate(473, 225)">
                    <g id="Group-3" transform="translate(421, 34)">
                        <rect id="Rectangle" x="0" y="0" width="24" height="24"></rect>
                        <path d="M5,22 C4.45,22 3.97916667,21.8041667 3.5875,21.4125 C3.19583333,21.0208333 3,20.55 3,20 L3,6 C3,5.45 3.19583333,4.97916667 3.5875,4.5875 C3.97916667,4.19583333 4.45,4 5,4 L5.75,4 C5.88807119,4 6,3.88807119 6,3.75 L6,2.25 C6,2.11192881 6.11192881,2 6.25,2 L7.75,2 C7.88807119,2 8,2.11192881 8,2.25 L8,3.75 C8,3.88807119 8.11192881,4 8.25,4 L15.75,4 C15.8880712,4 16,3.88807119 16,3.75 L16,2.25 C16,2.11192881 16.1119288,2 16.25,2 L17.75,2 C17.8880712,2 18,2.11192881 18,2.25 L18,3.75 C18,3.88807119 18.1119288,4 18.25,4 L19,4 L19,4 C19.55,4 20.0208333,4.19583333 20.4125,4.5875 C20.8041667,4.97916667 21,5.45 21,6 L21,20 C21,20.55 20.8041667,21.0208333 20.4125,21.4125 C20.0208333,21.8041667 19.55,22 19,22 L5,22 Z M5.25,20 L18.75,20 C18.8880712,20 19,19.8880712 19,19.75 L19,10.25 C19,10.1119288 18.8880712,10 18.75,10 L5.25,10 C5.11192881,10 5,10.1119288 5,10.25 L5,19.75 C5,19.8880712 5.11192881,20 5.25,20 Z M5.25,8 L18.75,8 C18.8880712,8 19,7.88807119 19,7.75 L19,6.25 C19,6.11192881 18.8880712,6 18.75,6 L5.25,6 C5.11192881,6 5,6.11192881 5,6.25 L5,7.75 C5,7.88807119 5.11192881,8 5.25,8 Z M5.0375,8 L5.0375,6 L5.0375,8 Z" id="Shape" stroke="#0064AF" stroke-width="0.5" fill="#0064AF" fill-rule="nonzero"></path>
                    </g>
                </g>
            </g>
        </g>
    </g>
</svg>