<svg width="24" height="24" viewBox="0 0 24 24" xmlns="http://www.w3.org/2000/svg">
  <g fill="none" fill-rule="evenodd">
    <path d="M0 0h24v24H0z"/>
    <path d="M18.436092 12.823592 9.7892767 4.1767767c-.09763108-.09763108-.25592232-.09763108-.3535534 0L8.1772248 5.4352752c-.09763108.09763108-.09763108.25592232 0 .35355339a.24846509.24846509 0 0 0 .0004481.00044697l7.0696542 7.03394884c.0978779.0973836.0982787.2556744.0008951.3535523a.23605764.23605764 0 0 1-.000447.0004481l-7.0334985 7.0334985c-.09763108.0976311-.09763108.2559223 0 .3535534l1.25857717 1.2585772c.09763107.097631.25592231.097631.35355339 0a.2853634.2853634 0 0 0 .00036866-.0003695l8.60968468-8.6457085c.0972833-.0976903.0971184-.2556969-.0003686-.3531839Z" stroke="currentColor" fill="currentColor" fill-rule="nonzero"/>
  </g>
</svg>
