<svg width="24" height="24" viewBox="0 0 24 24" xmlns="http://www.w3.org/2000/svg">
  <g fill="none" fill-rule="evenodd">
    <path d="M0 0h24v24H0z"/>
    <path d="m18.8232233 6.2332233-1.0564466-1.0564466c-.0976311-.09763108-.2559223-.09763108-.3535534 0l-5.2364466 5.2364466c-.0976311.0976311-.2559223.0976311-.3535534 0L6.5867767 5.1767767c-.09763108-.09763108-.25592232-.09763108-.3535534 0L5.1767767 6.2332233c-.09763108.09763108-.09763108.25592232 0 .3535534l5.2364466 5.2364466c.0976311.0976311.0976311.2559223 0 .3535534l-5.2364466 5.2364466c-.09763108.0976311-.09763108.2559223 0 .3535534l1.0564466 1.0564466c.09763108.0976311.25592232.0976311.3535534 0l5.2364466-5.2364466c.0976311-.0976311.2559223-.0976311.3535534 0l5.2364466 5.2364466c.0976311.0976311.2559223.0976311.3535534 0l1.0564466-1.0564466c.0976311-.0976311.0976311-.2559223 0-.3535534l-5.2364466-5.2364466c-.0976311-.0976311-.0976311-.2559223 0-.3535534l5.2364466-5.2364466c.0976311-.09763108.0976311-.25592232 0-.3535534Z" stroke="#333" fill="#333" fill-rule="nonzero"/>
  </g>
</svg>
