<?xml version="1.0" encoding="UTF-8"?>
<svg width="24px" height="24px" viewBox="0 0 24 24" version="1.1" xmlns="http://www.w3.org/2000/svg" xmlns:xlink="http://www.w3.org/1999/xlink">
    <title>46B3FA7B-2D84-4C02-A96B-D6BBF0736231</title>
    <g id="Squat-laskuri" stroke="none" stroke-width="1" fill="none" fill-rule="evenodd">
        <g id="colors_and_typography" transform="translate(-1058, -1098)">
            <g id="icons" transform="translate(722, 1004)">
                <g id="crop_landscape_icon" transform="translate(336, 94)">
                    <rect id="Rectangle" x="0" y="0" width="24" height="24"></rect>
                    <path d="M1.8,22 C1.32,22 0.9,21.8125 0.54,21.4375 C0.18,21.0625 0,20.625 0,20.125 L0,3.875 C0,3.375 0.18,2.9375 0.54,2.5625 C0.9,2.1875 1.32,2 1.8,2 L22.2,2 C22.68,2 23.1,2.1875 23.46,2.5625 C23.82,2.9375 24,3.375 24,3.875 L24,20.125 C24,20.625 23.82,21.0625 23.46,21.4375 C23.1,21.8125 22.68,22 22.2,22 L1.8,22 Z M1.8,20.125 L22.2,20.125 L22.2,3.875 L1.8,3.875 L1.8,20.125 Z M1.835,20.125 L1.835,3.875 L1.835,20.125 Z" id="crop_landscape" stroke="#FFFFFF" fill="#FFFFFF" fill-rule="nonzero"></path>
                </g>
            </g>
        </g>
    </g>
</svg>