<?xml version="1.0" encoding="UTF-8"?>
<svg width="24px" height="24px" viewBox="0 0 24 24" version="1.1" xmlns="http://www.w3.org/2000/svg" xmlns:xlink="http://www.w3.org/1999/xlink">
    <title>81C372DF-83E3-4FC5-B05D-D071985EA9AB</title>
    <g id="Squat-laskuri" stroke="none" stroke-width="1" fill="none" fill-rule="evenodd">
        <g id="colors_and_typography" transform="translate(-1106, -1098)">
            <g id="icons" transform="translate(722, 1004)">
                <g id="crop_portrait_icon" transform="translate(384, 94)">
                    <rect id="Rectangle" x="0" y="0" width="24" height="24"></rect>
                    <path d="M20.125,24 L3.875,24 C3.375,24 2.9375,23.82 2.5625,23.46 C2.1875,23.1 2,22.68 2,22.2 L2,1.8 C2,1.32 2.1875,0.9 2.5625,0.54 C2.9375,0.18 3.375,0 3.875,0 L20.125,0 C20.625,0 21.0625,0.18 21.4375,0.54 C21.8125,0.9 22,1.32 22,1.8 L22,22.2 C22,22.68 21.8125,23.1 21.4375,23.46 C21.0625,23.82 20.625,24 20.125,24 Z M3.875,22.2 L20.125,22.2 L20.125,1.8 L3.875,1.8 L3.875,22.2 Z M3.91145833,22.2 L3.91145833,1.8 L3.91145833,22.2 Z" id="crop_portrait" stroke="#0064AF" fill="#0064AF" fill-rule="nonzero"></path>
                </g>
            </g>
        </g>
    </g>
</svg>