<?xml version="1.0" encoding="UTF-8"?>
<svg width="34px" height="43px" viewBox="0 0 34 43" version="1.1" xmlns="http://www.w3.org/2000/svg" xmlns:xlink="http://www.w3.org/1999/xlink">
    <filter id="dropshadow">
        <feDropShadow dx="0" dy="0" stdDeviation="0.5" flood-color="white" flood-opacity="1"></feDropShadow>
        <feDropShadow dx="0" dy="0" stdDeviation="0.5" flood-color="white" flood-opacity="1"></feDropShadow>
        <feDropShadow dx="0" dy="0" stdDeviation="0.5" flood-color="white" flood-opacity="1"></feDropShadow>
    </filter>
    <g id="Squat-laskuri" stroke="none" stroke-width="1" fill="none" fill-rule="evenodd" stroke-opacity="0.5" filter="url(#dropshadow)">
        <g id="colors_and_typography" transform="translate(-1225.000000, -855.000000)" fill="#000000" fill-rule="nonzero" stroke="#FFFFFF">
            <g id="dock_icon" transform="translate(1226.000000, 856.000000)">
                <path d="M16,-0.5 C20.3610996,-0.5 24.199741,1.02579492 27.5139818,4.08245229 C30.8295839,7.14036511 32.5,11.2422339 32.5,16.4 C32.5,19.8164667 31.1573939,23.5376121 28.4391177,27.5551902 C25.7687444,31.5019683 21.7322586,35.7787616 16.3240301,40.3807945 C10.2677414,35.7787616 6.23125557,31.5019683 3.56088235,27.5551902 C0.842606106,23.5376121 -0.5,19.8164667 -0.5,16.4 C-0.5,11.2422339 1.17041607,7.14036511 4.48601817,4.08245229 C7.80025903,1.02579492 11.6389004,-0.5 16,-0.5 Z M16,3.5 C12.506019,3.5 9.5479118,4.70022111 7.12737685,7.10472603 C4.70322077,9.51282809 3.5,12.6138602 3.5,16.4 C3.5,18.8237617 4.56943928,21.6205059 6.66732418,24.7996084 C8.75998193,27.9707898 11.87349,31.4928193 16.003677,35.3690575 C20.2258635,31.4942609 23.3612107,27.9739937 25.4047577,24.8040823 C27.4553215,21.6232865 28.5,18.8248414 28.5,16.4 C28.5,12.6138602 27.2967792,9.51282809 24.8726232,7.10472603 C22.4520882,4.70022111 19.493981,3.5 16,3.5 Z M16,7.5 C16.9060606,7.5 17.6735217,7.81641491 18.3035534,8.44644661 C18.9335851,9.07647831 19.25,9.84393939 19.25,10.75 C19.25,11.4628527 19.040625,12.0958333 18.625,12.65 C18.2829472,13.1060704 17.8262552,13.4696094 17.25,13.7342938 L17.25,14.75 L20.5,14.75 L20.5,17.25 L17.25,17.25 L17.25,25.8902054 C18.2056673,25.7388493 19.1768966,25.3598655 20.1656597,24.760016 C21.187636,24.140017 21.9522731,23.4500944 22.4481059,22.6802126 L20.8633073,21.0954141 L25.5,17.626481 L25.5,21.125 C25.5,22.0658821 25.2148688,22.9903884 24.6330892,23.8953788 C24.078112,24.7586767 23.3524044,25.5349536 22.4537251,26.2221789 C21.5655661,26.9013593 20.5602016,27.4506259 19.4368669,27.8686109 C18.3044126,28.2899892 17.1587107,28.5 16,28.5 C14.8412893,28.5 13.6955874,28.2899892 12.5631331,27.8686109 C11.4397984,27.4506259 10.4344339,26.9013593 9.54627495,26.2221789 C8.64759564,25.5349536 7.92188796,24.7586767 7.36691076,23.8953788 C6.78513122,22.9903884 6.5,22.0658821 6.5,21.125 L6.5,17.626481 L11.1366927,21.0954141 L9.55189414,22.6802126 C10.0477269,23.4500944 10.812364,24.140017 11.8343403,24.760016 C12.8231034,25.3598655 13.7943327,25.7388493 14.75,25.8902054 L14.75,17.25 L11.5,17.25 L11.5,14.75 L14.75,14.75 L14.75,13.7342938 C14.1737448,13.4696094 13.7170528,13.1060704 13.375,12.65 C12.959375,12.0958333 12.75,11.4628527 12.75,10.75 C12.75,9.84304666 13.0710636,9.07449496 13.7116979,8.44371659 C14.3514383,7.81381837 15.114512,7.5 16,7.5 Z M16,10 C15.7981412,10 15.6232222,10.0763068 15.472511,10.2219942 C15.323777,10.3657704 15.25,10.5419398 15.25,10.75 C15.25,10.95 15.3295686,11.1224619 15.4785534,11.2714466 C15.6275381,11.4204314 15.8,11.5 16,11.5 C16.2080602,11.5 16.3842296,11.426223 16.5280058,11.277489 C16.6736932,11.1267778 16.75,10.9518588 16.75,10.75 C16.75,10.54 16.6793405,10.3614473 16.5339466,10.2160534 C16.3885527,10.0706595 16.21,10 16,10 Z" id="Shape"></path>
            </g>
        </g>
    </g>
</svg>