<?xml version="1.0" encoding="UTF-8"?>
<svg width="16px" height="16px" viewBox="0 0 16 16" version="1.1" xmlns="http://www.w3.org/2000/svg" xmlns:xlink="http://www.w3.org/1999/xlink">
    <g id="Squat-laskuri" stroke="none" stroke-width="1" fill="none" fill-rule="evenodd">
        <g id="colors_and_typography" transform="translate(-968, -940)" fill="#0064AF" fill-rule="nonzero" stroke="#0064AF">
            <g id="help_FILL0_wght400_GRAD0_opsz48" transform="translate(968, 940)">
                <path d="M8.08,12.66 C8.29333333,12.66 8.47333333,12.5866667 8.62,12.44 C8.76666667,12.2933333 8.84,12.1133333 8.84,11.9 C8.84,11.6866667 8.76666667,11.5066667 8.62,11.36 C8.47333333,11.2133333 8.29333333,11.14 8.08,11.14 C7.86666667,11.14 7.68666667,11.2133333 7.54,11.36 C7.39333333,11.5066667 7.32,11.6866667 7.32,11.9 C7.32,12.1133333 7.39333333,12.2933333 7.54,12.44 C7.68666667,12.5866667 7.86666667,12.66 8.08,12.66 Z M7.38,9.74 L8.56,9.74 C8.56,9.39333333 8.60333333,9.07666667 8.69,8.79 C8.77666667,8.50333333 9.04666667,8.17333333 9.5,7.8 C9.91333333,7.45333333 10.2066667,7.11333333 10.38,6.78 C10.5533333,6.44666667 10.64,6.08 10.64,5.68 C10.64,4.97333333 10.41,4.40666667 9.95,3.98 C9.49,3.55333333 8.88,3.34 8.12,3.34 C7.46666667,3.34 6.89,3.50333333 6.39,3.83 C5.89,4.15666667 5.52666667,4.60666667 5.3,5.18 L6.36,5.58 C6.50666667,5.20666667 6.72666667,4.91666667 7.02,4.71 C7.31333333,4.50333333 7.66,4.4 8.06,4.4 C8.51333333,4.4 8.88,4.52333333 9.16,4.77 C9.44,5.01666667 9.58,5.33333333 9.58,5.72 C9.58,6.01333333 9.49333333,6.29 9.32,6.55 C9.14666667,6.81 8.89333333,7.08 8.56,7.36 C8.16,7.70666667 7.86333333,8.05 7.67,8.39 C7.47666667,8.73 7.38,9.18 7.38,9.74 L7.38,9.74 Z M8,16 C6.90666667,16 5.87333333,15.79 4.9,15.37 C3.92666667,14.95 3.07666667,14.3766667 2.35,13.65 C1.62333333,12.9233333 1.05,12.0733333 0.63,11.1 C0.21,10.1266667 0,9.09333333 0,8 C0,6.89333333 0.21,5.85333333 0.63,4.88 C1.05,3.90666667 1.62333333,3.06 2.35,2.34 C3.07666667,1.62 3.92666667,1.05 4.9,0.63 C5.87333333,0.21 6.90666667,0 8,0 C9.10666667,0 10.1466667,0.21 11.12,0.63 C12.0933333,1.05 12.94,1.62 13.66,2.34 C14.38,3.06 14.95,3.90666667 15.37,4.88 C15.79,5.85333333 16,6.89333333 16,8 C16,9.09333333 15.79,10.1266667 15.37,11.1 C14.95,12.0733333 14.38,12.9233333 13.66,13.65 C12.94,14.3766667 12.0933333,14.95 11.12,15.37 C10.1466667,15.79 9.10666667,16 8,16 Z M8,14.8 C9.89333333,14.8 11.5,14.1366667 12.82,12.81 C14.14,11.4833333 14.8,9.88 14.8,8 C14.8,6.10666667 14.14,4.5 12.82,3.18 C11.5,1.86 9.89333333,1.2 8,1.2 C6.12,1.2 4.51666667,1.86 3.19,3.18 C1.86333333,4.5 1.2,6.10666667 1.2,8 C1.2,9.88 1.86333333,11.4833333 3.19,12.81 C4.51666667,14.1366667 6.12,14.8 8,14.8 Z" id="help"></path>
            </g>
        </g>
    </g>
</svg>