<svg width="22" height="22" viewBox="0 0 22 22" xmlns="http://www.w3.org/2000/svg">
  <path d="m10.84651485 20.6584004-9.58642047-7.4561048c-.1089868-.0847675-.1286204-.2418364-.0438529-.3508232a.24999998.24999998 0 0 1 .0486273-.0474753l.97158332-.7189717c.09012689-.0666939.21363415-.0652272.30215182.0035882l8.30795501 6.458765c.09026045.0701702.21662167.0701702.30688217 0l8.307955-6.458765c.0885177-.0688154.2120249-.0702821.3021518-.0035882l.9715833.7189717c.1109874.0821307.1343804.2386838.0522497.3496712a.2499952.2499952 0 0 1-.0474753.0486273l-9.5864204 7.4561048c-.0902777.070216-.21669273.070216-.30697035 0Zm0-4.2222222-9.5927945-7.46106237c-.1089868-.08476751-.1286204-.24183641-.0438529-.35082321a.25000043.25000043 0 0 1 .0438529-.0438529l9.5927945-7.46106238c.09027762-.07021593.21669265-.07021593.30697035 0l9.5927944 7.46106238c.1089868.08476751.1286205.24183641.0438529.35082321a.24999786.24999786 0 0 1-.0438529.0438529l-9.5927944 7.46106237c-.0902777.0702159-.21669273.0702159-.30697035 0Zm.30707455-2.1113224 6.8708486-5.34982108c.108942-.08482507.1284926-.24190432.0436675-.35084632a.2500004.2500004 0 0 0-.0436675-.04366757l-6.8708486-5.34982104c-.0903182-.07032407-.21686061-.07032407-.30717878 0L3.97556203 8.58052083c-.10894201.08482507-.12849264.24190432-.04366757.35084633a.24999971.24999971 0 0 0 .04366757.04366756l6.87084859 5.34982108c.09031817.070324.21686058.070324.30717878 0Z" fill="#FFF" fill-rule="nonzero" stroke="#FFF"/>
</svg>
