<svg width="26" height="26" viewBox="0 0 26 26" xmlns="http://www.w3.org/2000/svg">
  <defs>
    <clipPath id="a">
      <path d="M1500 0v1024H0V0h1500Z"/>
    </clipPath>
    <clipPath id="b">
      <path d="M12.5719178 0c.1380712 0 .25.11192881.25.25v1.80479452c2.5022831.25570776 4.5844749 1.21461187 6.2465754 2.87671233 1.6621004 1.66210046 2.6210045 3.74429224 2.8767123 6.24657535H23.75c.1380712 0 .25.1119288.25.25v1.1438356c0 .1380712-.1119288.25-.25.25h-1.8047945c-.2557078 2.5022831-1.2146119 4.5844749-2.8767123 6.2465754-1.6621005 1.6621004-3.7442923 2.6210045-6.2465754 2.8767123V23.75c0 .1380712-.1119288.25-.25.25h-1.1438356c-.1380712 0-.25-.1119288-.25-.25v-1.8047945c-2.50228311-.2557078-4.58447489-1.2146119-6.24657535-2.8767123-1.66210046-1.6621005-2.62100457-3.7442923-2.87671233-6.2465754H.25c-.13807119 0-.25-.1119288-.25-.25v-1.1438356c0-.1380712.11192881-.25.25-.25h1.80479452c.25570776-2.50228311 1.21461187-4.58447489 2.87671233-6.24657535 1.66210046-1.66210046 3.74429224-2.62100457 6.24657535-2.87671233V.25c0-.13807119.1119288-.25.25-.25h1.1438356ZM12 3.67123288c-2.28310502 0-4.24200913.81735159-5.87671233 2.45205479C4.48858447 7.75799087 3.67123288 9.71689498 3.67123288 12c0 2.283105.81735159 4.2420091 2.45205479 5.8767123C7.75799087 19.5114155 9.71689498 20.3287671 12 20.3287671c2.283105 0 4.2420091-.8173516 5.8767123-2.4520548C19.5114155 16.2420091 20.3287671 14.283105 20.3287671 12c0-2.28310502-.8173516-4.24200913-2.4520548-5.87671233C16.2420091 4.48858447 14.283105 3.67123288 12 3.67123288Zm0 4.21917808c1.1506849 0 2.1232877.39726027 2.9178082 1.19178082C15.7123288 9.87671233 16.109589 10.8493151 16.109589 12s-.3972602 2.1232877-1.1917808 2.9178082C14.1232877 15.7123288 13.1506849 16.109589 12 16.109589c-1.1506849 0-2.12328767-.3972602-2.91780822-1.1917808C8.28767123 14.1232877 7.89041096 13.1506849 7.89041096 12c0-1.1506849.39726027-2.12328767 1.19178082-2.91780822C9.87671233 8.28767123 10.8493151 7.89041096 12 7.89041096Zm0 1.64383562c-.6940639 0-1.2785388.23744292-1.7534247.71232872-.4748858.4748859-.71232872 1.0593608-.71232872 1.7534247s.23744292 1.2785388.71232872 1.7534247c.4748859.4748858 1.0593608.7123287 1.7534247.7123287s1.2785388-.2374429 1.7534247-.7123287c.4748858-.4748859.7123287-1.0593608.7123287-1.7534247s-.2374429-1.2785388-.7123287-1.7534247C13.2785388 9.7716895 12.6940639 9.53424658 12 9.53424658Z"/>
    </clipPath>
  </defs>
  <g clip-path="url(#a)" transform="translate(-1419 -831)">
    <g clip-path="url(#b)" transform="translate(1420 832)">
      <path fill="#0063AF" d="M0 0h24v24H0V0z"/>
    </g>
    <path d="M1431.1780822 855.75v-1.8047945c-2.50228311-.2557078-4.58447489-1.2146119-6.24657535-2.8767123-1.66210046-1.6621005-2.62100457-3.7442923-2.87671233-6.2465754H1420.25c-.13807119 0-.25-.1119288-.25-.25v-1.1438356c0-.1380712.11192881-.25.25-.25h1.80479452c.25570776-2.50228311 1.21461187-4.58447489 2.87671233-6.24657535 1.66210046-1.66210046 3.74429224-2.62100457 6.24657535-2.87671233V832.25c0-.13807119.1119288-.25.25-.25h1.1438356c.1380712 0 .25.11192881.25.25v1.80479452c2.5022831.25570776 4.5844749 1.21461187 6.2465754 2.87671233 1.6621004 1.66210046 2.6210045 3.74429224 2.8767123 6.24657535H1443.75c.1380712 0 .25.1119288.25.25v1.1438356c0 .1380712-.1119288.25-.25.25h-1.8047945c-.2557078 2.5022831-1.2146119 4.5844749-2.8767123 6.2465754-1.6621005 1.6621004-3.7442923 2.6210045-6.2465754 2.8767123V855.75c0 .1380712-.1119288.25-.25.25h-1.1438356c-.1380712 0-.25-.1119288-.25-.25ZM1432 852.3287671c2.283105 0 4.2420091-.8173516 5.8767123-2.4520548 1.6347032-1.6347032 2.4520548-3.5936073 2.4520548-5.8767123 0-2.28310502-.8173516-4.24200913-2.4520548-5.87671233-1.6347032-1.6347032-3.5936073-2.45205479-5.8767123-2.45205479-2.28310502 0-4.24200913.81735159-5.87671233 2.45205479-1.6347032 1.6347032-2.45205479 3.59360731-2.45205479 5.87671233 0 2.283105.81735159 4.2420091 2.45205479 5.8767123 1.6347032 1.6347032 3.59360731 2.4520548 5.87671233 2.4520548Zm0-4.2191781c-1.1506849 0-2.12328767-.3972602-2.91780822-1.1917808-.79452055-.7945205-1.19178082-1.7671233-1.19178082-2.9178082 0-1.1506849.39726027-2.12328767 1.19178082-2.91780822.79452055-.79452055 1.76712332-1.19178082 2.91780822-1.19178082s2.1232877.39726027 2.9178082 1.19178082c.7945206.79452055 1.1917808 1.76712332 1.1917808 2.91780822s-.3972602 2.1232877-1.1917808 2.9178082c-.7945205.7945206-1.7671233 1.1917808-2.9178082 1.1917808Zm0-1.6438356c.6940639 0 1.2785388-.2374429 1.7534247-.7123287.4748858-.4748859.7123287-1.0593608.7123287-1.7534247s-.2374429-1.2785388-.7123287-1.7534247c-.4748859-.4748858-1.0593608-.71232872-1.7534247-.71232872s-1.2785388.23744292-1.7534247.71232872c-.4748858.4748859-.71232872 1.0593608-.71232872 1.7534247s.23744292 1.2785388.71232872 1.7534247c.4748859.4748858 1.0593608.7123287 1.7534247.7123287Z" stroke="#0063AF" fill="none" stroke-miterlimit="10"/>
  </g>
</svg>
