<svg width="15" height="19" viewBox="0 0 15 19" xmlns="http://www.w3.org/2000/svg">
  <path d="M7.5.5c1.956 0 3.61.675 4.965 2.02C13.815 3.862 14.5 5.586 14.5 7.7c0 1.325-.543 2.864-1.667 4.608-1.077 1.67-2.74 3.535-4.997 5.587-2.878-2.053-4.528-3.914-5.628-5.582C1.056 10.567.5 9.026.5 7.7c0-2.114.684-3.838 2.035-5.18C3.89 1.175 5.544.5 7.5.5Zm0 5c-.552 0-1.052.224-1.414.586A1.994 1.994 0 0 0 5.5 7.5c0 .552.224 1.052.586 1.414.362.362.862.586 1.414.586.552 0 1.052-.224 1.414-.586.362-.362.586-.862.586-1.414 0-.552-.224-1.052-.586-1.414A1.994 1.994 0 0 0 7.5 5.5Z" fill="#0064AF" fill-rule="nonzero" stroke="#FFF" stroke-opacity=".5"/>
</svg>
