<?xml version="1.0" encoding="UTF-8"?>
<svg width="15px" height="19px" viewBox="0 0 15 19" version="1.1" xmlns="http://www.w3.org/2000/svg" xmlns:xlink="http://www.w3.org/1999/xlink">
    <title>location_on_FILL0_wght400_GRAD0_opsz48</title>
    <g id="Digitaalinen-väyläkortti-(DVK)---VÄYLÄKORTTI" stroke="none" stroke-width="1" fill="none" fill-rule="evenodd" stroke-opacity="0.5">
        <g id="dvk_main_fullscreen_search_result_harbor_v3" transform="translate(-949, -923)" fill="#0064AF" fill-rule="nonzero" stroke="#FFFFFF">
            <g id="docks" transform="translate(793, 37)">
                <g id="Group-2-Copy-2" transform="translate(142, 866)">
                    <g id="location_on_FILL0_wght400_GRAD0_opsz48" transform="translate(15, 21)">
                        <path d="M6.5,-0.5 C8.456019,-0.5 10.1104118,0.17477889 11.4648768,1.52027397 C12.8157208,2.86217191 13.5,4.58613978 13.5,6.7 C13.5,8.0251586 12.9571785,9.56421347 11.8327423,11.3084177 C10.7558419,12.9788852 9.09231123,14.8425419 6.83647478,16.8948442 C3.95753047,14.8416163 2.30848103,12.9810349 1.20767582,11.3128916 C0.0555607248,9.5669941 -0.5,8.02623829 -0.5,6.7 C-0.5,4.58613978 0.184279229,2.86217191 1.53512315,1.52027397 C2.8895882,0.17477889 4.543981,-0.5 6.5,-0.5 Z M6.5,4.5 C5.94771525,4.5 5.44771525,4.72385763 5.08578644,5.08578644 C4.72385763,5.44771525 4.5,5.94771525 4.5,6.5 C4.5,7.05228475 4.72385763,7.55228475 5.08578644,7.91421356 C5.44771525,8.27614237 5.94771525,8.5 6.5,8.5 C7.05228475,8.5 7.55228475,8.27614237 7.91421356,7.91421356 C8.27614237,7.55228475 8.5,7.05228475 8.5,6.5 C8.5,5.94771525 8.27614237,5.44771525 7.91421356,5.08578644 C7.55228475,4.72385763 7.05228475,4.5 6.5,4.5 Z" id="Shape"></path>
                    </g>
                </g>
            </g>
        </g>
    </g>
</svg>