<?xml version="1.0" encoding="UTF-8"?>
<svg width="18px" height="18px" viewBox="0 0 18 18" version="1.1" xmlns="http://www.w3.org/2000/svg" xmlns:xlink="http://www.w3.org/1999/xlink">
    <title>Shape</title>
    <g id="Digitaalinen-väyläkortti-(DVK)---YLLÄPITOKÄYTTÖLIITTYMÄ" stroke="none" stroke-width="1" fill="none" fill-rule="evenodd">
        <g id="admin_edit_view_1_empty_print_selection_10_new" transform="translate(-923, -700)" fill="#0066B5" fill-rule="nonzero" stroke="#0066B5" stroke-width="0.5">
            <g id="tuloste-copy-2" transform="translate(48, 299)">
                <g id="my_location-copy-8" transform="translate(864, 390)">
                    <path d="M13.7777778,28 C13.2888889,28 12.8703704,27.8259259 12.5222222,27.4777778 C12.1740741,27.1296296 12,26.7111111 12,26.2222222 L12,13.7777778 C12,13.2888889 12.1740741,12.8703704 12.5222222,12.5222222 C12.8703704,12.1740741 13.2888889,12 13.7777778,12 L21.5277778,12 C21.665849,12 21.7777778,12.1119288 21.7777778,12.25 L21.7777778,13.5277778 C21.7777778,13.665849 21.665849,13.7777778 21.5277778,13.7777778 L14.0277778,13.7777778 C13.8897066,13.7777778 13.7777778,13.8897066 13.7777778,14.0277778 L13.7777778,25.9722222 C13.7777778,26.1102934 13.8897066,26.2222222 14.0277778,26.2222222 L25.9722222,26.2222222 C26.1102934,26.2222222 26.2222222,26.1102934 26.2222222,25.9722222 L26.2222222,18.4722222 C26.2222222,18.334151 26.334151,18.2222222 26.4722222,18.2222222 L27.75,18.2222222 C27.8880712,18.2222222 28,18.334151 28,18.4722222 L28,26.2222222 L28,26.2222222 C28,26.7111111 27.8259259,27.1296296 27.4777778,27.4777778 C27.1296296,27.8259259 26.7111111,28 26.2222222,28 L13.7777778,28 Z M24.4444444,17.0833333 L24.4444444,15.8055556 C24.4444444,15.6674844 24.3325156,15.5555556 24.1944444,15.5555556 L22.9166667,15.5555556 C22.7785955,15.5555556 22.6666667,15.4436267 22.6666667,15.3055556 L22.6666667,14.0277778 C22.6666667,13.8897066 22.7785955,13.7777778 22.9166667,13.7777778 L24.1944444,13.7777778 C24.3325156,13.7777778 24.4444444,13.665849 24.4444444,13.5277778 L24.4444444,12.25 C24.4444444,12.1119288 24.5563733,12 24.6944444,12 L25.9722222,12 C26.1102934,12 26.2222222,12.1119288 26.2222222,12.25 L26.2222222,13.5277778 C26.2222222,13.665849 26.334151,13.7777778 26.4722222,13.7777778 L27.75,13.7777778 C27.8880712,13.7777778 28,13.8897066 28,14.0277778 L28,15.3055556 C28,15.4436267 27.8880712,15.5555556 27.75,15.5555556 L26.4722222,15.5555556 C26.334151,15.5555556 26.2222222,15.6674844 26.2222222,15.8055556 L26.2222222,17.0833333 C26.2222222,17.2214045 26.1102934,17.3333333 25.9722222,17.3333333 L24.6944444,17.3333333 C24.5563733,17.3333333 24.4444444,17.2214045 24.4444444,17.0833333 Z M15.1666667,24.4444444 L24.8333333,24.4444444 C24.9714045,24.4444444 25.0833333,24.3325156 25.0833333,24.1944444 C25.0833333,24.1403519 25.0657889,24.0877185 25.0333333,24.0444444 L22.2,20.2666667 C22.1171573,20.1562097 21.9604569,20.133824 21.85,20.2166667 C21.8310486,20.2308802 21.8142136,20.2477153 21.8,20.2666667 L19.5333333,23.2888889 C19.4504906,23.3993458 19.2937903,23.4217316 19.1833333,23.3388889 C19.1643819,23.3246753 19.1475469,23.3078403 19.1333333,23.2888889 L17.5333333,21.1555556 C17.4504906,21.0450986 17.2937903,21.0227128 17.1833333,21.1055556 C17.1643819,21.1197691 17.1475469,21.1366041 17.1333333,21.1555556 L14.9666667,24.0444444 C14.883824,24.1549014 14.9062097,24.3116017 15.0166667,24.3944444 C15.0599407,24.4269 15.1125741,24.4444444 15.1666667,24.4444444 Z M13.8166667,13.7777778 L13.8166667,26.2222222 L13.8166667,13.7777778 Z" id="Shape"></path>
                </g>
            </g>
        </g>
    </g>
</svg>