<?xml version="1.0" encoding="UTF-8"?><svg version="1.1" width="18px" height="4px" viewBox="0 0 18.0 4.0" xmlns="http://www.w3.org/2000/svg" xmlns:xlink="http://www.w3.org/1999/xlink"><defs><clipPath id="i0"><path d="M1500,0 L1500,1024 L0,1024 L0,0 L1500,0 Z"></path></clipPath><clipPath id="i1"><path d="M15.75,0 C15.8880712,-2.53632657e-17 16,0.111928813 16,0.25 L16,1.46428571 C16,1.6023569 15.8880712,1.71428571 15.75,1.71428571 L0.25,1.71428571 C0.111928813,1.71428571 1.69088438e-17,1.6023569 0,1.46428571 L0,0.25 C-1.69088438e-17,0.111928813 0.111928813,2.53632657e-17 0.25,0 L15.75,0 Z"></path></clipPath></defs><g transform="translate(-1423.0 -954.0)"><g clip-path="url(#i0)"><g transform="translate(1412.0 768.0)"><g transform="translate(0.0 168.0)"><g transform="translate(12.0 19.0)"><g clip-path="url(#i1)"><polygon points="0,0 16,0 16,1.71428571 0,1.71428571 0,0" stroke="none" fill="#0063AF"></polygon></g><path d="M0,1.46428571 L0,0.25 C-1.69088438e-17,0.111928813 0.111928813,2.53632657e-17 0.25,0 L15.75,0 C15.8880712,-2.53632657e-17 16,0.111928813 16,0.25 L16,1.46428571 C16,1.6023569 15.8880712,1.71428571 15.75,1.71428571 L0.25,1.71428571 C0.111928813,1.71428571 1.69088438e-17,1.6023569 0,1.46428571 Z" stroke="#0063AF" stroke-width="1" fill="none" stroke-miterlimit="10"></path></g></g></g></g></g></svg>