<svg width="26" height="24" viewBox="0 0 26 24" xmlns="http://www.w3.org/2000/svg">
  <g fill="none" fill-rule="evenodd">
    <path d="M1 0h24v24H1z"/>
    <path d="M1 22.3672727 13 1.64l12 20.7272727H1Zm2.83636364-1.6363636H22.1636364L13 4.91272727 3.83636364 20.7309091Zm9.27272726-1.5545455c.2363636 0 .4318182-.0772727.5863636-.2318181.1545455-.1545455.2318182-.35.2318182-.5863637 0-.2363636-.0772727-.4318182-.2318182-.5863636-.1545454-.1545455-.35-.2318182-.5863636-.2318182s-.4318182.0772727-.5863636.2318182c-.1545455.1545454-.2318182.35-.2318182.5863636 0 .2363637.0772727.4318182.2318182.5863637.1545454.1545454.35.2318181.5863636.2318181Zm-.8181818-3.0272727h1.6363636V10.04h-1.6363636v6.1090909Z" stroke="currentColor" stroke-width=".5" fill="currentColor" fill-rule="nonzero" stroke-linejoin="round"/>
  </g>
</svg>
