<svg width="24" height="24" viewBox="0 0 24 24" xmlns="http://www.w3.org/2000/svg">
  <g fill="none" fill-rule="evenodd">
    <path d="M0 0h24v24H0z"/>
    <path d="m11.8232233 21.8232233-9.6464466-9.6464466c-.09763108-.0976311-.09763108-.2559223 0-.3535534l9.6464466-9.6464466c.0976311-.09763108.2559223-.09763108.3535534 0l.9589466.9589466c.0976311.09763108.0976311.25592232 0 .3535534l-7.1464466 7.1464466c-.09763108.0976311-.09763108.2559223 0 .3535534.04688409.0468841.11047257.0732233.17677669.0732233H21.75c.1380712 0 .25.1119288.25.25v1.375c0 .1380712-.1119288.25-.25.25H6.16605339c-.13807119 0-.25.1119288-.25.25 0 .0663041.02633921.1298926.07322331.1767767l7.1464466 7.1464466c.0976311.0976311.0976311.2559223 0 .3535534l-.9589466.9589466c-.0976311.0976311-.2559223.0976311-.3535534 0Z" stroke="#0364AF" fill="#0064AF" fill-rule="nonzero"/>
  </g>
</svg>
