<svg width="12" height="12" viewBox="0 0 12 12" xmlns="http://www.w3.org/2000/svg">
  <g fill="none" fill-rule="evenodd">
    <path d="M12 0v12H0V0z"/>
    <path d="m1.1767767 5.8232233 4.6464466-4.6464466c.09763108-.09763108.25592232-.09763108.3535534 0l4.6464466 4.6464466c.09763108.09763108.09763108.25592232 0 .3535534l-.3026966.3026966c-.09763108.09763108-.25592232.09763108-.3535534 0L6.8955267 3.2080267c-.09763108-.09763108-.25592232-.09763108-.3535534 0-.04688409.04688409-.0732233.11047257-.0732233.17677669V10.75c0 .1380712-.11192881.25-.25.25h-.4375c-.13807119 0-.25-.1119288-.25-.25V3.38480339c0-.13807119-.11192881-.25-.25-.25-.06630412 0-.1298926.02633921-.1767767.07322331L1.8330267 6.4794733c-.0976311.09763108-.2559223.09763108-.3535534 0l-.3026966-.3026966c-.0976311-.09763108-.0976311-.25592232 0-.3535534Z" stroke="#000" stroke-width=".25" fill="#000" fill-rule="nonzero"/>
  </g>
</svg>
