<?xml version="1.0" encoding="UTF-8"?>
<svg width="30px" height="34px" viewBox="0 0 30 34" version="1.1" xmlns="http://www.w3.org/2000/svg" xmlns:xlink="http://www.w3.org/1999/xlink">
    <title>91371740-152D-43FE-9A8D-00B50FB58321</title>
    <defs>
        <path d="M0,24 L0,0 L24,0 L24,24 L16,24 L12,28 L8,24 L0,24 Z" id="path-1"></path>
        <filter x="-16.7%" y="-14.3%" width="141.7%" height="135.7%" filterUnits="objectBoundingBox" id="filter-2">
            <feOffset dx="1" dy="1" in="SourceAlpha" result="shadowOffsetOuter1"></feOffset>
            <feGaussianBlur stdDeviation="1.5" in="shadowOffsetOuter1" result="shadowBlurOuter1"></feGaussianBlur>
            <feColorMatrix values="0 0 0 0 0   0 0 0 0 0   0 0 0 0 0  0 0 0 0.5 0" type="matrix" in="shadowBlurOuter1"></feColorMatrix>
        </filter>
    </defs>
    <g id="Digitaalinen-v채yl채kortti-(DVK)" stroke="none" stroke-width="1" fill="none" fill-rule="evenodd">
        <g id="dvk_land_zoom_out" transform="translate(-421.000000, -796.000000)">
            <g id="s채채havaintoasema-copy" transform="translate(423.000000, 798.000000)">
                <g id="Combined-Shape">
                    <use fill="black" fill-opacity="1" filter="url(#filter-2)" xlink:href="#path-1"></use>
                    <use fill="#FFFFFF" fill-rule="evenodd" xlink:href="#path-1"></use>
                </g>
                <g id="fairway_icon" transform="translate(3.000000, 3.000000)">
                    <rect id="Rectangle" x="0" y="0" width="18" height="18"></rect>
                </g>
                <path d="M12,19.6 L12.2357537,19.69375 C12.7954963,19.8979167 13.4227941,20 14.1176471,20 L13.9172908,19.9963234 C12.8931827,20.4093798 11.7262059,20.4875191 10.5879334,20.1395142 C10.4395082,20.0941361 10.29473,20.042478 10.1538012,19.9849205 C10.739946,19.9450488 11.3554406,19.8164446 12,19.6 Z M7.79158585,12.7350396 L17.0467145,15.5652373 C17.0291582,15.9816662 16.9588555,16.4026853 16.8313157,16.819849 C16.7002696,17.2484817 16.5168506,17.6466983 16.2902204,18.0096273 C15.3413001,18.099881 15.2319853,18.8 14.1176471,18.8 C13.3235294,18.8 12.6176471,18.6666667 12,18.4 L11.6623649,18.5061224 C10.992497,18.7020408 10.355042,18.8 9.75,18.8 C8.80151703,18.8 8.66835208,18.158049 7.82540732,18.0242529 C7.07255989,16.8390762 6.82549705,15.344371 7.26826818,13.8961319 C7.3958705,13.4787635 7.57312907,13.0902337 7.79158585,12.7350396 Z M15.4120666,4.36048576 C16.4683716,4.68343063 17.0628775,5.80153362 16.7399327,6.85783868 L17.218085,7.00402454 L16.4182027,8.33428774 L16.6898482,13.4947701 C16.8193456,13.8166899 16.9157627,14.1526921 16.9762693,14.4974539 L8.44592812,11.8905884 C8.68909999,11.6382514 8.9572079,11.4133167 9.24491062,11.2186242 L12.3564048,7.09038013 L12.4365613,5.54216601 L12.9147136,5.68835187 C13.2376585,4.6320468 14.3557615,4.0375409 15.4120666,4.36048576 Z M13.0558055,7.8228715 L11.0732485,10.4532916 C11.8582728,10.2962747 12.6923963,10.3259955 13.5116505,10.5764667 C14.3309046,10.8269378 15.039044,11.2687341 15.602056,11.837887 L15.4283976,8.5482457 L13.0558055,7.8228715 Z" id="Combined-Shape" fill="#000000"></path>
                <path d="M3,19.4 C3.61764706,19.6666667 4.32352941,19.8 5.11764706,19.8 C6.30882353,19.8 6.35159693,19 7.5,19 C8.64840307,19 8.69117647,19.8 9.75,19.8 C10.4558824,19.8 11.2058824,19.6666667 12,19.4 L12,20.6 C11.2058824,20.8666667 10.4558824,21 9.75,21 C8.69117647,21 8.66777341,20.2 7.5,20.2 C6.33222659,20.2 6.30882353,21 5.11764706,21 C4.32352941,21 3.61764706,20.8666667 3,20.6 L3,19.4 Z" id="Rectangle" fill="#000000"></path>
                <path d="M12,19.4 C12.6176471,19.6666667 13.3235294,19.8 14.1176471,19.8 C15.3088235,19.8 15.3515969,19 16.5,19 C17.6484031,19 17.6911765,19.8 18.75,19.8 C19.4558824,19.8 20.2058824,19.6666667 21,19.4 L21,20.6 C20.2058824,20.8666667 19.4558824,21 18.75,21 C17.6911765,21 17.6677734,20.2 16.5,20.2 C15.3322266,20.2 15.3088235,21 14.1176471,21 C13.3235294,21 12.6176471,20.8666667 12,20.6 L12,19.4 Z" id="Rectangle-Copy-30" fill="#000000"></path>
            </g>
        </g>
    </g>
</svg>