<svg width="30" height="34" viewBox="0 0 30 34" xmlns="http://www.w3.org/2000/svg" xmlns:xlink="http://www.w3.org/1999/xlink">
  <defs>
    <filter x="-16.7%" y="-14.3%" width="141.7%" height="135.7%" filterUnits="objectBoundingBox" id="a">
      <feOffset dx="1" dy="1" in="SourceAlpha" result="shadowOffsetOuter1"/>
      <feGaussianBlur stdDeviation="1.5" in="shadowOffsetOuter1" result="shadowBlurOuter1"/>
      <feColorMatrix values="0 0 0 0 0 0 0 0 0 0 0 0 0 0 0 0 0 0 0.5 0" in="shadowBlurOuter1"/>
    </filter>
    <path d="M0 24V0h24v24h-8l-4 4-4-4H0Z" id="b"/>
  </defs>
  <g fill="none" fill-rule="evenodd">
    <g transform="translate(2 2)">
      <use fill="#000" filter="url(#a)" xlink:href="#b"/>
      <use fill="#FFF" xlink:href="#b"/>
    </g>
    <path d="M5 5h18v18H5z"/>
    <path d="m14 21.6.2357537.09375c.5597426.2041667 1.1870404.30625 1.8818934.30625l-.2003563-.0036766c-1.0241081.4130564-2.1910849.4911957-3.3293574.1431908-.1484252-.0453781-.2932034-.0970362-.4341322-.1545937C12.739946 21.9450488 13.3554406 21.8164446 14 21.6Zm-4.20841415-6.8649604 9.25512865 2.8301977c-.0175563.4164289-.087859.837448-.2153988 1.2546117-.1310461.4286327-.3144651.8268493-.5410953 1.1897783-.9489203.0902537-1.0582351.7903727-2.1725733.7903727-.7941177 0-1.5-.1333333-2.1176471-.4l-.3376351.1061224C12.992497 20.7020408 12.355042 20.8 11.75 20.8c-.94848297 0-1.08164792-.641951-1.92459268-.7757471-.75284743-1.1851767-.99991027-2.6798819-.55713914-4.128121.12760232-.4173684.30486089-.8058982.52331767-1.1610923Zm7.62048075-8.37455384c1.056305.32294487 1.6508109 1.44104786 1.3278661 2.49735292l.4781523.14618586-.7998823 1.3302632.2716455 5.16048236c.1294974.3219198.2259145.657922.2864211 1.0026838l-8.53034118-2.6068655c.24317187-.252337.51127978-.4772717.7989825-.6719642l3.11149418-4.12824407.0801565-1.54821412.4781523.14618586c.3229449-1.05630507 1.4410479-1.65081097 2.497353-1.32786611ZM15.0558055 9.8228715l-1.982557 2.6304201c.7850243-.1570169 1.6191478-.1272961 2.438402.1231751.8192541.2504711 1.5273935.6922674 2.0904055 1.2614203l-.1736584-3.2896413-2.3725921-.7253742Z" fill="#000"/>
    <path d="M5 21.4c.61764706.2666667 1.32352941.4 2.11764706.4C8.30882353 21.8 8.35159693 21 9.5 21s1.19117647.8 2.25.8c.7058824 0 1.4558824-.1333333 2.25-.4v1.2c-.7941176.2666667-1.5441176.4-2.25.4-1.05882353 0-1.08222659-.8-2.25-.8s-1.19117647.8-2.38235294.8c-.79411765 0-1.5-.1333333-2.11764706-.4v-1.2ZM14 21.4c.6176471.2666667 1.3235294.4 2.1176471.4 1.1911764 0 1.2339498-.8 2.3823529-.8s1.1911765.8 2.25.8c.7058824 0 1.4558824-.1333333 2.25-.4v1.2c-.7941176.2666667-1.5441176.4-2.25.4-1.0588235 0-1.0822266-.8-2.25-.8s-1.1911765.8-2.3823529.8c-.7941177 0-1.5-.1333333-2.1176471-.4v-1.2Z" fill="#000"/>
  </g>
</svg>
