<svg width="24" height="24" viewBox="0 0 24 24" xmlns="http://www.w3.org/2000/svg">
  <g fill="none" fill-rule="evenodd">
    <path fill="#FFF" d="M0 0h24v24H0z"/>
    <path d="M7.38888889 19h1.38888889v-2.4444444h2.44444442v-1.3888889H8.77777778v-2.4444445H7.38888889v2.4444445H4.94444444v1.3888889h2.44444445V19Zm5.97222221-.9722222h5.5833333v-1.3611111h-5.5833333v1.3611111Zm0-2.9722222h5.5833333v-1.3888889h-5.5833333v1.3888889Zm1.0277778-4.5277778 1.6944444-1.69444447 1.6944445 1.69444447 1-1.00000002-1.6944445-1.69444445 1.6944445-1.69444444-1-1-1.6944445 1.69444444-1.6944444-1.69444444-1 1 1.6944444 1.69444444-1.6944444 1.69444445 1 1.00000002ZM5.36111111 8.52777778h5.44444449V7.13888889H5.36111111v1.38888889ZM3.66666667 22C3.22222222 22 2.83333333 21.8333333 2.5 21.5c-.33333333-.3333333-.5-.7222222-.5-1.1666667V3.66666667C2 3.22222222 2.16666667 2.83333333 2.5 2.5c.33333333-.33333333.72222222-.5 1.16666667-.5H20.3333333c.4444445 0 .8333334.16666667 1.1666667.5.3333333.33333333.5.72222222.5 1.16666667V20.3333333c0 .4444445-.1666667.8333334-.5 1.1666667-.3333333.3333333-.7222222.5-1.1666667.5H3.66666667Zm0-1.6666667H20.3333333V3.66666667H3.66666667V20.3333333Zm0-16.66666663V20.3333333 3.66666667Z" stroke="#0064AF" stroke-width=".5" fill="#0064AF" fill-rule="nonzero"/>
  </g>
</svg>
