<?xml version="1.0" encoding="UTF-8"?>
<svg width="24px" height="24px" viewBox="0 0 24 24" version="1.1" xmlns="http://www.w3.org/2000/svg" xmlns:xlink="http://www.w3.org/1999/xlink">
  <g id="Squat-laskuri" stroke="none" stroke-width="1" fill="none" fill-rule="evenodd">
    <g id="colors_and_typography" transform="translate(-1086.000000, -916.000000)">
      <g id="Group-3" transform="translate(1086.000000, 916.000000)">
        <rect id="Rectangle" x="0" y="0" width="24" height="24"></rect>
        <path d="M13.129842,18.129842 L4.4830267,9.4830267 C4.38539562,9.38539562 4.38539562,9.22710438 4.4830267,9.1294733 L5.7415252,7.8709748 C5.83915628,7.77334372 5.99744752,7.77334372 6.09507859,7.8709748 C6.09522777,7.87112398 6.09537676,7.87127334 6.09552556,7.8714229 L13.1294744,14.9410771 C13.226858,15.038955 13.3851488,15.0393558 13.4830267,14.9419722 C13.4831763,14.9418234 13.4833256,14.9416744 13.4834748,14.9415252 L20.5169733,7.9080267 C20.6146044,7.81039562 20.7728956,7.81039562 20.8705267,7.9080267 L22.1291039,9.16660387 C22.2267349,9.26423494 22.2267349,9.42252618 22.1291039,9.52015726 C22.1289808,9.52028027 22.1288577,9.52040316 22.1287344,9.52052592 L13.4830259,18.1302106 C13.3853356,18.2274939 13.227329,18.227329 13.129842,18.129842 Z" id="Path" stroke="currentColor" fill="currentColor" fill-rule="nonzero" transform="translate(13.306250, 13.000000) scale(-1, 1) rotate(90.000000) translate(-13.306250, -13.000000) "></path>
      </g>
    </g>
  </g>
</svg>