<svg width="24" height="24" viewBox="0 0 24 24" xmlns="http://www.w3.org/2000/svg">
  <g fill="none" fill-rule="evenodd">
    <path d="M0 0h24v24H0z"/>
    <path d="M21.8232233 3.83750902 20.162491 2.1767767c-.0976311-.09763108-.2559223-.09763108-.3535534 0l-7.6321609 7.63216089c-.0976311.09763107-.2559223.09763107-.3535534 0L4.19106241 2.1767767c-.09763107-.09763108-.25592232-.09763108-.35355339 0L2.1767767 3.83750902c-.09763108.09763107-.09763108.25592232 0 .35355339l7.63216089 7.63216089c.09763107.0976311.09763107.2559223 0 .3535534L2.1767767 19.8089376c-.09763108.0976311-.09763108.2559223 0 .3535534l1.66073232 1.6607323c.09763107.0976311.25592232.0976311.35355339 0l7.63216089-7.6321609c.0976311-.0976311.2559223-.0976311.3535534 0l7.6321609 7.6321609c.0976311.0976311.2559223.0976311.3535534 0l1.6607323-1.6607323c.0976311-.0976311.0976311-.2559223 0-.3535534l-7.6321609-7.6321609c-.0976311-.0976311-.0976311-.2559223 0-.3535534l7.6321609-7.63216089c.0976311-.09763107.0976311-.25592232 0-.35355339Z" stroke="#0066B5" fill="#0064AF" fill-rule="nonzero"/>
  </g>
</svg>
