<?xml version="1.0" encoding="UTF-8"?>
<svg width="24px" height="28px" viewBox="0 0 24 28" version="1.1" xmlns="http://www.w3.org/2000/svg" xmlns:xlink="http://www.w3.org/1999/xlink">
    <title>18F6A65B-6CB0-43C3-96DA-B9FDBB17C35E</title>
    <g id="Squat-laskuri" stroke="none" stroke-width="1" fill="none" fill-rule="evenodd">
        <g id="colors_and_typography" transform="translate(-578, -1470)">
            <g id="coastal_warning_icon" transform="translate(578, 1470)">
                <path d="M23,1 L23,23 L15.5857864,23 L12,26.5857864 L8.41421356,23 L1,23 L1,1 L23,1 Z" id="Combined-Shape" stroke="#D72416" stroke-width="2" fill="#FFFFFF"></path>
                <path d="M10.2051631,20 L11.1032335,13.7333333 L7.90522686,13.7333333 C7.7445964,13.7333333 7.62777424,13.6592593 7.55476039,13.5111111 C7.48174654,13.362963 7.48174654,13.2222222 7.55476039,13.0888889 L12.9212783,4 L13.8193487,4 L12.9212783,10.2444444 L16.0754766,10.2444444 C16.2361071,10.2444444 16.3565799,10.3185185 16.4368952,10.4666667 C16.5172104,10.6148148 16.5208611,10.7555556 16.4478473,10.8888889 L11.1032335,20 L10.2051631,20 Z" id="Path" fill="#D72416" fill-rule="nonzero"></path>
            </g>
        </g>
    </g>
</svg>