<?xml version="1.0" encoding="UTF-8"?>
<svg width="24px" height="30px" viewBox="0 0 24 30" version="1.1" xmlns="http://www.w3.org/2000/svg" xmlns:xlink="http://www.w3.org/1999/xlink">
    <title>user_location_indicator</title>
    <g id="Digitaalinen-väyläkortti-(DVK)" stroke="none" stroke-width="1" fill="none" fill-rule="evenodd">
        <g id="dvk_koordinaatti_popup" transform="translate(-753, -552)" fill="#EC0E0E" fill-rule="nonzero">
            <path d="M765,552 C768.175,552 770.96875,553.1125 773.38125,555.3375 C775.79375,557.5625 777,560.55 777,564.3 C777,566.8 776.00625,569.51875 774.01875,572.45625 C772.03125,575.39375 769.025,578.575 765,582 C760.975,578.575 757.96875,575.39375 755.98125,572.45625 C753.99375,569.51875 753,566.8 753,564.3 C753,560.55 754.20625,557.5625 756.61875,555.3375 C759.03125,553.1125 761.825,552 765,552 Z M764.999437,558.375 C763.794812,558.375 762.765417,558.803937 761.91125,559.661812 C761.057083,560.519646 760.63,561.550896 760.63,562.755562 C760.63,563.960187 761.058937,564.989583 761.916812,565.84375 C762.774646,566.697917 763.805896,567.125 765.010562,567.125 C766.215187,567.125 767.244583,566.696063 768.09875,565.838188 C768.952917,564.980354 769.38,563.949104 769.38,562.744438 C769.38,561.539813 768.951062,560.510417 768.093187,559.65625 C767.235354,558.802083 766.204104,558.375 764.999437,558.375 Z" id="user_location_indicator"></path>
        </g>
    </g>
</svg>