<?xml version="1.0" encoding="UTF-8"?>
<svg width="24px" height="24px" viewBox="0 0 24 24" version="1.1" xmlns="http://www.w3.org/2000/svg" xmlns:xlink="http://www.w3.org/1999/xlink">
    <title>copy</title>
    <g id="Digitaalinen-väyläkortti-(DVK)" stroke="none" stroke-width="1" fill="none" fill-rule="evenodd">
        <g id="dvk_koordinaatti_popup" transform="translate(-706, -932)">
            <g id="Notifikaatiot/Positive-Copy" transform="translate(391, 912)">
                <g id="copy" transform="translate(315, 20)">
                    <polygon id="Path" points="0 0 24 0 24 24 0 24"></polygon>
                    <path d="M9.8,16.8 C9.36,16.8 8.98333333,16.6433333 8.67,16.33 C8.35666667,16.0166667 8.2,15.64 8.2,15.2 L8.2,5.6 C8.2,5.16 8.35666667,4.78333333 8.67,4.47 C8.98333333,4.15666667 9.36,4 9.8,4 L17,4 C17.44,4 17.8166667,4.15666667 18.13,4.47 C18.4433333,4.78333333 18.6,5.16 18.6,5.6 L18.6,15.2 C18.6,15.64 18.4433333,16.0166667 18.13,16.33 C17.8166667,16.6433333 17.44,16.8 17,16.8 L9.8,16.8 Z M9.8,15.2 L17,15.2 L17,5.6 L9.8,5.6 L9.8,15.2 Z M6.6,20 C6.16,20 5.78333333,19.8433333 5.47,19.53 C5.15666667,19.2166667 5,18.84 5,18.4 L5,7.2 L6.6,7.2 L6.6,18.4 L15.4,18.4 L15.4,20 L6.6,20 Z M9.84,15.2 L9.84,5.6 L9.84,15.2 Z" id="Shape" fill="#333333" fill-rule="nonzero"></path>
                </g>
            </g>
        </g>
    </g>
</svg>