<?xml version="1.0" encoding="UTF-8"?>
<svg width="24px" height="24px" viewBox="0 0 24 24" version="1.1" xmlns="http://www.w3.org/2000/svg" xmlns:xlink="http://www.w3.org/1999/xlink">
    <title>B245906F-5A77-460F-AC75-DEF167556AE8</title>
    <g id="Squat-laskuri" stroke="none" stroke-width="1" fill="none" fill-rule="evenodd">
        <g id="colors_and_typography" transform="translate(-1250.000000, -1154.000000)">
            <g id="turvalaite_ikonit" transform="translate(722.000000, 914.000000)">
                <g id="nopeusrajoitus_30-copy-5" transform="translate(528.000000, 240.000000)">
                    <rect id="Rectangle" fill="#1E91D0" x="0" y="0" width="24" height="24"></rect>
                    <path d="M7.46773304,4.5 C7.88077726,4.5 8.07258206,4.75134294 8.27242274,4.96220765 C8.50526398,5.20789337 8.74191545,5.43402429 9.05243355,5.56962112 L9.11657133,6.19563397 C8.63258148,5.67752917 8.23339082,5.3 7.46773304,5.3 C6.72697832,5.3 6.33092891,5.65387436 5.94384448,6.04284034 C5.73274294,6.25496801 5.53113526,6.5 5.10246261,6.5 C4.51236381,6.5 3.97778027,6.37339775 3.5,6.11602941 L3.5,5.41485633 C3.99266259,5.60436634 4.5266356,5.7 5.10246261,5.7 C5.86323497,5.7 6.26982347,5.33713288 6.66228857,4.94586586 L6.801003,4.80625394 C6.96629211,4.64470603 7.15364465,4.5 7.46773304,4.5 Z M16.3696283,4.5134766 C16.8751232,4.51938985 17.1223575,4.77443883 17.3693623,5.00088231 C17.7725079,5.37046889 18.1734512,5.7 18.8975374,5.7 C19.4733644,5.7 20.0073374,5.60436634 20.5,5.41485633 L20.5,6.11602941 C20.0222197,6.37339775 19.4876362,6.5 18.8975374,6.5 C18.4688647,6.5 18.2672571,6.25496801 18.0561555,6.04284034 C17.6690711,5.65387436 17.2730217,5.3 16.532267,5.3 C15.7666092,5.3 15.3674185,5.67752917 14.9896394,6.07969746 L14.7996474,5.61180825 C15.2461604,5.46151038 15.4866313,5.21644523 15.7275773,4.96220765 C15.9001005,4.78016733 16.0644197,4.56765727 16.3696283,4.5134766 Z M11.9354661,4.5 C12.339294,4.5 12.5336198,4.73920793 12.7409105,4.94586586 C13.0373054,5.24135595 13.3417556,5.52064823 13.8007365,5.63967635 L13.8007365,6.35249855 C13.1235026,5.70535581 12.7783106,5.39624968 12.207973,5.31810479 C11.2400334,5.30455956 10.7985922,5.70690539 10.3920138,6.10462488 L10.2015996,5.62708139 C10.5879063,5.50561979 10.8609456,5.24692344 11.1307764,4.96220765 C11.3306171,4.75134294 11.5224219,4.5 11.9354661,4.5 Z" id="Combined-Shape" stroke="#FFFFFF" fill="#FFFFFF"></path>
                </g>
            </g>
        </g>
    </g>
</svg>