<svg width="34" height="43" viewBox="0 0 34 43" xmlns="http://www.w3.org/2000/svg">
  <filter id="a">
    <feDropShadow dx="0" dy="0" stdDeviation=".5" flood-color="#fff" flood-opacity="1"/>
    <feDropShadow dx="0" dy="0" stdDeviation=".5" flood-color="#fff" flood-opacity="1"/>
    <feDropShadow dx="0" dy="0" stdDeviation=".5" flood-color="#fff" flood-opacity="1"/>
  </filter>
  <g fill="none" fill-rule="evenodd" stroke-opacity=".5" filter="url(#a)">
    <path d="M17 .5c4.3610996 0 8.199741 1.52579492 11.5139818 4.58245229C31.8295839 8.14036511 33.5 12.2422339 33.5 17.4c0 3.4164667-1.3426061 7.1376121-4.0608823 11.1551902-2.6703733 3.9467781-6.7068591 8.2235714-12.1150876 12.8256043-6.0562887-4.6020329-10.09277453-8.8788262-12.76314775-12.8256043C1.84260611 24.5376121.5 20.8164667.5 17.4c0-5.1577661 1.67041607-9.25963489 4.98601817-12.31754771C8.80025903 2.02579492 12.6389004.5 17 .5Zm0 4c-3.493981 0-6.4520882 1.20022111-8.87262315 3.60472603C5.70322077 10.51282809 4.5 13.6138602 4.5 17.4c0 2.4237617 1.06943928 5.2205059 3.16732418 8.3996084C9.75998193 28.9707898 12.87349 32.4928193 17.003677 36.3690575c4.2221865-3.8747966 7.3575337-7.3950638 9.4010807-10.5649752C28.4553215 22.6232865 29.5 19.8248414 29.5 17.4c0-3.7861398-1.2032208-6.88717191-3.6273768-9.29527397C23.4520882 5.70022111 20.493981 4.5 17 4.5Zm0 4c.9060606 0 1.6735217.31641491 2.3035534.94644661C19.9335851 10.07647831 20.25 10.84393939 20.25 11.75c0 .7128527-.209375 1.3458333-.625 1.9-.3420528.4560704-.7987448.8196094-1.375 1.0842938V15.75h3.25v2.5h-3.25v8.6402054c.9556673-.1513561 1.9268966-.5303399 2.9156597-1.1301894 1.0219763-.619999 1.7866134-1.3099216 2.2824462-2.0798034l-1.5847986-1.5847985L26.5 18.626481V22.125c0 .9408821-.2851312 1.8653884-.8669108 2.7703788-.5549772.8632979-1.2806848 1.6395748-2.1793641 2.3268001-.888159.6791804-1.8935235 1.228447-3.0168582 1.646432C19.3044126 29.2899892 18.1587107 29.5 17 29.5c-1.1587107 0-2.3044126-.2100108-3.4368669-.6313891-1.1233347-.417985-2.1286992-.9672516-3.01685815-1.646432-.89867931-.6872253-1.62438699-1.4635022-2.17936419-2.3268001C7.78513122 23.9903884 7.5 23.0658821 7.5 22.125v-3.498519l4.6366927 3.4689331-1.58479856 1.5847985c.49583276.7698818 1.26046986 1.4598044 2.28244616 2.0798034.9887631.5998495 1.9599924.9788333 2.9156597 1.1301894V18.25H12.5v-2.5h3.25v-1.0157062c-.5762552-.2646844-1.0329472-.6282234-1.375-1.0842938-.415625-.5541667-.625-1.1871473-.625-1.9 0-.90695334.3210636-1.67550504.9616979-2.30628341C15.3514383 8.81381837 16.114512 8.5 17 8.5Zm0 2.5c-.2018588 0-.3767778.0763068-.527489.2219942-.148734.1437762-.222511.3199456-.222511.5280058 0 .2.0795686.3724619.2285534.5214466C16.6275381 12.4204314 16.8 12.5 17 12.5c.2080602 0 .3842296-.073777.5280058-.222511.1456874-.1507112.2219942-.3256302.2219942-.527489 0-.21-.0706595-.3885527-.2160534-.5339466C17.3885527 11.0706595 17.21 11 17 11Z" fill="#0064AF" fill-rule="nonzero" stroke="#FFF"/>
  </g>
</svg>
