<svg width="9" height="10" viewBox="0 0 9 10" xmlns="http://www.w3.org/2000/svg">
    <g stroke="none" stroke-width="1" fill="none" fill-rule="evenodd">
        <g transform="translate(-148.000000, -211.000000)" fill="#0064AF" fill-rule="nonzero" stroke="#0064AF" stroke-width="0.25">
            <g transform="translate(22.302349, 195.000000)">
                <g transform="translate(125.872161, 17.000000)">
                    <path d="M0.66599027,8 C0.488392865,8 0.332995135,7.93333333 0.199797081,7.8 C0.066599027,7.66666667 0,7.51111111 0,7.33333333 L0,0.666666667 C0,0.488888889 0.066599027,0.333333333 0.199797081,0.2 C0.332995135,0.0666666667 0.488392865,0 0.66599027,0 L3.76284503,0 L3.76284503,0.666666667 L0.66599027,0.666666667 L0.66599027,7.33333333 L7.32589297,7.33333333 L7.32589297,4.23333333 L7.99188324,4.23333333 L7.99188324,7.33333333 C7.99188324,7.51111111 7.92528422,7.66666667 7.79208616,7.8 C7.65888811,7.93333333 7.50349038,8 7.32589297,8 L0.66599027,8 Z M2.90815751,5.56666667 L2.44196432,5.08888889 L6.85969978,0.666666667 L4.6752517,0.666666667 L4.6752517,0 L7.99188324,0 L7.99188324,3.32 L7.32589297,3.32 L7.32589297,1.14444444 L2.90815751,5.56666667 Z"></path>
                </g>
            </g>
        </g>
    </g>
</svg>
