<?xml version="1.0" encoding="UTF-8"?>
<svg width="10px" height="10px" viewBox="0 0 10 10" version="1.1" xmlns="http://www.w3.org/2000/svg" xmlns:xlink="http://www.w3.org/1999/xlink">
    <g id="Digitaalinen-väyläkortti-(DVK)" stroke="none" stroke-width="1" fill="none" fill-rule="evenodd">
        <g id="dvk_land_zoom_out" transform="translate(-933.000000, -600.000000)" fill="#0064AF" fill-rule="nonzero" stroke="#0064AF" stroke-width="0.25">
            <g id="tooltip" transform="translate(784.000000, 421.000000)">
                <g id="open_in_new_FILL0_wght400_GRAD0_opsz48" transform="translate(150.000000, 180.000000)">
                    <path d="M0.666666667,8 C0.488888889,8 0.333333333,7.93333333 0.2,7.8 C0.0666666667,7.66666667 0,7.51111111 0,7.33333333 L0,0.666666667 C0,0.488888889 0.0666666667,0.333333333 0.2,0.2 C0.333333333,0.0666666667 0.488888889,0 0.666666667,0 L3.76666667,0 L3.76666667,0.666666667 L0.666666667,0.666666667 L0.666666667,7.33333333 L7.33333333,7.33333333 L7.33333333,4.23333333 L8,4.23333333 L8,7.33333333 C8,7.51111111 7.93333333,7.66666667 7.8,7.8 C7.66666667,7.93333333 7.51111111,8 7.33333333,8 L0.666666667,8 Z M2.91111111,5.56666667 L2.44444444,5.08888889 L6.86666667,0.666666667 L4.68,0.666666667 L4.68,0 L8,0 L8,3.32 L7.33333333,3.32 L7.33333333,1.14444444 L2.91111111,5.56666667 Z" id="Shape"></path>
                </g>
            </g>
        </g>
    </g>
</svg>