<svg width="24" height="24" viewBox="0 0 24 24" xmlns="http://www.w3.org/2000/svg">
  <g fill="none" fill-rule="evenodd">
    <path fill="#FFF" d="M0 0h24v24H0z"/>
    <path d="m15.6666667 22-7.30555559-2.5833333-4.97222222 1.9722222c-.31481482.1666667-.625.1574074-.93055556-.0277778C2.15277778 21.1759259 2 20.8981481 2 20.5277778V5.02777778c0-.24074074.06944444-.45370371.20833333-.63888889.13888889-.18518519.31944445-.32407408.54166667-.41666667L8.36111111 2l7.30555559 2.55555556 4.9444444-1.97222223c.3148148-.14814814.625-.13425926.9305556.04166667C21.8472222 2.80092593 22 3.07407407 22 3.44444444V19.1388889c0 .2037037-.0694444.3796296-.2083333.5277778-.1388889.1481481-.3101852.2592592-.5138889.3333333l-5.6111111 2Zm-.9444445-2.0833333V5.88888889L9.27777778 4.05555556V18.0833333l5.44444442 1.8333334Zm1.6666667 0 3.9444444-1.3055556V4.38888889l-3.9444444 1.5V19.9166667Zm-12.72222223-.3333334 3.94444444-1.5V4.05555556L3.66666667 5.36111111V19.5833333ZM16.3888889 5.88888889V19.9166667 5.88888889ZM7.61111111 4.05555556V18.0833333 4.05555556Z" stroke="#0064AF" stroke-width=".5" fill="#0064AF" fill-rule="nonzero"/>
  </g>
</svg>
