<svg width="18" height="18" viewBox="0 0 18 18" xmlns="http://www.w3.org/2000/svg">
  <path d="M9.08 13.66a.734.734 0 0 0 .54-.22.734.734 0 0 0 .22-.54.734.734 0 0 0-.22-.54.734.734 0 0 0-.54-.22.734.734 0 0 0-.54.22.734.734 0 0 0-.22.54c0 .213.073.393.22.54.147.147.327.22.54.22Zm.48-2.92c0-.347.043-.663.13-.95.087-.287.357-.617.81-.99.413-.347.707-.687.88-1.02.173-.333.26-.7.26-1.1 0-.707-.05-1.234-.642-1.783-.59-.549-1.118-.557-1.878-.557-.653 0-1.23.163-1.73.49-.5.327-.863.777-1.09 1.35l1.06.4c.147-.373.367-.663.66-.87a1.76 1.76 0 0 1 1.04-.31c.453 0 .82.123 1.1.37.28.247.42.563.42.95 0 .293-.087.57-.26.83-.173.26-.427.53-.76.81-.4.347-.697.69-.89 1.03-.193.34-.29.79-.29 1.35h1.18ZM9 17a7.74 7.74 0 0 1-3.1-.63 8.114 8.114 0 0 1-2.55-1.72 8.114 8.114 0 0 1-1.72-2.55A7.74 7.74 0 0 1 1 9c0-1.107.21-2.147.63-3.12.42-.973.993-1.82 1.72-2.54A8.2 8.2 0 0 1 5.9 1.63 7.74 7.74 0 0 1 9 1a7.79 7.79 0 0 1 3.12.63c.973.42 1.82.99 2.54 1.71s1.29 1.567 1.71 2.54c.42.973.63 2.013.63 3.12a7.74 7.74 0 0 1-.63 3.1 8.2 8.2 0 0 1-1.71 2.55 7.995 7.995 0 0 1-2.54 1.72A7.79 7.79 0 0 1 9 17Zm0-1.2c1.893 0 3.5-.663 4.82-1.99 1.32-1.327 1.98-2.93 1.98-4.81 0-1.893-.66-3.5-1.98-4.82C12.5 2.86 10.893 2.2 9 2.2c-1.88 0-3.483.66-4.81 1.98C2.863 5.5 2.2 7.107 2.2 9c0 1.88.663 3.483 1.99 4.81C5.517 15.137 7.12 15.8 9 15.8Z" fill="#0064AF" fill-rule="nonzero" stroke="#0064AF"/>
</svg>
