<svg width="24" height="24" viewBox="0 0 24 24" xmlns="http://www.w3.org/2000/svg">
  <path d="M12 0C5.37304839 0 0 5.37498387 0 12c0 6.6288871 5.37304839 12 12 12 6.6269516 0 12-5.3711129 12-12 0-6.62501613-5.3730484-12-12-12Zm0 5.32258065c1.1223871 0 2.0322581.90987096 2.0322581 2.03225806S13.1223871 9.38709677 12 9.38709677s-2.03225806-.90987096-2.03225806-2.03225806S10.8776129 5.32258065 12 5.32258065Zm2.7096774 12.29032255c0 .3206613-.2599839.5806452-.5806451.5806452H9.87096774c-.32066129 0-.58064516-.2599839-.58064516-.5806452v-1.1612903c0-.3206613.25998387-.5806452.58064516-.5806452h.58064516v-3.0967742h-.58064516c-.32066129 0-.58064516-.2599838-.58064516-.5806451v-1.1612903c0-.3206613.25998387-.5806452.58064516-.5806452h3.09677416c.3206613 0 .5806452.2599839.5806452.5806452v4.8387096h.5806452c.3206612 0 .5806451.2599839.5806451.5806452v1.1612903Z" fill="currentColor" fill-rule="nonzero"/>
</svg>
