<svg width="91" height="34" xmlns="http://www.w3.org/2000/svg" xmlns:xlink="http://www.w3.org/1999/xlink"><defs><filter x="-4.7%" y="-14.3%" width="111.8%" height="135.7%" filterUnits="objectBoundingBox" id="a"><feOffset dx="1" dy="1" in="SourceAlpha" result="shadowOffsetOuter1"/><feGaussianBlur stdDeviation="1.5" in="shadowOffsetOuter1" result="shadowBlurOuter1"/><feColorMatrix values="0 0 0 0 0 0 0 0 0 0 0 0 0 0 0 0 0 0 0.5 0" in="shadowBlurOuter1"/></filter><path d="m16 24-4 4-4-4H0V0h85v24H16Z" id="b"/></defs><g fill="none" fill-rule="evenodd"><g transform="translate(2 2)"><use fill="#000" filter="url(#a)" xlink:href="#b"/><use fill="#FFF" xlink:href="#b"/></g><path d="M10.189 17.947h1.167v-3.986h-1.167v3.986Zm6.455 0h1.167V9.781h-1.167v8.166Zm-3.227 0h1.166v-2.294h-1.166v2.294Zm0-3.986h1.166v-1.167h-1.166v1.167ZM8.167 21a1.12 1.12 0 0 1-.817-.35 1.12 1.12 0 0 1-.35-.817V8.167c0-.311.117-.584.35-.817A1.12 1.12 0 0 1 8.167 7h11.666c.311 0 .584.117.817.35.233.233.35.506.35.817v11.666c0 .311-.117.584-.35.817a1.12 1.12 0 0 1-.817.35H8.167Zm0-1.167h11.666V8.167H8.167v11.666Zm.04-11.666v11.666V8.167Z" stroke="#EC0E0E" stroke-width=".25" fill="#EC0E0E" fill-rule="nonzero"/></g></svg>