<?xml version="1.0" encoding="UTF-8"?>
<svg width="72px" height="34px" viewBox="0 0 72 34" version="1.1" xmlns="http://www.w3.org/2000/svg" xmlns:xlink="http://www.w3.org/1999/xlink">
    <title>laskennallinen_vedenkorkeus_pohja copy</title>
    <defs>
        <path d="M16,24 L12,28 L8,24 L0,24 L0,0 L66,0 L66,24 L16,24 Z" id="path-1"></path>
        <filter x="-6.1%" y="-14.3%" width="115.2%" height="135.7%" filterUnits="objectBoundingBox" id="filter-2">
            <feOffset dx="1" dy="1" in="SourceAlpha" result="shadowOffsetOuter1"></feOffset>
            <feGaussianBlur stdDeviation="1.5" in="shadowOffsetOuter1" result="shadowBlurOuter1"></feGaussianBlur>
            <feColorMatrix values="0 0 0 0 0   0 0 0 0 0   0 0 0 0 0  0 0 0 0.5 0" type="matrix" in="shadowBlurOuter1"></feColorMatrix>
        </filter>
    </defs>
    <g id="Digitaalinen-väyläkortti-(DVK)" stroke="none" stroke-width="1" fill="none" fill-rule="evenodd">
        <g id="dvk_kartta_zoom_ulos_01_popup_esimerkkejä" transform="translate(-309, -613)">
            <g id="laskennallinen_vedenkorkeus_pohja-copy" transform="translate(311, 615)">
                <g id="Combined-Shape">
                    <use fill="black" fill-opacity="1" filter="url(#filter-2)" xlink:href="#path-1"></use>
                    <use fill="#FFFFFF" fill-rule="evenodd" xlink:href="#path-1"></use>
                </g>
                <path d="M8.18888889,15.9472222 L9.35555556,15.9472222 L9.35555556,11.9611111 L8.18888889,11.9611111 L8.18888889,15.9472222 Z M14.6444444,15.9472222 L15.8111111,15.9472222 L15.8111111,7.78055556 L14.6444444,7.78055556 L14.6444444,15.9472222 Z M11.4166667,15.9472222 L12.5833333,15.9472222 L12.5833333,13.6527778 L11.4166667,13.6527778 L11.4166667,15.9472222 Z M11.4166667,11.9611111 L12.5833333,11.9611111 L12.5833333,10.7944444 L11.4166667,10.7944444 L11.4166667,11.9611111 Z M6.16666667,19 C5.85555556,19 5.58333333,18.8833333 5.35,18.65 C5.11666667,18.4166667 5,18.1444444 5,17.8333333 L5,6.16666667 C5,5.85555556 5.11666667,5.58333333 5.35,5.35 C5.58333333,5.11666667 5.85555556,5 6.16666667,5 L17.8333333,5 C18.1444444,5 18.4166667,5.11666667 18.65,5.35 C18.8833333,5.58333333 19,5.85555556 19,6.16666667 L19,17.8333333 C19,18.1444444 18.8833333,18.4166667 18.65,18.65 C18.4166667,18.8833333 18.1444444,19 17.8333333,19 L6.16666667,19 Z M6.16666667,17.8333333 L17.8333333,17.8333333 L17.8333333,6.16666667 L6.16666667,6.16666667 L6.16666667,17.8333333 Z M6.20694444,6.16666667 L6.20694444,17.8333333 L6.20694444,6.16666667 Z" id="Shape" stroke="#EC0E0E" stroke-width="0.25" fill="#EC0E0E" fill-rule="nonzero"></path>
            </g>
        </g>
    </g>
</svg>