<svg width="24" height="28" viewBox="0 0 24 28" xmlns="http://www.w3.org/2000/svg">
  <g stroke="#D72416" stroke-width="2" fill="none" fill-rule="evenodd">
    <path d="M23 1v22h-7.4142136L12 26.5857864 8.41421356 23H1V1h22Z" fill="#FFF"/>
    <path d="M11.7803276 18.4804666c.3051115-.0814518.3800046-.0594455.4387131-.0006316.0592358.0593482.0814519.1349021.0814519.2203817 0 .0847297-.0220064.1596229-.0808202.2183314C12.1603242 18.9777839 12.0847703 19 11.9992906 19c-.0847297 0-.1596228-.0220064-.2183313-.0808202-.0592358-.0593482-.0814519-.1349021-.0814519-.2203818 0-.0847297.0220064-.1596228.0808202-.2183314Z" fill="#D72416"/>
    <path d="m11.82 5.43.364532 7.9704433H11.82V5.43Z" fill="#FFF"/>
  </g>
</svg>
