<?xml version="1.0" encoding="UTF-8"?><svg version="1.1" width="22px" height="15px" viewBox="0 0 22.0 15.0" xmlns="http://www.w3.org/2000/svg" xmlns:xlink="http://www.w3.org/1999/xlink"><defs><clipPath id="i0"><path d="M1500,0 L1500,1024 L0,1024 L0,0 L1500,0 Z"></path></clipPath><clipPath id="i1"><path d="M20,11.6666667 L20,13.3333333 L0,13.3333333 L0,11.6666667 L20,11.6666667 Z M20,5.83333333 L20,7.5 L0,7.5 L0,5.83333333 L20,5.83333333 Z M20,0 L20,1.66666667 L0,1.66666667 L0,0 L20,0 Z"></path></clipPath></defs><g transform="translate(-57.0 -63.0)"><g clip-path="url(#i0)"><g transform="translate(48.0 51.0)"><g transform="translate(10.0 13.0)"><g clip-path="url(#i1)"><polygon points="0,0 20,0 20,13.3333333 0,13.3333333 0,0" stroke="none" fill="#0063AF"></polygon></g><path d="M0,13.3333333 L0,11.6666667 L20,11.6666667 L20,13.3333333 L0,13.3333333 Z M0,7.5 L0,5.83333333 L20,5.83333333 L20,7.5 L0,7.5 Z M0,1.66666667 L0,0 L20,0 L20,1.66666667 L0,1.66666667 Z" stroke="#0063AF" stroke-width="1" fill="none" stroke-miterlimit="10"></path></g></g></g></g></svg>