<svg width="24" height="22" viewBox="0 0 24 22" xmlns="http://www.w3.org/2000/svg">
  <path d="M16.895 6.08333333V2.91666667c0-.13807119-.1119288-.25-.25-.25h-9.29c-.13807119 0-.25.11192881-.25.25v3.16666666c0 .13807119-.11192881.25-.25.25h-1.15c-.13807119 0-.25-.11192881-.25-.25V1.25c0-.13807119.11192881-.25.25-.25h12.59c.1380712 0 .25.11192881.25.25v4.83333333c0 .13807119-.1119288.25-.25.25h-1.15c-.1380712 0-.25-.11192881-.25-.25ZM2.65 8H21.35 2.65Zm16.4725 2.63888889c.22 0 .4125-.08333333.5775-.25.165-.16666667.2475-.36111111.2475-.58333333 0-.22222223-.0825-.41666667-.2475-.58333334-.165-.16666666-.3575-.25-.5775-.25-.22 0-.4125.08333334-.5775.25-.165.16666667-.2475.36111111-.2475.58333334 0 .22222222.0825.41666666.2475.58333333.165.16666667.3575.25.5775.25ZM16.895 19.0833333V14.25c0-.1380712-.1119288-.25-.25-.25h-9.29c-.13807119 0-.25.1119288-.25.25v4.8333333c0 .1380712.11192881.25.25.25h9.29c.1380712 0 .25-.1119288.25-.25ZM18.295 21H5.705c-.13807119 0-.25-.1119288-.25-.25v-4.3888889c0-.1380712-.11192881-.25-.25-.25H1.25c-.13807119 0-.25-.1119288-.25-.25V9.27777778c0-.83333334.27958333-1.53240741.83875-2.09722222.55916667-.56481482 1.25125-.84722223 2.07625-.84722223h16.17c.825 0 1.5170833.28240741 2.07625.84722223C22.7204167 7.74537037 23 8.44444444 23 9.27777778v6.58333332c0 .1380712-.1119288.25-.25.25h-3.955c-.1380712 0-.25.1119288-.25.25V20.75c0 .1380712-.1119288.25-.25.25Zm3.055-6.8055556V9.27777778c0-.37037037-.1191667-.67592593-.3575-.91666667C20.7541667 8.12037037 20.4516667 8 20.085 8H3.915c-.36666667 0-.66916667.12037037-.9075.36111111s-.3575.5462963-.3575.91666667v4.91666662c0 .1380712.11192881.25.25.25h2.305c.13807119 0 .25-.1119288.25-.25v-1.6111111c0-.1380712.11192881-.25.25-.25h12.59c.1380712 0 .25.1119288.25.25v1.6111111c0 .1380712.1119288.25.25.25H21.1c.1380712 0 .25-.1119288.25-.25Z" fill="currentColor" fill-rule="nonzero" stroke="currentColor"/>
</svg>
