<?xml version="1.0" encoding="UTF-8"?>
<svg width="24px" height="22px" viewBox="0 0 24 22" version="1.1" xmlns="http://www.w3.org/2000/svg" xmlns:xlink="http://www.w3.org/1999/xlink">
    <g id="Squat-laskuri" stroke="none" stroke-width="1" fill="none" fill-rule="evenodd">
        <g id="colors_and_typography" transform="translate(-979.000000, -961.000000)" fill="currentColor" fill-rule="nonzero" stroke="currentColor">
            <g id="print_" transform="translate(980.000000, 962.000000)">
                <path d="M15.895,5.08333333 L15.895,1.91666667 C15.895,1.77859548 15.7830712,1.66666667 15.645,1.66666667 L6.355,1.66666667 C6.21692881,1.66666667 6.105,1.77859548 6.105,1.91666667 L6.105,5.08333333 C6.105,5.22140452 5.99307119,5.33333333 5.855,5.33333333 L4.705,5.33333333 C4.56692881,5.33333333 4.455,5.22140452 4.455,5.08333333 L4.455,0.25 C4.455,0.111928813 4.56692881,2.53632657e-17 4.705,0 L17.295,0 C17.4330712,-2.53632657e-17 17.545,0.111928813 17.545,0.25 L17.545,5.08333333 C17.545,5.22140452 17.4330712,5.33333333 17.295,5.33333333 L16.145,5.33333333 C16.0069288,5.33333333 15.895,5.22140452 15.895,5.08333333 Z M1.65,7 C1.65,7 1.76916667,7 2.0075,7 C2.24583333,7 2.54833333,7 2.915,7 L19.085,7 C19.4516667,7 19.7541667,7 19.9925,7 C20.2308333,7 20.35,7 20.35,7 L17.545,7 L4.455,7 L1.65,7 L1.65,7 Z M18.1225,9.63888889 C18.3425,9.63888889 18.535,9.55555556 18.7,9.38888889 C18.865,9.22222222 18.9475,9.02777778 18.9475,8.80555556 C18.9475,8.58333333 18.865,8.38888889 18.7,8.22222222 C18.535,8.05555556 18.3425,7.97222222 18.1225,7.97222222 C17.9025,7.97222222 17.71,8.05555556 17.545,8.22222222 C17.38,8.38888889 17.2975,8.58333333 17.2975,8.80555556 C17.2975,9.02777778 17.38,9.22222222 17.545,9.38888889 C17.71,9.55555556 17.9025,9.63888889 18.1225,9.63888889 Z M15.895,18.0833333 L15.895,13.25 C15.895,13.1119288 15.7830712,13 15.645,13 L6.355,13 C6.21692881,13 6.105,13.1119288 6.105,13.25 L6.105,18.0833333 C6.105,18.2214045 6.21692881,18.3333333 6.355,18.3333333 L15.645,18.3333333 C15.7830712,18.3333333 15.895,18.2214045 15.895,18.0833333 Z M17.295,20 L4.705,20 C4.56692881,20 4.455,19.8880712 4.455,19.75 L4.455,15.3611111 C4.455,15.2230399 4.34307119,15.1111111 4.205,15.1111111 L0.25,15.1111111 C0.111928813,15.1111111 1.27931146e-16,14.9991823 0,14.8611111 L0,8.27777778 L0,8.27777778 C0,7.44444444 0.279583333,6.74537037 0.83875,6.18055556 C1.39791667,5.61574074 2.09,5.33333333 2.915,5.33333333 L19.085,5.33333333 C19.91,5.33333333 20.6020833,5.61574074 21.16125,6.18055556 C21.7204167,6.74537037 22,7.44444444 22,8.27777778 L22,14.8611111 C22,14.9991823 21.8880712,15.1111111 21.75,15.1111111 L17.795,15.1111111 C17.6569288,15.1111111 17.545,15.2230399 17.545,15.3611111 L17.545,19.75 C17.545,19.8880712 17.4330712,20 17.295,20 Z M20.35,13.1944444 L20.35,8.27777778 L20.35,8.27777778 C20.35,7.90740741 20.2308333,7.60185185 19.9925,7.36111111 C19.7541667,7.12037037 19.4516667,7 19.085,7 L2.915,7 C2.54833333,7 2.24583333,7.12037037 2.0075,7.36111111 C1.76916667,7.60185185 1.65,7.90740741 1.65,8.27777778 L1.65,13.1944444 C1.65,13.3325156 1.76192881,13.4444444 1.9,13.4444444 L4.205,13.4444444 C4.34307119,13.4444444 4.455,13.3325156 4.455,13.1944444 L4.455,11.5833333 C4.455,11.4452621 4.56692881,11.3333333 4.705,11.3333333 L17.295,11.3333333 C17.4330712,11.3333333 17.545,11.4452621 17.545,11.5833333 L17.545,13.1944444 C17.545,13.3325156 17.6569288,13.4444444 17.795,13.4444444 L20.1,13.4444444 C20.2380712,13.4444444 20.35,13.3325156 20.35,13.1944444 Z" id="Shape"></path>
            </g>
        </g>
    </g>
</svg>