<svg width="34" height="43" viewBox="0 0 34 43" xmlns="http://www.w3.org/2000/svg">
  <g fill-rule="nonzero" fill="none">
    <path d="M17 .5c4.361 0 8.2 1.526 11.514 4.582C31.83 8.14 33.5 12.242 33.5 17.4c0 3.416-1.343 7.138-4.06 11.155-2.671 3.947-6.708 8.224-12.116 12.826-6.056-4.602-10.093-8.879-12.763-12.826C1.843 24.538.5 20.816.5 17.4c0-5.158 1.67-9.26 4.986-12.318C8.8 2.026 12.639.5 17 .5Zm0 4c-3.494 0-6.452 1.2-8.873 3.605C5.703 10.513 4.5 13.614 4.5 17.4c0 2.424 1.07 5.22 3.167 8.4 2.093 3.17 5.206 6.693 9.337 10.57 4.222-3.876 7.357-7.396 9.4-10.566 2.051-3.18 3.096-5.98 3.096-8.404 0-3.786-1.203-6.887-3.627-9.295C23.453 5.7 20.494 4.5 17 4.5Z" stroke-opacity=".5" stroke="#FFF" fill="#000"/>
    <path d="M17 37.05c4.433-4.033 7.708-7.692 9.825-10.975C28.942 22.792 30 19.9 30 17.4c0-3.933-1.258-7.15-3.775-9.65S20.633 4 17 4s-6.708 1.25-9.225 3.75C5.258 10.25 4 13.467 4 17.4c0 2.5 1.083 5.392 3.25 8.675 2.167 3.283 5.417 6.942 9.75 10.975Z" fill="#FFC300"/>
    <path d="M17 29c-1.1 0-2.188-.2-3.262-.6a11.078 11.078 0 0 1-2.888-1.575c-.85-.65-1.537-1.383-2.063-2.2-.525-.817-.787-1.65-.787-2.5v-2.5l3.375 2.525-1.45 1.45c.517.967 1.4 1.83 2.65 2.587 1.25.759 2.475 1.18 3.675 1.263v-9.7H13v-1.5h3.25V14.4c-.633-.233-1.125-.583-1.475-1.05-.35-.467-.525-1-.525-1.6 0-.767.27-1.417.813-1.95A2.666 2.666 0 0 1 17 9c.767 0 1.417.267 1.95.8.533.533.8 1.183.8 1.95 0 .6-.175 1.133-.525 1.6-.35.467-.842.817-1.475 1.05v1.85H21v1.5h-3.25v9.7c1.2-.083 2.425-.504 3.675-1.262 1.25-.759 2.133-1.621 2.65-2.588l-1.45-1.45L26 19.625v2.5c0 .85-.262 1.683-.788 2.5-.524.817-1.212 1.55-2.062 2.2-.85.65-1.813 1.175-2.887 1.575-1.076.4-2.163.6-3.263.6Zm0-16c.35 0 .646-.125.887-.375a1.22 1.22 0 0 0 .363-.875c0-.35-.12-.646-.363-.887A1.207 1.207 0 0 0 17 10.5c-.333 0-.625.12-.875.363-.25.241-.375.537-.375.887 0 .333.125.625.375.875S16.667 13 17 13Z" fill="#000"/>
  </g>
</svg>
