<svg width="24" height="24" viewBox="0 0 24 24" xmlns="http://www.w3.org/2000/svg">
  <g fill="none" fill-rule="evenodd">
    <path fill="#FFF" d="M0 0h24v24H0z"/>
    <path d="M8.667 22c-1.223 0-2.269-.435-3.14-1.306-.87-.87-1.305-1.916-1.305-3.138V8.472a3.433 3.433 0 0 1-1.597-1.208A3.168 3.168 0 0 1 2 5.334c0-.927.324-1.714.972-2.362C3.62 2.324 4.407 2 5.333 2c.926 0 1.713.324 2.361.972.649.648.973 1.435.973 2.361 0 .723-.209 1.366-.625 1.93-.417.566-.95.968-1.598 1.21v9.083c0 .61.218 1.134.653 1.569a2.14 2.14 0 0 0 1.57.653 2.14 2.14 0 0 0 1.57-.653 2.14 2.14 0 0 0 .652-1.57V6.446c0-1.223.435-2.27 1.305-3.14.87-.87 1.917-1.305 3.14-1.305 1.222 0 2.268.435 3.138 1.306.87.87 1.306 1.916 1.306 3.138v9.084c.648.24 1.18.643 1.597 1.208.417.565.625 1.208.625 1.93 0 .927-.324 1.714-.972 2.362-.648.648-1.435.972-2.361.972-.926 0-1.713-.324-2.361-.972-.649-.648-.973-1.435-.973-2.361 0-.723.209-1.37.625-1.945.417-.574.95-.972 1.598-1.194V6.444a2.14 2.14 0 0 0-.653-1.569 2.14 2.14 0 0 0-1.57-.653 2.14 2.14 0 0 0-1.57.653 2.14 2.14 0 0 0-.652 1.57v11.11c0 1.223-.435 2.27-1.305 3.14-.87.87-1.917 1.305-3.14 1.305ZM5.333 6.444c.315 0 .579-.106.792-.319.213-.213.32-.477.32-.792 0-.314-.107-.578-.32-.791a1.075 1.075 0 0 0-.792-.32c-.314 0-.578.107-.791.32-.213.213-.32.477-.32.791 0 .315.107.579.32.792.213.213.477.32.791.32Zm13.334 13.334c.314 0 .578-.107.791-.32.213-.213.32-.477.32-.791 0-.315-.107-.579-.32-.792a1.075 1.075 0 0 0-.791-.32c-.315 0-.579.107-.792.32-.213.213-.32.477-.32.792 0 .314.107.578.32.791.213.213.477.32.792.32Z" stroke="#0064AF" stroke-width=".25" fill="#0064AF" fill-rule="nonzero"/>
  </g>
</svg>
