<svg width="30" height="34" viewBox="0 0 30 34" xmlns="http://www.w3.org/2000/svg" xmlns:xlink="http://www.w3.org/1999/xlink">
  <defs>
    <filter x="-16.7%" y="-14.3%" width="141.7%" height="135.7%" filterUnits="objectBoundingBox" id="a">
      <feOffset dx="1" dy="1" in="SourceAlpha" result="shadowOffsetOuter1"/>
      <feGaussianBlur stdDeviation="1.5" in="shadowOffsetOuter1" result="shadowBlurOuter1"/>
      <feColorMatrix values="0 0 0 0 0 0 0 0 0 0 0 0 0 0 0 0 0 0 0.5 0" in="shadowBlurOuter1"/>
    </filter>
    <path d="M0 24V0h24v24h-8l-4 4-4-4H0Z" id="b"/>
  </defs>
  <g fill="none" fill-rule="evenodd">
    <g transform="translate(2 2)">
      <use fill="#000" filter="url(#a)" xlink:href="#b"/>
      <use fill="#FFF" xlink:href="#b"/>
    </g>
    <path d="M5 5h18v18H5z"/>
    <path d="M13.38636364 8.88568182V5.8175h1.22727272v3.06818182h-1.22727272Zm5.23636366 2.16818182-.8590909-.87954546 2.1681818-2.16818182.8590909.87954546-2.1681818 2.16818182Zm1.3090909 4.37727276v-1.22727276H23v1.22727276h-3.0681818Zm.0204545 6.1772727-2.1681818-2.1681818.8795455-.8795455 2.1681818 2.1681818-.8795455.8795455ZM9.37727273 11.05386364 7.20909091 8.88568182l.85909091-.85909091 2.16818182 2.16818182-.85909091.85909091Zm-.28636364 9.89999996h3.68181818c.45 0 .83522728-.1602272 1.15568182-.4806818.32045455-.3204545.48068182-.7056818.48068182-1.1556818 0-.45-.15681818-.8386364-.47045455-1.1659091-.31363636-.3272727-.69545454-.4909091-1.14545454-.4909091h-.9L11.525 16.8220455c-.20454545-.4909091-.52840909-.8795455-.97159091-1.1659091-.44318182-.2863637-.93068182-.4295455-1.4625-.4295455-.79090909 0-1.46590909.2795455-2.025.8386364-.55909091.5590909-.83863636 1.2340909-.83863636 2.025 0 .7909091.27954545 1.4659091.83863636 2.025s1.23409091.8386363 2.025.8386363Zm0 1.2272728c-1.13181818 0-2.09659091-.3988637-2.89431818-1.1965909C5.39886364 20.1868182 5 19.2220455 5 18.0902273c0-1.1318182.39886364-2.0965909 1.19659091-2.8943182.79772727-.79772728 1.7625-1.19659092 2.89431818-1.19659092.79090909 0 1.51022727.22159091 2.15795455.66477273.64772727.44318179 1.12840909 1.03295459 1.44204545 1.76931819.81818182 0 1.50681818.2965909 2.06590909.8897727.55909092.5931818.83863632 1.3056818.83863632 2.1375-.0681818.7636364-.3681818 1.4079546-.89999995 1.9329546-.53181819.525-1.17272728.7875-1.92272728.7875H9.09090909Zm6.50454541-2.7204546-.1227272-.6136363L15.35 18.2334091c.7090909-.2727273 1.275-.7193182 1.6977273-1.3397727.4227272-.6204546.6340909-1.3125.6340909-2.0761364 0-1.02272727-.3579546-1.89204545-1.0738637-2.60795455-.715909-.71590909-1.5852272-1.07386363-2.6079545-1.07386363-.91363636 0-1.71477273.28977273-2.40340909.86931818-.68863636.57954545-1.09431818 1.31931818-1.21704546 2.21931818-.21818181-.04090909-.43295454-.07840909-.64431818-.1125-.21136363-.03409091-.42613636-.07159091-.64431818-.1125.19090909-1.2.75340909-2.18181818 1.6875-2.94545454C11.7125 10.29022727 12.78636364 9.90840909 14 9.90840909c1.3636364 0 2.5227273.47727273 3.4772727 1.43181818.9545455.95454546 1.4318182 2.11363637 1.4318182 3.47727273 0 1.0636364-.3034091 2.0181818-.9102273 2.8636364-.6068181.8454545-1.4079545 1.4386363-2.4034091 1.7795454Z" stroke="#000" stroke-width=".25" fill="#000" fill-rule="nonzero" stroke-linejoin="round"/>
  </g>
</svg>
