<svg width="30" height="34" viewBox="0 0 30 34" xmlns="http://www.w3.org/2000/svg" xmlns:xlink="http://www.w3.org/1999/xlink">
  <defs>
    <path d="M0,24 L0,0 L24,0 L24,24 L16,24 L12,28 L8,24 L0,24 Z" id="path-1"></path>
      <filter x="-16.7%" y="-14.3%" width="141.7%" height="135.7%" filterUnits="objectBoundingBox" id="filter-2">
        <feOffset dx="1" dy="1" in="SourceAlpha" result="shadowOffsetOuter1"></feOffset>
        <feGaussianBlur stdDeviation="1.5" in="shadowOffsetOuter1" result="shadowBlurOuter1"></feGaussianBlur>
        <feColorMatrix values="0 0 0 0 0   0 0 0 0 0   0 0 0 0 0  0 0 0 0.5 0" type="matrix" in="shadowBlurOuter1"></feColorMatrix>
      </filter>
  </defs>
  <g transform="translate(2, 2)" stroke="none" stroke-width="1" fill="none" fill-rule="evenodd">
    <use fill="black" fill-opacity="1" filter="url(#filter-2)" xlink:href="#path-1"></use>
    <use fill="#FFFFFF" fill-rule="evenodd" xlink:href="#path-1"></use>
    <g transform="translate(3, 3)">
      <path d="M9,0.1 C10.9329966,0.1 12.5,1.66700338 12.5,3.6 L14.0630137,3.59998077 C14.2850418,2.73737692 15.0680872,2.1 16,2.1 C17.1045695,2.1 18,2.9954305 18,4.1 C18,5.2045695 17.1045695,6.1 16,6.1 C15.0684484,6.1 14.2856488,5.46311708 14.0632721,4.60102216 L12.353,4.6 L12.3215677,4.7062707 C11.916435,5.92326195 10.8611697,6.84321751 9.56771818,7.05419091 L9.5,7.063 L9.5,8.9 L16,8.9 C16.5522847,8.9 17,9.34771525 17,9.9 L17,16.9 C17,17.4522847 16.5522847,17.9 16,17.9 L2,17.9 C1.44771525,17.9 1,17.4522847 1,16.9 L1,9.9 C1,9.34771525 1.44771525,8.9 2,8.9 L8.5,8.9 L8.5,7.063 L8.43228182,7.05419091 C7.13883031,6.84321751 6.08356499,5.92326195 5.67843232,4.7062707 L5.646,4.6 L3.93672788,4.60102216 C3.71435119,5.46311708 2.93155158,6.1 2,6.1 C0.8954305,6.1 0,5.2045695 0,4.1 C0,2.9954305 0.8954305,2.1 2,2.1 C2.93191279,2.1 3.71495822,2.73737692 3.93698631,3.59998077 L5.5,3.6 C5.5,1.66700338 7.06700338,0.1 9,0.1 Z M16,9.9 L2,9.9 L2,16.9 L16,16.9 L16,9.9 Z M9,11.9 C9.82842712,11.9 10.5,12.5715729 10.5,13.4 C10.5,14.2284271 9.82842712,14.9 9,14.9 C8.17157288,14.9 7.5,14.2284271 7.5,13.4 C7.5,12.5715729 8.17157288,11.9 9,11.9 Z M13,11.9 C13.8284271,11.9 14.5,12.5715729 14.5,13.4 C14.5,14.2284271 13.8284271,14.9 13,14.9 C12.1715729,14.9 11.5,14.2284271 11.5,13.4 C11.5,12.5715729 12.1715729,11.9 13,11.9 Z M5,11.9 C5.82842712,11.9 6.5,12.5715729 6.5,13.4 C6.5,14.2284271 5.82842712,14.9 5,14.9 C4.17157288,14.9 3.5,14.2284271 3.5,13.4 C3.5,12.5715729 4.17157288,11.9 5,11.9 Z M9,12.9 C8.72385763,12.9 8.5,13.1238576 8.5,13.4 C8.5,13.6761424 8.72385763,13.9 9,13.9 C9.27614237,13.9 9.5,13.6761424 9.5,13.4 C9.5,13.1238576 9.27614237,12.9 9,12.9 Z M13,12.9 C12.7238576,12.9 12.5,13.1238576 12.5,13.4 C12.5,13.6761424 12.7238576,13.9 13,13.9 C13.2761424,13.9 13.5,13.6761424 13.5,13.4 C13.5,13.1238576 13.2761424,12.9 13,12.9 Z M5,12.9 C4.72385763,12.9 4.5,13.1238576 4.5,13.4 C4.5,13.6761424 4.72385763,13.9 5,13.9 C5.27614237,13.9 5.5,13.6761424 5.5,13.4 C5.5,13.1238576 5.27614237,12.9 5,12.9 Z M9,1.1 C7.61928813,1.1 6.5,2.21928813 6.5,3.6 C6.5,4.98071187 7.61928813,6.1 9,6.1 C10.3807119,6.1 11.5,4.98071187 11.5,3.6 C11.5,2.21928813 10.3807119,1.1 9,1.1 Z M2,3.1 C1.44771525,3.1 1,3.54771525 1,4.1 C1,4.65228475 1.44771525,5.1 2,5.1 C2.55228475,5.1 3,4.65228475 3,4.1 C3,3.54771525 2.55228475,3.1 2,3.1 Z M16,3.1 C15.4477153,3.1 15,3.54771525 15,4.1 C15,4.65228475 15.4477153,5.1 16,5.1 C16.5522847,5.1 17,4.65228475 17,4.1 C17,3.54771525 16.5522847,3.1 16,3.1 Z" stroke="#000000" stroke-width="0.25" fill="#000000" fill-rule="nonzero"></path>
    </g>
  </g>
</svg>
