<?xml version="1.0" encoding="UTF-8"?>
<svg width="30px" height="34px" viewBox="0 0 30 34" version="1.1" xmlns="http://www.w3.org/2000/svg" xmlns:xlink="http://www.w3.org/1999/xlink">
    <title>CA7DB75E-D0A9-4333-B0BB-1992D9A310E7</title>
    <defs>
        <path d="M0,24 L0,0 L24,0 L24,24 L16,24 L12,28 L8,24 L0,24 Z" id="path-1"></path>
        <filter x="-16.7%" y="-14.3%" width="141.7%" height="135.7%" filterUnits="objectBoundingBox" id="filter-2">
            <feOffset dx="1" dy="1" in="SourceAlpha" result="shadowOffsetOuter1"></feOffset>
            <feGaussianBlur stdDeviation="1.5" in="shadowOffsetOuter1" result="shadowBlurOuter1"></feGaussianBlur>
            <feColorMatrix values="0 0 0 0 0   0 0 0 0 0   0 0 0 0 0  0 0 0 0.5 0" type="matrix" in="shadowBlurOuter1"></feColorMatrix>
        </filter>
    </defs>
    <g id="Digitaalinen-v채yl채kortti-(DVK)" stroke="none" stroke-width="1" fill="none" fill-rule="evenodd">
        <g id="dvk_land_zoom_out" transform="translate(-1077.000000, -385.000000)">
            <g id="s채채havaintoasema" transform="translate(1079.000000, 387.000000)">
                <g id="Combined-Shape">
                    <use fill="black" fill-opacity="1" filter="url(#filter-2)" xlink:href="#path-1"></use>
                    <use fill="#FFFFFF" fill-rule="evenodd" xlink:href="#path-1"></use>
                </g>
                <g id="fairway_icon" transform="translate(3.000000, 3.000000)">
                    <rect id="Rectangle" x="0" y="0" width="18" height="18"></rect>
                    <path d="M8.38636364,3.88568182 L8.38636364,0.8175 L9.61363636,0.8175 L9.61363636,3.88568182 L8.38636364,3.88568182 Z M13.6227273,6.05386364 L12.7636364,5.17431818 L14.9318182,3.00613636 L15.7909091,3.88568182 L13.6227273,6.05386364 Z M14.9318182,10.4311364 L14.9318182,9.20386364 L18,9.20386364 L18,10.4311364 L14.9318182,10.4311364 Z M14.9522727,16.6084091 L12.7840909,14.4402273 L13.6636364,13.5606818 L15.8318182,15.7288636 L14.9522727,16.6084091 Z M4.37727273,6.05386364 L2.20909091,3.88568182 L3.06818182,3.02659091 L5.23636364,5.19477273 L4.37727273,6.05386364 Z M4.09090909,15.9538636 L7.77272727,15.9538636 C8.22272727,15.9538636 8.60795455,15.7936364 8.92840909,15.4731818 C9.24886364,15.1527273 9.40909091,14.7675 9.40909091,14.3175 C9.40909091,13.8675 9.25227273,13.4788636 8.93863636,13.1515909 C8.625,12.8243182 8.24318182,12.6606818 7.79318182,12.6606818 L6.89318182,12.6606818 L6.525,11.8220455 C6.32045455,11.3311364 5.99659091,10.9425 5.55340909,10.6561364 C5.11022727,10.3697727 4.62272727,10.2265909 4.09090909,10.2265909 C3.3,10.2265909 2.625,10.5061364 2.06590909,11.0652273 C1.50681818,11.6243182 1.22727273,12.2993182 1.22727273,13.0902273 C1.22727273,13.8811364 1.50681818,14.5561364 2.06590909,15.1152273 C2.625,15.6743182 3.3,15.9538636 4.09090909,15.9538636 Z M4.09090909,17.1811364 C2.95909091,17.1811364 1.99431818,16.7822727 1.19659091,15.9845455 C0.398863636,15.1868182 0,14.2220455 0,13.0902273 C0,11.9584091 0.398863636,10.9936364 1.19659091,10.1959091 C1.99431818,9.39818182 2.95909091,8.99931818 4.09090909,8.99931818 C4.88181818,8.99931818 5.60113636,9.22090909 6.24886364,9.66409091 C6.89659091,10.1072727 7.37727273,10.6970455 7.69090909,11.4334091 C8.50909091,11.4334091 9.19772727,11.73 9.75681818,12.3231818 C10.3159091,12.9163636 10.5954545,13.6288636 10.5954545,14.4606818 C10.5272727,15.2243182 10.2272727,15.8686364 9.69545455,16.3936364 C9.16363636,16.9186364 8.52272727,17.1811364 7.77272727,17.1811364 L4.09090909,17.1811364 Z M10.5954545,14.4606818 L10.4727273,13.8470455 L10.35,13.2334091 C11.0590909,12.9606818 11.625,12.5140909 12.0477273,11.8936364 C12.4704545,11.2731818 12.6818182,10.5811364 12.6818182,9.8175 C12.6818182,8.79477273 12.3238636,7.92545455 11.6079545,7.20954545 C10.8920455,6.49363636 10.0227273,6.13568182 9,6.13568182 C8.08636364,6.13568182 7.28522727,6.42545455 6.59659091,7.005 C5.90795455,7.58454545 5.50227273,8.32431818 5.37954545,9.22431818 C5.16136364,9.18340909 4.94659091,9.14590909 4.73522727,9.11181818 C4.52386364,9.07772727 4.30909091,9.04022727 4.09090909,8.99931818 C4.28181818,7.79931818 4.84431818,6.8175 5.77840909,6.05386364 C6.7125,5.29022727 7.78636364,4.90840909 9,4.90840909 C10.3636364,4.90840909 11.5227273,5.38568182 12.4772727,6.34022727 C13.4318182,7.29477273 13.9090909,8.45386364 13.9090909,9.8175 C13.9090909,10.8811364 13.6056818,11.8356818 12.9988636,12.6811364 C12.3920455,13.5265909 11.5909091,14.1197727 10.5954545,14.4606818 Z" id="Shape" stroke="#000000" stroke-width="0.25" fill="#000000" fill-rule="nonzero" stroke-linejoin="round"></path>
                </g>
            </g>
        </g>
    </g>
</svg>