<svg width="24" height="24" viewBox="0 0 24 24" xmlns="http://www.w3.org/2000/svg">
  <path d="m23.6736066 20.7495362-4.6737794-4.6729812c-.2109529-.2109169-.4969113-.3280929-.7969333-.3280929h-.7641184c1.2938447-1.654526 2.0626509-3.7355727 2.0626509-5.99941416C19.5014264 4.36363636 15.1370447 0 9.75071321 0 4.36438173 0 0 4.36363636 0 9.74904794c0 5.38541156 4.36438173 9.74904796 9.75071321 9.74904796 2.26422809 0 4.34563039-.7686749 6.00043889-2.0622986v.7639879c0 .2999707.1171961.5858803.328149.7967972l4.6737794 4.6729811c.4406572.440582 1.1532093.440582 1.5891787 0l1.3266595-1.3264329c.4406573-.440582.4406573-1.1530124.0046879-1.5935944ZM9.75071321 15.7484621c-3.31430492 0-6.0004389-2.6809882-6.0004389-5.99941416 0-3.31373889 2.68144613-5.99941412 6.0004389-5.99941412 3.31430489 0 6.00043889 2.68098819 6.00043889 5.99941412 0 3.31373886-2.6814461 5.99941416-6.00043889 5.99941416Z" fill="#0064AF" fill-rule="nonzero"/>
</svg>
