<?xml version="1.0" encoding="UTF-8"?>
<svg width="24px" height="24px" viewBox="0 0 24 24" version="1.1" xmlns="http://www.w3.org/2000/svg" xmlns:xlink="http://www.w3.org/1999/xlink">
    <title>7539F54C-6B19-4743-9B48-046609E17561</title>
    <g id="Digitaalinen-väyläkortti-(DVK)" stroke="none" stroke-width="1" fill="none" fill-rule="evenodd">
        <g id="dvk_sea_zoom_out" transform="translate(-411.000000, -59.000000)" fill="#0064AF" fill-rule="nonzero">
            <g id="Form/Input-field/Hae-väylää-Copy" transform="translate(112.000000, 48.000000)">
                <g id="Icon/Search" transform="translate(299.000000, 11.000000)">
                    <path d="M23.6736066,20.7495362 L18.9998272,16.076555 C18.7888743,15.8656381 18.5029159,15.7484621 18.2028939,15.7484621 L17.4387755,15.7484621 C18.7326202,14.0939361 19.5014264,12.0128894 19.5014264,9.74904794 C19.5014264,4.36363636 15.1370447,0 9.75071321,0 C4.36438173,0 0,4.36363636 0,9.74904794 C0,15.1344595 4.36438173,19.4980959 9.75071321,19.4980959 C12.0149413,19.4980959 14.0963436,18.729421 15.7511521,17.4357973 L15.7511521,18.1997852 C15.7511521,18.4997559 15.8683482,18.7856655 16.0793011,18.9965824 L20.7530805,23.6695635 C21.1937377,24.1101455 21.9062898,24.1101455 22.3422592,23.6695635 L23.6689187,22.3431306 C24.109576,21.9025486 24.109576,21.1901182 23.6736066,20.7495362 Z M9.75071321,15.7484621 C6.43640829,15.7484621 3.75027431,13.0674739 3.75027431,9.74904794 C3.75027431,6.43530905 6.43172044,3.74963382 9.75071321,3.74963382 C13.0650181,3.74963382 15.7511521,6.43062201 15.7511521,9.74904794 C15.7511521,13.0627868 13.069706,15.7484621 9.75071321,15.7484621 Z" id="Shape"></path>
                </g>
            </g>
        </g>
    </g>
</svg>