<?xml version="1.0" encoding="UTF-8"?>
<svg width="36px" height="44px" viewBox="0 0 36 44" version="1.1" xmlns="http://www.w3.org/2000/svg" xmlns:xlink="http://www.w3.org/1999/xlink">
    <defs>
        <path d="M996,437 C1000.23333,437 1003.95833,438.483333 1007.175,441.45 C1010.39167,444.416667 1012,448.4 1012,453.4 C1012,456.733333 1010.675,460.358333 1008.025,464.275 C1005.375,468.191667 1001.36667,472.433333 996,477 C990.633333,472.433333 986.625,468.191667 983.975,464.275 C981.325,460.358333 980,456.733333 980,453.4 C980,448.4 981.608333,444.416667 984.825,441.45 C988.041667,438.483333 991.766667,437 996,437 Z M995.98925,455.5 C994.496417,455.5 993.083333,455.716667 991.75,456.15 C990.416667,456.583333 989.183333,457.233333 988.05,458.1 C988.883333,459.433333 989.98835,460.5 991.36505,461.3 C992.741783,462.1 994.286767,462.5 996,462.5 C997.713233,462.5 999.258217,462.1 1000.63495,461.3 C1002.01165,460.5 1003.11667,459.433333 1003.95,458.1 C1002.81667,457.233333 1001.57975,456.583333 1000.23925,456.15 C998.89875,455.716667 997.482083,455.5 995.98925,455.5 Z M995.99555,445.5 C995.03185,445.5 994.208333,445.84315 993.525,446.52945 C992.841667,447.215717 992.5,448.040717 992.5,449.00445 C992.5,449.96815 992.84315,450.791667 993.52945,451.475 C994.215717,452.158333 995.040717,452.5 996.00445,452.5 C996.96815,452.5 997.791667,452.15685 998.475,451.47055 C999.158333,450.784283 999.5,449.959283 999.5,448.99555 C999.5,448.03185 999.15685,447.208333 998.47055,446.525 C997.784283,445.841667 996.959283,445.5 995.99555,445.5 Z" id="path-1"></path>
        <filter x="-7.8%" y="-6.2%" width="121.9%" height="117.5%" filterUnits="objectBoundingBox" id="filter-2">
            <feOffset dx="1" dy="1" in="SourceAlpha" result="shadowOffsetOuter1"></feOffset>
            <feGaussianBlur stdDeviation="1" in="shadowOffsetOuter1" result="shadowBlurOuter1"></feGaussianBlur>
            <feColorMatrix values="0 0 0 0 0   0 0 0 0 0   0 0 0 0 0  0 0 0 0.2 0" type="matrix" in="shadowBlurOuter1"></feColorMatrix>
        </filter>
    </defs>
    <g id="Digitaalinen-väyläkortti-(DVK)" stroke="none" stroke-width="1" fill="none" fill-rule="evenodd">
        <g id="dvk_labels" transform="translate(-979, -436)" fill-rule="nonzero">
            <g id="user_location_indicator">
                <use fill="black" fill-opacity="1" filter="url(#filter-2)" xlink:href="#path-1"></use>
                <use fill="#EC0E0E" xlink:href="#path-1"></use>
            </g>
        </g>
    </g>
</svg>