<svg width="36" height="44" viewBox="0 0 36 44" xmlns="http://www.w3.org/2000/svg" xmlns:xlink="http://www.w3.org/1999/xlink">
  <defs>
    <filter x="-7.8%" y="-6.2%" width="121.9%" height="117.5%" filterUnits="objectBoundingBox" id="a">
      <feOffset dx="1" dy="1" in="SourceAlpha" result="shadowOffsetOuter1"/>
      <feGaussianBlur stdDeviation="1" in="shadowOffsetOuter1" result="shadowBlurOuter1"/>
      <feColorMatrix values="0 0 0 0 0 0 0 0 0 0 0 0 0 0 0 0 0 0 0.2 0" in="shadowBlurOuter1"/>
    </filter>
    <path d="M996 437c4.23333 0 7.95833 1.483333 11.175 4.45 3.21667 2.966667 4.825 6.95 4.825 11.95 0 3.333333-1.325 6.958333-3.975 10.875-2.65 3.916667-6.65833 8.158333-12.025 12.725-5.366667-4.566667-9.375-8.808333-12.025-12.725-2.65-3.916667-3.975-7.541667-3.975-10.875 0-5 1.608333-8.983333 4.825-11.95 3.216667-2.966667 6.941667-4.45 11.175-4.45Zm-.01075 18.5c-1.492833 0-2.905917.216667-4.23925.65s-2.566667 1.083333-3.7 1.95c.833333 1.333333 1.93835 2.4 3.31505 3.2 1.376733.8 2.921717 1.2 4.63495 1.2 1.713233 0 3.258217-.4 4.63495-1.2 1.3767-.8 2.48172-1.866667 3.31505-3.2-1.13333-.866667-2.37025-1.516667-3.71075-1.95-1.3405-.433333-2.757167-.65-4.25-.65Zm.0063-10c-.9637 0-1.787217.34315-2.47055 1.02945-.683333.686267-1.025 1.511267-1.025 2.475 0 .9637.34315 1.787217 1.02945 2.47055.686267.683333 1.511267 1.025 2.475 1.025.9637 0 1.787217-.34315 2.47055-1.02945.683333-.686267 1.025-1.511267 1.025-2.475 0-.9637-.34315-1.787217-1.02945-2.47055-.686267-.683333-1.511267-1.025-2.475-1.025Z" id="b"/>
  </defs>
  <g transform="translate(-979 -436)" fill-rule="nonzero" fill="none">
    <use fill="#000" filter="url(#a)" xlink:href="#b"/>
    <use fill="#EC0E0E" xlink:href="#b"/>
  </g>
</svg>
