<svg width="24" height="27" viewBox="0 0 24 27" xmlns="http://www.w3.org/2000/svg" xmlns:xlink="http://www.w3.org/1999/xlink">
  <defs>
    <filter x="-22.2%" y="-19%" width="155.6%" height="147.6%" filterUnits="objectBoundingBox" id="a">
      <feOffset dx="1" dy="1" in="SourceAlpha" result="shadowOffsetOuter1"/>
      <feGaussianBlur stdDeviation="1.5" in="shadowOffsetOuter1" result="shadowBlurOuter1"/>
      <feColorMatrix values="0 0 0 0 0 0 0 0 0 0 0 0 0 0 0 0 0 0 0.5 0" in="shadowBlurOuter1"/>
    </filter>
    <path d="M0 18V0h18v18h-6l-3 3-3-3H0Z" id="b"/>
  </defs>
  <g fill="none" fill-rule="evenodd">
    <g transform="translate(2 2)">
      <use fill="#000" filter="url(#a)" xlink:href="#b"/>
      <use fill="#FFF" xlink:href="#b"/>
    </g>
    <path d="M4.25 15.8c.46323529.2.99264706.3 1.58823529.3.89338236 0 .92546241-.6 1.78676471-.6s.89338235.6 1.6875.6c.52941176 0 1.09191176-.1 1.6875-.3v.9c-.59558824.2-1.15808824.3-1.6875.3-.79411765 0-.81166995-.6-1.6875-.6s-.89338235.6-1.78676471.6c-.59558823 0-1.125-.1-1.58823529-.3v-.9ZM4.25 13.55c.46323529.2.99264706.3 1.58823529.3.89338236 0 .92546241-.6 1.78676471-.6s.89338235.6 1.6875.6c.52941176 0 1.09191176-.1 1.6875-.3v.9c-.59558824.2-1.15808824.3-1.6875.3-.79411765 0-.81166995-.6-1.6875-.6s-.89338235.6-1.78676471.6c-.59558823 0-1.125-.1-1.58823529-.3v-.9ZM11 13.55c.46323529.2.99264706.3 1.5882353.3.8933823 0 .9254624-.6 1.7867647-.6s.8933824.6 1.6875.6c.5294118 0 1.0919118-.1 1.6875-.3v.9c-.5955882.2-1.1580882.3-1.6875.3-.7941176 0-.8116699-.6-1.6875-.6s-.8933824.6-1.7867647.6c-.59558824 0-1.12500001-.1-1.5882353-.3v-.9ZM11 15.8c.46323529.2.99264706.3 1.5882353.3.8933823 0 .9254624-.6 1.7867647-.6s.8933824.6 1.6875.6c.5294118 0 1.0919118-.1 1.6875-.3v.9c-.5955882.2-1.1580882.3-1.6875.3-.7941176 0-.8116699-.6-1.6875-.6s-.8933824.6-1.7867647.6c-.59558824 0-1.12500001-.1-1.5882353-.3v-.9Z" fill="#000"/>
    <path d="M15.5 9.5h.75l-1.5 2.25-1.5-2.25H14v-3h-.75l1.5-2.25 1.5 2.25h-.75v3Z" fill="#000" fill-rule="nonzero"/>
  </g>
</svg>
