<svg width="91" height="34" viewBox="0 0 85 34" xmlns="http://www.w3.org/2000/svg" xmlns:xlink="http://www.w3.org/1999/xlink">
  <defs>
    <filter x="-4.7%" y="-14.3%" width="111.8%" height="135.7%" filterUnits="objectBoundingBox" id="a">
      <feOffset dx="1" dy="1" in="SourceAlpha" result="shadowOffsetOuter1"/>
      <feGaussianBlur stdDeviation="1.5" in="shadowOffsetOuter1" result="shadowBlurOuter1"/>
      <feColorMatrix values="0 0 0 0 0 0 0 0 0 0 0 0 0 0 0 0 0 0 0.5 0" in="shadowBlurOuter1"/>
    </filter>
    <path d="M0 0h85v24H16L12 28l-4-4H0V0Z" id="b"/>
  </defs>
  <g fill="none" fill-rule="evenodd">
    <g transform="translate(0 2)">
      <use fill="#000" filter="url(#a)" xlink:href="#b"/>
      <use fill="#FFF" xlink:href="#b"/>
    </g>
    <path d="M5 20.4c.62.27 1.32.4 2.12.4 1.19 0 1.23-.8 2.38-.8s1.19.8 2.25.8c.71 0 1.46-.13 2.25-.4v1.2c-.79.27-1.54.4-2.25.4-1.06 0-1.08-.8-2.25-.8s-1.19.8-2.38.8c-.79 0-1.5-.13-2.12-.4v-1.2ZM5 17.4c.62.27 1.32.4 2.12.4 1.19 0 1.23-.8 2.38-.8s1.19.8 2.25.8c.71 0 1.46-.13 2.25-.4v1.2c-.79.27-1.54.4-2.25.4-1.06 0-1.08-.8-2.25-.8s-1.19.8-2.38.8c-.79 0-1.5-.13-2.12-.4v-1.2ZM14 17.4c.62.27 1.32.4 2.12.4 1.19 0 1.23-.8 2.38-.8s1.19.8 2.25.8c.71 0 1.46-.13 2.25-.4v1.2c-.79.27-1.54.4-2.25.4-1.06 0-1.08-.8-2.25-.8s-1.19.8-2.38.8c-.79 0-1.5-.13-2.12-.4v-1.2ZM14 20.4c.62.27 1.32.4 2.12.4 1.19 0 1.23-.8 2.38-.8s1.19.8 2.25.8c.71 0 1.46-.13 2.25-.4v1.2c-.79.27-1.54.4-2.25.4-1.06 0-1.08-.8-2.25-.8s-1.19.8-2.38.8c-.79 0-1.5-.13-2.12-.4v-1.2Z" fill="#EC0E0E"/>
    <path d="M19 5l2 3h-1v4h1l-2 3-2-3h1V8h-1l2-3Z" fill="#EC0E0E" fill-rule="nonzero"/>
  </g>
</svg>