<svg width="91" height="34" viewBox="0 0 91 34" xmlns="http://www.w3.org/2000/svg" xmlns:xlink="http://www.w3.org/1999/xlink">
  <defs>
    <filter x="-4.7%" y="-14.3%" width="111.8%" height="135.7%" filterUnits="objectBoundingBox" id="a">
      <feOffset dx="1" dy="1" in="SourceAlpha" result="shadowOffsetOuter1"/>
      <feGaussianBlur stdDeviation="1.5" in="shadowOffsetOuter1" result="shadowBlurOuter1"/>
      <feColorMatrix values="0 0 0 0 0 0 0 0 0 0 0 0 0 0 0 0 0 0 0.5 0" in="shadowBlurOuter1"/>
    </filter>
    <path d="m16 24-4 4-4-4H0V0h85v24H16Z" id="b"/>
  </defs>
  <g fill="none" fill-rule="evenodd">
    <g transform="translate(2 2)">
      <use fill="#000" filter="url(#a)" xlink:href="#b"/>
      <use fill="#FFF" xlink:href="#b"/>
    </g>
    <path d="M5 20.4c.61764706.2666667 1.32352941.4 2.11764706.4C8.30882353 20.8 8.35159693 20 9.5 20s1.19117647.8 2.25.8c.7058824 0 1.4558824-.1333333 2.25-.4v1.2c-.7941176.2666667-1.5441176.4-2.25.4-1.05882353 0-1.08222659-.8-2.25-.8s-1.19117647.8-2.38235294.8c-.79411765 0-1.5-.1333333-2.11764706-.4v-1.2ZM5 17.4c.61764706.2666667 1.32352941.4 2.11764706.4C8.30882353 17.8 8.35159693 17 9.5 17s1.19117647.8 2.25.8c.7058824 0 1.4558824-.1333333 2.25-.4v1.2c-.7941176.2666667-1.5441176.4-2.25.4-1.05882353 0-1.08222659-.8-2.25-.8s-1.19117647.8-2.38235294.8c-.79411765 0-1.5-.1333333-2.11764706-.4v-1.2ZM14 17.4c.6176471.2666667 1.3235294.4 2.1176471.4 1.1911764 0 1.2339498-.8 2.3823529-.8s1.1911765.8 2.25.8c.7058824 0 1.4558824-.1333333 2.25-.4v1.2c-.7941176.2666667-1.5441176.4-2.25.4-1.0588235 0-1.0822266-.8-2.25-.8s-1.1911765.8-2.3823529.8c-.7941177 0-1.5-.1333333-2.1176471-.4v-1.2ZM14 20.4c.6176471.2666667 1.3235294.4 2.1176471.4 1.1911764 0 1.2339498-.8 2.3823529-.8s1.1911765.8 2.25.8c.7058824 0 1.4558824-.1333333 2.25-.4v1.2c-.7941176.2666667-1.5441176.4-2.25.4-1.0588235 0-1.0822266-.8-2.25-.8s-1.1911765.8-2.3823529.8c-.7941177 0-1.5-.1333333-2.1176471-.4v-1.2Z" fill="#EC0E0E"/>
    <path d="m19 5 2 3h-1v4h1l-2 3-2-3h1V8h-1l2-3Z" fill="#EC0E0E" fill-rule="nonzero"/>
  </g>
</svg>