<?xml version="1.0" encoding="UTF-8"?>
<svg width="72px" height="34px" viewBox="0 0 72 34" version="1.1" xmlns="http://www.w3.org/2000/svg" xmlns:xlink="http://www.w3.org/1999/xlink">
    <title>vedenkorkeus_pohja copy</title>
    <defs>
        <path d="M0,24 L0,0 L18.7164179,0 L18.7164179,24 L11.8208955,24 L8.86567164,28 L5.91044776,24 L0,24 Z M18.7164179,0 L66,0 L66,24 L18.7164179,24 Z" id="path-1"></path>
        <filter x="-6.1%" y="-14.3%" width="115.2%" height="135.7%" filterUnits="objectBoundingBox" id="filter-2">
            <feOffset dx="1" dy="1" in="SourceAlpha" result="shadowOffsetOuter1"></feOffset>
            <feGaussianBlur stdDeviation="1.5" in="shadowOffsetOuter1" result="shadowBlurOuter1"></feGaussianBlur>
            <feColorMatrix values="0 0 0 0 0   0 0 0 0 0   0 0 0 0 0  0 0 0 0.5 0" type="matrix" in="shadowBlurOuter1"></feColorMatrix>
        </filter>
    </defs>
    <g id="Digitaalinen-väyläkortti-(DVK)" stroke="none" stroke-width="1" fill="none" fill-rule="evenodd">
        <g id="dvk_kartta_zoom_ulos_01_popup_esimerkkejä" transform="translate(-730, -244)">
            <g id="vedenkorkeus_pohja-copy" transform="translate(732, 246)">
                <g id="Combined-Shape">
                    <use fill="black" fill-opacity="1" filter="url(#filter-2)" xlink:href="#path-1"></use>
                    <use fill="#FFFFFF" fill-rule="evenodd" xlink:href="#path-1"></use>
                </g>
                <path d="M3,18.4 C3.61764706,18.6666667 4.32352941,18.8 5.11764706,18.8 C6.30882353,18.8 6.35159693,18 7.5,18 C8.64840307,18 8.69117647,18.8 9.75,18.8 C10.4558824,18.8 11.2058824,18.6666667 12,18.4 L12,19.6 C11.2058824,19.8666667 10.4558824,20 9.75,20 C8.69117647,20 8.66777341,19.2 7.5,19.2 C6.33222659,19.2 6.30882353,20 5.11764706,20 C4.32352941,20 3.61764706,19.8666667 3,19.6 L3,18.4 Z" id="Rectangle" fill="#EC0E0E"></path>
                <path d="M3,15.4 C3.61764706,15.6666667 4.32352941,15.8 5.11764706,15.8 C6.30882353,15.8 6.35159693,15 7.5,15 C8.64840307,15 8.69117647,15.8 9.75,15.8 C10.4558824,15.8 11.2058824,15.6666667 12,15.4 L12,16.6 C11.2058824,16.8666667 10.4558824,17 9.75,17 C8.69117647,17 8.66777341,16.2 7.5,16.2 C6.33222659,16.2 6.30882353,17 5.11764706,17 C4.32352941,17 3.61764706,16.8666667 3,16.6 L3,15.4 Z" id="Rectangle-Copy-26" fill="#EC0E0E"></path>
                <path d="M12,15.4 C12.6176471,15.6666667 13.3235294,15.8 14.1176471,15.8 C15.3088235,15.8 15.3515969,15 16.5,15 C17.6484031,15 17.6911765,15.8 18.75,15.8 C19.4558824,15.8 20.2058824,15.6666667 21,15.4 L21,16.6 C20.2058824,16.8666667 19.4558824,17 18.75,17 C17.6911765,17 17.6677734,16.2 16.5,16.2 C15.3322266,16.2 15.3088235,17 14.1176471,17 C13.3235294,17 12.6176471,16.8666667 12,16.6 L12,15.4 Z" id="Rectangle-Copy-29" fill="#EC0E0E"></path>
                <path d="M12,18.4 C12.6176471,18.6666667 13.3235294,18.8 14.1176471,18.8 C15.3088235,18.8 15.3515969,18 16.5,18 C17.6484031,18 17.6911765,18.8 18.75,18.8 C19.4558824,18.8 20.2058824,18.6666667 21,18.4 L21,19.6 C20.2058824,19.8666667 19.4558824,20 18.75,20 C17.6911765,20 17.6677734,19.2 16.5,19.2 C15.3322266,19.2 15.3088235,20 14.1176471,20 C13.3235294,20 12.6176471,19.8666667 12,19.6 L12,18.4 Z" id="Rectangle-Copy-30" fill="#EC0E0E"></path>
                <path d="M17,3 L19,6 L18,6 L18,10 L19,10 L17,13 L15,10 L16,10 L16,6 L15,6 L17,3 Z" id="Combined-Shape" fill="#EC0E0E" fill-rule="nonzero"></path>
            </g>
        </g>
    </g>
</svg>