<svg width="91" height="34" xmlns="http://www.w3.org/2000/svg" xmlns:xlink="http://www.w3.org/1999/xlink"><defs><filter x="-4.7%" y="-14.3%" width="111.8%" height="135.7%" filterUnits="objectBoundingBox" id="a"><feOffset dx="1" dy="1" in="SourceAlpha" result="shadowOffsetOuter1"/><feGaussianBlur stdDeviation="1.5" in="shadowOffsetOuter1" result="shadowBlurOuter1"/><feColorMatrix values="0 0 0 0 0 0 0 0 0 0 0 0 0 0 0 0 0 0 0.5 0" in="shadowBlurOuter1"/></filter><path d="m16 24-4 4-4-4H0V0h85v24H16Z" id="b"/></defs><g fill="none" fill-rule="evenodd"><g transform="translate(2 2)"><use fill="#000" filter="url(#a)" xlink:href="#b"/><use fill="#FFF" xlink:href="#b"/></g><path d="M5 20.4c.618.267 1.324.4 2.118.4 1.19 0 1.234-.8 2.382-.8s1.191.8 2.25.8c.706 0 1.456-.133 2.25-.4v1.2c-.794.267-1.544.4-2.25.4-1.059 0-1.082-.8-2.25-.8s-1.191.8-2.382.8c-.794 0-1.5-.133-2.118-.4v-1.2Zm0-3c.618.267 1.324.4 2.118.4 1.19 0 1.234-.8 2.382-.8s1.191.8 2.25.8c.706 0 1.456-.133 2.25-.4v1.2c-.794.267-1.544.4-2.25.4-1.059 0-1.082-.8-2.25-.8s-1.191.8-2.382.8c-.794 0-1.5-.133-2.118-.4v-1.2Zm9 0c.618.267 1.324.4 2.118.4 1.19 0 1.234-.8 2.382-.8s1.191.8 2.25.8c.706 0 1.456-.133 2.25-.4v1.2c-.794.267-1.544.4-2.25.4-1.059 0-1.082-.8-2.25-.8s-1.191.8-2.382.8c-.794 0-1.5-.133-2.118-.4v-1.2Zm0 3c.618.267 1.324.4 2.118.4 1.19 0 1.234-.8 2.382-.8s1.191.8 2.25.8c.706 0 1.456-.133 2.25-.4v1.2c-.794.267-1.544.4-2.25.4-1.059 0-1.082-.8-2.25-.8s-1.191.8-2.382.8c-.794 0-1.5-.133-2.118-.4v-1.2Z" fill="#EC0E0E"/><path d="m19 5 2 3h-1v4h1l-2 3-2-3h1V8h-1l2-3Z" fill="#EC0E0E" fill-rule="nonzero"/></g></svg>