<?xml version="1.0" encoding="UTF-8"?>
<svg width="24px" height="27px" viewBox="0 0 24 27" version="1.1" xmlns="http://www.w3.org/2000/svg" xmlns:xlink="http://www.w3.org/1999/xlink">
    <title>D11A98D0-0CE5-49ED-8DCD-6C353496E2A1</title>
    <defs>
        <path d="M0,18 L0,0 L18,0 L18,18 L12,18 L9,21 L6,18 L0,18 Z" id="path-1"></path>
        <filter x="-22.2%" y="-19.0%" width="155.6%" height="147.6%" filterUnits="objectBoundingBox" id="filter-2">
            <feOffset dx="1" dy="1" in="SourceAlpha" result="shadowOffsetOuter1"></feOffset>
            <feGaussianBlur stdDeviation="1.5" in="shadowOffsetOuter1" result="shadowBlurOuter1"></feGaussianBlur>
            <feColorMatrix values="0 0 0 0 0   0 0 0 0 0   0 0 0 0 0  0 0 0 0.5 0" type="matrix" in="shadowBlurOuter1"></feColorMatrix>
        </filter>
    </defs>
    <g id="Digitaalinen-väyläkortti-(DVK)" stroke="none" stroke-width="1" fill="none" fill-rule="evenodd">
        <g id="dvk_land_layers" transform="translate(-1086.000000, -686.000000)">
            <g id="layers_open-copy-7" transform="translate(876.000000, 157.000000)">
                <g id="merivedenkorkeus" transform="translate(28.000000, 530.000000)">
                    <g id="vedenkorkeus_pohja-copy" transform="translate(184.000000, 1.000000)">
                        <g id="Combined-Shape">
                            <use fill="black" fill-opacity="1" filter="url(#filter-2)" xlink:href="#path-1"></use>
                            <use fill="#FFFFFF" fill-rule="evenodd" xlink:href="#path-1"></use>
                        </g>
                        <path d="M2.25,13.8 C2.71323529,14 3.24264706,14.1 3.83823529,14.1 C4.73161765,14.1 4.7636977,13.5 5.625,13.5 C6.4863023,13.5 6.51838235,14.1 7.3125,14.1 C7.84191176,14.1 8.40441176,14 9,13.8 L9,14.7 C8.40441176,14.9 7.84191176,15 7.3125,15 C6.51838235,15 6.50083005,14.4 5.625,14.4 C4.74916995,14.4 4.73161765,15 3.83823529,15 C3.24264706,15 2.71323529,14.9 2.25,14.7 L2.25,13.8 Z" id="Rectangle" fill="#000000"></path>
                        <path d="M2.25,11.55 C2.71323529,11.75 3.24264706,11.85 3.83823529,11.85 C4.73161765,11.85 4.7636977,11.25 5.625,11.25 C6.4863023,11.25 6.51838235,11.85 7.3125,11.85 C7.84191176,11.85 8.40441176,11.75 9,11.55 L9,12.45 C8.40441176,12.65 7.84191176,12.75 7.3125,12.75 C6.51838235,12.75 6.50083005,12.15 5.625,12.15 C4.74916995,12.15 4.73161765,12.75 3.83823529,12.75 C3.24264706,12.75 2.71323529,12.65 2.25,12.45 L2.25,11.55 Z" id="Rectangle-Copy-26" fill="#000000"></path>
                        <path d="M9,11.55 C9.46323529,11.75 9.99264706,11.85 10.5882353,11.85 C11.4816176,11.85 11.5136977,11.25 12.375,11.25 C13.2363023,11.25 13.2683824,11.85 14.0625,11.85 C14.5919118,11.85 15.1544118,11.75 15.75,11.55 L15.75,12.45 C15.1544118,12.65 14.5919118,12.75 14.0625,12.75 C13.2683824,12.75 13.2508301,12.15 12.375,12.15 C11.4991699,12.15 11.4816176,12.75 10.5882353,12.75 C9.99264706,12.75 9.46323529,12.65 9,12.45 L9,11.55 Z" id="Rectangle-Copy-29" fill="#000000"></path>
                        <path d="M9,13.8 C9.46323529,14 9.99264706,14.1 10.5882353,14.1 C11.4816176,14.1 11.5136977,13.5 12.375,13.5 C13.2363023,13.5 13.2683824,14.1 14.0625,14.1 C14.5919118,14.1 15.1544118,14 15.75,13.8 L15.75,14.7 C15.1544118,14.9 14.5919118,15 14.0625,15 C13.2683824,15 13.2508301,14.4 12.375,14.4 C11.4991699,14.4 11.4816176,15 10.5882353,15 C9.99264706,15 9.46323529,14.9 9,14.7 L9,13.8 Z" id="Rectangle-Copy-30" fill="#000000"></path>
                        <path d="M13.5,7.5 L14.25,7.5 L12.75,9.75 L11.25,7.5 L12,7.5 L12,4.5 L11.25,4.5 L12.75,2.25 L14.25,4.5 L13.5,4.5 L13.5,7.5 Z" id="Combined-Shape" fill="#000000" fill-rule="nonzero"></path>
                    </g>
                </g>
            </g>
        </g>
    </g>
</svg>