<svg width="24" height="28" viewBox="0 0 24 28" xmlns="http://www.w3.org/2000/svg">
  <g fill="none" fill-rule="evenodd">
    <path d="M23 1v22h-7.4142136L12 26.5857864 8.41421356 23H1V1h22Z" stroke="#D72416" stroke-width="2" fill="#FFF"/>
    <path d="m16.0626087 20-1.9478261-1.9478261V16.973913l-5.58260869-5.5826087c-.06956521.0231885-.14202898.0405798-.2173913.052174-.07536232.0115942-.14202899.0173913-.2.0173913v-.9217392c.56811594-.0231884 1.2115942-.1913043 1.93043479-.5043478.7188406-.31304347 1.257971-.66666666 1.6173913-1.06086956l1.0086956-1.09565217c.1391305-.15072464.2985508-.27246377.4782609-.36521739.1797102-.09275362.368116-.13913044.5652174-.13913044.3710145 0 .6898551.13333334.9565217.4.2666667.26666667.4.58550725.4.95652174v4.31304352c0 .347826-.0782608.7014492-.2347826 1.0608695-.1565217.3594203-.3507246.6028986-.5826087.7304348l-1.9826087-1.9826087V9.82608696c-.347826.30144924-.7362318.56811594-1.1652173.80000004-.4289856.231884-.8347827.4173913-1.21739135.5565217l5.00869565 5.0086956h1.0782609l1.9478261 1.9478261L16.0626087 20Zm-9.2-2.5043478L6.08 16.7130435l3.5826087-3.5478261 1.826087 1.8260869H9.38434783L6.8626087 17.4956522Zm6.9391304-10.95652177c-.3478261 0-.6463768-.12463768-.8956521-.37391304-.2492754-.24927536-.3739131-.54782609-.3739131-.89565217 0-.34782609.1246377-.64637681.3739131-.89565218C13.1553623 4.12463768 13.453913 4 13.8017391 4c.3478261 0 .6463768.12463768.8956522.37391304.2492754.24927537.373913.54782609.373913.89565218 0 .34782608-.1246376.64637681-.373913.89565217-.2492754.24927536-.5478261.37391304-.8956522.37391304Z" fill="#D72416" fill-rule="nonzero"/>
  </g>
</svg>
