<svg width="18" height="4" viewBox="0 0 18 4" xmlns="http://www.w3.org/2000/svg">
  <defs>
    <clipPath id="a">
      <path d="M1500 0v1024H0V0h1500Z"/>
    </clipPath>
    <clipPath id="b">
      <path d="M15.75 0c.1380712 0 .25.11192881.25.25v1.21428571c0 .13807119-.1119288.25-.25.25H.25c-.13807119 0-.25-.11192881-.25-.25V.25C0 .11192881.11192881 0 .25 0h15.5Z"/>
    </clipPath>
  </defs>
  <g clip-path="url(#a)" transform="translate(-1423 -954)">
    <g clip-path="url(#b)" transform="translate(1424 955)">
      <path fill="#0063AF" d="M0 0h16v1.71428571H0V0z"/>
    </g>
    <path d="M1424 956.46428571V955.25c0-.13807119.11192881-.25.25-.25h15.5c.1380712 0 .25.11192881.25.25v1.21428571c0 .13807119-.1119288.25-.25.25h-15.5c-.13807119 0-.25-.11192881-.25-.25Z" stroke="#0063AF" fill="none" stroke-miterlimit="10"/>
  </g>
</svg>
