<?xml version="1.0" encoding="UTF-8"?><svg version="1.1" width="18px" height="18px" viewBox="0 0 18.0 18.0" xmlns="http://www.w3.org/2000/svg" xmlns:xlink="http://www.w3.org/1999/xlink"><defs><clipPath id="i0"><path d="M1500,0 L1500,1024 L0,1024 L0,0 L1500,0 Z"></path></clipPath><clipPath id="i1"><path d="M8.60714286,0 C8.74521404,-2.53632657e-17 8.85714286,0.111928813 8.85714286,0.25 L8.85714286,6.89285714 C8.85714286,7.03092833 8.96907167,7.14285714 9.10714286,7.14285714 L15.75,7.14285714 C15.8880712,7.14285714 16,7.25478596 16,7.39285714 L16,8.60714286 C16,8.74521404 15.8880712,8.85714286 15.75,8.85714286 L9.10714286,8.85714286 C8.96907167,8.85714286 8.85714286,8.96907167 8.85714286,9.10714286 L8.85714286,15.75 C8.85714286,15.8880712 8.74521404,16 8.60714286,16 L7.39285714,16 C7.25478596,16 7.14285714,15.8880712 7.14285714,15.75 L7.14285714,9.10714286 C7.14285714,8.96907167 7.03092833,8.85714286 6.89285714,8.85714286 L0.25,8.85714286 C0.111928813,8.85714286 -1.21869034e-16,8.74521404 0,8.60714286 L0,7.39285714 C-5.0743624e-16,7.25478596 0.111928813,7.14285714 0.25,7.14285714 L6.89285714,7.14285714 C7.03092833,7.14285714 7.14285714,7.03092833 7.14285714,6.89285714 L7.14285714,0.25 C7.14285714,0.111928813 7.25478596,-1.68925764e-16 7.39285714,0 L8.60714286,0 Z"></path></clipPath></defs><g transform="translate(-1423.0 -891.0)"><g clip-path="url(#i0)"><g transform="translate(1412.0 768.0)"><g transform="translate(0.0 112.0)"><g transform="translate(12.0 12.0)"><g clip-path="url(#i1)"><polygon points="0,0 16,0 16,16 0,16 0,0" stroke="none" fill="#0063AF"></polygon></g><path d="M7.14285714,15.75 L7.14285714,9.10714286 C7.14285714,8.96907167 7.03092833,8.85714286 6.89285714,8.85714286 L0.25,8.85714286 C0.111928813,8.85714286 -1.21869034e-16,8.74521404 0,8.60714286 L0,7.39285714 C-5.0743624e-16,7.25478596 0.111928813,7.14285714 0.25,7.14285714 L6.89285714,7.14285714 C7.03092833,7.14285714 7.14285714,7.03092833 7.14285714,6.89285714 L7.14285714,0.25 C7.14285714,0.111928813 7.25478596,-1.68925764e-16 7.39285714,0 L8.60714286,0 C8.74521404,-2.53632657e-17 8.85714286,0.111928813 8.85714286,0.25 L8.85714286,6.89285714 C8.85714286,7.03092833 8.96907167,7.14285714 9.10714286,7.14285714 L15.75,7.14285714 C15.8880712,7.14285714 16,7.25478596 16,7.39285714 L16,8.60714286 C16,8.74521404 15.8880712,8.85714286 15.75,8.85714286 L9.10714286,8.85714286 C8.96907167,8.85714286 8.85714286,8.96907167 8.85714286,9.10714286 L8.85714286,15.75 C8.85714286,15.8880712 8.74521404,16 8.60714286,16 L7.39285714,16 C7.25478596,16 7.14285714,15.8880712 7.14285714,15.75 Z" stroke="#0063AF" stroke-width="1" fill="none" stroke-miterlimit="10"></path></g></g></g></g></g></svg>