<svg width="18" height="18" viewBox="0 0 18 18" xmlns="http://www.w3.org/2000/svg">
  <defs>
    <clipPath id="a">
      <path d="M1500 0v1024H0V0h1500Z"/>
    </clipPath>
    <clipPath id="b">
      <path d="M8.60714286 0c.13807118 0 .25.11192881.25.25v6.64285714c0 .13807119.11192881.25.25.25H15.75c.1380712 0 .25.11192882.25.25v1.21428572c0 .13807118-.1119288.25-.25.25H9.10714286c-.13807119 0-.25.11192881-.25.25V15.75c0 .1380712-.11192882.25-.25.25H7.39285714c-.13807118 0-.25-.1119288-.25-.25V9.10714286c0-.13807119-.11192881-.25-.25-.25H.25c-.13807119 0-.25-.11192882-.25-.25V7.39285714c0-.13807118.11192881-.25.25-.25h6.64285714c.13807119 0 .25-.11192881.25-.25V.25c0-.13807119.11192882-.25.25-.25h1.21428572Z"/>
    </clipPath>
  </defs>
  <g clip-path="url(#a)" transform="translate(-1423 -891)">
    <g clip-path="url(#b)" transform="translate(1424 892)">
      <path fill="#0063AF" d="M0 0h16v16H0V0z"/>
    </g>
    <path d="M1431.14285714 907.75v-6.64285714c0-.13807119-.11192881-.25-.25-.25H1424.25c-.13807119 0-.25-.11192882-.25-.25v-1.21428572c0-.13807118.11192881-.25.25-.25h6.64285714c.13807119 0 .25-.11192881.25-.25V892.25c0-.13807119.11192882-.25.25-.25h1.21428572c.13807118 0 .25.11192881.25.25v6.64285714c0 .13807119.11192881.25.25.25H1439.75c.1380712 0 .25.11192882.25.25v1.21428572c0 .13807118-.1119288.25-.25.25h-6.64285714c-.13807119 0-.25.11192881-.25.25V907.75c0 .1380712-.11192882.25-.25.25h-1.21428572c-.13807118 0-.25-.1119288-.25-.25Z" stroke="#0063AF" fill="none" stroke-miterlimit="10"/>
  </g>
</svg>
