<svg width="32" height="32" viewBox="0 0 32 32" xmlns="http://www.w3.org/2000/svg">
  <g fill="none" fill-rule="evenodd">
    <path d="M0 0h32v32H0z"/>
    <path d="M13.3333333 4.97333333h5.3333334L16 9.54666667l-2.6666667-4.57333334ZM18.6666667 13.88h-5.3333334L16 9.30666667 18.6666667 13.88ZM16 27.8133333c-.5866667 0-1.08.2-1.48.6133334-.4.4133333-.6133333.9066666-.6133333 1.48 0 .5733333.2 1.08.6133333 1.48.4133333.4.9066667.6133333 1.48.6133333.5733333 0 1.0533333-.2 1.4666667-.6133333.4133333-.4.6266666-.9066667.6266666-1.48 0-.5733334-.2133333-1.08-.6266666-1.48-.4133334-.4-.9066667-.6133334-1.4666667-.6133334Zm0 .5733334c-1.0133333 0-1.52.5066666-1.52 1.52 0 1.0133333.5066667 1.52 1.52 1.52s1.52-.5066667 1.52-1.52c0-1.0133334-.5066667-1.52-1.52-1.52ZM15.4266667 13.84v13.9733333h1.1466666V13.84h-1.1466666ZM16 29.3333333c.3866667 0 .5733333.1866667.5733333.5733334 0 .3866666-.1866666.5733333-.5733333.5733333-.3866667 0-.5733333-.1866667-.5733333-.5733333 0-.3866667.1866666-.5733334.5733333-.5733334Z" fill="#EC0E0E" fill-rule="nonzero"/>
  </g>
</svg>
