<svg width="32" height="32" viewBox="0 0 32 32" xmlns="http://www.w3.org/2000/svg">
  <g fill="none" fill-rule="evenodd">
    <path d="M0 0h32v32H0z"/>
    <path d="M16 2.68c1.8266667 0 3.4.65333333 4.7066667 1.96 1.3066666 1.30666667 1.96 2.88 1.96 4.70666667 0 1.82666663-.6533334 3.42666663-1.96 4.72000003C19.4 15.36 17.8266667 16.0133333 16 16.0133333c-1.8266667 0-3.4-.6533333-4.7066667-1.9466666C9.98666667 12.7733333 9.33333333 11.2 9.33333333 9.34666667c0-1.85333334.65333334-3.4 1.95999997-4.70666667C12.6 3.33333333 14.1733333 2.68 16 2.68Zm0 .94666667c-1.6 0-2.9466667.56-4.0533333 1.69333333C10.84 6.45333333 10.2933333 7.78666667 10.2933333 9.33333333 10.2933333 10.88 10.84 12.28 11.9466667 13.3866667 13.0533333 14.4933333 14.4 15.04 16 15.04s2.92-.5466667 4.04-1.6533333c1.12-1.1066667 1.68-2.4533334 1.68-4.05333337 0-1.6-.56-2.88-1.68-4.01333333-1.12-1.13333333-2.4666667-1.69333333-4.04-1.69333333ZM18.6666667 8.96h-5.3333334L16 4.38666667 18.6666667 8.96Zm-5.3333334.76h5.3333334L16 14.2933333 13.3333333 9.72ZM16 27.8c-.5866667 0-1.08.2-1.48.6133333-.4.4133334-.6133333.9066667-.6133333 1.48 0 .5733334.2 1.08.6133333 1.48.4133333.4.9066667.6133334 1.48.6133334.5733333 0 1.04-.2 1.4666667-.6133334.4266666-.4133333.6266666-.9066666.6266666-1.48 0-.5733333-.2133333-1.08-.6266666-1.48C17.0533333 28.0133333 16.56 27.8 16 27.8Zm0 .5733333c-1.0133333 0-1.52.5066667-1.52 1.52 0 1.0133334.5066667 1.52 1.52 1.52s1.52-.5066666 1.52-1.52c0-1.0133333-.5066667-1.52-1.52-1.52ZM15.4266667 8.96v.76h1.1466666v-.76h-1.1466666Zm0 5.2933333h1.1466666v.8h-1.1466666v-.8Zm0 1.7466667v11.8h1.1466666V16.0133333h-1.1466666V16ZM16 29.32c.3866667 0 .5733333.1866667.5733333.5733333 0 .3866667-.1866666.5733334-.5733333.5733334-.3866667 0-.5733333-.1866667-.5733333-.5733334 0-.3866666.1866666-.5733333.5733333-.5733333Z" fill="#EC0E0E" fill-rule="nonzero"/>
  </g>
</svg>
