<svg width="32" height="32" viewBox="0 0 32 32" xmlns="http://www.w3.org/2000/svg">
  <g fill="none" fill-rule="evenodd">
    <path d="M0 0h32v32H0z"/>
    <path d="M16 4.17333333c1.8266667 0 3.4.65333334 4.7066667 1.96 1.3066666 1.30666667 1.96 2.88 1.96 4.70666667 0 1.8266667-.6533334 3.4266667-1.96 4.72C19.4 16.8533333 17.8266667 17.5066667 16 17.5066667c-1.8266667 0-3.4-.6533334-4.7066667-1.9466667-1.30666663-1.2933333-1.95999997-2.8666667-1.95999997-4.72 0-1.85333333.65333334-3.4 1.95999997-4.70666667 1.3066667-1.30666666 2.88-1.96 4.7066667-1.96ZM16 5.12c-1.6 0-2.9466667.56-4.0533333 1.69333333C10.84 7.94666667 10.2933333 9.28 10.2933333 10.8266667c0 1.5466666.5466667 2.9466666 1.6533334 4.0533333C13.0533333 15.9866667 14.4 16.5333333 16 16.5333333s2.92-.5466666 4.04-1.6533333 1.68-2.4533333 1.68-4.0533333c0-1.60000003-.56-2.88000003-1.68-4.01333337C18.92 5.68 17.5733333 5.12 16 5.12Zm-4.76 25.7333333h9.52V32h-9.52v-1.1466667Zm8 0h-6.4666667l3.24-12.0666666 3.24 12.0666666H19.24ZM18.6666667 10.64h-5.3333334L16 6.06666667 18.6666667 10.64Zm0 4.5733333h-5.3333334L16 10.64l2.6666667 4.5733333Zm-3.24.04h1.1466666v1.2933334h-1.1466666v-1.2933334Zm0 2.32h1.1466666v1.1733334h-1.1466666v-1.1733334Zm0 3.3466667v-2.1733333H16L15.4266667 20.92Zm1.1466666-.08L16 18.7466667h.5733333V20.84Z" fill="#EC0E0E" fill-rule="nonzero"/>
  </g>
</svg>
