<svg width="32" height="32" viewBox="0 0 32 32" xmlns="http://www.w3.org/2000/svg">
  <g fill="none" fill-rule="evenodd">
    <path d="M0 0h32v32H0z"/>
    <path d="M16 4.21333333c1.8266667 0 3.4.65333334 4.7066667 1.96 1.3066666 1.30666667 1.96 2.88 1.96 4.70666667 0 1.8266667-.6533334 3.4-1.96 4.7066667-1.3066667 1.3066666-2.88 1.96-4.7066667 1.96-1.8266667 0-3.4-.6533334-4.7066667-1.96C9.98666667 14.28 9.33333333 12.7066667 9.33333333 10.88c0-1.82666667.65333334-3.4 1.95999997-4.70666667 1.3066667-1.30666666 2.88-1.96 4.7066667-1.96ZM16 5.16c-1.6 0-2.9466667.56-4.0533333 1.68C10.84 7.96 10.2933333 9.30666667 10.2933333 10.88c0 1.5733333.5466667 2.92 1.6533334 4.04C13.0533333 16.04 14.4 16.6 16 16.6s2.92-.56 4.04-1.68c1.12-1.12 1.68-2.4666667 1.68-4.04 0-1.57333333-.56-2.92-1.68-4.04-1.12-1.12-2.4666667-1.68-4.04-1.68Zm-4.76 25.6933333h9.52V32h-9.52v-1.1466667Zm8 0h-6.4666667l3.24-12.0666666 3.24 12.0666666H19.24ZM18.6666667 10.68h-5.3333334L16 6.10666667 18.6666667 10.68Zm-5.3333334.5733333h5.3333334L16 15.8266667l-2.6666667-4.5733334ZM15.4266667 10.68v.5733333h1.1466666V10.68h-1.1466666Zm0 4.1866667v.92H16l-.5733333-.92Zm0 0v.92H16l-.5733333-.92Zm0 .9466666h1.1466666v.76h-1.1466666v-.76Zm0 1.7066667v1.2533333h1.1466666V17.52h-1.1466666Zm0 3.3866667v-2.1333334H16l-.5733333 2.1333334Zm1.1466666-6.0533334v.92H16l.5733333-.92Zm0 6.0133334L16 18.7733333h.5733333v2.0933334Z" fill="#EC0E0E" fill-rule="nonzero"/>
  </g>
</svg>
