<svg width="32" height="32" viewBox="0 0 32 32" xmlns="http://www.w3.org/2000/svg">
  <g fill="none" fill-rule="evenodd">
    <path d="M0 0h32v32H0z"/>
    <path d="M11.24 30.8533333h9.52V32h-9.52v-1.1466667Zm8 0h-6.48L16 18.7866667l3.24 12.0666666Zm-.5733333-20.1866666h-5.3333334L16 6.09333333l2.6666667 4.57333337ZM13.3333333 11.24h5.3333334L16 15.8133333 13.3333333 11.24Zm2.0933334-.5733333V11.24h1.1466666v-.5733333h-1.1466666Zm0 4.1866666V15.88H16l-.5733333-1.0266667Zm0 0V15.88H16l-.5733333-1.0266667Zm0 1.0266667h1.1466666v2.8933333h-1.1466666V15.88Zm0 5.0266667v-2.1333334H16l-.5733333 2.1333334Zm1.1466666-6.0533334V15.88H16l.5733333-1.0266667Zm0 6.0133334L16 18.7733333h.5733333v2.0933334Z" fill="#EC0E0E" fill-rule="nonzero"/>
  </g>
</svg>
