<svg width="32" height="32" viewBox="0 0 32 32" xmlns="http://www.w3.org/2000/svg">
  <g fill="none" fill-rule="evenodd">
    <path d="M0 0h32v32H0z"/>
    <path d="M11.24 30.8533333h9.52V32h-9.52v-1.1466667Zm8 0h-6.48L16 18.7866667l3.24 12.0666666ZM16 6.10666667c.6133333 0 1.1466667.22666666 1.6.68.4533333.45333333.68.98666666.68 1.6C18.28 9 18.0533333 9.56 17.6 10c-.4533333.44-.9866667.6666667-1.6.6666667-.6133333 0-1.1733333-.2266667-1.6133333-.6666667-.44-.44-.6666667-.98666667-.6666667-1.61333333 0-.62666667.2266667-1.14666667.6666667-1.6.44-.45333334.9866666-.68 1.6133333-.68Zm0 4.94666663c-.64 0-1.1733333.2266667-1.6133333.6933334-.44.4533333-.6666667.9866666-.6666667 1.6C13.72 13.96 13.9466667 14.52 14.3866667 14.96c.44.44.9866666.6666667 1.6133333.6666667.6266667 0 1.1466667-.2266667 1.6-.6666667.4533333-.44.68-.9866667.68-1.6133333 0-.6266667-.2266667-1.1466667-.68-1.6-.4533333-.4533334-.9866667-.6933334-1.6-.6933334ZM15.4266667 10.68h1.1466666v.3733333h-1.1466666V10.68Zm0 4.9466667h1.1466666v3.16h-1.1466666v-3.16Zm0 5.2933333v-2.1333333H16L15.4266667 20.92Zm1.1466666-.04L16 18.7866667h.5733333V20.88Z" fill="#EC0E0E" fill-rule="nonzero"/>
  </g>
</svg>
