<svg width="32" height="32" viewBox="0 0 32 32" xmlns="http://www.w3.org/2000/svg">
  <g fill="none" fill-rule="evenodd">
    <path d="M0 0h32v32H0z"/>
    <path d="M11.24 30.8533333h9.52V32h-9.52v-1.1466667ZM16 7.54666667c.92 0 1.6933333.32 2.3466667.97333333C19 9.17333333 19.32 9.94666667 19.32 10.8666667c0 .92-.32 1.7066666-.9733333 2.36-.6533334.6666666-1.4266667.9866666-2.3466667.9866666-.92 0-1.6933333-.3333333-2.3466667-.9866666C13 12.56 12.68 11.7866667 12.68 10.8666667c0-.92000003.32-1.69333337.9733333-2.3466667C14.3066667 7.86666667 15.08 7.54666667 16 7.54666667Zm3.24 23.30666663h-6.48L16 18.7866667l3.24 12.0666666Zm-3.8133333-16.68v4.5733334h1.1466666v-4.5733334h-1.1466666Zm0 6.7466667v-2.1333333H16L15.4266667 20.92Zm1.1466666-.04L16 18.7866667h.5733333V20.88Z" fill="#EC0E0E" fill-rule="nonzero"/>
  </g>
</svg>
