<?xml version="1.0" encoding="UTF-8"?>
<svg width="26px" height="24px" viewBox="0 0 26 24" version="1.1" xmlns="http://www.w3.org/2000/svg" xmlns:xlink="http://www.w3.org/1999/xlink">
    <title>75AA1D5E-14E4-4F75-9A9D-E85CCA4348AA</title>
    <g id="Squat-laskuri" stroke="none" stroke-width="1" fill="none" fill-rule="evenodd">
        <g id="colors_and_typography" transform="translate(-1135.000000, -748.000000)">
            <g id="icons" transform="translate(722.000000, 748.000000)">
                <g id="fairway_icon" transform="translate(414.000000, 0.000000)">
                    <rect id="Rectangle" x="0" y="0" width="24" height="24"></rect>
                    <path d="M0,22.3672727 L12,1.64 L24,22.3672727 L0,22.3672727 Z M2.83636364,20.7309091 L21.1636364,20.7309091 L12,4.91272727 L2.83636364,20.7309091 Z M12.1090909,19.1763636 C12.3454545,19.1763636 12.5409091,19.0990909 12.6954545,18.9445455 C12.85,18.79 12.9272727,18.5945455 12.9272727,18.3581818 C12.9272727,18.1218182 12.85,17.9263636 12.6954545,17.7718182 C12.5409091,17.6172727 12.3454545,17.54 12.1090909,17.54 C11.8727273,17.54 11.6772727,17.6172727 11.5227273,17.7718182 C11.3681818,17.9263636 11.2909091,18.1218182 11.2909091,18.3581818 C11.2909091,18.5945455 11.3681818,18.79 11.5227273,18.9445455 C11.6772727,19.0990909 11.8727273,19.1763636 12.1090909,19.1763636 Z M11.2909091,16.1490909 L12.9272727,16.1490909 L12.9272727,10.04 L11.2909091,10.04 L11.2909091,16.1490909 Z" id="Shape" stroke="#0064AF" stroke-width="0.5" fill="#0064AF" fill-rule="nonzero" stroke-linejoin="round"></path>
                </g>
            </g>
        </g>
    </g>
</svg>