<?xml version="1.0" encoding="UTF-8"?>
<svg width="24px" height="24px" viewBox="0 0 24 24" version="1.1" xmlns="http://www.w3.org/2000/svg" xmlns:xlink="http://www.w3.org/1999/xlink">
    <title>322D57FC-2694-498B-9A48-D197547DFE32</title>
    <g id="Squat-laskuri" stroke="none" stroke-width="1" fill="none" fill-rule="evenodd">
        <g id="colors_and_typography" transform="translate(-952.000000, -748.000000)">
            <g id="icons" transform="translate(722.000000, 748.000000)">
                <g id="calculate_icon" transform="translate(230.000000, 0.000000)">
                    <rect id="Rectangle" fill="#FFFFFF" x="0" y="0" width="24" height="24"></rect>
                    <path d="M7.38888889,19 L8.77777778,19 L8.77777778,16.5555556 L11.2222222,16.5555556 L11.2222222,15.1666667 L8.77777778,15.1666667 L8.77777778,12.7222222 L7.38888889,12.7222222 L7.38888889,15.1666667 L4.94444444,15.1666667 L4.94444444,16.5555556 L7.38888889,16.5555556 L7.38888889,19 Z M13.3611111,18.0277778 L18.9444444,18.0277778 L18.9444444,16.6666667 L13.3611111,16.6666667 L13.3611111,18.0277778 Z M13.3611111,15.0555556 L18.9444444,15.0555556 L18.9444444,13.6666667 L13.3611111,13.6666667 L13.3611111,15.0555556 Z M14.3888889,10.5277778 L16.0833333,8.83333333 L17.7777778,10.5277778 L18.7777778,9.52777778 L17.0833333,7.83333333 L18.7777778,6.13888889 L17.7777778,5.13888889 L16.0833333,6.83333333 L14.3888889,5.13888889 L13.3888889,6.13888889 L15.0833333,7.83333333 L13.3888889,9.52777778 L14.3888889,10.5277778 Z M5.36111111,8.52777778 L10.8055556,8.52777778 L10.8055556,7.13888889 L5.36111111,7.13888889 L5.36111111,8.52777778 Z M3.66666667,22 C3.22222222,22 2.83333333,21.8333333 2.5,21.5 C2.16666667,21.1666667 2,20.7777778 2,20.3333333 L2,3.66666667 C2,3.22222222 2.16666667,2.83333333 2.5,2.5 C2.83333333,2.16666667 3.22222222,2 3.66666667,2 L20.3333333,2 C20.7777778,2 21.1666667,2.16666667 21.5,2.5 C21.8333333,2.83333333 22,3.22222222 22,3.66666667 L22,20.3333333 C22,20.7777778 21.8333333,21.1666667 21.5,21.5 C21.1666667,21.8333333 20.7777778,22 20.3333333,22 L3.66666667,22 Z M3.66666667,20.3333333 L20.3333333,20.3333333 L20.3333333,3.66666667 L3.66666667,3.66666667 L3.66666667,20.3333333 Z M3.66666667,3.66666667 L3.66666667,20.3333333 L3.66666667,3.66666667 Z" stroke="#0064AF" stroke-width="0.5" fill="#0064AF" fill-rule="nonzero"></path>
                </g>
            </g>
        </g>
    </g>
</svg>