<?xml version="1.0" encoding="UTF-8"?>
<svg width="26px" height="24px" viewBox="0 0 26 24" version="1.1" xmlns="http://www.w3.org/2000/svg" xmlns:xlink="http://www.w3.org/1999/xlink">
    <title>CB5267F6-413D-4E37-BCBE-37645369F005</title>
    <g id="Squat-laskuri" stroke="none" stroke-width="1" fill="none" fill-rule="evenodd">
        <g id="colors_and_typography" transform="translate(-1181.000000, -748.000000)">
            <g id="icons" transform="translate(722.000000, 748.000000)">
                <g id="fairway_icon" transform="translate(460.000000, 0.000000)">
                    <rect id="Rectangle" x="0" y="0" width="24" height="24"></rect>
                    <path d="M11.1818182,5.18090909 L11.1818182,1.09 L12.8181818,1.09 L12.8181818,5.18090909 L11.1818182,5.18090909 Z M18.1636364,8.07181818 L17.0181818,6.89909091 L19.9090909,4.00818182 L21.0545455,5.18090909 L18.1636364,8.07181818 Z M19.9090909,13.9081818 L19.9090909,12.2718182 L24,12.2718182 L24,13.9081818 L19.9090909,13.9081818 Z M19.9363636,22.1445455 L17.0454545,19.2536364 L18.2181818,18.0809091 L21.1090909,20.9718182 L19.9363636,22.1445455 Z M5.83636364,8.07181818 L2.94545455,5.18090909 L4.09090909,4.03545455 L6.98181818,6.92636364 L5.83636364,8.07181818 Z M5.45454545,21.2718182 L10.3636364,21.2718182 C10.9636364,21.2718182 11.4772727,21.0581818 11.9045455,20.6309091 C12.3318182,20.2036364 12.5454545,19.69 12.5454545,19.09 C12.5454545,18.49 12.3363636,17.9718182 11.9181818,17.5354545 C11.5,17.0990909 10.9909091,16.8809091 10.3909091,16.8809091 L9.19090909,16.8809091 L8.7,15.7627273 C8.42727273,15.1081818 7.99545455,14.59 7.40454545,14.2081818 C6.81363636,13.8263636 6.16363636,13.6354545 5.45454545,13.6354545 C4.4,13.6354545 3.5,14.0081818 2.75454545,14.7536364 C2.00909091,15.4990909 1.63636364,16.3990909 1.63636364,17.4536364 C1.63636364,18.5081818 2.00909091,19.4081818 2.75454545,20.1536364 C3.5,20.8990909 4.4,21.2718182 5.45454545,21.2718182 Z M5.45454545,22.9081818 C3.94545455,22.9081818 2.65909091,22.3763636 1.59545455,21.3127273 C0.531818182,20.2490909 2.13162821e-14,18.9627273 2.13162821e-14,17.4536364 C2.13162821e-14,15.9445455 0.531818182,14.6581818 1.59545455,13.5945455 C2.65909091,12.5309091 3.94545455,11.9990909 5.45454545,11.9990909 C6.50909091,11.9990909 7.46818182,12.2945455 8.33181818,12.8854545 C9.19545455,13.4763636 9.83636364,14.2627273 10.2545455,15.2445455 C11.3454545,15.2445455 12.2636364,15.64 13.0090909,16.4309091 C13.7545455,17.2218182 14.1272727,18.1718182 14.1272727,19.2809091 C14.0363636,20.2990909 13.6363636,21.1581818 12.9272727,21.8581818 C12.2181818,22.5581818 11.3636364,22.9081818 10.3636364,22.9081818 L5.45454545,22.9081818 Z M14.1272727,19.2809091 L13.9636364,18.4627273 L13.8,17.6445455 C14.7454545,17.2809091 15.5,16.6854545 16.0636364,15.8581818 C16.6272727,15.0309091 16.9090909,14.1081818 16.9090909,13.09 C16.9090909,11.7263636 16.4318182,10.5672727 15.4772727,9.61272727 C14.5227273,8.65818182 13.3636364,8.18090909 12,8.18090909 C10.7818182,8.18090909 9.71363636,8.56727273 8.79545455,9.34 C7.87727273,10.1127273 7.33636364,11.0990909 7.17272727,12.2990909 C6.88181818,12.2445455 6.59545455,12.1945455 6.31363636,12.1490909 C6.03181818,12.1036364 5.74545455,12.0536364 5.45454545,11.9990909 C5.70909091,10.3990909 6.45909091,9.09 7.70454545,8.07181818 C8.95,7.05363636 10.3818182,6.54454545 12,6.54454545 C13.8181818,6.54454545 15.3636364,7.18090909 16.6363636,8.45363636 C17.9090909,9.72636364 18.5454545,11.2718182 18.5454545,13.09 C18.5454545,14.5081818 18.1409091,15.7809091 17.3318182,16.9081818 C16.5227273,18.0354545 15.4545455,18.8263636 14.1272727,19.2809091 Z" id="Shape" stroke="#0064AF" stroke-width="0.5" fill="#0064AF" fill-rule="nonzero" stroke-linejoin="round"></path>
                </g>
            </g>
        </g>
    </g>
</svg>