<svg width="32" height="32" viewBox="0 0 32 32" xmlns="http://www.w3.org/2000/svg">
  <g fill="none" fill-rule="evenodd">
    <path d="M0 0h32v32H0z"/>
    <path d="M18.6666667 9.17333333h-5.3333334L16 4.61333333l2.6666667 4.56Zm0 4.55999997h-5.3333334L16 9.17333333l2.6666667 4.55999997ZM16 27.8133333c-.5866667 0-1.08.2-1.48.6133334-.4.4133333-.6133333.9066666-.6133333 1.48 0 .5733333.2 1.08.6133333 1.48.4133333.4.9066667.6133333 1.48.6133333.5733333 0 1.04-.2 1.4666667-.6133333.4266666-.4133334.6266666-.9066667.6266666-1.48 0-.5733334-.2133333-1.08-.6266666-1.48-.4133334-.4-.9066667-.6133334-1.4666667-.6133334Zm0 .5733334c-1.0133333 0-1.52.5066666-1.52 1.52 0 1.0133333.5066667 1.52 1.52 1.52s1.52-.5066667 1.52-1.52c0-1.0133334-.5066667-1.52-1.52-1.52Zm-.5733333-14.6533334v14.08h1.1466666v-14.08h-1.1466666Zm.5733333 15.6c.3866667 0 .5733333.1866667.5733333.5733334 0 .3866666-.1866666.5733333-.5733333.5733333-.3866667 0-.5733333-.1866667-.5733333-.5733333 0-.3866667.1866666-.5733334.5733333-.5733334Z" fill="#EC0E0E" fill-rule="nonzero"/>
  </g>
</svg>
