<svg width="32" height="32" viewBox="0 0 32 32" xmlns="http://www.w3.org/2000/svg">
  <g fill="none" fill-rule="evenodd">
    <path d="M0 0h32v32H0z"/>
    <path d="m4.16 9.08.04-.26666667.08-.22666666L4.46666667 8.28l.26666666-.34666667L5.04 7.70666667 5.38666667 7.52l.38666666-.14666667.34666667-.04.37333333-.08.38666667.08.18666667.12 2.48 4.75999997L13.0533333 18.92l-.3066666.08-.2666667.1466667-.3466667.1466666-.3066666.16L11.48 19.68l-.3466667.3466667L4.16 9.08ZM16 23.7733333c1.1466667 0 2.1066667.4 2.9066667 1.2133334.8.8133333 1.2 1.7733333 1.2 2.8933333s-.4 2.12-1.2 2.9066667c-.8.8-1.7733334 1.2-2.9066667 1.2s-2.1066667-.4-2.9066667-1.2c-.8-.8-1.2-1.7733334-1.2-2.9066667s.4-2.08 1.2-2.8933333c.8-.8133334 1.7733334-1.2133334 2.9066667-1.2133334ZM14.36 5.34666667 14.5066667 5.12l.16-.16.3466666-.14666667L15.4 4.62666667l.3866667-.04.3733333.04.4133333.04.3066667.12.3733333.14666666L17.52 5.2l.12.18666667L17.4533333 10.72l-.3466666 7.5733333-.3066667-.08-.3066667-.04-.3866666-.04H15.8l-.4133333.04-.4533334.12L14.36 5.34666667ZM24.9866667 7.4l.2266666-.08L25.44 7.24h.3466667L26.24 7.32l.3466667.16.3466666.22666667.3066667.22666666L27.4666667 8.2l.2266666.30666667.12.37333333.04.18666667L24.96 13.6 20.92 20l-.2266667-.2266667-.2666666-.1466666L20.12 19.4l-.3066667-.16-.3466666-.1866667-.4533334-.1466666 5.9733334-11.49333337V7.4Z" fill="#EC0E0E" fill-rule="nonzero"/>
  </g>
</svg>
