<?xml version="1.0" encoding="UTF-8"?>
<svg width="32px" height="32px" viewBox="0 0 32 32" version="1.1" xmlns="http://www.w3.org/2000/svg" xmlns:xlink="http://www.w3.org/1999/xlink">
    <title>5674C6BE-79D0-42F5-8314-D9422A9A9A96</title>
    <g id="Squat-laskuri" stroke="none" stroke-width="1" fill="none" fill-rule="evenodd">
        <g id="colors_and_typography" transform="translate(-910.000000, -1098.000000)">
            <g id="turvalaite_ikonit" transform="translate(718.000000, 906.000000)">
                <g id="Asset-54" transform="translate(192.000000, 192.000000)">
                    <rect id="Rectangle" x="0" y="0" width="32" height="32"></rect>
                    <path d="M16,2.68 C17.8266667,2.68 19.4,3.33333333 20.7066667,4.64 C22.0133333,5.94666667 22.6666667,7.52 22.6666667,9.34666667 C22.6666667,11.1733333 22.0133333,12.7733333 20.7066667,14.0666667 C19.4,15.36 17.8266667,16.0133333 16,16.0133333 C14.1733333,16.0133333 12.6,15.36 11.2933333,14.0666667 C9.98666667,12.7733333 9.33333333,11.2 9.33333333,9.34666667 C9.33333333,7.49333333 9.98666667,5.94666667 11.2933333,4.64 C12.6,3.33333333 14.1733333,2.68 16,2.68 L16,2.68 Z M16,3.62666667 C14.4,3.62666667 13.0533333,4.18666667 11.9466667,5.32 C10.84,6.45333333 10.2933333,7.78666667 10.2933333,9.33333333 C10.2933333,10.88 10.84,12.28 11.9466667,13.3866667 C13.0533333,14.4933333 14.4,15.04 16,15.04 C17.6,15.04 18.92,14.4933333 20.04,13.3866667 C21.16,12.28 21.72,10.9333333 21.72,9.33333333 C21.72,7.73333333 21.16,6.45333333 20.04,5.32 C18.92,4.18666667 17.5733333,3.62666667 16,3.62666667 Z M12.96,6.29333333 L19.0533333,6.29333333 L19.0533333,12.3866667 L12.96,12.3866667 L12.96,6.30666667 L12.96,6.29333333 Z M16,27.8 C15.4133333,27.8 14.92,28 14.52,28.4133333 C14.12,28.8266667 13.9066667,29.32 13.9066667,29.8933333 C13.9066667,30.4666667 14.1066667,30.9733333 14.52,31.3733333 C14.9333333,31.7733333 15.4266667,31.9866667 16,31.9866667 C16.5733333,31.9866667 17.04,31.7866667 17.4666667,31.3733333 C17.8933333,30.96 18.0933333,30.4666667 18.0933333,29.8933333 C18.0933333,29.32 17.88,28.8133333 17.4666667,28.4133333 C17.0533333,28.0133333 16.56,27.8 16,27.8 Z M14.0933333,7.44 L14.0933333,11.24 L17.8933333,11.24 L17.8933333,7.44 L14.0933333,7.44 Z M16,28.3733333 C14.9866667,28.3733333 14.48,28.88 14.48,29.8933333 C14.48,30.9066667 14.9866667,31.4133333 16,31.4133333 C17.0133333,31.4133333 17.52,30.9066667 17.52,29.8933333 C17.52,28.88 17.0133333,28.3733333 16,28.3733333 Z M15.4266667,12.3866667 L15.4266667,15.0533333 L16.5733333,15.0533333 L16.5733333,12.3866667 L15.4266667,12.3866667 Z M15.4266667,16.08 L16.5733333,16.08 L16.5733333,27.8 L15.4266667,27.8 L15.4266667,16.0933333 L15.4266667,16.08 Z M16,29.3333333 C16.3866667,29.3333333 16.5733333,29.52 16.5733333,29.9066667 C16.5733333,30.2933333 16.3866667,30.48 16,30.48 C15.6133333,30.48 15.4266667,30.2933333 15.4266667,29.9066667 C15.4266667,29.52 15.6133333,29.3333333 16,29.3333333 Z" id="Shape" fill="#EC0E0E" fill-rule="nonzero"></path>
                </g>
            </g>
        </g>
    </g>
</svg>