<?xml version="1.0" encoding="UTF-8"?>
<svg width="32px" height="32px" viewBox="0 0 32 32" version="1.1" xmlns="http://www.w3.org/2000/svg" xmlns:xlink="http://www.w3.org/1999/xlink">
    <title>C4D6409C-226E-42C8-B921-9B3C946F832F</title>
    <g id="Squat-laskuri" stroke="none" stroke-width="1" fill="none" fill-rule="evenodd">
        <g id="colors_and_typography" transform="translate(-958.000000, -1098.000000)">
            <g id="turvalaite_ikonit" transform="translate(718.000000, 906.000000)">
                <g id="Asset-55" transform="translate(240.000000, 192.000000)">
                    <rect id="Rectangle" x="0" y="0" width="32" height="32"></rect>
                    <path d="M12.96,6.29333333 L19.0533333,6.29333333 L19.0533333,12.3866667 L12.96,12.3866667 L12.96,6.29333333 Z M16,27.8133333 C15.4133333,27.8133333 14.92,28.0133333 14.52,28.4266667 C14.12,28.84 13.9066667,29.3333333 13.9066667,29.9066667 C13.9066667,30.48 14.1066667,30.9866667 14.52,31.3866667 C14.9333333,31.7866667 15.4266667,32 16,32 C16.5733333,32 17.0533333,31.8 17.4666667,31.3866667 C17.88,30.9733333 18.0933333,30.48 18.0933333,29.9066667 C18.0933333,29.3333333 17.88,28.8266667 17.4666667,28.4266667 C17.0533333,28.0266667 16.56,27.8133333 16,27.8133333 Z M14.0933333,7.44 L14.0933333,11.2533333 L17.9066667,11.2533333 L17.9066667,7.44 L14.0933333,7.44 Z M16,28.3866667 C14.9866667,28.3866667 14.48,28.8933333 14.48,29.9066667 C14.48,30.92 14.9866667,31.4266667 16,31.4266667 C17.0133333,31.4266667 17.52,30.92 17.52,29.9066667 C17.52,28.8933333 17.0133333,28.3866667 16,28.3866667 Z M15.4266667,12.3866667 L15.4266667,27.8133333 L16.5733333,27.8133333 L16.5733333,12.3866667 L15.4266667,12.3866667 Z M16,29.3333333 C16.3866667,29.3333333 16.5733333,29.52 16.5733333,29.9066667 C16.5733333,30.2933333 16.3866667,30.48 16,30.48 C15.6133333,30.48 15.4266667,30.2933333 15.4266667,29.9066667 C15.4266667,29.52 15.6133333,29.3333333 16,29.3333333 Z" id="Shape" fill="#EC0E0E" fill-rule="nonzero"></path>
                </g>
            </g>
        </g>
    </g>
</svg>