<svg width="32" height="32" viewBox="0 0 32 32" xmlns="http://www.w3.org/2000/svg">
  <g fill="none" fill-rule="evenodd">
    <path d="M16 4.18857143c1.8285714 0 3.3942857.65142857 4.7028571 1.96 1.3085715 1.30857143 1.96 2.87428571 1.96 4.70285717 0 1.8285714-.6571428 3.4-1.96 4.7028571-1.3028571 1.3028572-2.8742857 1.96-4.7028571 1.96s-3.3942857-.6514286-4.7028571-1.96C9.98857143 14.2457143 9.33714286 12.68 9.33714286 10.8514286c0-1.82857146.65142857-3.39428574 1.96000004-4.70285717 1.3085714-1.30857143 2.8742857-1.96 4.7028571-1.96Zm0 .95428571c-1.6 0-2.9542857.56-4.0571429 1.67428572C10.84 7.93714286 10.2857143 9.28 10.2857143 10.8571429c0 1.5771428.5542857 2.92 1.6571428 4.04C13.0457143 16.0171429 14.4 16.5714286 16 16.5714286c1.6 0 2.92-.56 4.04-1.6742857 1.12-1.12 1.6742857-2.4628572 1.6742857-4.04 0-1.5771429-.56-2.92000004-1.6742857-4.04000004-1.12-1.12-2.4628571-1.67428572-4.04-1.67428572ZM11.24 30.8571429h9.5257143V32H11.24v-1.1428571ZM16 6.09714286c.6114286 0 1.1428571.22857143 1.6.68571428.4571429.45714286.6857143.98857143.6857143 1.6C18.2857143 8.99428571 18.0571429 9.56 17.6 10c-.4571429.4457143-.9885714.6685714-1.6.6685714-.6114286 0-1.1771429-.2228571-1.6171429-.6685714-.4457142-.44571429-.6685714-.98285714-.6685714-1.61714286 0-.63428571.2228572-1.14285714.6685714-1.6.4457143-.45714285.9828572-.68571428 1.6171429-.68571428Zm0 4.95428574c-.6342857 0-1.1771429.2285714-1.6171429.6857143-.4457142.4571428-.6685714.9885714-.6685714 1.6 0 .6114285.2228572 1.1771428.6685714 1.6171428.4457143.4457143.9828572.6685714 1.6171429.6685714s1.1428571-.2228571 1.6-.6685714.6857143-.9828571.6857143-1.6171428c0-.6342858-.2285714-1.1428572-.6857143-1.6-.4571429-.4571429-.9885714-.6857143-1.6-.6857143Zm-.5714286-.3828572h1.1428572v.3828572h-1.1428572v-.3828572Zm0 4.9542857h1.1428572v.9542858h-1.1428572v-.9542858Zm0 1.9428572h1.1428572v13.2971428h-1.1428572V17.56v.0057143Z" fill="#EC0E0E" fill-rule="nonzero"/>
    <path d="M0 0h32v32H0z"/>
  </g>
</svg>
