<?xml version="1.0" encoding="UTF-8"?>
<svg width="32px" height="32px" viewBox="0 0 32 32" version="1.1" xmlns="http://www.w3.org/2000/svg" xmlns:xlink="http://www.w3.org/1999/xlink">
    <title>05097CBD-E3B8-4C81-B7D3-3F36447D0AE2</title>
    <g id="Squat-laskuri" stroke="none" stroke-width="1" fill="none" fill-rule="evenodd">
        <g id="colors_and_typography" transform="translate(-718.000000, -954.000000)">
            <g id="turvalaite_ikonit" transform="translate(718.000000, 906.000000)">
                <g id="karimerkki_valaistu" transform="translate(0.000000, 48.000000)">
                    <path d="M16,4.18857143 C17.8285714,4.18857143 19.3942857,4.84 20.7028571,6.14857143 C22.0114286,7.45714286 22.6628571,9.02285714 22.6628571,10.8514286 C22.6628571,12.68 22.0057143,14.2514286 20.7028571,15.5542857 C19.4,16.8571429 17.8285714,17.5142857 16,17.5142857 C14.1714286,17.5142857 12.6057143,16.8628571 11.2971429,15.5542857 C9.98857143,14.2457143 9.33714286,12.68 9.33714286,10.8514286 C9.33714286,9.02285714 9.98857143,7.45714286 11.2971429,6.14857143 C12.6057143,4.84 14.1714286,4.18857143 16,4.18857143 L16,4.18857143 Z M16,5.14285714 C14.4,5.14285714 13.0457143,5.70285714 11.9428571,6.81714286 C10.84,7.93714286 10.2857143,9.28 10.2857143,10.8571429 C10.2857143,12.4342857 10.84,13.7771429 11.9428571,14.8971429 C13.0457143,16.0171429 14.4,16.5714286 16,16.5714286 C17.6,16.5714286 18.92,16.0114286 20.04,14.8971429 C21.16,13.7771429 21.7142857,12.4342857 21.7142857,10.8571429 C21.7142857,9.28 21.1542857,7.93714286 20.04,6.81714286 C18.92,5.69714286 17.5771429,5.14285714 16,5.14285714 Z M11.24,30.8571429 L20.7657143,30.8571429 L20.7657143,32 L11.24,32 L11.24,30.8571429 Z M16,6.09714286 C16.6114286,6.09714286 17.1428571,6.32571429 17.6,6.78285714 C18.0571429,7.24 18.2857143,7.77142857 18.2857143,8.38285714 C18.2857143,8.99428571 18.0571429,9.56 17.6,10 C17.1428571,10.4457143 16.6114286,10.6685714 16,10.6685714 C15.3885714,10.6685714 14.8228571,10.4457143 14.3828571,10 C13.9371429,9.55428571 13.7142857,9.01714286 13.7142857,8.38285714 C13.7142857,7.74857143 13.9371429,7.24 14.3828571,6.78285714 C14.8285714,6.32571429 15.3657143,6.09714286 16,6.09714286 Z M16,11.0514286 C15.3657143,11.0514286 14.8228571,11.28 14.3828571,11.7371429 C13.9371429,12.1942857 13.7142857,12.7257143 13.7142857,13.3371429 C13.7142857,13.9485714 13.9371429,14.5142857 14.3828571,14.9542857 C14.8285714,15.4 15.3657143,15.6228571 16,15.6228571 C16.6342857,15.6228571 17.1428571,15.4 17.6,14.9542857 C18.0571429,14.5085714 18.2857143,13.9714286 18.2857143,13.3371429 C18.2857143,12.7028571 18.0571429,12.1942857 17.6,11.7371429 C17.1428571,11.28 16.6114286,11.0514286 16,11.0514286 L16,11.0514286 Z M15.4285714,10.6685714 L16.5714286,10.6685714 L16.5714286,11.0514286 L15.4285714,11.0514286 L15.4285714,10.6685714 Z M15.4285714,15.6228571 L16.5714286,15.6228571 L16.5714286,16.5771429 L15.4285714,16.5771429 L15.4285714,15.6228571 Z M15.4285714,17.5657143 L16.5714286,17.5657143 L16.5714286,30.8628571 L15.4285714,30.8628571 L15.4285714,17.56 L15.4285714,17.5657143 Z" id="Shape" fill="#EC0E0E" fill-rule="nonzero"></path>
                    <rect id="Rectangle" x="0" y="0" width="32" height="32"></rect>
                </g>
            </g>
        </g>
    </g>
</svg>