<svg width="32" height="32" viewBox="0 0 32 32" xmlns="http://www.w3.org/2000/svg">
  <g fill="none" fill-rule="evenodd">
    <path d="M11.24 30.8571429h9.5257143V32H11.24v-1.1428571ZM16 6.09714286c.6114286 0 1.1428571.22857143 1.6.68571428.4571429.45714286.6857143.98857143.6857143 1.6C18.2857143 8.99428571 18.0571429 9.56 17.6 10c-.4571429.4457143-.9885714.6685714-1.6.6685714-.6114286 0-1.1771429-.2228571-1.6171429-.6685714-.4457142-.44571429-.6685714-.98285714-.6685714-1.61714286 0-.63428571.2228572-1.14285714.6685714-1.6.4457143-.45714285.9828572-.68571428 1.6171429-.68571428Zm0 4.95428574c-.6342857 0-1.1771429.2285714-1.6171429.6857143-.4457142.4571428-.6685714.9885714-.6685714 1.6 0 .6114285.2228572 1.1771428.6685714 1.6171428.4457143.4457143.9828572.6685714 1.6171429.6685714s1.1428571-.2228571 1.6-.6685714.6857143-.9828571.6857143-1.6171428c0-.6342858-.2285714-1.1428572-.6857143-1.6-.4571429-.4571429-.9885714-.6857143-1.6-.6857143Zm-.5714286-.3828572h1.1428572v.3828572h-1.1428572v-.3828572Zm0 4.9542857h1.1428572v15.24h-1.1428572V15.6171429v.0057142Z" fill="#EC0E0E" fill-rule="nonzero"/>
    <path d="M0 0h32v32H0z"/>
  </g>
</svg>
