<svg width="32" height="32" viewBox="0 0 32 32" xmlns="http://www.w3.org/2000/svg">
  <g fill="none" fill-rule="evenodd">
    <path d="M16 4.18857143c1.8285714 0 3.3942857.65142857 4.7028571 1.96 1.3085715 1.30857143 1.96 2.87428571 1.96 4.70285717 0 1.8285714-.6571428 3.4285714-1.96 4.7257143C19.3942857 16.8742857 17.8285714 17.52 16 17.52s-3.3942857-.6457143-4.7028571-1.9428571C9.98857143 14.28 9.33714286 12.7085714 9.33714286 10.8514286c0-1.85714289.65142857-3.39428574 1.96000004-4.70285717 1.3085714-1.30857143 2.8742857-1.96 4.7028571-1.96Zm0 .95428571c-1.6 0-2.9542857.56571429-4.0571429 1.69714286C10.84 7.97142857 10.2857143 9.30857143 10.2857143 10.8571429c0 1.5485714.5542857 2.9542857 1.6571428 4.0571428C13.0457143 16.0171429 14.4 16.5714286 16 16.5714286c1.6 0 2.92-.5542857 4.04-1.6571429 1.12-1.1028571 1.6742857-2.4571428 1.6742857-4.0571428 0-1.60000004-.56-2.88571433-1.6742857-4.0171429-1.12-1.13142857-2.4628571-1.69714286-4.04-1.69714286ZM11.24 30.8571429h9.5257143V32H11.24v-1.1428571ZM16 7.54285714c.9142857 0 1.6971429.32571429 2.3428571.97142857.6457143.64571429.9714286 1.42857143.9714286 2.34285719 0 .9142857-.3257143 1.7028571-.9714286 2.36-.6457142.6628571-1.4285714.9885714-2.3428571.9885714-.9142857 0-1.6971429-.3314286-2.3428571-.9885714-.6457143-.6628572-.9714286-1.4457143-.9714286-2.36 0-.91428576.3257143-1.6971429.9714286-2.34285719.6457142-.64571428 1.4285714-.97142857 2.3428571-.97142857Zm-.5714286 6.62857146v2.4h1.1428572v-2.4h-1.1428572Zm0 3.4285714h1.1428572v13.2971429h-1.1428572V17.6Z" fill="#EC0E0E" fill-rule="nonzero"/>
    <path d="M0 0h32v32H0z"/>
  </g>
</svg>
