<svg width="32" height="32" viewBox="0 0 32 32" xmlns="http://www.w3.org/2000/svg">
  <g fill="none" fill-rule="evenodd">
    <path d="M5.31428571 5.69714286 6.04 5.01142857l4.4971429 4.45714286 1.64-1.41142857-2.28571433-5.41142857.80000003-.45714286L13.36 7.52l1.0285714-.38285714.9885715-.15428572.1142857-5.56.9885714.04.1142857 5.48571429 1.1828572.22857143L18.7657143 7.48 21.24 2.26285714l.84.57142857-2.2857143 5.21714286.2685714.07428572.6457143.53142857.84.8L25.9314286 5.04l.76.76-5.2571429 5.1828571L21.0514286 10.68l-.3828572-.4571429-.4571428-.45714281L19.64 9.30857143l-.6114286-.38285714-.7257143-.34285715-.5314285-.18857143L17.2 8.16571429l-.6857143-.15428572h-.6857143l-.7257143.07428572-.8.18857142-.6457142.22857143-.6114286.34285715-.6114286.34285714-.5314286.45714286-.6457142.68571431-.6857143.7257143-5.25714289-5.36000004ZM15.9828571 26.04c.6114286 0 1.1428572.2228571 1.6.6685714.4571429.4457143.6857143.9714286.6857143 1.5828572 0 .6114285-.2285714 1.1771428-.6857143 1.6171428-.4571428.4457143-.9885714.6685715-1.6.6685715-.6114285 0-1.1771428-.2228572-1.6171428-.6685715-.4457143-.4457143-.6685714-.9828571-.6685714-1.6171428 0-.6342857.2228571-1.1371429.6685714-1.5828572.4457143-.4457143.9828571-.6685714 1.6171428-.6685714Zm0 .7257143c-1.0171428 0-1.5257142.5085714-1.5257142 1.5257143 0 1.0171428.5085714 1.5257143 1.5257142 1.5257143 1.0171429 0 1.5257143-.5085715 1.5257143-1.5257143 0-1.0171429-.5085714-1.5257143-1.5257143-1.5257143Zm-.5714285-17.33142859h1.1428571V26.0057143h-1.1428571V9.42857143v.00571428Zm.5714285 18.47428569c.2514286 0 .3828572.1257143.3828572.3828572 0 .2571428-.1257143.3828571-.3828572.3828571-.2571428 0-.3828571-.1257143-.3828571-.3828571 0-.2571429.1257143-.3828572.3828571-.3828572Z" fill="#EC0E0E" fill-rule="nonzero"/>
    <path d="M0 0h32v32H0z"/>
  </g>
</svg>
