<?xml version="1.0" encoding="UTF-8"?>
<svg width="64px" height="36px" viewBox="0 0 64 36" version="1.1" xmlns="http://www.w3.org/2000/svg" xmlns:xlink="http://www.w3.org/1999/xlink">
    <title>A8B429A4-AB65-4C3D-BF3F-11BAEEE119A2</title>
    <g id="Squat-laskuri" stroke="none" stroke-width="1" fill="none" fill-rule="evenodd">
        <g id="colors_and_typography" transform="translate(-972, -1602)">
            <g id="container_ship" transform="translate(972, 1602)">
                <rect id="Rectangle" x="0" y="0" width="64" height="36"></rect>
                <g id="container_ship-01" transform="translate(0, 2)" fill="#000000" fill-rule="nonzero">
                    <path d="M63.8476504,15.9274952 C63.6421344,15.5605022 63.245782,15.3256267 62.8200701,15.3256267 L57.7408873,15.3256267 L57.7408873,12.9475122 C57.7408873,12.3016046 57.2124174,11.7731347 56.5665098,11.7731347 L52.9993381,11.7731347 L52.9993381,7.09030429 C52.9993381,6.44439666 52.4708682,5.91592677 51.8249606,5.91592677 L47.1714896,5.91592677 L47.1714896,1.17437752 C47.1714896,0.528469885 46.6430197,0 45.9971121,0 L34.297376,0 C33.6514684,0 33.1229985,0.528469885 33.1229985,1.17437752 L33.1229985,5.91592677 L28.4842073,5.91592677 C27.8382997,5.91592677 27.3098298,6.44439666 27.3098298,7.09030429 L27.3098298,11.7731347 L23.742658,11.7731347 C23.0967504,11.7731347 22.5682805,12.3016046 22.5682805,12.9475122 L22.5682805,17.5863034 L17.8267313,17.5863034 L17.8267313,4.74154925 C17.8267313,4.09564161 17.2982614,3.56717173 16.6523537,3.56717173 L2.55982347,3.56717173 C1.91391583,3.56717173 1.38544595,4.09564161 1.38544595,4.74154925 L1.38544595,17.5863034 L1.17992988,17.5863034 C0.754218031,17.5863034 0.372545336,17.8064992 0.15234955,18.1734922 C-0.0531665161,18.5404851 -0.0531665161,18.9955564 0.167029269,19.3478697 L7.30137272,31.3852393 C8.18215586,32.8532112 10.1492382,33.9688699 11.8667653,33.9688699 L50.7093019,33.9688699 C52.426829,33.9688699 54.3939114,32.8532112 55.2746945,31.3852393 L63.8329707,17.1018727 C64.0531665,16.7495594 64.0531665,16.2944881 63.8476504,15.9274952 Z M55.3921323,15.3256267 L47.1714896,15.3256267 L47.1714896,14.1218897 L55.3921323,14.1218897 L55.3921323,15.3256267 Z M44.8227346,14.1218897 L44.8227346,15.3403064 C42.8556522,15.5017833 41.4463992,16.822958 40.8004916,17.5863034 L35.4717536,17.5863034 L35.4717536,14.1218897 L44.8227346,14.1218897 L44.8227346,14.1218897 Z M50.650583,11.7731347 L41.2555629,11.7731347 L41.2555629,8.26468182 L50.650583,8.26468182 L50.650583,11.7731347 Z M35.4717536,2.34875505 L44.8227346,2.34875505 L44.8227346,5.91592677 L35.4717536,5.91592677 L35.4717536,2.34875505 L35.4717536,2.34875505 Z M29.6585848,8.26468182 L38.9068078,8.26468182 L38.9068078,11.7731347 L29.6585848,11.7731347 L29.6585848,8.26468182 L29.6585848,8.26468182 Z M24.9023558,14.1218897 L33.1229985,14.1218897 L33.1229985,17.5863034 L24.9023558,17.5863034 L24.9023558,14.1218897 Z M3.71952128,5.91592677 L15.4632965,5.91592677 L15.4632965,8.1766035 L13.1145415,8.1766035 C12.4686338,8.1766035 11.9401639,8.70507339 11.9401639,9.35098103 C11.9401639,9.99688866 12.4686338,10.5253585 13.1145415,10.5253585 L15.4632965,10.5253585 L15.4632965,12.903473 L13.1145415,12.903473 C12.4686338,12.903473 11.9401639,13.4319429 11.9401639,14.0778506 C11.9401639,14.7237582 12.4686338,15.2522281 13.1145415,15.2522281 L15.4632965,15.2522281 L15.4632965,17.5863034 L3.71952128,17.5863034 C3.71952128,17.5863034 3.71952128,5.91592677 3.71952128,5.91592677 Z M53.263573,30.1961821 C52.8085017,30.9448477 51.5900851,31.6347945 50.7093019,31.6347945 L11.8667653,31.6347945 C10.9859822,31.6347945 9.76756552,30.9448477 9.31249423,30.1961821 L3.23509055,19.9350585 L16.637674,19.9350585 L41.3730006,19.9350585 C41.769353,19.9350585 42.136346,19.7295424 42.3565418,19.4065886 C42.3712215,19.3919088 43.545599,17.6743817 45.2044073,17.6743817 L56.3756735,17.6743817 C56.4343923,17.6890614 56.5077909,17.6890614 56.5665098,17.6890614 C56.6252287,17.6890614 56.6986273,17.6890614 56.7573462,17.6743817 L60.7502297,17.6743817 L53.263573,30.1961821 Z" id="Shape"></path>
                    <path d="M9.59140889,8.1766035 C9.28313479,8.1766035 8.97486069,8.30872097 8.75466491,8.51423704 C8.53446912,8.73443283 8.41703137,9.04270693 8.41703137,9.35098103 C8.41703137,9.65925513 8.53446912,9.96752923 8.75466491,10.1730453 C8.97486069,10.3932411 9.26845507,10.5253585 9.59140889,10.5253585 C9.91436271,10.5253585 10.2079571,10.3932411 10.4281529,10.1730453 C10.6483487,9.95284951 10.7657864,9.64457541 10.7657864,9.35098103 C10.7657864,9.04270693 10.6483487,8.73443283 10.4281529,8.51423704 C10.2079571,8.29404126 9.89968299,8.1766035 9.59140889,8.1766035 Z" id="Path"></path>
                    <path d="M6.11231548,8.1766035 C5.80404138,8.1766035 5.49576728,8.30872097 5.27557149,8.51423704 C5.05537571,8.73443283 4.93793796,9.04270693 4.93793796,9.35098103 C4.93793796,9.65925513 5.07005543,9.96752923 5.27557149,10.1730453 C5.49576728,10.3932411 5.78936166,10.5253585 6.11231548,10.5253585 C6.42058958,10.5253585 6.72886368,10.3932411 6.94905946,10.1730453 C7.16925525,9.95284951 7.286693,9.64457541 7.286693,9.35098103 C7.286693,9.04270693 7.16925525,8.73443283 6.94905946,8.51423704 C6.72886368,8.29404126 6.42058958,8.1766035 6.11231548,8.1766035 Z" id="Path"></path>
                    <path d="M9.59140889,12.9181528 C9.28313479,12.9181528 8.97486069,13.0502702 8.75466491,13.2557863 C8.53446912,13.4759821 8.41703137,13.7842562 8.41703137,14.0925303 C8.41703137,14.4008044 8.53446912,14.7090785 8.75466491,14.9145945 C8.97486069,15.1347903 9.26845507,15.2669078 9.59140889,15.2669078 C9.91436271,15.2669078 10.2079571,15.1347903 10.4281529,14.9145945 C10.6483487,14.6943988 10.7657864,14.3861247 10.7657864,14.0925303 C10.7657864,13.7842562 10.6483487,13.4759821 10.4281529,13.2557863 C10.2079571,13.0355905 9.89968299,12.9181528 9.59140889,12.9181528 Z" id="Path"></path>
                    <path d="M6.11231548,12.9181528 C5.80404138,12.9181528 5.49576728,13.0502702 5.27557149,13.2557863 C5.05537571,13.4759821 4.93793796,13.7842562 4.93793796,14.0925303 C4.93793796,14.4008044 5.07005543,14.7090785 5.27557149,14.9145945 C5.49576728,15.1347903 5.78936166,15.2669078 6.11231548,15.2669078 C6.42058958,15.2669078 6.72886368,15.1347903 6.94905946,14.9145945 C7.16925525,14.6943988 7.286693,14.3861247 7.286693,14.0925303 C7.286693,13.7842562 7.16925525,13.4759821 6.94905946,13.2557863 C6.72886368,13.0355905 6.42058958,12.9181528 6.11231548,12.9181528 Z" id="Path"></path>
                    <path d="M17.841411,22.3278527 C17.5331369,22.3278527 17.2248628,22.4599701 17.004667,22.6654862 C16.7844712,22.885682 16.6670335,23.1792764 16.6670335,23.5022302 C16.6670335,23.8105043 16.7991509,24.1187784 17.004667,24.3389742 C17.2248628,24.5591699 17.5331369,24.6766077 17.841411,24.6766077 C18.1496851,24.6766077 18.4579592,24.5444902 18.678155,24.3389742 C18.8983508,24.1334581 19.0157885,23.825184 19.0157885,23.5022302 C19.0157885,23.1939561 18.883671,22.885682 18.678155,22.6654862 C18.4579592,22.4452904 18.1496851,22.3278527 17.841411,22.3278527 Z" id="Path"></path>
                    <path d="M22.5536008,22.3278527 C22.2453267,22.3278527 21.9370526,22.4599701 21.7168568,22.6654862 C21.496661,22.885682 21.3792233,23.1792764 21.3792233,23.5022302 C21.3792233,23.8105043 21.5113407,24.1187784 21.7168568,24.3389742 C21.9370526,24.5591699 22.2453267,24.6766077 22.5536008,24.6766077 C22.8618749,24.6766077 23.170149,24.5444902 23.3903448,24.3389742 C23.6105406,24.1334581 23.7279783,23.825184 23.7279783,23.5022302 C23.7279783,23.1939561 23.5958609,22.885682 23.3903448,22.6654862 C23.1554693,22.4452904 22.8618749,22.3278527 22.5536008,22.3278527 Z" id="Path"></path>
                    <path d="M27.2511109,22.3278527 C26.9428368,22.3278527 26.6345627,22.4599701 26.4143669,22.6654862 C26.1941711,22.885682 26.0767334,23.1939561 26.0767334,23.5022302 C26.0767334,23.8105043 26.2088508,24.1187784 26.4143669,24.3389742 C26.6345627,24.5591699 26.9428368,24.6766077 27.2511109,24.6766077 C27.559385,24.6766077 27.8676591,24.5444902 28.0731752,24.3389742 C28.2933709,24.1187784 28.4254884,23.8105043 28.4254884,23.5022302 C28.4254884,23.1939561 28.2933709,22.885682 28.0731752,22.6654862 C27.8676591,22.4452904 27.559385,22.3278527 27.2511109,22.3278527 Z" id="Path"></path>
                    <path d="M31.9633007,22.3278527 C31.6550266,22.3278527 31.3467525,22.4599701 31.1412364,22.6654862 C30.9210407,22.885682 30.7889232,23.1792764 30.7889232,23.5022302 C30.7889232,23.8105043 30.9210407,24.1187784 31.1412364,24.3389742 C31.3614322,24.5591699 31.6697063,24.6766077 31.9633007,24.6766077 C32.2715748,24.6766077 32.5798489,24.5444902 32.8000447,24.3389742 C33.0202405,24.1334581 33.1376782,23.825184 33.1376782,23.5022302 C33.1376782,23.1939561 33.0055608,22.885682 32.8000447,22.6654862 C32.5798489,22.4452904 32.2715748,22.3278527 31.9633007,22.3278527 Z" id="Path"></path>
                    <path d="M36.6754905,22.3278527 C36.3672164,22.3278527 36.0589423,22.4599701 35.8387465,22.6654862 C35.6185507,22.885682 35.501113,23.1792764 35.501113,23.5022302 C35.501113,23.8105043 35.6332305,24.1187784 35.8387465,24.3389742 C36.0589423,24.5591699 36.3672164,24.6766077 36.6754905,24.6766077 C36.9837646,24.6766077 37.2920387,24.5444902 37.5122345,24.3389742 C37.7324303,24.1187784 37.849868,23.825184 37.849868,23.5022302 C37.849868,23.1939561 37.7177506,22.885682 37.5122345,22.6654862 C37.277359,22.4452904 36.9837646,22.3278527 36.6754905,22.3278527 Z" id="Path"></path>
                    <path d="M41.3730006,22.3278527 C41.0647265,22.3278527 40.7564524,22.4599701 40.5362566,22.6654862 C40.3160608,22.885682 40.1986231,23.1792764 40.1986231,23.5022302 C40.1986231,23.8105043 40.3307406,24.1187784 40.5362566,24.3389742 C40.7417727,24.5591699 41.0500468,24.6766077 41.3730006,24.6766077 C41.6812747,24.6766077 41.9895488,24.5444902 42.1950649,24.3389742 C42.4005809,24.1334581 42.5473781,23.825184 42.5473781,23.5022302 C42.5473781,23.1939561 42.4152607,22.885682 42.1950649,22.6654862 C41.9895488,22.4452904 41.6812747,22.3278527 41.3730006,22.3278527 Z" id="Path"></path>
                </g>
            </g>
        </g>
    </g>
</svg>