<?xml version="1.0" encoding="UTF-8"?>
<svg width="64px" height="30.5943136px" viewBox="0 0 64 30.5943136" version="1.1" xmlns="http://www.w3.org/2000/svg" xmlns:xlink="http://www.w3.org/1999/xlink">
    <title>ferry</title>
    <g id="Squat-laskuri" stroke="none" stroke-width="1" fill="none" fill-rule="evenodd">
        <g id="colors_and_typography" transform="translate(-972, -1667.41)">
            <g id="ferry" transform="translate(972, 1662)">
                <rect id="Rectangle" x="0" y="0" width="64" height="36"></rect>
                <g id="ferry-04" transform="translate(0, 6.41)">
                    <g id="Group" transform="translate(0, 9.762)" fill="#000000" fill-rule="nonzero">
                        <path d="M55.3921323,1.18905724 L47.1714896,1.18905724 L44.8227346,1.20373696 C42.8556522,1.36521387 41.4463992,2.68638858 40.8004916,3.44973397 L35.4717536,3.44973397 L22.5536008,3.44973397 L17.8120516,3.44973397 L3.71952128,3.44973397 L1.37076623,3.44973397 L1.17992988,3.44973397 C0.754218031,3.44973397 0.372545336,3.66992976 0.15234955,4.03692274 C-0.0531665161,4.40391571 -0.0531665161,4.858987 0.167029269,5.21130026 L7.30137272,17.2486699 C8.18215586,18.7166418 10.1492382,19.8323004 11.8667653,19.8323004 L50.7093019,19.8323004 C52.426829,19.8323004 54.3939114,18.7166418 55.2746945,17.2486699 L63.8329707,2.96530325 C64.0531665,2.59831027 64.0531665,2.1579187 63.8476504,1.776246 C63.6421344,1.40925303 63.245782,1.17437752 62.8200701,1.17437752 L57.7408873,1.17437752 M56.3756735,3.53781229 L60.7502297,3.53781229 L53.263573,16.0449329 C52.8085017,16.7935986 51.5900851,17.4835454 50.7093019,17.4835454 L11.8667653,17.4835454 C10.9859822,17.4835454 9.76756552,16.7935986 9.31249423,16.0449329 L3.23509055,5.79848902 L16.637674,5.79848902 L41.3730006,5.79848902 C41.769353,5.79848902 42.136346,5.59297295 42.3565418,5.27001913 C42.3712215,5.25533942 43.545599,3.53781229 45.2044073,3.53781229 L56.3756735,3.53781229 Z" id="Shape"></path>
                        <path d="M17.841411,8.19128322 C17.5331369,8.19128322 17.2248628,8.32340069 17.004667,8.52891676 C16.7844712,8.74911255 16.6670335,9.04270693 16.6670335,9.36566075 C16.6670335,9.67393485 16.7991509,9.98220894 17.004667,10.2024047 C17.2248628,10.4226005 17.5331369,10.5400383 17.841411,10.5400383 C18.1496851,10.5400383 18.4579592,10.4079208 18.678155,10.2024047 C18.8983508,9.99688866 19.0157885,9.68861456 19.0157885,9.36566075 C19.0157885,9.05738665 18.883671,8.74911255 18.678155,8.52891676 C18.4579592,8.30872097 18.1496851,8.19128322 17.841411,8.19128322 Z" id="Path"></path>
                        <path d="M22.5536008,8.19128322 C22.2453267,8.19128322 21.9370526,8.32340069 21.7168568,8.52891676 C21.496661,8.74911255 21.3792233,9.04270693 21.3792233,9.36566075 C21.3792233,9.67393485 21.5113407,9.98220894 21.7168568,10.2024047 C21.9370526,10.4226005 22.2453267,10.5400383 22.5536008,10.5400383 C22.8618749,10.5400383 23.170149,10.4079208 23.3903448,10.2024047 C23.6105406,9.99688866 23.7279783,9.68861456 23.7279783,9.36566075 C23.7279783,9.05738665 23.5958609,8.74911255 23.3903448,8.52891676 C23.1554693,8.30872097 22.8618749,8.19128322 22.5536008,8.19128322 Z" id="Path"></path>
                        <path d="M27.2511109,8.19128322 C26.9428368,8.19128322 26.6345627,8.32340069 26.4143669,8.52891676 C26.1941711,8.74911255 26.0767334,9.05738665 26.0767334,9.36566075 C26.0767334,9.67393485 26.2088508,9.98220894 26.4143669,10.2024047 C26.6345627,10.4226005 26.9428368,10.5400383 27.2511109,10.5400383 C27.559385,10.5400383 27.8676591,10.4079208 28.0731752,10.2024047 C28.2933709,9.98220894 28.4254884,9.67393485 28.4254884,9.36566075 C28.4254884,9.05738665 28.2933709,8.74911255 28.0731752,8.52891676 C27.8676591,8.30872097 27.559385,8.19128322 27.2511109,8.19128322 Z" id="Path"></path>
                        <path d="M31.9633007,8.19128322 C31.6550266,8.19128322 31.3467525,8.32340069 31.1412364,8.52891676 C30.9210407,8.74911255 30.7889232,9.04270693 30.7889232,9.36566075 C30.7889232,9.67393485 30.9210407,9.98220894 31.1412364,10.2024047 C31.3614322,10.4226005 31.6697063,10.5400383 31.9633007,10.5400383 C32.2715748,10.5400383 32.5798489,10.4079208 32.8000447,10.2024047 C33.0202405,9.99688866 33.1376782,9.68861456 33.1376782,9.36566075 C33.1376782,9.05738665 33.0055608,8.74911255 32.8000447,8.52891676 C32.5798489,8.30872097 32.2715748,8.19128322 31.9633007,8.19128322 Z" id="Path"></path>
                        <path d="M36.6754905,8.19128322 C36.3672164,8.19128322 36.0589423,8.32340069 35.8387465,8.52891676 C35.6185507,8.74911255 35.501113,9.04270693 35.501113,9.36566075 C35.501113,9.67393485 35.6332305,9.98220894 35.8387465,10.2024047 C36.0589423,10.4226005 36.3672164,10.5400383 36.6754905,10.5400383 C36.9837646,10.5400383 37.2920387,10.4079208 37.5122345,10.2024047 C37.7324303,9.98220894 37.849868,9.68861456 37.849868,9.36566075 C37.849868,9.05738665 37.7177506,8.74911255 37.5122345,8.52891676 C37.277359,8.30872097 36.9837646,8.19128322 36.6754905,8.19128322 Z" id="Path"></path>
                        <path d="M17.841411,0 C17.5331369,0 17.2248628,0.132117471 17.004667,0.337633538 C16.7844712,0.557829323 16.6670335,0.851423704 16.6670335,1.17437752 C16.6670335,1.48265162 16.7991509,1.79092572 17.004667,2.01112151 C17.2248628,2.23131729 17.5331369,2.34875505 17.841411,2.34875505 C18.1496851,2.34875505 18.4579592,2.21663757 18.678155,2.01112151 C18.8983508,1.79092572 19.0157885,1.49733134 19.0157885,1.17437752 C19.0157885,0.866103423 18.883671,0.557829323 18.678155,0.337633538 C18.4579592,0.132117471 18.1496851,0 17.841411,0 Z" id="Path"></path>
                        <path d="M22.5536008,0 C22.2453267,0 21.9370526,0.132117471 21.7168568,0.337633538 C21.496661,0.557829323 21.3792233,0.851423704 21.3792233,1.17437752 C21.3792233,1.48265162 21.5113407,1.79092572 21.7168568,2.01112151 C21.9223729,2.23131729 22.2453267,2.34875505 22.5536008,2.34875505 C22.8618749,2.34875505 23.170149,2.21663757 23.3903448,2.01112151 C23.6105406,1.79092572 23.7279783,1.49733134 23.7279783,1.17437752 C23.7279783,0.866103423 23.5958609,0.557829323 23.3903448,0.337633538 C23.1554693,0.132117471 22.8618749,0 22.5536008,0 Z" id="Path"></path>
                        <path d="M27.2511109,0 C26.9428368,0 26.6345627,0.132117471 26.4143669,0.337633538 C26.1941711,0.557829323 26.0767334,0.866103423 26.0767334,1.17437752 C26.0767334,1.48265162 26.2088508,1.79092572 26.4143669,2.01112151 C26.619883,2.23131729 26.9281571,2.34875505 27.2511109,2.34875505 C27.559385,2.34875505 27.8676591,2.21663757 28.0731752,2.01112151 C28.2786912,1.80560544 28.4254884,1.48265162 28.4254884,1.17437752 C28.4254884,0.866103423 28.2933709,0.557829323 28.0731752,0.337633538 C27.8676591,0.132117471 27.559385,0 27.2511109,0 Z" id="Path"></path>
                        <path d="M31.9633007,0 C31.6550266,0 31.3467525,0.132117471 31.1412364,0.337633538 C30.9210407,0.557829323 30.7889232,0.851423704 30.7889232,1.17437752 C30.7889232,1.48265162 30.9210407,1.79092572 31.1412364,2.01112151 C31.3614322,2.23131729 31.6550266,2.34875505 31.9633007,2.34875505 C32.2715748,2.34875505 32.5798489,2.21663757 32.8000447,2.01112151 C33.0202405,1.79092572 33.1376782,1.49733134 33.1376782,1.17437752 C33.1376782,0.866103423 33.0055608,0.557829323 32.8000447,0.337633538 C32.5798489,0.132117471 32.2715748,0 31.9633007,0 Z" id="Path"></path>
                        <path d="M36.6754905,0 C36.3672164,0 36.0589423,0.132117471 35.8387465,0.337633538 C35.6185507,0.557829323 35.501113,0.851423704 35.501113,1.17437752 C35.501113,1.48265162 35.6332305,1.79092572 35.8387465,2.01112151 C36.0442626,2.23131729 36.3672164,2.34875505 36.6754905,2.34875505 C36.9837646,2.34875505 37.2920387,2.21663757 37.5122345,2.01112151 C37.7324303,1.79092572 37.849868,1.49733134 37.849868,1.17437752 C37.849868,0.866103423 37.7177506,0.557829323 37.5122345,0.337633538 C37.277359,0.132117471 36.9837646,0 36.6754905,0 Z" id="Path"></path>
                        <path d="M41.3730006,8.19128322 C41.0647265,8.19128322 40.7564524,8.32340069 40.5362566,8.52891676 C40.3160608,8.74911255 40.1986231,9.04270693 40.1986231,9.36566075 C40.1986231,9.67393485 40.3307406,9.98220894 40.5362566,10.2024047 C40.7417727,10.4226005 41.0500468,10.5400383 41.3730006,10.5400383 C41.6812747,10.5400383 41.9895488,10.4079208 42.1950649,10.2024047 C42.4005809,9.99688866 42.5473781,9.68861456 42.5473781,9.36566075 C42.5473781,9.05738665 42.4152607,8.74911255 42.1950649,8.52891676 C41.9895488,8.30872097 41.6812747,8.19128322 41.3730006,8.19128322 Z" id="Path"></path>
                        <path d="M17.841411,12.3750031 C17.5331369,12.3750031 17.2248628,12.5071206 17.004667,12.7126367 C16.7844712,12.9328325 16.6670335,13.2264269 16.6670335,13.5493807 C16.6670335,13.8576548 16.7991509,14.1659289 17.004667,14.3861247 C17.2248628,14.6063204 17.5331369,14.7237582 17.841411,14.7237582 C18.1496851,14.7237582 18.4579592,14.5916407 18.678155,14.3861247 C18.8983508,14.1659289 19.0157885,13.8723345 19.0157885,13.5493807 C19.0157885,13.2411066 18.883671,12.9328325 18.678155,12.7126367 C18.4579592,12.5071206 18.1496851,12.3750031 17.841411,12.3750031 Z" id="Path"></path>
                        <path d="M22.5536008,12.3750031 C22.2453267,12.3750031 21.9370526,12.5071206 21.7168568,12.7126367 C21.496661,12.9328325 21.3792233,13.2264269 21.3792233,13.5493807 C21.3792233,13.8576548 21.5113407,14.1659289 21.7168568,14.3861247 C21.9223729,14.6063204 22.2453267,14.7237582 22.5536008,14.7237582 C22.8618749,14.7237582 23.170149,14.5916407 23.3903448,14.3861247 C23.6105406,14.1659289 23.7279783,13.8723345 23.7279783,13.5493807 C23.7279783,13.2411066 23.5958609,12.9328325 23.3903448,12.7126367 C23.1554693,12.5071206 22.8618749,12.3750031 22.5536008,12.3750031 Z" id="Path"></path>
                        <path d="M27.2511109,12.3750031 C26.9428368,12.3750031 26.6345627,12.5071206 26.4143669,12.7126367 C26.1941711,12.9328325 26.0767334,13.2411066 26.0767334,13.5493807 C26.0767334,13.8576548 26.2088508,14.1659289 26.4143669,14.3861247 C26.619883,14.6063204 26.9281571,14.7237582 27.2511109,14.7237582 C27.559385,14.7237582 27.8676591,14.5916407 28.0731752,14.3861247 C28.2786912,14.1806086 28.4254884,13.8576548 28.4254884,13.5493807 C28.4254884,13.2411066 28.2933709,12.9328325 28.0731752,12.7126367 C27.8676591,12.5071206 27.559385,12.3750031 27.2511109,12.3750031 Z" id="Path"></path>
                        <path d="M31.9633007,12.3750031 C31.6550266,12.3750031 31.3467525,12.5071206 31.1412364,12.7126367 C30.9210407,12.9328325 30.7889232,13.2264269 30.7889232,13.5493807 C30.7889232,13.8576548 30.9210407,14.1659289 31.1412364,14.3861247 C31.3614322,14.6063204 31.6550266,14.7237582 31.9633007,14.7237582 C32.2715748,14.7237582 32.5798489,14.5916407 32.8000447,14.3861247 C33.0202405,14.1659289 33.1376782,13.8723345 33.1376782,13.5493807 C33.1376782,13.2411066 33.0055608,12.9328325 32.8000447,12.7126367 C32.5798489,12.5071206 32.2715748,12.3750031 31.9633007,12.3750031 Z" id="Path"></path>
                        <path d="M36.6754905,12.3750031 C36.3672164,12.3750031 36.0589423,12.5071206 35.8387465,12.7126367 C35.6185507,12.9328325 35.501113,13.2264269 35.501113,13.5493807 C35.501113,13.8576548 35.6332305,14.1659289 35.8387465,14.3861247 C36.0442626,14.6063204 36.3672164,14.7237582 36.6754905,14.7237582 C36.9837646,14.7237582 37.2920387,14.5916407 37.5122345,14.3861247 C37.7324303,14.1659289 37.849868,13.8723345 37.849868,13.5493807 C37.849868,13.2411066 37.7177506,12.9328325 37.5122345,12.7126367 C37.277359,12.5071206 36.9837646,12.3750031 36.6754905,12.3750031 Z" id="Path"></path>
                        <path d="M41.3730006,12.3750031 C41.0647265,12.3750031 40.7564524,12.5071206 40.5362566,12.7126367 C40.3160608,12.9328325 40.1986231,13.2264269 40.1986231,13.5493807 C40.1986231,13.8576548 40.3307406,14.1659289 40.5362566,14.3861247 C40.7417727,14.6063204 41.0500468,14.7237582 41.3730006,14.7237582 C41.6812747,14.7237582 41.9895488,14.5916407 42.1950649,14.3861247 C42.4005809,14.1806086 42.5473781,13.8723345 42.5473781,13.5493807 C42.5473781,13.2411066 42.4152607,12.9328325 42.1950649,12.7126367 C41.9895488,12.5071206 41.6812747,12.3750031 41.3730006,12.3750031 Z" id="Path"></path>
                    </g>
                    <path d="M52.2653521,7.41325811 L46.3934645,7.41325811 C45.7475569,7.41325811 45.219087,7.941728 45.219087,8.58763564 C45.219087,9.23354327 45.7475569,9.76201316 46.3934645,9.76201316 L54.8216892,9.76201316" id="Path" fill="#000000" fill-rule="nonzero"></path>
                    <path d="M46.3934645,7.41325811 C46.0851904,7.41325811 45.7769163,7.54537558 45.5567205,7.75089165 C45.3365247,7.97108744 45.219087,8.27936154 45.219087,8.58763564 C45.219087,8.89590974 45.3512045,9.20418384 45.5567205,9.4096999 C45.7769163,9.62989569 46.0705107,9.76201316 46.3934645,9.76201316 C46.7017386,9.76201316 47.0100127,9.62989569 47.2302085,9.4096999 C47.4504043,9.18950412 47.567842,8.88123002 47.567842,8.58763564 C47.567842,8.27936154 47.4357246,7.97108744 47.2302085,7.75089165 C47.0100127,7.54537558 46.7017386,7.41325811 46.3934645,7.41325811 Z" id="Path" fill="#000000" fill-rule="nonzero"></path>
                    <path d="M56.140798,11.9933305 L48.874337,4.72686953 C48.8009384,4.65347093 48.6835007,4.60943178 48.5807427,4.60943178 L16.4174782,4.60943178 C16.3000405,4.60943178 16.1972825,4.65347093 16.1238839,4.72686953 L10.4428326,10.4079208 L10.4428326,10.4079208 L6.27379239,10.4079208 C6.15635464,10.4079208 6.0535966,10.45196 5.98019801,10.5253585 L2.39834656,14.0925303" id="Path" stroke="#000000" stroke-width="2"></path>
                    <path d="M10.4428326,10.4079208 L8.37299221,10.4079208 L8.37299221,0.528469885 C8.37299221,0.234875505 8.56382856,0.014679719 8.78402434,0.014679719 L12.1163206,0" id="Path" stroke="#000000" stroke-width="2"></path>
                    <path d="M12.1163206,0 L16.2706811,0 C16.5055566,0 16.6817132,0.234875505 16.6817132,0.513790166 L16.6817132,4.59475206" id="Path" stroke="#000000" stroke-width="2"></path>
                </g>
            </g>
        </g>
    </g>
</svg>