<?xml version="1.0" encoding="UTF-8"?>
<svg width="64px" height="36px" viewBox="0 0 64 36" version="1.1" xmlns="http://www.w3.org/2000/svg" xmlns:xlink="http://www.w3.org/1999/xlink">
    <title>ABC03C54-54F7-45B7-B35E-F898A31107F1</title>
    <g id="Squat-laskuri" stroke="none" stroke-width="1" fill="none" fill-rule="evenodd">
        <g id="colors_and_typography" transform="translate(-980.000000, -1192.000000)">
            <g id="lng_tanker-copy" transform="translate(980.000000, 1192.000000)">
                <rect id="Rectangle" fill="#FFFFFF" x="0" y="0" width="64" height="36"></rect>
                <g id="lng_tanker-02" transform="translate(0.000000, 5.600000)">
                    <g id="Group" fill="#757575" fill-rule="nonzero">
                        <path d="M55.3921323,11.7584549 L47.1714896,11.7584549 L44.8227346,11.7731347 C42.8556522,11.9346116 41.4463992,13.2557863 40.8004916,14.0191317 L35.4717536,14.0191317 L22.5536008,14.0191317 L17.8120516,14.0191317 L17.8120516,1.17437752 C17.8120516,0.528469885 17.2835817,0 16.637674,0 L2.54514375,0 C1.89923612,0 1.37076623,0.528469885 1.37076623,1.17437752 L1.37076623,14.0191317 L1.17992988,14.0191317 C0.754218031,14.0191317 0.372545336,14.2393275 0.15234955,14.6063204 C-0.0531665161,14.9733134 -0.0531665161,15.4283847 0.167029269,15.780698 L7.30137272,27.8180676 C8.18215586,29.2860395 10.1492382,30.4016981 11.8667653,30.4016981 L50.7093019,30.4016981 C52.426829,30.4016981 54.3939114,29.2860395 55.2746945,27.8180676 L63.8329707,13.534701 C64.0531665,13.167708 64.0531665,12.7273164 63.8476504,12.3456437 C63.6421344,11.9786507 63.245782,11.7437752 62.8200701,11.7437752 L57.7408873,11.7437752 M3.71952128,2.34875505 L15.4632965,2.34875505 L15.4632965,4.60943178 L13.1145415,4.60943178 C12.4686338,4.60943178 11.9401639,5.13790166 11.9401639,5.7838093 C11.9401639,6.42971694 12.4686338,6.95818682 13.1145415,6.95818682 L15.4632965,6.95818682 L15.4632965,9.33630131 L13.1145415,9.33630131 C12.4686338,9.33630131 11.9401639,9.86477119 11.9401639,10.5106788 C11.9401639,11.1565865 12.4686338,11.6850564 13.1145415,11.6850564 L15.4632965,11.6850564 L15.4632965,14.0191317 L3.71952128,14.0191317 C3.71952128,14.0191317 3.71952128,2.34875505 3.71952128,2.34875505 Z M56.3756735,14.10721 L60.7502297,14.10721 L53.263573,26.6143306 C52.8085017,27.3629963 51.5900851,28.0529431 50.7093019,28.0529431 L11.8667653,28.0529431 C10.9859822,28.0529431 9.76756552,27.3629963 9.31249423,26.6143306 L3.23509055,16.3678867 L16.637674,16.3678867 L41.3730006,16.3678867 C41.769353,16.3678867 42.136346,16.1623707 42.3565418,15.8394168 C42.3712215,15.8247371 43.545599,14.10721 45.2044073,14.10721 L56.3756735,14.10721 Z" id="Shape"></path>
                        <path d="M9.59140889,4.60943178 C9.28313479,4.60943178 8.97486069,4.74154925 8.75466491,4.94706532 C8.53446912,5.1672611 8.41703137,5.4755352 8.41703137,5.7838093 C8.41703137,6.0920834 8.53446912,6.4003575 8.75466491,6.60587357 C8.97486069,6.82606935 9.26845507,6.95818682 9.59140889,6.95818682 C9.91436271,6.95818682 10.2079571,6.82606935 10.4281529,6.60587357 C10.6483487,6.38567778 10.7657864,6.07740368 10.7657864,5.7838093 C10.7657864,5.4755352 10.6483487,5.1672611 10.4281529,4.94706532 C10.2079571,4.72686953 9.89968299,4.60943178 9.59140889,4.60943178 Z" id="Path"></path>
                        <path d="M6.11231548,4.60943178 C5.80404138,4.60943178 5.49576728,4.74154925 5.27557149,4.94706532 C5.05537571,5.1672611 4.93793796,5.4755352 4.93793796,5.7838093 C4.93793796,6.0920834 5.07005543,6.4003575 5.27557149,6.60587357 C5.49576728,6.82606935 5.78936166,6.95818682 6.11231548,6.95818682 C6.42058958,6.95818682 6.72886368,6.82606935 6.94905946,6.60587357 C7.16925525,6.38567778 7.286693,6.07740368 7.286693,5.7838093 C7.286693,5.4755352 7.16925525,5.1672611 6.94905946,4.94706532 C6.72886368,4.72686953 6.42058958,4.60943178 6.11231548,4.60943178 Z" id="Path"></path>
                        <path d="M9.59140889,9.35098103 C9.28313479,9.35098103 8.97486069,9.4830985 8.75466491,9.68861456 C8.53446912,9.90881035 8.41703137,10.2170844 8.41703137,10.5253585 C8.41703137,10.8336326 8.53446912,11.1419067 8.75466491,11.3474228 C8.97486069,11.5676186 9.26845507,11.6997361 9.59140889,11.6997361 C9.91436271,11.6997361 10.2079571,11.5676186 10.4281529,11.3474228 C10.6483487,11.127227 10.7657864,10.8189529 10.7657864,10.5253585 C10.7657864,10.2170844 10.6483487,9.90881035 10.4281529,9.68861456 C10.2079571,9.46841878 9.89968299,9.35098103 9.59140889,9.35098103 Z" id="Path"></path>
                        <path d="M6.11231548,9.35098103 C5.80404138,9.35098103 5.49576728,9.4830985 5.27557149,9.68861456 C5.05537571,9.90881035 4.93793796,10.2170844 4.93793796,10.5253585 C4.93793796,10.8336326 5.07005543,11.1419067 5.27557149,11.3474228 C5.49576728,11.5676186 5.78936166,11.6997361 6.11231548,11.6997361 C6.42058958,11.6997361 6.72886368,11.5676186 6.94905946,11.3474228 C7.16925525,11.127227 7.286693,10.8189529 7.286693,10.5253585 C7.286693,10.2170844 7.16925525,9.90881035 6.94905946,9.68861456 C6.72886368,9.46841878 6.42058958,9.35098103 6.11231548,9.35098103 Z" id="Path"></path>
                        <path d="M17.841411,18.7606809 C17.5331369,18.7606809 17.2248628,18.8927984 17.004667,19.0983145 C16.7844712,19.3185103 16.6670335,19.6121046 16.6670335,19.9350585 C16.6670335,20.2433326 16.7991509,20.5516067 17.004667,20.7718024 C17.2248628,20.9919982 17.5331369,21.109436 17.841411,21.109436 C18.1496851,21.109436 18.4579592,20.9773185 18.678155,20.7718024 C18.8983508,20.5662864 19.0157885,20.2580123 19.0157885,19.9350585 C19.0157885,19.6267844 18.883671,19.3185103 18.678155,19.0983145 C18.4579592,18.8781187 18.1496851,18.7606809 17.841411,18.7606809 Z" id="Path"></path>
                        <path d="M22.5536008,18.7606809 C22.2453267,18.7606809 21.9370526,18.8927984 21.7168568,19.0983145 C21.496661,19.3185103 21.3792233,19.6121046 21.3792233,19.9350585 C21.3792233,20.2433326 21.5113407,20.5516067 21.7168568,20.7718024 C21.9370526,20.9919982 22.2453267,21.109436 22.5536008,21.109436 C22.8618749,21.109436 23.170149,20.9773185 23.3903448,20.7718024 C23.6105406,20.5662864 23.7279783,20.2580123 23.7279783,19.9350585 C23.7279783,19.6267844 23.5958609,19.3185103 23.3903448,19.0983145 C23.1554693,18.8781187 22.8618749,18.7606809 22.5536008,18.7606809 Z" id="Path"></path>
                        <path d="M27.2511109,18.7606809 C26.9428368,18.7606809 26.6345627,18.8927984 26.4143669,19.0983145 C26.1941711,19.3185103 26.0767334,19.6267844 26.0767334,19.9350585 C26.0767334,20.2433326 26.2088508,20.5516067 26.4143669,20.7718024 C26.6345627,20.9919982 26.9428368,21.109436 27.2511109,21.109436 C27.559385,21.109436 27.8676591,20.9773185 28.0731752,20.7718024 C28.2933709,20.5516067 28.4254884,20.2433326 28.4254884,19.9350585 C28.4254884,19.6267844 28.2933709,19.3185103 28.0731752,19.0983145 C27.8676591,18.8781187 27.559385,18.7606809 27.2511109,18.7606809 Z" id="Path"></path>
                        <path d="M31.9633007,18.7606809 C31.6550266,18.7606809 31.3467525,18.8927984 31.1412364,19.0983145 C30.9210407,19.3185103 30.7889232,19.6121046 30.7889232,19.9350585 C30.7889232,20.2433326 30.9210407,20.5516067 31.1412364,20.7718024 C31.3614322,20.9919982 31.6697063,21.109436 31.9633007,21.109436 C32.2715748,21.109436 32.5798489,20.9773185 32.8000447,20.7718024 C33.0202405,20.5662864 33.1376782,20.2580123 33.1376782,19.9350585 C33.1376782,19.6267844 33.0055608,19.3185103 32.8000447,19.0983145 C32.5798489,18.8781187 32.2715748,18.7606809 31.9633007,18.7606809 Z" id="Path"></path>
                        <path d="M36.6754905,18.7606809 C36.3672164,18.7606809 36.0589423,18.8927984 35.8387465,19.0983145 C35.6185507,19.3185103 35.501113,19.6121046 35.501113,19.9350585 C35.501113,20.2433326 35.6332305,20.5516067 35.8387465,20.7718024 C36.0589423,20.9919982 36.3672164,21.109436 36.6754905,21.109436 C36.9837646,21.109436 37.2920387,20.9773185 37.5122345,20.7718024 C37.7324303,20.5516067 37.849868,20.2580123 37.849868,19.9350585 C37.849868,19.6267844 37.7177506,19.3185103 37.5122345,19.0983145 C37.277359,18.8781187 36.9837646,18.7606809 36.6754905,18.7606809 Z" id="Path"></path>
                        <path d="M41.3730006,18.7606809 C41.0647265,18.7606809 40.7564524,18.8927984 40.5362566,19.0983145 C40.3160608,19.3185103 40.1986231,19.6121046 40.1986231,19.9350585 C40.1986231,20.2433326 40.3307406,20.5516067 40.5362566,20.7718024 C40.7417727,20.9919982 41.0500468,21.109436 41.3730006,21.109436 C41.6812747,21.109436 41.9895488,20.9773185 42.1950649,20.7718024 C42.4005809,20.5662864 42.5473781,20.2580123 42.5473781,19.9350585 C42.5473781,19.6267844 42.4152607,19.3185103 42.1950649,19.0983145 C41.9895488,18.8781187 41.6812747,18.7606809 41.3730006,18.7606809 Z" id="Path"></path>
                    </g>
                    <path d="M23.7279783,15.2081889 L23.7279783,11.3327431 C23.7279783,8.33808041 26.150132,5.91592677 29.1447946,5.91592677 C32.1394573,5.91592677 34.561611,8.33808041 34.561611,11.3327431 L34.561611,15.2081889" id="Path" stroke="#757575" stroke-width="2"></path>
                    <path d="M34.5469313,15.2081889 L34.5469313,11.3327431 C34.5469313,8.33808041 36.9690849,5.91592677 39.9637476,5.91592677 C42.9584103,5.91592677 45.3805639,8.33808041 45.3805639,11.3327431 L45.3805639,13.8429751" id="Path" stroke="#757575" stroke-width="2"></path>
                    <path d="M45.3658842,12.800715 L45.3658842,11.1712662 C45.3658842,8.1766035 47.7880378,5.75444986 50.7827005,5.75444986 C53.7773632,5.75444986 56.1995168,8.1766035 56.1995168,11.1712662 L56.1995168,12.800715" id="Path" stroke="#757575" stroke-width="2"></path>
                    <path d="M29.1301149,5.91592677 L29.1301149,2.75978718 C29.1301149,2.52491167 29.3209513,2.34875505 29.5411471,2.34875505 L39.9490679,2.34875505 L39.9490679,5.91592677" id="Path" stroke="#757575" stroke-width="2"></path>
                    <path d="M50.7680208,5.76912958 L50.7680208,2.7744669 C50.7680208,2.53959139 50.5771844,2.36343476 50.3569887,2.36343476 L39.9490679,2.36343476" id="Path" stroke="#757575" stroke-width="2"></path>
                </g>
            </g>
        </g>
    </g>
</svg>