<?xml version="1.0" encoding="UTF-8"?>
<svg width="24px" height="24px" viewBox="0 0 24 24" version="1.1" xmlns="http://www.w3.org/2000/svg" xmlns:xlink="http://www.w3.org/1999/xlink">
    <title>10BB8D98-5F19-4A78-830E-88D565A41D60</title>
    <g id="Squat-laskuri" stroke="none" stroke-width="1" fill="none" fill-rule="evenodd">
        <g id="colors_and_typography" transform="translate(-906.000000, -795.000000)">
            <g id="icons" transform="translate(722.000000, 748.000000)">
                <g id="print_icon" transform="translate(184.000000, 47.000000)">
                    <rect id="Rectangle" x="0" y="0" width="24" height="24"></rect>
                    <path d="M16.895,7.08333333 L16.895,3.91666667 C16.895,3.77859548 16.7830712,3.66666667 16.645,3.66666667 L7.355,3.66666667 C7.21692881,3.66666667 7.105,3.77859548 7.105,3.91666667 L7.105,7.08333333 C7.105,7.22140452 6.99307119,7.33333333 6.855,7.33333333 L5.705,7.33333333 C5.56692881,7.33333333 5.455,7.22140452 5.455,7.08333333 L5.455,2.25 C5.455,2.11192881 5.56692881,2 5.705,2 L18.295,2 C18.4330712,2 18.545,2.11192881 18.545,2.25 L18.545,7.08333333 C18.545,7.22140452 18.4330712,7.33333333 18.295,7.33333333 L17.145,7.33333333 C17.0069288,7.33333333 16.895,7.22140452 16.895,7.08333333 Z M2.65,9 C2.65,9 2.76916667,9 3.0075,9 C3.24583333,9 3.54833333,9 3.915,9 L20.085,9 C20.4516667,9 20.7541667,9 20.9925,9 C21.2308333,9 21.35,9 21.35,9 L18.545,9 L5.455,9 L2.65,9 L2.65,9 Z M19.1225,11.6388889 C19.3425,11.6388889 19.535,11.5555556 19.7,11.3888889 C19.865,11.2222222 19.9475,11.0277778 19.9475,10.8055556 C19.9475,10.5833333 19.865,10.3888889 19.7,10.2222222 C19.535,10.0555556 19.3425,9.97222222 19.1225,9.97222222 C18.9025,9.97222222 18.71,10.0555556 18.545,10.2222222 C18.38,10.3888889 18.2975,10.5833333 18.2975,10.8055556 C18.2975,11.0277778 18.38,11.2222222 18.545,11.3888889 C18.71,11.5555556 18.9025,11.6388889 19.1225,11.6388889 Z M16.895,20.0833333 L16.895,15.25 C16.895,15.1119288 16.7830712,15 16.645,15 L7.355,15 C7.21692881,15 7.105,15.1119288 7.105,15.25 L7.105,20.0833333 C7.105,20.2214045 7.21692881,20.3333333 7.355,20.3333333 L16.645,20.3333333 C16.7830712,20.3333333 16.895,20.2214045 16.895,20.0833333 Z M18.295,22 L5.705,22 C5.56692881,22 5.455,21.8880712 5.455,21.75 L5.455,17.3611111 C5.455,17.2230399 5.34307119,17.1111111 5.205,17.1111111 L1.25,17.1111111 C1.11192881,17.1111111 1,16.9991823 1,16.8611111 L1,10.2777778 L1,10.2777778 C1,9.44444444 1.27958333,8.74537037 1.83875,8.18055556 C2.39791667,7.61574074 3.09,7.33333333 3.915,7.33333333 L20.085,7.33333333 C20.91,7.33333333 21.6020833,7.61574074 22.16125,8.18055556 C22.7204167,8.74537037 23,9.44444444 23,10.2777778 L23,16.8611111 C23,16.9991823 22.8880712,17.1111111 22.75,17.1111111 L18.795,17.1111111 C18.6569288,17.1111111 18.545,17.2230399 18.545,17.3611111 L18.545,21.75 C18.545,21.8880712 18.4330712,22 18.295,22 Z M21.35,15.1944444 L21.35,10.2777778 L21.35,10.2777778 C21.35,9.90740741 21.2308333,9.60185185 20.9925,9.36111111 C20.7541667,9.12037037 20.4516667,9 20.085,9 L3.915,9 C3.54833333,9 3.24583333,9.12037037 3.0075,9.36111111 C2.76916667,9.60185185 2.65,9.90740741 2.65,10.2777778 L2.65,15.1944444 C2.65,15.3325156 2.76192881,15.4444444 2.9,15.4444444 L5.205,15.4444444 C5.34307119,15.4444444 5.455,15.3325156 5.455,15.1944444 L5.455,13.5833333 C5.455,13.4452621 5.56692881,13.3333333 5.705,13.3333333 L18.295,13.3333333 C18.4330712,13.3333333 18.545,13.4452621 18.545,13.5833333 L18.545,15.1944444 C18.545,15.3325156 18.6569288,15.4444444 18.795,15.4444444 L21.1,15.4444444 C21.2380712,15.4444444 21.35,15.3325156 21.35,15.1944444 Z" id="Shape" stroke="#0064AF" fill="#0064AF" fill-rule="nonzero"></path>
                </g>
            </g>
        </g>
    </g>
</svg>