<?xml version="1.0" encoding="UTF-8"?>
<svg width="24px" height="24px" viewBox="0 0 24 24" version="1.1" xmlns="http://www.w3.org/2000/svg" xmlns:xlink="http://www.w3.org/1999/xlink">
    <title>103F2DED-D1A2-4EA8-A861-99CE974381C7</title>
    <g id="Squat-laskuri" stroke="none" stroke-width="1" fill="none" fill-rule="evenodd">
        <g id="colors_and_typography" transform="translate(-1202.000000, -962.000000)">
            <g id="turvalaite_ikonit" transform="translate(722.000000, 914.000000)">
                <g id="majakka" transform="translate(480.000000, 48.000000)">
                    <path d="M10.53,9.44142857 L11.9871429,1.72714286 L13.4742857,9.44142857 L20.9014286,6.87 L14.9571429,12.0128571 L20.9014286,17.1257143 L13.4742857,14.5542857 L11.9871429,22.2685714 L10.53,14.5542857 L3.10285714,17.1257143 L9.04714286,12.0128571 L3.09857143,6.87 L10.5257143,9.44142857 L10.53,9.44142857 Z M11.9871429,10.5857143 C11.6057143,10.5857143 11.2757143,10.7228571 11.0014286,11.0014286 C10.7228571,11.2757143 10.5857143,11.6142857 10.5857143,12.0171429 C10.5857143,12.42 10.7228571,12.7285714 11.0014286,13.0028571 C11.2757143,13.2771429 11.6057143,13.4185714 11.9871429,13.4185714 C12.3857143,13.4185714 12.7242857,13.2814286 13.0028571,13.0028571 C13.2814286,12.7242857 13.4185714,12.3985714 13.4185714,12.0171429 C13.4185714,11.6185714 13.2814286,11.28 13.0028571,11.0014286 C12.7285714,10.7271429 12.39,10.5857143 11.9871429,10.5857143 Z" id="Shape" fill="#EC0E0E" fill-rule="nonzero"></path>
                    <rect id="Rectangle" x="0" y="0" width="24" height="24"></rect>
                </g>
            </g>
        </g>
    </g>
</svg>