<?xml version="1.0" encoding="UTF-8"?>
<svg width="32px" height="32px" viewBox="0 0 32 32" version="1.1" xmlns="http://www.w3.org/2000/svg" xmlns:xlink="http://www.w3.org/1999/xlink">
    <title>103F2DED-D1A2-4EA8-A861-99CE974381C7</title>
    <g id="Squat-laskuri" stroke="none" stroke-width="1" fill="none" fill-rule="evenodd">
        <g id="colors_and_typography" transform="translate(-718.000000, -1098.000000)">
            <g id="turvalaite_ikonit" transform="translate(718.000000, 906.000000)">
                <g id="majakka" transform="translate(0.000000, 192.000000)">
                    <path d="M14.04,12.5885714 L15.9828571,2.30285714 L17.9657143,12.5885714 L27.8685714,9.16 L19.9428571,16.0171429 L27.8685714,22.8342857 L17.9657143,19.4057143 L15.9828571,29.6914286 L14.04,19.4057143 L4.13714286,22.8342857 L12.0628571,16.0171429 L4.13142857,9.16 L14.0342857,12.5885714 L14.04,12.5885714 Z M15.9828571,14.1142857 C15.4742857,14.1142857 15.0342857,14.2971429 14.6685714,14.6685714 C14.2971429,15.0342857 14.1142857,15.4857143 14.1142857,16.0228571 C14.1142857,16.56 14.2971429,16.9714286 14.6685714,17.3371429 C15.0342857,17.7028571 15.4742857,17.8914286 15.9828571,17.8914286 C16.5142857,17.8914286 16.9657143,17.7085714 17.3371429,17.3371429 C17.7085714,16.9657143 17.8914286,16.5314286 17.8914286,16.0228571 C17.8914286,15.4914286 17.7085714,15.04 17.3371429,14.6685714 C16.9714286,14.3028571 16.52,14.1142857 15.9828571,14.1142857 Z" id="Shape" fill="#231F20" fill-rule="nonzero"></path>
                    <rect id="Rectangle" x="0" y="0" width="32" height="32"></rect>
                </g>
            </g>
        </g>
    </g>
</svg>