<svg width="32" height="32" viewBox="0 0 32 32" xmlns="http://www.w3.org/2000/svg">
  <g fill="none" fill-rule="evenodd">
    <path d="m14.04 12.5885714 1.9428571-10.28571426 1.9828572 10.28571426L27.8685714 9.16l-7.9257143 6.8571429 7.9257143 6.8171428-9.9028571-3.4285714-1.9828572 10.2857143L14.04 19.4057143l-9.90285714 3.4285714 7.92571424-6.8171428L4.13142857 9.16l9.90285713 3.4285714H14.04Zm1.9428571 1.5257143c-.5085714 0-.9485714.1828572-1.3142857.5542857-.3714285.3657143-.5542857.8171429-.5542857 1.3542857 0 .5371429.1828572.9485715.5542857 1.3142858.3657143.3657142.8057143.5542857 1.3142857.5542857.5314286 0 .9828572-.1828572 1.3542858-.5542857.3714285-.3714286.5542857-.8057143.5542857-1.3142858 0-.5314285-.1828572-.9828571-.5542857-1.3542857-.3657143-.3657143-.8171429-.5542857-1.3542858-.5542857Z" fill="#EC0E0E" fill-rule="nonzero"/>
    <path d="M0 0h32v32H0z"/>
  </g>
</svg>
