<?xml version="1.0" encoding="UTF-8"?>
<svg width="24px" height="24px" viewBox="0 0 24 24" version="1.1" xmlns="http://www.w3.org/2000/svg" xmlns:xlink="http://www.w3.org/1999/xlink">
    <title>49E46CAA-C3F2-4235-A066-731824DCAF25</title>
    <g id="Squat-laskuri" stroke="none" stroke-width="1" fill="none" fill-rule="evenodd">
        <g id="colors_and_typography" transform="translate(-1250.000000, -962.000000)">
            <g id="turvalaite_ikonit" transform="translate(722.000000, 914.000000)">
                <g id="Asset-51" transform="translate(528.000000, 48.000000)">
                    <rect id="Rectangle" x="0" y="0" width="24" height="24"></rect>
                    <path style="fill: red;" d="M3.12,6.81 L3.15,6.61 L3.21,6.44 L3.35,6.21 L3.55,5.95 L3.78,5.78 L4.04,5.64 L4.33,5.53 L4.59,5.5 L4.87,5.44 L5.16,5.5 L5.3,5.59 L7.16,9.16 L9.79,14.19 L9.56,14.25 L9.36,14.36 L9.1,14.47 L8.87,14.59 L8.61,14.76 L8.35,15.02 L3.12,6.81 Z M12,17.83 C12.86,17.83 13.58,18.13 14.18,18.74 C14.78,19.35 15.08,20.07 15.08,20.91 C15.08,21.75 14.78,22.5 14.18,23.09 C13.58,23.69 12.85,23.99 12,23.99 C11.15,23.99 10.42,23.69 9.82,23.09 C9.22,22.49 8.92,21.76 8.92,20.91 C8.92,20.06 9.22,19.35 9.82,18.74 C10.42,18.13 11.15,17.83 12,17.83 L12,17.83 Z M10.77,4.01 L10.88,3.84 L11,3.72 L11.26,3.61 L11.55,3.47 L11.84,3.44 L12.12,3.47 L12.43,3.5 L12.66,3.59 L12.94,3.7 L13.14,3.9 L13.23,4.04 L13.09,8.04 L12.83,13.72 L12.6,13.66 L12.37,13.63 L12.08,13.6 L11.85,13.6 L11.54,13.63 L11.2,13.72 L10.77,4.01 L10.77,4.01 Z M18.74,5.55 L18.91,5.49 L19.08,5.43 L19.34,5.43 L19.68,5.49 L19.94,5.61 L20.2,5.78 L20.43,5.95 L20.6,6.15 L20.77,6.38 L20.86,6.66 L20.89,6.8 L18.72,10.2 L15.69,15 L15.52,14.83 L15.32,14.72 L15.09,14.55 L14.86,14.43 L14.6,14.29 L14.26,14.18 L18.74,5.56 L18.74,5.55 Z" id="Shape"></path>
                </g>
            </g>
        </g>
    </g>
</svg>