<?xml version="1.0" encoding="UTF-8"?>
<svg width="32px" height="32px" viewBox="0 0 32 32" version="1.1" xmlns="http://www.w3.org/2000/svg" xmlns:xlink="http://www.w3.org/1999/xlink">
    <title>49E46CAA-C3F2-4235-A066-731824DCAF25</title>
    <g id="Squat-laskuri" stroke="none" stroke-width="1" fill="none" fill-rule="evenodd">
        <g id="colors_and_typography" transform="translate(-766.000000, -1098.000000)">
            <g id="turvalaite_ikonit" transform="translate(718.000000, 906.000000)">
                <g id="Asset-51" transform="translate(48.000000, 192.000000)">
                    <rect id="Rectangle" x="0" y="0" width="32" height="32"></rect>
                    <path d="M4.16,9.08 L4.2,8.81333333 L4.28,8.58666667 L4.46666667,8.28 L4.73333333,7.93333333 L5.04,7.70666667 L5.38666667,7.52 L5.77333333,7.37333333 L6.12,7.33333333 L6.49333333,7.25333333 L6.88,7.33333333 L7.06666667,7.45333333 L9.54666667,12.2133333 L13.0533333,18.92 L12.7466667,19 L12.48,19.1466667 L12.1333333,19.2933333 L11.8266667,19.4533333 L11.48,19.68 L11.1333333,20.0266667 L4.16,9.08 Z M16,23.7733333 C17.1466667,23.7733333 18.1066667,24.1733333 18.9066667,24.9866667 C19.7066667,25.8 20.1066667,26.76 20.1066667,27.88 C20.1066667,29 19.7066667,30 18.9066667,30.7866667 C18.1066667,31.5866667 17.1333333,31.9866667 16,31.9866667 C14.8666667,31.9866667 13.8933333,31.5866667 13.0933333,30.7866667 C12.2933333,29.9866667 11.8933333,29.0133333 11.8933333,27.88 C11.8933333,26.7466667 12.2933333,25.8 13.0933333,24.9866667 C13.8933333,24.1733333 14.8666667,23.7733333 16,23.7733333 L16,23.7733333 Z M14.36,5.34666667 L14.5066667,5.12 L14.6666667,4.96 L15.0133333,4.81333333 L15.4,4.62666667 L15.7866667,4.58666667 L16.16,4.62666667 L16.5733333,4.66666667 L16.88,4.78666667 L17.2533333,4.93333333 L17.52,5.2 L17.64,5.38666667 L17.4533333,10.72 L17.1066667,18.2933333 L16.8,18.2133333 L16.4933333,18.1733333 L16.1066667,18.1333333 L15.8,18.1333333 L15.3866667,18.1733333 L14.9333333,18.2933333 L14.36,5.34666667 L14.36,5.34666667 Z M24.9866667,7.4 L25.2133333,7.32 L25.44,7.24 L25.7866667,7.24 L26.24,7.32 L26.5866667,7.48 L26.9333333,7.70666667 L27.24,7.93333333 L27.4666667,8.2 L27.6933333,8.50666667 L27.8133333,8.88 L27.8533333,9.06666667 L24.96,13.6 L20.92,20 L20.6933333,19.7733333 L20.4266667,19.6266667 L20.12,19.4 L19.8133333,19.24 L19.4666667,19.0533333 L19.0133333,18.9066667 L24.9866667,7.41333333 L24.9866667,7.4 Z" id="Shape" fill="#231F20" fill-rule="nonzero"></path>
                </g>
            </g>
        </g>
    </g>
</svg>