<?xml version="1.0" encoding="UTF-8"?>
<svg width="24px" height="24px" viewBox="0 0 24 24" version="1.1" xmlns="http://www.w3.org/2000/svg" xmlns:xlink="http://www.w3.org/1999/xlink">
    <title>CDEE0DBA-C250-4E2C-8E31-2320D464D10E</title>
    <g id="Squat-laskuri" stroke="none" stroke-width="1" fill="none" fill-rule="evenodd">
        <g id="colors_and_typography" transform="translate(-722.000000, -1106.000000)">
            <g id="turvalaite_ikonit" transform="translate(722.000000, 914.000000)">
                <g id="Asset-52" transform="translate(0.000000, 192.000000)">
                    <rect id="Rectangle" x="0" y="0" width="24" height="24"></rect>
                    <path d="M12,2.01 C13.37,2.01 14.55,2.5 15.53,3.48 C16.51,4.46 17,5.64 17,7.01 C17,8.38 16.51,9.58 15.53,10.55 C14.55,11.52 13.37,12.01 12,12.01 C10.63,12.01 9.45,11.52 8.47,10.55 C7.49,9.58 7,8.4 7,7.01 C7,5.62 7.49,4.46 8.47,3.48 C9.45,2.5 10.63,2.01 12,2.01 L12,2.01 Z M12,2.72 C10.8,2.72 9.79,3.14 8.96,3.99 C8.13,4.84 7.72,5.84 7.72,7 C7.72,8.16 8.13,9.21 8.96,10.04 C9.79,10.87 10.8,11.28 12,11.28 C13.2,11.28 14.19,10.87 15.03,10.04 C15.87,9.21 16.29,8.2 16.29,7 C16.29,5.8 15.87,4.84 15.03,3.99 C14.19,3.14 13.18,2.72 12,2.72 Z M12,3.43 C12.46,3.43 12.86,3.6 13.2,3.94 C13.54,4.28 13.71,4.68 13.71,5.14 C13.71,5.6 13.54,6.02 13.2,6.35 C12.86,6.68 12.46,6.85 12,6.85 C11.54,6.85 11.12,6.68 10.79,6.35 C10.46,6.02 10.29,5.61 10.29,5.14 C10.29,4.67 10.46,4.28 10.79,3.94 C11.12,3.6 11.53,3.43 12,3.43 Z M12,7.14 C11.52,7.14 11.12,7.31 10.79,7.66 C10.46,8 10.29,8.4 10.29,8.86 C10.29,9.32 10.46,9.74 10.79,10.07 C11.12,10.4 11.53,10.57 12,10.57 C12.47,10.57 12.86,10.4 13.2,10.07 C13.54,9.74 13.71,9.33 13.71,8.86 C13.71,8.39 13.54,8 13.2,7.66 C12.86,7.32 12.46,7.14 12,7.14 L12,7.14 Z M12,20.84 C11.56,20.84 11.19,20.99 10.89,21.3 C10.59,21.61 10.43,21.98 10.43,22.41 C10.43,22.84 10.58,23.22 10.89,23.52 C11.2,23.82 11.57,23.98 12,23.98 C12.43,23.98 12.78,23.83 13.1,23.52 C13.42,23.21 13.57,22.84 13.57,22.41 C13.57,21.98 13.41,21.6 13.1,21.3 C12.79,21 12.42,20.84 12,20.84 Z M12,21.27 C11.24,21.27 10.86,21.65 10.86,22.41 C10.86,23.17 11.24,23.55 12,23.55 C12.76,23.55 13.14,23.17 13.14,22.41 C13.14,21.65 12.76,21.27 12,21.27 Z M11.57,6.85 L12.43,6.85 L12.43,7.13 L11.57,7.13 L11.57,6.85 Z M11.57,10.56 L12.43,10.56 L12.43,11.27 L11.57,11.27 L11.57,10.56 Z M11.57,12.05 L12.43,12.05 L12.43,20.84 L11.57,20.84 L11.57,12.07 L11.57,12.05 Z M12,21.99 C12.29,21.99 12.43,22.13 12.43,22.42 C12.43,22.71 12.29,22.85 12,22.85 C11.71,22.85 11.57,22.71 11.57,22.42 C11.57,22.13 11.71,21.99 12,21.99 Z" id="Shape" fill="#EC0E0E" fill-rule="nonzero"></path>
                </g>
            </g>
        </g>
    </g>
</svg>