<svg width="32" height="32" viewBox="0 0 32 32" xmlns="http://www.w3.org/2000/svg">
  <g fill="none" fill-rule="evenodd">
    <path d="M0 0h32v32H0z"/>
    <path d="M16 4.57333333c.6133333 0 1.1466667.22666667 1.6.68.4533333.45333334.68.98666667.68 1.6 0 .61333334-.2266667 1.17333334-.68 1.61333334-.4533333.44-.9866667.66666666-1.6.66666666-.6133333 0-1.1733333-.22666666-1.6133333-.66666666-.44-.44-.6666667-.98666667-.6666667-1.61333334 0-.62666666.2266667-1.14666666.6666667-1.6.44-.45333333.9866666-.68 1.6133333-.68ZM16 9.52c-.64 0-1.1733333.22666667-1.6133333.6933333-.44.4533334-.6666667.9866667-.6666667 1.6 0 .6133334.2266667 1.1733334.6666667 1.6266667.44.44.9866666.6666667 1.6133333.6666667.6266667 0 1.1466667-.2266667 1.6-.6666667.4533333-.44.68-.9866667.68-1.6266667 0-.64-.2266667-1.1466666-.68-1.6C17.1466667 9.76 16.6133333 9.52 16 9.52Zm0 18.28c-.5866667 0-1.08.2-1.48.6133333-.4.4133334-.6133333.9066667-.6133333 1.48 0 .5733334.2 1.08.6133333 1.48.4133333.4.9066667.6133334 1.48.6133334.5733333 0 1.0533333-.2 1.4666667-.6133334.4133333-.4133333.6266666-.9066666.6266666-1.48 0-.5733333-.2133333-1.08-.6266666-1.48C17.0533333 28.0133333 16.56 27.8 16 27.8Zm0 .5733333c-1.0133333 0-1.52.5066667-1.52 1.52 0 1.0133334.5066667 1.52 1.52 1.52s1.52-.5066666 1.52-1.52c0-1.0133333-.5066667-1.52-1.52-1.52Zm-.5733333-19.23999997h1.1466666v.37333334h-1.1466666v-.37333334Zm0 4.94666667h1.1466666V27.8h-1.1466666V14.08ZM16 29.32c.3866667 0 .5733333.1866667.5733333.5733333 0 .3866667-.1866666.5733334-.5733333.5733334-.3866667 0-.5733333-.1866667-.5733333-.5733334 0-.3866666.1866666-.5733333.5733333-.5733333Z" fill="#EC0E0E" fill-rule="nonzero"/>
  </g>
</svg>
