<?xml version="1.0" encoding="UTF-8"?>
<svg width="24px" height="24px" viewBox="0 0 24 24" version="1.1" xmlns="http://www.w3.org/2000/svg" xmlns:xlink="http://www.w3.org/1999/xlink">
    <title>FC6EFD59-FCE9-40D6-992C-E239EC5A1350</title>
    <g id="Squat-laskuri" stroke="none" stroke-width="1" fill="none" fill-rule="evenodd">
        <g id="colors_and_typography" transform="translate(-770.000000, -1106.000000)">
            <g id="turvalaite_ikonit" transform="translate(722.000000, 914.000000)">
                <g id="Asset-53" transform="translate(48.000000, 192.000000)">
                    <rect id="Rectangle" x="0" y="0" width="24" height="24"></rect>
                    <path style="fill: red;" d="M12,3.43 C12.46,3.43 12.86,3.6 13.2,3.94 C13.54,4.28 13.71,4.68 13.71,5.14 C13.71,5.6 13.54,6.02 13.2,6.35 C12.86,6.68 12.46,6.85 12,6.85 C11.54,6.85 11.12,6.68 10.79,6.35 C10.46,6.02 10.29,5.61 10.29,5.14 C10.29,4.67 10.46,4.28 10.79,3.94 C11.12,3.6 11.53,3.43 12,3.43 L12,3.43 Z M12,7.14 C11.52,7.14 11.12,7.31 10.79,7.66 C10.46,8 10.29,8.4 10.29,8.86 C10.29,9.32 10.46,9.74 10.79,10.08 C11.12,10.41 11.53,10.58 12,10.58 C12.47,10.58 12.86,10.41 13.2,10.08 C13.54,9.75 13.71,9.34 13.71,8.86 C13.71,8.38 13.54,8 13.2,7.66 C12.86,7.32 12.46,7.14 12,7.14 L12,7.14 Z M12,20.85 C11.56,20.85 11.19,21 10.89,21.31 C10.59,21.62 10.43,21.99 10.43,22.42 C10.43,22.85 10.58,23.23 10.89,23.53 C11.2,23.83 11.57,23.99 12,23.99 C12.43,23.99 12.79,23.84 13.1,23.53 C13.41,23.22 13.57,22.85 13.57,22.42 C13.57,21.99 13.41,21.61 13.1,21.31 C12.79,21.01 12.42,20.85 12,20.85 Z M12,21.28 C11.24,21.28 10.86,21.66 10.86,22.42 C10.86,23.18 11.24,23.56 12,23.56 C12.76,23.56 13.14,23.18 13.14,22.42 C13.14,21.66 12.76,21.28 12,21.28 Z M11.57,6.85 L12.43,6.85 L12.43,7.13 L11.57,7.13 L11.57,6.85 Z M11.57,10.56 L12.43,10.56 L12.43,20.85 L11.57,20.85 L11.57,10.57 L11.57,10.56 Z M12,21.99 C12.29,21.99 12.43,22.13 12.43,22.42 C12.43,22.71 12.29,22.85 12,22.85 C11.71,22.85 11.57,22.71 11.57,22.42 C11.57,22.13 11.71,21.99 12,21.99 Z" id="Shape"></path>
                </g>
            </g>
        </g>
    </g>
</svg>