<?xml version="1.0" encoding="UTF-8"?>
<svg width="32px" height="32px" viewBox="0 0 32 32" version="1.1" xmlns="http://www.w3.org/2000/svg" xmlns:xlink="http://www.w3.org/1999/xlink">
    <title>FC6EFD59-FCE9-40D6-992C-E239EC5A1350</title>
    <g id="Squat-laskuri" stroke="none" stroke-width="1" fill="none" fill-rule="evenodd">
        <g id="colors_and_typography" transform="translate(-862.000000, -1098.000000)">
            <g id="turvalaite_ikonit" transform="translate(718.000000, 906.000000)">
                <g id="Asset-53" transform="translate(144.000000, 192.000000)">
                    <rect id="Rectangle" x="0" y="0" width="32" height="32"></rect>
                    <path d="M16,4.57333333 C16.6133333,4.57333333 17.1466667,4.8 17.6,5.25333333 C18.0533333,5.70666667 18.28,6.24 18.28,6.85333333 C18.28,7.46666667 18.0533333,8.02666667 17.6,8.46666667 C17.1466667,8.90666667 16.6133333,9.13333333 16,9.13333333 C15.3866667,9.13333333 14.8266667,8.90666667 14.3866667,8.46666667 C13.9466667,8.02666667 13.72,7.48 13.72,6.85333333 C13.72,6.22666667 13.9466667,5.70666667 14.3866667,5.25333333 C14.8266667,4.8 15.3733333,4.57333333 16,4.57333333 L16,4.57333333 Z M16,9.52 C15.36,9.52 14.8266667,9.74666667 14.3866667,10.2133333 C13.9466667,10.6666667 13.72,11.2 13.72,11.8133333 C13.72,12.4266667 13.9466667,12.9866667 14.3866667,13.44 C14.8266667,13.88 15.3733333,14.1066667 16,14.1066667 C16.6266667,14.1066667 17.1466667,13.88 17.6,13.44 C18.0533333,13 18.28,12.4533333 18.28,11.8133333 C18.28,11.1733333 18.0533333,10.6666667 17.6,10.2133333 C17.1466667,9.76 16.6133333,9.52 16,9.52 L16,9.52 Z M16,27.8 C15.4133333,27.8 14.92,28 14.52,28.4133333 C14.12,28.8266667 13.9066667,29.32 13.9066667,29.8933333 C13.9066667,30.4666667 14.1066667,30.9733333 14.52,31.3733333 C14.9333333,31.7733333 15.4266667,31.9866667 16,31.9866667 C16.5733333,31.9866667 17.0533333,31.7866667 17.4666667,31.3733333 C17.88,30.96 18.0933333,30.4666667 18.0933333,29.8933333 C18.0933333,29.32 17.88,28.8133333 17.4666667,28.4133333 C17.0533333,28.0133333 16.56,27.8 16,27.8 Z M16,28.3733333 C14.9866667,28.3733333 14.48,28.88 14.48,29.8933333 C14.48,30.9066667 14.9866667,31.4133333 16,31.4133333 C17.0133333,31.4133333 17.52,30.9066667 17.52,29.8933333 C17.52,28.88 17.0133333,28.3733333 16,28.3733333 Z M15.4266667,9.13333333 L16.5733333,9.13333333 L16.5733333,9.50666667 L15.4266667,9.50666667 L15.4266667,9.13333333 Z M15.4266667,14.08 L16.5733333,14.08 L16.5733333,27.8 L15.4266667,27.8 L15.4266667,14.0933333 L15.4266667,14.08 Z M16,29.32 C16.3866667,29.32 16.5733333,29.5066667 16.5733333,29.8933333 C16.5733333,30.28 16.3866667,30.4666667 16,30.4666667 C15.6133333,30.4666667 15.4266667,30.28 15.4266667,29.8933333 C15.4266667,29.5066667 15.6133333,29.32 16,29.32 Z" id="Shape" fill="#231F20" fill-rule="nonzero"></path>
                </g>
            </g>
        </g>
    </g>
</svg>