<?xml version="1.0" encoding="UTF-8"?>
<svg width="24px" height="24px" viewBox="0 0 24 24" version="1.1" xmlns="http://www.w3.org/2000/svg" xmlns:xlink="http://www.w3.org/1999/xlink">
    <title>5674C6BE-79D0-42F5-8314-D9422A9A9A96</title>
    <g id="Squat-laskuri" stroke="none" stroke-width="1" fill="none" fill-rule="evenodd">
        <g id="colors_and_typography" transform="translate(-818.000000, -1106.000000)">
            <g id="turvalaite_ikonit" transform="translate(722.000000, 914.000000)">
                <g id="Asset-54" transform="translate(96.000000, 192.000000)">
                    <rect id="Rectangle" x="0" y="0" width="24" height="24"></rect>
                    <path d="M12,2.01 C13.37,2.01 14.55,2.5 15.53,3.48 C16.51,4.46 17,5.64 17,7.01 C17,8.38 16.51,9.58 15.53,10.55 C14.55,11.52 13.37,12.01 12,12.01 C10.63,12.01 9.45,11.52 8.47,10.55 C7.49,9.58 7,8.4 7,7.01 C7,5.62 7.49,4.46 8.47,3.48 C9.45,2.5 10.63,2.01 12,2.01 L12,2.01 Z M12,2.72 C10.8,2.72 9.79,3.14 8.96,3.99 C8.13,4.84 7.72,5.84 7.72,7 C7.72,8.16 8.13,9.21 8.96,10.04 C9.79,10.87 10.8,11.28 12,11.28 C13.2,11.28 14.19,10.87 15.03,10.04 C15.87,9.21 16.29,8.2 16.29,7 C16.29,5.8 15.87,4.84 15.03,3.99 C14.19,3.14 13.18,2.72 12,2.72 Z M9.72,4.72 L14.29,4.72 L14.29,9.29 L9.72,9.29 L9.72,4.73 L9.72,4.72 Z M12,20.85 C11.56,20.85 11.19,21 10.89,21.31 C10.59,21.62 10.43,21.99 10.43,22.42 C10.43,22.85 10.58,23.23 10.89,23.53 C11.2,23.83 11.57,23.99 12,23.99 C12.43,23.99 12.78,23.84 13.1,23.53 C13.42,23.22 13.57,22.85 13.57,22.42 C13.57,21.99 13.41,21.61 13.1,21.31 C12.79,21.01 12.42,20.85 12,20.85 Z M10.57,5.58 L10.57,8.43 L13.42,8.43 L13.42,5.58 L10.57,5.58 Z M12,21.28 C11.24,21.28 10.86,21.66 10.86,22.42 C10.86,23.18 11.24,23.56 12,23.56 C12.76,23.56 13.14,23.18 13.14,22.42 C13.14,21.66 12.76,21.28 12,21.28 Z M11.57,9.29 L11.57,11.29 L12.43,11.29 L12.43,9.29 L11.57,9.29 Z M11.57,12.06 L12.43,12.06 L12.43,20.85 L11.57,20.85 L11.57,12.07 L11.57,12.06 Z M12,22 C12.29,22 12.43,22.14 12.43,22.43 C12.43,22.72 12.29,22.86 12,22.86 C11.71,22.86 11.57,22.72 11.57,22.43 C11.57,22.14 11.71,22 12,22 Z" id="Shape" fill="#231F20" fill-rule="nonzero"></path>
                </g>
            </g>
        </g>
    </g>
</svg>