<?xml version="1.0" encoding="UTF-8"?>
<svg width="24px" height="24px" viewBox="0 0 24 24" version="1.1" xmlns="http://www.w3.org/2000/svg" xmlns:xlink="http://www.w3.org/1999/xlink">
    <title>5C64AD6E-844F-4465-82AD-129751989746</title>
    <g id="Squat-laskuri" stroke="none" stroke-width="1" fill="none" fill-rule="evenodd">
        <g id="colors_and_typography" transform="translate(-962.000000, -1106.000000)">
            <g id="turvalaite_ikonit" transform="translate(722.000000, 914.000000)">
                <g id="Asset-57" transform="translate(240.000000, 192.000000)">
                    <rect id="Rectangle" x="0" y="0" width="24" height="24"></rect>
                    <path style="fill: red;" d="M15.31,9.01 L8.69,9.01 L12,3.3 L15.31,9.01 L15.31,9.01 Z M12,20.86 C11.56,20.86 11.19,21.01 10.89,21.32 C10.59,21.63 10.43,22 10.43,22.43 C10.43,22.86 10.58,23.24 10.89,23.54 C11.2,23.84 11.57,24 12,24 C12.43,24 12.78,23.85 13.1,23.54 C13.42,23.23 13.57,22.86 13.57,22.43 C13.57,22 13.41,21.62 13.1,21.32 C12.79,21.02 12.42,20.86 12,20.86 Z M12,21.29 C11.24,21.29 10.86,21.67 10.86,22.43 C10.86,23.19 11.24,23.57 12,23.57 C12.76,23.57 13.14,23.19 13.14,22.43 C13.14,21.67 12.76,21.29 12,21.29 Z M11.57,9.02 L11.57,20.87 L12.43,20.87 L12.43,9.01 L11.57,9.01 L11.57,9.02 Z M12,22.01 C12.29,22.01 12.43,22.15 12.43,22.44 C12.43,22.73 12.29,22.87 12,22.87 C11.71,22.87 11.57,22.73 11.57,22.44 C11.57,22.15 11.71,22.01 12,22.01 Z" id="Shape"></path>
                </g>
            </g>
        </g>
    </g>
</svg>