<svg width="32" height="32" viewBox="0 0 32 32" xmlns="http://www.w3.org/2000/svg">
  <g fill="none" fill-rule="evenodd">
    <path d="M16 4.18857143c1.8285714 0 3.3942857.65142857 4.7028571 1.96 1.3085715 1.30857143 1.96 2.87428571 1.96 4.70285717 0 1.8285714-.6514285 3.4285714-1.96 4.7257143C19.3942857 16.8742857 17.8285714 17.52 16 17.52s-3.3942857-.6457143-4.7028571-1.9428571C9.98857143 14.28 9.33714286 12.7085714 9.33714286 10.8514286c0-1.85714289.65142857-3.39428574 1.96000004-4.70285717 1.3085714-1.30857143 2.8742857-1.96 4.7028571-1.96Zm0 .95428571c-1.6 0-2.9542857.56571429-4.0571429 1.69714286C10.84 7.97142857 10.2857143 9.30857143 10.2857143 10.8571429c0 1.5485714.5542857 2.9542857 1.6571428 4.0571428C13.0457143 16.0171429 14.4 16.5714286 16 16.5714286c1.6 0 2.92-.5542857 4.04-1.6571429 1.12-1.1028571 1.6742857-2.4571428 1.6742857-4.0571428 0-1.60000004-.56-2.88571433-1.6742857-4.0171429-1.12-1.13142857-2.4628571-1.69714286-4.04-1.69714286ZM11.24 30.8571429h9.5257143V32H11.24v-1.1428571Zm1.7142857-23.04571433h6.0971429v6.09714283h-6.0971429V7.81142857Zm1.1428572 1.14285714v3.81142859h3.8114285V8.95428571h-3.8114285Zm1.3314285 4.95428569v2.6685715h1.1428572v-2.6685715h-1.1428572Zm0 3.6971429h1.1428572v13.2571428h-1.1428572V17.6v.0057143Z" fill="#EC0E0E" fill-rule="nonzero"/>
    <path d="M0 0h32v32H0z"/>
  </g>
</svg>
