<?xml version="1.0" encoding="UTF-8"?>
<svg width="24px" height="24px" viewBox="0 0 24 24" version="1.1" xmlns="http://www.w3.org/2000/svg" xmlns:xlink="http://www.w3.org/1999/xlink">
    <title>3E382ABE-EBED-42D7-B86C-8C2BD7FB3C99</title>
    <g id="Squat-laskuri" stroke="none" stroke-width="1" fill="none" fill-rule="evenodd">
        <g id="colors_and_typography" transform="translate(-722.000000, -914.000000)">
            <g id="lateraali_vasen_valaistu" transform="translate(722.000000, 914.000000)">
                <path d="M12,3.14142857 C13.3714286,3.14142857 14.5457143,3.63 15.5271429,4.61142857 C16.5085714,5.59285714 16.9971429,6.76714286 16.9971429,8.13857143 C16.9971429,9.51 16.5085714,10.71 15.5271429,11.6828571 C14.5457143,12.6557143 13.3714286,13.14 12,13.14 C10.6285714,13.14 9.45428571,12.6557143 8.47285714,11.6828571 C7.49142857,10.71 7.00285714,9.53142857 7.00285714,8.13857143 C7.00285714,6.74571429 7.49142857,5.59285714 8.47285714,4.61142857 C9.45428571,3.63 10.6285714,3.14142857 12,3.14142857 L12,3.14142857 Z M12,3.85714286 C10.8,3.85714286 9.78428571,4.28142857 8.95714286,5.13 C8.13,5.97857143 7.71428571,6.98142857 7.71428571,8.14285714 C7.71428571,9.30428571 8.13,10.3585714 8.95714286,11.1857143 C9.78428571,12.0128571 10.8,12.4285714 12,12.4285714 C13.2,12.4285714 14.19,12.0128571 15.03,11.1857143 C15.87,10.3585714 16.2857143,9.34285714 16.2857143,8.14285714 C16.2857143,6.94285714 15.8657143,5.97857143 15.03,5.13 C14.19,4.28142857 13.1828571,3.85714286 12,3.85714286 Z M8.43,23.1428571 L15.5742857,23.1428571 L15.5742857,24 L8.43,24 L8.43,23.1428571 Z M9.71571429,5.85857143 L14.2885714,5.85857143 L14.2885714,10.4314286 L9.71571429,10.4314286 L9.71571429,5.85857143 Z M10.5728571,6.71571429 L10.5728571,9.57428571 L13.4314286,9.57428571 L13.4314286,6.71571429 L10.5728571,6.71571429 L10.5728571,6.71571429 Z M11.5714286,10.4314286 L11.5714286,12.4328571 L12.4285714,12.4328571 L12.4285714,10.4314286 L11.5714286,10.4314286 Z M11.5714286,13.2042857 L12.4285714,13.2042857 L12.4285714,23.1471429 L11.5714286,23.1471429 L11.5714286,13.2 L11.5714286,13.2042857 Z" id="Shape" fill="#EC0E0E" fill-rule="nonzero"></path>
                <rect id="Rectangle" x="0" y="0" width="24" height="24"></rect>
            </g>
        </g>
    </g>
</svg>