<?xml version="1.0" encoding="UTF-8"?>
<svg width="22px" height="31px" viewBox="0 0 19 31" version="1.1" xmlns="http://www.w3.org/2000/svg" xmlns:xlink="http://www.w3.org/1999/xlink">
    <title>2FE7B074-09A7-4119-9B2B-B574A59DBC09</title>
    <defs>
        <text id="text-1" font-family="Exo2-Regular, Exo 2" font-size="12" font-weight="normal" fill="#FF00FF">
            <tspan x="0.33" y="27.7720374">AIS</tspan>
        </text>
        <filter x="-2.7%" y="20.2%" width="101.7%" height="71.9%" filterUnits="objectBoundingBox" id="filter-2">
            <feMorphology radius="0.25" operator="dilate" in="SourceAlpha" result="shadowSpreadOuter1"></feMorphology>
            <feOffset dx="0" dy="0" in="shadowSpreadOuter1" result="shadowOffsetOuter1"></feOffset>
            <feColorMatrix values="0 0 0 0 1   0 0 0 0 1   0 0 0 0 1  0 0 0 0.75 0" type="matrix" in="shadowOffsetOuter1"></feColorMatrix>
        </filter>
        <path d="M17,7.74801648 C17,12.1662945 13.418278,15.7480165 9,15.7480165 C4.581722,15.7480165 1,12.1662945 1,7.74801648 C1,4.02026563 3.54964405,0.888016055 7.00019992,-1.93594618e-13 L7,1.18703739 C7.66666667,0.989594879 8.33333333,0.890873624 9,0.890873624 C9.66666667,0.890873624 10.3333333,0.989594879 11,1.18703739 L11.0009436,0.000294384193 C14.4509192,0.888708112 17,4.02067744 17,7.74801648 Z M9,0.890873624 C8.61018389,0.890873624 8.22796502,0.923401234 7.85590952,0.9858903 C4.6134154,1.53048764 2.14285714,4.35073716 2.14285714,7.74801648 C2.14285714,11.5351119 5.21290457,14.6051593 9,14.6051593 C12.7870954,14.6051593 15.8571429,11.5351119 15.8571429,7.74801648 C15.8571429,4.35081228 13.3866939,1.53061236 10.1443056,0.985926431 C9.7721823,0.923413772 9.38989123,0.890873624 9,0.890873624 Z" id="path-3"></path>
        <filter x="-4.7%" y="-5.6%" width="109.4%" height="110.3%" filterUnits="objectBoundingBox" id="filter-4">
            <feMorphology radius="0.25" operator="dilate" in="SourceAlpha" result="shadowSpreadOuter1"></feMorphology>
            <feOffset dx="0" dy="0" in="shadowSpreadOuter1" result="shadowOffsetOuter1"></feOffset>
            <feColorMatrix values="0 0 0 0 1   0 0 0 0 1   0 0 0 0 1  0 0 0 0.75 0" type="matrix" in="shadowOffsetOuter1"></feColorMatrix>
        </filter>
    </defs>
    <g id="Squat-laskuri" stroke="none" stroke-width="1" fill="none" fill-rule="evenodd">
        <g id="colors_and_typography" transform="translate(-1266.000000, -1351.000000)">
            <g id="ais_turvalaite-copy" transform="translate(1267.000000, 1352.227963)">
                <g id="AIS" fill="#FF00FF" fill-opacity="1">
                    <use filter="url(#filter-2)" xlink:href="#text-1"></use>
                    <use xlink:href="#text-1"></use>
                </g>
                <g id="Oval-Copy" fill-rule="nonzero">
                    <use fill="black" fill-opacity="1" filter="url(#filter-4)" xlink:href="#path-3"></use>
                    <use fill="#FF00FF" xlink:href="#path-3"></use>
                </g>
            </g>
        </g>
    </g>
</svg>