<?xml version="1.0" encoding="UTF-8"?>
<svg width="24px" height="24px" viewBox="0 0 24 24" version="1.1" xmlns="http://www.w3.org/2000/svg" xmlns:xlink="http://www.w3.org/1999/xlink">
    <title>2111545C-250E-46AA-965C-AB3CDF3A6B33</title>
    <g id="Squat-laskuri" stroke="none" stroke-width="1" fill="none" fill-rule="evenodd">
        <g id="colors_and_typography" transform="translate(-914.000000, -914.000000)">
            <g id="turvalaite_ikonit" transform="translate(722.000000, 914.000000)">
                <g id="kardinaali_pohjoinen_valaistu" transform="translate(192.000000, 0.000000)">
                    <path d="M12,3.14142857 C13.3714286,3.14142857 14.5457143,3.63 15.5271429,4.61142857 C16.5085714,5.59285714 16.9971429,6.76714286 16.9971429,8.13857143 C16.9971429,9.51 16.5085714,10.6885714 15.5271429,11.6657143 C14.5457143,12.6471429 13.3714286,13.1357143 12,13.1357143 C10.6285714,13.1357143 9.45428571,12.6471429 8.47285714,11.6657143 C7.49142857,10.6842857 7.00285714,9.51 7.00285714,8.13857143 C7.00285714,6.76714286 7.49142857,5.59285714 8.47285714,4.61142857 C9.45428571,3.63 10.6285714,3.14142857 12,3.14142857 L12,3.14142857 Z M12,3.85714286 C10.8,3.85714286 9.78428571,4.27714286 8.95714286,5.11285714 C8.13,5.95285714 7.71428571,6.96 7.71428571,8.14285714 C7.71428571,9.32571429 8.13,10.3328571 8.95714286,11.1728571 C9.78428571,12.0128571 10.8,12.4285714 12,12.4285714 C13.2,12.4285714 14.19,12.0085714 15.03,11.1728571 C15.87,10.3328571 16.2857143,9.32571429 16.2857143,8.14285714 C16.2857143,6.96 15.8657143,5.95285714 15.03,5.11285714 C14.19,4.27285714 13.1828571,3.85714286 12,3.85714286 Z M8.43,23.1428571 L15.5742857,23.1428571 L15.5742857,24 L8.43,24 L8.43,23.1428571 Z M14.0014286,8.00142857 L10.0028571,8.00142857 L12.0042857,4.57285714 L14.0057143,8.00142857 L14.0014286,8.00142857 Z M14.0014286,11.43 L10.0028571,11.43 L12.0042857,8.00142857 L14.0057143,11.43 L14.0014286,11.43 Z M11.5714286,11.43 L11.5714286,12.4285714 L12.4285714,12.4285714 L12.4285714,11.43 L11.5714286,11.43 Z M11.5714286,13.1742857 L12.4285714,13.1742857 L12.4285714,23.1471429 L11.5714286,23.1471429 L11.5714286,13.17 L11.5714286,13.1742857 Z" id="Shape" fill="#EC0E0E" fill-rule="nonzero"></path>
                    <rect id="Rectangle" x="0" y="0" width="24" height="24"></rect>
                </g>
            </g>
        </g>
    </g>
</svg>