<?xml version="1.0" encoding="UTF-8"?>
<svg width="24px" height="24px" viewBox="0 0 24 24" version="1.1" xmlns="http://www.w3.org/2000/svg" xmlns:xlink="http://www.w3.org/1999/xlink">
    <title>D76FCB26-5284-4DC5-A96D-CDE17D6E544E</title>
    <g id="Squat-laskuri" stroke="none" stroke-width="1" fill="none" fill-rule="evenodd">
        <g id="colors_and_typography" transform="translate(-1058.000000, -914.000000)">
            <g id="turvalaite_ikonit" transform="translate(722.000000, 914.000000)">
                <g id="kardinaali_etelä" transform="translate(336.000000, 0.000000)">
                    <path d="M8.43,23.1428571 L15.5742857,23.1428571 L15.5742857,24 L8.43,24 L8.43,23.1428571 Z M10.0028571,5.00142857 L14.0014286,5.00142857 L12,8.43 L9.99857143,5.00142857 L10.0028571,5.00142857 Z M10.0028571,8.43 L14.0014286,8.43 L12,11.8585714 L9.99857143,8.43 L10.0028571,8.43 Z M11.5757143,11.1171429 L11.5757143,11.8885714 L12.0042857,11.8885714 L11.5757143,11.1171429 Z M11.5757143,11.1171429 L11.5757143,11.8885714 L12.0042857,11.8885714 L11.5757143,11.1171429 Z M11.5757143,11.9185714 L12.4328571,11.9185714 L12.4328571,23.1171429 L11.5757143,23.1171429 L11.5757143,11.9142857 L11.5757143,11.9185714 Z M12.4328571,11.1471429 L12.4328571,11.8885714 L12.0042857,11.8885714 L12.4328571,11.1471429 Z" id="Shape" fill="#231F20" fill-rule="nonzero"></path>
                    <rect id="Rectangle" x="0" y="0" width="24" height="24"></rect>
                </g>
            </g>
        </g>
    </g>
</svg>