<svg width="32" height="32" viewBox="0 0 32 32" xmlns="http://www.w3.org/2000/svg">
  <g fill="none" fill-rule="evenodd">
    <path d="M16 4.18857143c1.8285714 0 3.3942857.65142857 4.7028571 1.96 1.3085715 1.30857143 1.96 2.87428571 1.96 4.70285717 0 1.8285714-.6514285 3.4-1.96 4.7028571-1.3085714 1.3085714-2.8742857 1.96-4.7028571 1.96s-3.3942857-.6514286-4.7028571-1.96C9.98857143 14.2457143 9.33714286 12.68 9.33714286 10.8514286c0-1.82857146.65142857-3.39428574 1.96000004-4.70285717 1.3085714-1.30857143 2.8742857-1.96 4.7028571-1.96Zm0 .95428571c-1.6 0-2.9542857.56-4.0571429 1.67428572C10.84 7.93714286 10.2857143 9.28 10.2857143 10.8571429c0 1.5771428.5542857 2.92 1.6571428 4.04C13.0457143 16.0171429 14.4 16.5714286 16 16.5714286c1.6 0 2.92-.56 4.04-1.6742857 1.12-1.12 1.6742857-2.4628572 1.6742857-4.04 0-1.5771429-.56-2.92000004-1.6742857-4.04000004-1.12-1.12-2.4628571-1.67428572-4.04-1.67428572ZM11.24 30.8571429h9.5257143V32H11.24v-1.1428571Zm7.4285714-20.1885715h-5.3314285l2.6685714-4.57142854 2.6685714 4.57142854h-.0057143ZM13.3371429 11.24h5.3314285L16 15.8114286 13.3314286 11.24h.0057143Zm2.0971428-.5714286V11.24h1.1428572v-.5714286h-1.1428572Zm0 4.1885715v.9142857h.5714286l-.5714286-.9142857Zm0 0v.9142857h.5714286l-.5714286-.9142857Zm0 .9542857h1.1428572v.76h-1.1428572v-.76Zm0 1.7142857v13.3314286h1.1428572V17.5257143h-1.1428572Zm1.1428572-2.6685714v.9142857h-.5714286l.5714286-.9142857Z" fill="#EC0E0E" fill-rule="nonzero"/>
    <path d="M0 0h32v32H0z"/>
  </g>
</svg>
