<?xml version="1.0" encoding="UTF-8"?>
<svg width="32px" height="32px" viewBox="0 0 32 32" version="1.1" xmlns="http://www.w3.org/2000/svg" xmlns:xlink="http://www.w3.org/1999/xlink">
    <title>CA003F24-457A-4909-B8BD-3D294204E391</title>
    <g id="Squat-laskuri" stroke="none" stroke-width="1" fill="none" fill-rule="evenodd">
        <g id="colors_and_typography" transform="translate(-1198.000000, -906.000000)">
            <g id="turvalaite_ikonit" transform="translate(718.000000, 906.000000)">
                <g id="kardinaali_itä_valaistu" transform="translate(480.000000, 0.000000)">
                    <path d="M16,4.18857143 C17.8285714,4.18857143 19.3942857,4.84 20.7028571,6.14857143 C22.0114286,7.45714286 22.6628571,9.02285714 22.6628571,10.8514286 C22.6628571,12.68 22.0114286,14.2514286 20.7028571,15.5542857 C19.3942857,16.8628571 17.8285714,17.5142857 16,17.5142857 C14.1714286,17.5142857 12.6057143,16.8628571 11.2971429,15.5542857 C9.98857143,14.2457143 9.33714286,12.68 9.33714286,10.8514286 C9.33714286,9.02285714 9.98857143,7.45714286 11.2971429,6.14857143 C12.6057143,4.84 14.1714286,4.18857143 16,4.18857143 L16,4.18857143 Z M16,5.14285714 C14.4,5.14285714 13.0457143,5.70285714 11.9428571,6.81714286 C10.84,7.93714286 10.2857143,9.28 10.2857143,10.8571429 C10.2857143,12.4342857 10.84,13.7771429 11.9428571,14.8971429 C13.0457143,16.0171429 14.4,16.5714286 16,16.5714286 C17.6,16.5714286 18.92,16.0114286 20.04,14.8971429 C21.16,13.7771429 21.7142857,12.4342857 21.7142857,10.8571429 C21.7142857,9.28 21.1542857,7.93714286 20.04,6.81714286 C18.92,5.69714286 17.5771429,5.14285714 16,5.14285714 Z M11.24,30.8571429 L20.7657143,30.8571429 L20.7657143,32 L11.24,32 L11.24,30.8571429 Z M18.6685714,10.6685714 L13.3371429,10.6685714 L16.0057143,6.09714286 L18.6742857,10.6685714 L18.6685714,10.6685714 Z M13.3371429,11.24 L18.6685714,11.24 L16,15.8114286 L13.3314286,11.24 L13.3371429,11.24 Z M15.4342857,10.6685714 L15.4342857,11.24 L16.5771429,11.24 L16.5771429,10.6685714 L15.4342857,10.6685714 Z M15.4342857,14.8571429 L15.4342857,15.7714286 L16.0057143,15.7714286 L15.4342857,14.8571429 Z M15.4342857,14.8571429 L15.4342857,15.7714286 L16.0057143,15.7714286 L15.4342857,14.8571429 Z M15.4342857,15.8114286 L16.5771429,15.8114286 L16.5771429,16.5714286 L15.4342857,16.5714286 L15.4342857,15.8114286 Z M15.4342857,17.5257143 L15.4342857,30.8571429 L16.5771429,30.8571429 L16.5771429,17.5257143 L15.4342857,17.5257143 Z M16.5771429,14.8571429 L16.5771429,15.7714286 L16.0057143,15.7714286 L16.5771429,14.8571429 Z" id="Shape" fill="#231F20" fill-rule="nonzero"></path>
                    <rect id="Rectangle" x="0" y="0" width="32" height="32"></rect>
                </g>
            </g>
        </g>
    </g>
</svg>