<?xml version="1.0" encoding="UTF-8"?>
<svg width="24px" height="24px" viewBox="0 0 24 24" version="1.1" xmlns="http://www.w3.org/2000/svg" xmlns:xlink="http://www.w3.org/1999/xlink">
    <title>A3233D16-A5B3-4B62-B0C5-4F6D920DE354</title>
    <g id="Squat-laskuri" stroke="none" stroke-width="1" fill="none" fill-rule="evenodd">
        <g id="colors_and_typography" transform="translate(-1250.000000, -914.000000)">
            <g id="turvalaite_ikonit" transform="translate(722.000000, 914.000000)">
                <g id="kardinaali_itä" transform="translate(528.000000, 0.000000)">
                    <path d="M8.43,23.1428571 L15.5742857,23.1428571 L15.5742857,24 L8.43,24 L8.43,23.1428571 Z M14.0014286,8.00142857 L10.0028571,8.00142857 L12.0042857,4.57285714 L14.0057143,8.00142857 L14.0014286,8.00142857 Z M10.0028571,8.43 L14.0014286,8.43 L12,11.8585714 L9.99857143,8.43 L10.0028571,8.43 Z M11.5757143,8.00142857 L11.5757143,8.43 L12.4328571,8.43 L12.4328571,8.00142857 L11.5757143,8.00142857 Z M11.5757143,11.1428571 L11.5757143,11.8285714 L12.0042857,11.8285714 L11.5757143,11.1428571 Z M11.5757143,11.1428571 L11.5757143,11.8285714 L12.0042857,11.8285714 L11.5757143,11.1428571 Z M11.5757143,11.8285714 L12.4328571,11.8285714 L12.4328571,23.1428571 L11.5757143,23.1428571 L11.5757143,11.8285714 Z M12.4328571,11.1428571 L12.4328571,11.8285714 L12.0042857,11.8285714 L12.4328571,11.1428571 Z" id="Shape" fill="#EC0E0E" fill-rule="nonzero"></path>
                    <rect id="Rectangle" x="0" y="0" width="24" height="24"></rect>
                </g>
            </g>
        </g>
    </g>
</svg>