<?xml version="1.0" encoding="UTF-8"?>
<svg width="32px" height="32px" viewBox="0 0 32 32" version="1.1" xmlns="http://www.w3.org/2000/svg" xmlns:xlink="http://www.w3.org/1999/xlink">
    <title>A3233D16-A5B3-4B62-B0C5-4F6D920DE354</title>
    <g id="Squat-laskuri" stroke="none" stroke-width="1" fill="none" fill-rule="evenodd">
        <g id="colors_and_typography" transform="translate(-1246.000000, -906.000000)">
            <g id="turvalaite_ikonit" transform="translate(718.000000, 906.000000)">
                <g id="kardinaali_itä" transform="translate(528.000000, 0.000000)">
                    <path d="M11.24,30.8571429 L20.7657143,30.8571429 L20.7657143,32 L11.24,32 L11.24,30.8571429 Z M18.6685714,10.6685714 L13.3371429,10.6685714 L16.0057143,6.09714286 L18.6742857,10.6685714 L18.6685714,10.6685714 Z M13.3371429,11.24 L18.6685714,11.24 L16,15.8114286 L13.3314286,11.24 L13.3371429,11.24 Z M15.4342857,10.6685714 L15.4342857,11.24 L16.5771429,11.24 L16.5771429,10.6685714 L15.4342857,10.6685714 Z M15.4342857,14.8571429 L15.4342857,15.7714286 L16.0057143,15.7714286 L15.4342857,14.8571429 Z M15.4342857,14.8571429 L15.4342857,15.7714286 L16.0057143,15.7714286 L15.4342857,14.8571429 Z M15.4342857,15.7714286 L16.5771429,15.7714286 L16.5771429,30.8571429 L15.4342857,30.8571429 L15.4342857,15.7714286 Z M16.5771429,14.8571429 L16.5771429,15.7714286 L16.0057143,15.7714286 L16.5771429,14.8571429 Z" id="Shape" fill="#231F20" fill-rule="nonzero"></path>
                    <rect id="Rectangle" x="0" y="0" width="32" height="32"></rect>
                </g>
            </g>
        </g>
    </g>
</svg>