<?xml version="1.0" encoding="UTF-8"?>
<svg width="24px" height="24px" viewBox="0 0 24 24" version="1.1" xmlns="http://www.w3.org/2000/svg" xmlns:xlink="http://www.w3.org/1999/xlink">
    <title>31390F22-F45C-4834-9735-865AEEFFD35E</title>
    <g id="Squat-laskuri" stroke="none" stroke-width="1" fill="none" fill-rule="evenodd">
        <g id="colors_and_typography" transform="translate(-770.000000, -962.000000)">
            <g id="turvalaite_ikonit" transform="translate(722.000000, 914.000000)">
                <g id="karimerkki" transform="translate(48.000000, 48.000000)">
                    <path style="fill: red;" d="M8.43,23.1428571 L15.5742857,23.1428571 L15.5742857,24 L8.43,24 L8.43,23.1428571 Z M12,4.57285714 C12.4585714,4.57285714 12.8571429,4.74428571 13.2,5.08714286 C13.5428571,5.43 13.7142857,5.82857143 13.7142857,6.28714286 C13.7142857,6.74571429 13.5428571,7.17 13.2,7.5 C12.8571429,7.83428571 12.4585714,8.00142857 12,8.00142857 C11.5414286,8.00142857 11.1171429,7.83428571 10.7871429,7.5 C10.4528571,7.16571429 10.2857143,6.76285714 10.2857143,6.28714286 C10.2857143,5.81142857 10.4528571,5.43 10.7871429,5.08714286 C11.1214286,4.74428571 11.5242857,4.57285714 12,4.57285714 L12,4.57285714 Z M12,8.28857143 C11.5242857,8.28857143 11.1171429,8.46 10.7871429,8.80285714 C10.4528571,9.14571429 10.2857143,9.54428571 10.2857143,10.0028571 C10.2857143,10.4614286 10.4528571,10.8857143 10.7871429,11.2157143 C11.1214286,11.55 11.5242857,11.7171429 12,11.7171429 C12.4757143,11.7171429 12.8571429,11.55 13.2,11.2157143 C13.5428571,10.8814286 13.7142857,10.4785714 13.7142857,10.0028571 C13.7142857,9.52714286 13.5428571,9.14571429 13.2,8.80285714 C12.8571429,8.46 12.4585714,8.28857143 12,8.28857143 L12,8.28857143 Z M11.5714286,8.00142857 L12.4285714,8.00142857 L12.4285714,8.28857143 L11.5714286,8.28857143 L11.5714286,8.00142857 Z M11.5714286,11.7171429 L12.4285714,11.7171429 L12.4285714,23.1471429 L11.5714286,23.1471429 L11.5714286,11.7128571 L11.5714286,11.7171429 Z" id="Shape"></path>
                    <rect id="Rectangle" x="0" y="0" width="24" height="24"></rect>
                </g>
            </g>
        </g>
    </g>
</svg>