<?xml version="1.0" encoding="UTF-8"?>
<svg width="24px" height="24px" viewBox="0 0 24 24" version="1.1" xmlns="http://www.w3.org/2000/svg" xmlns:xlink="http://www.w3.org/1999/xlink">
    <title>0CA24185-A085-45BF-9DC0-CE186512239F</title>
    <g id="Squat-laskuri" stroke="none" stroke-width="1" fill="none" fill-rule="evenodd">
        <g id="colors_and_typography" transform="translate(-818.000000, -962.000000)">
            <g id="turvalaite_ikonit" transform="translate(722.000000, 914.000000)">
                <g id="turvavesimerkki_valaistu" transform="translate(96.000000, 48.000000)">
                    <path d="M12,3.14142857 C13.3714286,3.14142857 14.5457143,3.63 15.5271429,4.61142857 C16.5085714,5.59285714 16.9971429,6.76714286 16.9971429,8.13857143 C16.9971429,9.51 16.5042857,10.71 15.5271429,11.6828571 C14.5457143,12.6557143 13.3714286,13.14 12,13.14 C10.6285714,13.14 9.45428571,12.6557143 8.47285714,11.6828571 C7.49142857,10.71 7.00285714,9.53142857 7.00285714,8.13857143 C7.00285714,6.74571429 7.49142857,5.59285714 8.47285714,4.61142857 C9.45428571,3.63 10.6285714,3.14142857 12,3.14142857 L12,3.14142857 Z M12,3.85714286 C10.8,3.85714286 9.78428571,4.28142857 8.95714286,5.13 C8.13,5.97857143 7.71428571,6.98142857 7.71428571,8.14285714 C7.71428571,9.30428571 8.13,10.3585714 8.95714286,11.1857143 C9.78428571,12.0128571 10.8,12.4285714 12,12.4285714 C13.2,12.4285714 14.19,12.0128571 15.03,11.1857143 C15.87,10.3585714 16.2857143,9.34285714 16.2857143,8.14285714 C16.2857143,6.94285714 15.8657143,5.97857143 15.03,5.13 C14.19,4.28142857 13.1828571,3.85714286 12,3.85714286 Z M8.43,23.1428571 L15.5742857,23.1428571 L15.5742857,24 L8.43,24 L8.43,23.1428571 Z M12,5.65714286 C12.6857143,5.65714286 13.2728571,5.90142857 13.7571429,6.38571429 C14.2414286,6.87 14.4857143,7.45714286 14.4857143,8.14285714 C14.4857143,8.82857143 14.2414286,9.42 13.7571429,9.91285714 C13.2728571,10.41 12.6857143,10.6542857 12,10.6542857 C11.3142857,10.6542857 10.7271429,10.4057143 10.2428571,9.91285714 C9.75857143,9.41571429 9.51428571,8.82857143 9.51428571,8.14285714 C9.51428571,7.45714286 9.75857143,6.87 10.2428571,6.38571429 C10.7271429,5.90142857 11.3142857,5.65714286 12,5.65714286 Z M11.5714286,10.6285714 L11.5714286,12.4285714 L12.4285714,12.4285714 L12.4285714,10.6285714 L11.5714286,10.6285714 Z M11.5714286,13.2 L12.4285714,13.2 L12.4285714,23.1728571 L11.5714286,23.1728571 L11.5714286,13.2 Z" id="Shape" fill="#231F20" fill-rule="nonzero"></path>
                    <rect id="Rectangle" x="0" y="0" width="24" height="24"></rect>
                </g>
            </g>
        </g>
    </g>
</svg>