<?xml version="1.0" encoding="UTF-8"?>
<svg width="32px" height="32px" viewBox="0 0 32 32" version="1.1" xmlns="http://www.w3.org/2000/svg" xmlns:xlink="http://www.w3.org/1999/xlink">
    <title>9561B5DB-953B-421F-A1DB-5AF7874BAC55</title>
    <g id="Squat-laskuri" stroke="none" stroke-width="1" fill="none" fill-rule="evenodd">
        <g id="colors_and_typography" transform="translate(-862.000000, -954.000000)">
            <g id="turvalaite_ikonit" transform="translate(718.000000, 906.000000)">
                <g id="turvavesimerkki" transform="translate(144.000000, 48.000000)">
                    <path d="M11.24,30.8571429 L20.7657143,30.8571429 L20.7657143,32 L11.24,32 L11.24,30.8571429 Z M16,7.54285714 C16.9142857,7.54285714 17.6971429,7.86857143 18.3428571,8.51428571 C18.9885714,9.16 19.3142857,9.94285714 19.3142857,10.8571429 C19.3142857,11.7714286 18.9885714,12.56 18.3428571,13.2171429 C17.6971429,13.88 16.9142857,14.2057143 16,14.2057143 C15.0857143,14.2057143 14.3028571,13.8742857 13.6571429,13.2171429 C13.0114286,12.5542857 12.6857143,11.7714286 12.6857143,10.8571429 C12.6857143,9.94285714 13.0114286,9.16 13.6571429,8.51428571 C14.3028571,7.86857143 15.0857143,7.54285714 16,7.54285714 L16,7.54285714 Z M15.4285714,14.1714286 L15.4285714,30.8971429 L16.5714286,30.8971429 L16.5714286,14.1714286 L15.4285714,14.1714286 Z" id="Shape" fill="#231F20" fill-rule="nonzero"></path>
                    <rect id="Rectangle" x="0" y="0" width="32" height="32"></rect>
                </g>
            </g>
        </g>
    </g>
</svg>