<?xml version="1.0" encoding="UTF-8"?>
<svg width="24px" height="24px" viewBox="0 0 24 24" version="1.1" xmlns="http://www.w3.org/2000/svg" xmlns:xlink="http://www.w3.org/1999/xlink">
    <title>9561B5DB-953B-421F-A1DB-5AF7874BAC55</title>
    <g id="Squat-laskuri" stroke="none" stroke-width="1" fill="none" fill-rule="evenodd">
        <g id="colors_and_typography" transform="translate(-866.000000, -962.000000)">
            <g id="turvalaite_ikonit" transform="translate(722.000000, 914.000000)">
                <g id="turvavesimerkki" transform="translate(144.000000, 48.000000)">
                    <path style="fill: red;" d="M8.43,23.1428571 L15.5742857,23.1428571 L15.5742857,24 L8.43,24 L8.43,23.1428571 Z M12,5.65714286 C12.6857143,5.65714286 13.2728571,5.90142857 13.7571429,6.38571429 C14.2414286,6.87 14.4857143,7.45714286 14.4857143,8.14285714 C14.4857143,8.82857143 14.2414286,9.42 13.7571429,9.91285714 C13.2728571,10.41 12.6857143,10.6542857 12,10.6542857 C11.3142857,10.6542857 10.7271429,10.4057143 10.2428571,9.91285714 C9.75857143,9.41571429 9.51428571,8.82857143 9.51428571,8.14285714 C9.51428571,7.45714286 9.75857143,6.87 10.2428571,6.38571429 C10.7271429,5.90142857 11.3142857,5.65714286 12,5.65714286 L12,5.65714286 Z M11.5714286,10.6285714 L11.5714286,23.1728571 L12.4285714,23.1728571 L12.4285714,10.6285714 L11.5714286,10.6285714 Z" id="Shape"></path>
                    <rect id="Rectangle" x="0" y="0" width="24" height="24"></rect>
                </g>
            </g>
        </g>
    </g>
</svg>