<svg width="32" height="32" viewBox="0 0 32 32" xmlns="http://www.w3.org/2000/svg">
  <g fill="none" fill-rule="evenodd">
    <path d="M11.24 30.8571429h9.5257143V32H11.24v-1.1428571ZM16 7.54285714c.9142857 0 1.6971429.32571429 2.3428571.97142857.6457143.64571429.9714286 1.42857143.9714286 2.34285719 0 .9142857-.3257143 1.7028571-.9714286 2.36-.6457142.6628571-1.4285714.9885714-2.3428571.9885714-.9142857 0-1.6971429-.3314286-2.3428571-.9885714-.6457143-.6628572-.9714286-1.4457143-.9714286-2.36 0-.91428576.3257143-1.6971429.9714286-2.34285719.6457142-.64571428 1.4285714-.97142857 2.3428571-.97142857Zm-.5714286 6.62857146v16.7257143h1.1428572V14.1714286h-1.1428572Z" fill="#EC0E0E" fill-rule="nonzero"/>
    <path d="M0 0h32v32H0z"/>
  </g>
</svg>
