<svg width="32" height="32" viewBox="0 0 32 32" xmlns="http://www.w3.org/2000/svg">
  <g fill="none" fill-rule="evenodd">
    <path d="M0 0h32v32H0z"/>
    <path d="M14.7466667 23.8533333H12.2v-.72c0-.4.1733333-.84.5333333-1.2933333.28-.36.7333334-.6666667 1.3733334-.9066667.6133333-.2266666 1.24-.3466666 1.9066666-.3466666.6666667 0 1.2933334.12 1.9066667.3466666.6133333.2533334 1.08.56 1.4133333.9066667.3333334.4533333.4933334.8933333.4933334 1.2933333 0 .8666667-.5466667 1.6133334-1.64 2.24-.6133334.36-.92.84-.92 1.4533334V28.2H14.76v-1.2533333C14.76 26.56 14.84 26.2 14.9866667 25.84c.1466666-.3333333.3466666-.6.5733333-.8.1733333-.1733333.3866667-.3466667.6533333-.4933333C16.92 24.2666667 17.28 23.8 17.28 23.1333333c0-.2533333-.0533333-.4666666-.1466667-.6533333-.1333333-.1733333-.28-.3333333-.4533333-.4533333-.2266667-.1333334-.44-.1866667-.6533333-.1866667-.2266667 0-.44.0666667-.6533334.1866667-.2133333.12-.36.28-.4533333.4533333-.1066667.1733333-.1466667.4-.1466667.6533333v.72h-.0266666Zm1.2533333 5.6c.2 0 .4133333.0666667.6533333.1866667.1733334.1333333.3333334.28.4533334.4533333.1066666.1733334.1466666.3866667.1466666.6533334 0 .28-.0533333.4933333-.1466666.6533333-.1333334.2-.28.36-.4533334.4533333C16.48 31.96 16.2666667 32 16 32c-.28 0-.4933333-.0533333-.6533333-.1466667-.2-.1066666-.36-.2533333-.4533334-.4533333-.1066666-.1466667-.1466666-.3733333-.1466666-.6533333 0-.2533334.0533333-.4666667.1466666-.6533334C15 29.92 15.1466667 29.76 15.3466667 29.64S15.76 29.4533333 16 29.4533333Z" fill="#EC0E0E" fill-rule="nonzero"/>
  </g>
</svg>
