<?xml version="1.0" encoding="UTF-8"?>
<svg width="24px" height="24px" viewBox="0 0 24 24" version="1.1" xmlns="http://www.w3.org/2000/svg" xmlns:xlink="http://www.w3.org/1999/xlink">
    <title>5CD74F7C-21BF-41CD-BA4B-777059E2D03B</title>
    <g id="Squat-laskuri" stroke="none" stroke-width="1" fill="none" fill-rule="evenodd">
        <g id="colors_and_typography" transform="translate(-1106.000000, -1106.000000)">
            <g id="turvalaite_ikonit" transform="translate(722.000000, 914.000000)">
                <g id="Asset-60" transform="translate(384.000000, 192.000000)">
                    <rect id="Rectangle" x="0" y="0" width="24" height="24"></rect>
                    <path d="M11.06,17.89 L9.15,17.89 L9.15,17.35 C9.15,17.05 9.28,16.72 9.55,16.38 C9.76,16.11 10.1,15.88 10.58,15.7 C11.04,15.53 11.51,15.44 12.01,15.44 C12.51,15.44 12.98,15.53 13.44,15.7 C13.9,15.89 14.25,16.12 14.5,16.38 C14.75,16.72 14.87,17.05 14.87,17.35 C14.87,18 14.46,18.56 13.64,19.03 C13.18,19.3 12.95,19.66 12.95,20.12 L12.95,21.15 L11.07,21.15 L11.07,20.21 C11.07,19.92 11.13,19.65 11.24,19.38 C11.35,19.13 11.5,18.93 11.67,18.78 C11.8,18.65 11.96,18.52 12.16,18.41 C12.69,18.2 12.96,17.85 12.96,17.35 C12.96,17.16 12.92,17 12.85,16.86 C12.75,16.73 12.64,16.61 12.51,16.52 C12.34,16.42 12.18,16.38 12.02,16.38 C11.85,16.38 11.69,16.43 11.53,16.52 C11.37,16.61 11.26,16.73 11.19,16.86 C11.11,16.99 11.08,17.16 11.08,17.35 L11.08,17.89 L11.06,17.89 Z M12,22.09 C12.15,22.09 12.31,22.14 12.49,22.23 C12.62,22.33 12.74,22.44 12.83,22.57 C12.91,22.7 12.94,22.86 12.94,23.06 C12.94,23.27 12.9,23.43 12.83,23.55 C12.73,23.7 12.62,23.82 12.49,23.89 C12.36,23.97 12.2,24 12,24 C11.79,24 11.63,23.96 11.51,23.89 C11.36,23.81 11.24,23.7 11.17,23.55 C11.09,23.44 11.06,23.27 11.06,23.06 C11.06,22.87 11.1,22.71 11.17,22.57 C11.25,22.44 11.36,22.32 11.51,22.23 C11.66,22.14 11.82,22.09 12,22.09 Z" id="Shape" fill="#EC0E0E" fill-rule="nonzero"></path>
                </g>
            </g>
        </g>
    </g>
</svg>