<?xml version="1.0" encoding="UTF-8"?>
<svg width="24px" height="24px" viewBox="0 0 24 24" version="1.1" xmlns="http://www.w3.org/2000/svg" xmlns:xlink="http://www.w3.org/1999/xlink">
    <title>5EB24D11-D965-4B3D-85A9-E19AE98F4A9E</title>
    <g id="Squat-laskuri" stroke="none" stroke-width="1" fill="none" fill-rule="evenodd">
        <g id="colors_and_typography" transform="translate(-962.000000, -962.000000)">
            <g id="turvalaite_ikonit" transform="translate(722.000000, 914.000000)">
                <g id="erikoisemerkki" transform="translate(240.000000, 48.000000)">
                    <path style="fill: red;" d="M8.43,23.1428571 L15.5742857,23.1428571 L15.5742857,24 L8.43,24 L8.43,23.1428571 Z M10.0885714,5.43 L14.7171429,10.0585714 L13.9157143,10.86 L9.28714286,6.23142857 L10.0885714,5.43 L10.0885714,5.43 Z M14.7171429,6.23142857 L10.0885714,10.86 L9.28714286,10.0585714 L13.9157143,5.43 L14.7171429,6.23142857 L14.7171429,6.23142857 Z M11.5457143,9.40285714 L12.4585714,9.40285714 L12,8.94428571 L11.5414286,9.40285714 L11.5457143,9.40285714 Z M11.5757143,9.40285714 L12.4328571,9.40285714 L12.4328571,23.1428571 L11.5757143,23.1428571 L11.5757143,9.39857143 L11.5757143,9.40285714 Z" id="Shape"></path>
                    <rect id="Rectangle" x="0" y="0" width="24" height="24"></rect>
                </g>
            </g>
        </g>
    </g>
</svg>