<?xml version="1.0" encoding="UTF-8"?>
<svg width="32px" height="32px" viewBox="0 0 32 32" version="1.1" xmlns="http://www.w3.org/2000/svg" xmlns:xlink="http://www.w3.org/1999/xlink">
    <title>E58CEE4B-0B8F-4171-9200-D65AB43144E4</title>
    <g id="Squat-laskuri" stroke="none" stroke-width="1" fill="none" fill-rule="evenodd">
        <g id="colors_and_typography" transform="translate(-1054.000000, -954.000000)">
            <g id="turvalaite_ikonit" transform="translate(718.000000, 906.000000)">
                <g id="Asset-24" transform="translate(336.000000, 48.000000)">
                    <path d="M16,11.8857143 C17.12,11.8857143 18.08,12.2914286 18.8971429,13.1028571 C19.7085714,13.9142857 20.1142857,14.88 20.1142857,16 C20.1142857,17.12 19.7085714,18.1142857 18.8971429,18.9142857 C18.0857143,19.7142857 17.12,20.1142857 16,20.1142857 C14.88,20.1142857 13.8857143,19.7142857 13.0857143,18.9142857 C12.2857143,18.1142857 11.8857143,17.1428571 11.8857143,16 C11.8857143,14.8571429 12.2857143,13.92 13.0857143,13.1028571 C13.8857143,12.2914286 14.8571429,11.8857143 16,11.8857143 Z" id="Path" fill="#231F20" fill-rule="nonzero"></path>
                    <rect id="Rectangle" x="0" y="0" width="32" height="32"></rect>
                </g>
            </g>
        </g>
    </g>
</svg>