<?xml version="1.0" encoding="UTF-8"?>
<svg width="24px" height="24px" viewBox="0 0 24 24" version="1.1" xmlns="http://www.w3.org/2000/svg" xmlns:xlink="http://www.w3.org/1999/xlink">
    <title>E58CEE4B-0B8F-4171-9200-D65AB43144E4</title>
    <g id="Squat-laskuri" stroke="none" stroke-width="1" fill="none" fill-rule="evenodd">
        <g id="colors_and_typography" transform="translate(-1058.000000, -962.000000)">
            <g id="turvalaite_ikonit" transform="translate(722.000000, 914.000000)">
                <g id="Asset-24" transform="translate(336.000000, 48.000000)">
                    <path d="M12,8.91428571 C12.84,8.91428571 13.56,9.21857143 14.1728571,9.82714286 C14.7814286,10.4357143 15.0857143,11.16 15.0857143,12 C15.0857143,12.84 14.7814286,13.5857143 14.1728571,14.1857143 C13.5642857,14.7857143 12.84,15.0857143 12,15.0857143 C11.16,15.0857143 10.4142857,14.7857143 9.81428571,14.1857143 C9.21428571,13.5857143 8.91428571,12.8571429 8.91428571,12 C8.91428571,11.1428571 9.21428571,10.44 9.81428571,9.82714286 C10.4142857,9.21857143 11.1428571,8.91428571 12,8.91428571 Z" id="Path" fill="#EC0E0E" fill-rule="nonzero"></path>
                    <rect id="Rectangle" x="0" y="0" width="24" height="24"></rect>
                </g>
            </g>
        </g>
    </g>
</svg>