<?xml version="1.0" encoding="UTF-8"?>
<svg width="24px" height="24px" viewBox="0 0 24 24" version="1.1" xmlns="http://www.w3.org/2000/svg" xmlns:xlink="http://www.w3.org/1999/xlink">
    <title>34F963DC-6ED7-4C8E-8AAD-B7349891551F</title>
    <g id="Squat-laskuri" stroke="none" stroke-width="1" fill="none" fill-rule="evenodd">
        <g id="colors_and_typography" transform="translate(-1106.000000, -962.000000)">
            <g id="turvalaite_ikonit" transform="translate(722.000000, 914.000000)">
                <g id="tutkamerkki" transform="translate(384.000000, 48.000000)">
                    <path d="M3.98571429,4.27285714 L4.53,3.75857143 L7.90285714,7.10142857 L9.13285714,6.04285714 L7.41857143,1.98428571 L8.01857143,1.64142857 L10.02,5.64 L10.7914286,5.35285714 L11.5328571,5.23714286 L11.6185714,1.06714286 L12.36,1.09714286 L12.4457143,5.21142857 L13.3328571,5.38285714 L14.0742857,5.61 L15.93,1.69714286 L16.56,2.12571429 L14.8457143,6.03857143 L15.0471429,6.09428571 L15.5314286,6.49285714 L16.1614286,7.09285714 L19.4485714,3.78 L20.0185714,4.35 L16.0757143,8.23714286 L15.7885714,8.01 L15.5014286,7.66714286 L15.1585714,7.32428571 L14.73,6.98142857 L14.2714286,6.69428571 L13.7271429,6.43714286 L13.3285714,6.29571429 L12.9,6.12428571 L12.3857143,6.00857143 L11.8714286,6.00857143 L11.3271429,6.06428571 L10.7271429,6.20571429 L10.2428571,6.37714286 L9.78428571,6.63428571 L9.32571429,6.89142857 L8.92714286,7.23428571 L8.44285714,7.74857143 L7.92857143,8.29285714 L3.98571429,4.27285714 Z M11.9871429,19.53 C12.4457143,19.53 12.8442857,19.6971429 13.1871429,20.0314286 C13.53,20.3657143 13.7014286,20.76 13.7014286,21.2185714 C13.7014286,21.6771429 13.53,22.1014286 13.1871429,22.4314286 C12.8442857,22.7657143 12.4457143,22.9328571 11.9871429,22.9328571 C11.5285714,22.9328571 11.1042857,22.7657143 10.7742857,22.4314286 C10.44,22.0971429 10.2728571,21.6942857 10.2728571,21.2185714 C10.2728571,20.7428571 10.44,20.3657143 10.7742857,20.0314286 C11.1085714,19.6971429 11.5114286,19.53 11.9871429,19.53 Z M11.9871429,20.0742857 C11.2242857,20.0742857 10.8428571,20.4557143 10.8428571,21.2185714 C10.8428571,21.9814286 11.2242857,22.3628571 11.9871429,22.3628571 C12.75,22.3628571 13.1314286,21.9814286 13.1314286,21.2185714 C13.1314286,20.4557143 12.75,20.0742857 11.9871429,20.0742857 Z M11.5585714,7.07571429 L12.4157143,7.07571429 L12.4157143,19.5042857 L11.5585714,19.5042857 L11.5585714,7.07142857 L11.5585714,7.07571429 Z M11.9871429,20.9314286 C12.1757143,20.9314286 12.2742857,21.0257143 12.2742857,21.2185714 C12.2742857,21.4114286 12.18,21.5057143 11.9871429,21.5057143 C11.7942857,21.5057143 11.7,21.4114286 11.7,21.2185714 C11.7,21.0257143 11.7942857,20.9314286 11.9871429,20.9314286 Z" id="Shape" fill="#231F20" fill-rule="nonzero"></path>
                    <rect id="Rectangle" x="0" y="0" width="24" height="24"></rect>
                </g>
            </g>
        </g>
    </g>
</svg>