<?xml version="1.0" encoding="UTF-8"?>
<svg width="31px" height="31px" viewBox="0 0 31 31" version="1.1" xmlns="http://www.w3.org/2000/svg" xmlns:xlink="http://www.w3.org/1999/xlink">
    <title>DD921FDD-963A-44F8-9AA3-B8E3EE43DD43</title>
    <defs>
        <text id="text-1" font-family="Exo2-Regular, Exo 2" font-size="12" font-weight="normal" fill="#FF00FF">
            <tspan x="0.12" y="27.7720374">V-AIS</tspan>
        </text>
        <filter x="-2.1%" y="20.2%" width="102.2%" height="71.9%" filterUnits="objectBoundingBox" id="filter-2">
            <feMorphology radius="0.25" operator="dilate" in="SourceAlpha" result="shadowSpreadOuter1"></feMorphology>
            <feOffset dx="0" dy="0" in="shadowSpreadOuter1" result="shadowOffsetOuter1"></feOffset>
            <feColorMatrix values="0 0 0 0 1   0 0 0 0 1   0 0 0 0 1  0 0 0 0.75 0" type="matrix" in="shadowOffsetOuter1"></feColorMatrix>
        </filter>
        <path d="M23,7.74801648 C23,12.1662945 19.418278,15.7480165 15,15.7480165 C10.581722,15.7480165 7,12.1662945 7,7.74801648 C7,4.02026563 9.54964405,0.888016055 13.0001999,-1.93594618e-13 L13,1.18703739 C13.6666667,0.989594879 14.3333333,0.890873624 15,0.890873624 C15.6666667,0.890873624 16.3333333,0.989594879 17,1.18703739 L17.0009436,0.000294384193 C20.4509192,0.888708112 23,4.02067744 23,7.74801648 Z M15,0.890873624 C14.6101839,0.890873624 14.227965,0.923401234 13.8559095,0.9858903 C10.6134154,1.53048764 8.14285714,4.35073716 8.14285714,7.74801648 C8.14285714,11.5351119 11.2129046,14.6051593 15,14.6051593 C18.7870954,14.6051593 21.8571429,11.5351119 21.8571429,7.74801648 C21.8571429,4.35081228 19.3866939,1.53061236 16.1443056,0.985926431 C15.7721823,0.923413772 15.3898912,0.890873624 15,0.890873624 Z" id="path-3"></path>
        <filter x="-4.7%" y="-5.6%" width="109.4%" height="110.3%" filterUnits="objectBoundingBox" id="filter-4">
            <feMorphology radius="0.25" operator="dilate" in="SourceAlpha" result="shadowSpreadOuter1"></feMorphology>
            <feOffset dx="0" dy="0" in="shadowSpreadOuter1" result="shadowOffsetOuter1"></feOffset>
            <feColorMatrix values="0 0 0 0 1   0 0 0 0 1   0 0 0 0 1  0 0 0 0.75 0" type="matrix" in="shadowOffsetOuter1"></feColorMatrix>
        </filter>
    </defs>
    <g id="Squat-laskuri" stroke="none" stroke-width="1" fill="none" fill-rule="evenodd">
        <g id="colors_and_typography" transform="translate(-1316.000000, -1351.000000)">
            <g id="v-ais_turvalaite-copy" transform="translate(1317.000000, 1352.227963)">
                <g id="V-AIS" fill="#FF00FF" fill-opacity="1">
                    <use filter="url(#filter-2)" xlink:href="#text-1"></use>
                    <use xlink:href="#text-1"></use>
                </g>
                <g id="Oval" fill-rule="nonzero">
                    <use fill="black" fill-opacity="1" filter="url(#filter-4)" xlink:href="#path-3"></use>
                    <use fill="#FF00FF" xlink:href="#path-3"></use>
                </g>
            </g>
        </g>
    </g>
</svg>