<svg width="18" height="18" viewBox="0 0 18 18" xmlns="http://www.w3.org/2000/svg" xmlns:xlink="http://www.w3.org/1999/xlink">
  <defs>
    <filter x="-4.7%" y="-5.6%" width="109.4%" height="110.3%" filterUnits="objectBoundingBox" id="a">
      <feMorphology radius=".25" operator="dilate" in="SourceAlpha" result="shadowSpreadOuter1"/>
      <feOffset in="shadowSpreadOuter1" result="shadowOffsetOuter1"/>
      <feColorMatrix values="0 0 0 0 1 0 0 0 0 1 0 0 0 0 1 0 0 0 0.75 0" in="shadowOffsetOuter1"/>
    </filter>
    <path d="M16 7.74801648c0 4.41827802-3.581722 8.00000002-8 8.00000002s-8-3.581722-8-8.00000002C0 4.02026563 2.54964405.88801605 6.00019992 0L6 1.18703739C6.66666667.98959488 7.33333333.89087362 8 .89087362c.66666667 0 1.33333333.09872126 2 .29616377l.0009436-1.186743C13.4509192.8887081 16 4.02067743 16 7.74801647ZM8 .89087362c-.38981611 0-.77203498.03252761-1.14409048.09501668-3.24249412.54459734-5.71305238 3.36484686-5.71305238 6.76212618 0 3.78709542 3.07004743 6.85714282 6.85714286 6.85714282 3.7870954 0 6.8571429-3.0700474 6.8571429-6.85714282 0-3.3972042-2.470449-6.21740412-5.71283733-6.76209005C8.7721823.92341377 8.38989123.89087363 8 .89087363Z" id="b"/>
  </defs>
  <g transform="translate(1 1.227963)" fill-rule="nonzero" fill="none">
    <use fill="#000" filter="url(#a)" xlink:href="#b"/>
    <use fill="#F0F" xlink:href="#b"/>
  </g>
</svg>
